<svg width="30" height="27" viewBox="0 0 30 27" fill="none" xmlns="http://www.w3.org/2000/svg">
<path d="M14.625 0.25C11.0703 0.25 8.22656 3.14453 8.22656 6.64844C8.22656 9.54297 12.3906 14.7227 13.9648 16.6523C14.3203 17.0078 14.8789 17.0078 15.2344 16.6523C16.8086 14.7227 21.0234 9.54297 21.0234 6.64844C21.0234 3.14453 18.1289 0.25 14.625 0.25ZM14.625 8.78125C13.4062 8.78125 12.4922 7.86719 12.4922 6.64844C12.4922 5.48047 13.4062 4.51562 14.625 4.51562C15.793 4.51562 16.7578 5.48047 16.7578 6.64844C16.7578 7.86719 15.793 8.78125 14.625 8.78125ZM1.01562 11.2188C0.457031 11.4727 0 12.1328 0 12.7422V25.4375C0 26.0469 0.558594 26.4531 1.06641 26.1992L8.125 23V11.168C7.66797 10.3555 7.26172 9.59375 7.00781 8.83203L1.01562 11.2188ZM14.625 18.5312C13.8633 18.5312 13.2031 18.2266 12.7461 17.668C11.7305 16.5 10.6641 15.1797 9.75 13.7578V23L19.5 26.25V13.7578C18.5352 15.1797 17.4688 16.5 16.4531 17.668C15.9961 18.2266 15.3359 18.5312 14.625 18.5312ZM28.1328 8.47656L21.125 11.625V26.25L28.1836 23.457C28.7422 23.2031 29.25 22.543 29.25 21.9336V9.23828C29.25 8.62891 28.6406 8.22266 28.1328 8.47656Z" fill="#F14800"/>
</svg>
