<svg xmlns="http://www.w3.org/2000/svg" width="224.936" height="224.935"><g fill="#ED7B2E"><path fill-rule="evenodd" clip-rule="evenodd" d="M178.066 112.329l4.412-7.684L63.972 36.428l.051-.571c2.532 0 5.109.304 7.589-.059 6.654-.973 12.001 1.325 17.557 4.942 14.58 9.495 29.859 17.781 46.645 22.861 6.721 2.033 13.571 2.965 20.603 2.021.631-.085 1.434.11 1.97.461 19.908 13.027 38.28 27.812 52.241 47.34 3.691 5.163 6.346 11.067 9.453 16.643.256.46.344 1.013.631 1.896-2.748.259-5.314.633-7.889.72-15.52.526-30.582-2.335-45.185-7.187-11.74-3.901-23.175-8.726-34.69-13.28-1.137-.45-2.244-1.71-2.764-2.865-3.67-8.149-9.582-14.479-16.293-20.096-13.65-11.423-28.875-20.414-44.646-28.549-1.233-.637-2.398-1.779-3.118-2.974-2.726-4.529-5.256-9.177-7.578-14.181 39.761 22.882 79.521 45.764 119.517 68.779zM29.987 59.8l14.109-24.663L19.103 20.77c-1.3-.749-2.603-1.494-3.898-2.25-1.954-1.141-3.724-2.07-6.329-1.514C5 17.832 1.445 14.814.691 10.835a7.745 7.745 0 0 1 5.627-8.921c3.817-1.009 7.939 1.029 9.135 4.841.529 1.686 1.473 2.594 2.894 3.402 10.019 5.698 20.009 11.448 30.17 17.273 4.689-8.159 9.32-16.213 14.073-24.481l13.522 7.809C56.761 24.927 46.6 44.137 43.495 67.617L29.987 59.8z"/><path d="M197.373 141.062c-25.549-3.047-49.354-11.783-72.423-22.782-.649-.31-1.448-.914-1.615-1.534-1.953-7.208-6.844-12.397-11.992-17.33-12.447-11.925-27.066-20.703-42.212-28.682-.083-.043-.251.079-.928.312 7.44 18.936 7.418 38.738 7.058 58.564a96.48 96.48 0 0 0-1.5 5.088c-.664 2.537.257 4.709 2.414 6.253a5.819 5.819 0 0 0 6.713.083c2.076-1.409 3.286-3.481 2.599-5.889a203.16 203.16 0 0 0-1.411-4.703c.017-3.477.022-6.916-.066-10.348-.094-3.678 1.779-6.046 4.738-7.536 2.991-1.505 5.494.07 7.687 2.095.752.695 1.492 1.44 2.068 2.28 5.819 8.48 9.286 17.99 9.466 28.139.386 21.852.179 43.716.142 65.577a97.192 97.192 0 0 0-1.496 5.074c-.664 2.536.257 4.709 2.414 6.253a5.819 5.819 0 0 0 6.713.083c2.076-1.409 3.286-3.482 2.599-5.889a196.647 196.647 0 0 0-1.309-4.381c0-21.842-.001-43.684.001-65.525 0-2.937 2.16-4.909 5.028-4.204 1.612.396 3.419 1.196 4.491 2.394 5.12 5.721 9.401 11.88 9.01 20.146-.024.505-.03 1.012-.043 1.517a96.15 96.15 0 0 0-1.47 4.997c-.664 2.536.257 4.709 2.414 6.253a5.819 5.819 0 0 0 6.713.083c2.076-1.409 3.286-3.482 2.599-5.889a205.463 205.463 0 0 0-1.383-4.614c.017-.369.022-.74.048-1.108.085-1.253.724-2.78 1.633-3.611 4.204-3.842 9.964-3.531 14.65 1.152 7.43 7.428 11.5 16.608 11.982 27.075.328 7.137.164 14.295.102 21.449a88.373 88.373 0 0 0-1.106 3.818c-.664 2.536.257 4.709 2.414 6.253a5.819 5.819 0 0 0 6.713.083c2.076-1.409 3.286-3.482 2.599-5.889a212.434 212.434 0 0 0-1.77-5.829c-.001-7.123-.004-14.246.005-21.369.001-.783-.038-1.612.19-2.345 4.384-14.113 10.928-26.967 22.344-36.762 3.554-3.051 7.585-5.543 10.955-7.97-5.568-.237-11.724-.111-17.778-.832zm26.688 47.992c-2.738-9.593-6.002-19.038-9.053-28.543l-.975.075c-1.449 3.825-3.012 7.612-4.32 11.484-1.816 5.376-3.648 10.76-5.083 16.242-1.1 4.203.425 7.803 4 10.362 3.338 2.39 7.705 2.457 11.123.137 3.44-2.333 5.446-5.768 4.308-9.757z"/><path d="M140.057 186.885c-5.54-.075-10.163 4.512-10.136 10.058.026 5.482 4.488 9.904 9.994 9.906 5.563.002 9.941-4.339 9.968-9.882.028-5.52-4.347-10.008-9.826-10.082zm-60.362-30.458c-5.523-.023-10.001 4.354-10.06 9.836-.061 5.576 4.479 10.148 10.049 10.123 5.481-.025 9.907-4.49 9.908-9.994.003-5.546-4.363-9.939-9.897-9.965z"/></g></svg>