<svg xmlns="http://www.w3.org/2000/svg" width="26.833" height="27.539"><path d="M11.107 11.676l-.415 2.327c-.364 2.1-1.408 2.791-3.66 2.791H2.806c-1.823 0-2.779-.628-2.779-2.138 0-.251.038-.542.088-.843l.467-2.678C.996 8.796 2.09 7.966 4.367 7.966h4.189c1.81 0 2.817.364 2.817 1.848 0 .239-.038.516-.089.83H9.196c.012-.075.024-.188.024-.227 0-.503-.402-.716-1.509-.716H4.63c-1.257 0-1.774.39-2 1.698l-.39 2.213c-.037.24-.062.442-.062.617 0 .667.365.829 1.471.829h3.434c1.042 0 1.382-.275 1.496-.903l.163-.932H5.297l.276-1.547h5.534zm1.057 1.827h2.089l-.365 2.088h-2.089l.365-2.088zm.691-3.975h2.086l-.364 2.088h-2.088l.366-2.088zm13.657 2.148l-.415 2.327c-.364 2.1-1.409 2.791-3.659 2.791H18.21c-1.821 0-2.779-.628-2.779-2.138 0-.251.037-.542.089-.843l.465-2.678c.415-2.34 1.51-3.169 3.784-3.169h4.189c1.811 0 2.817.364 2.817 1.848 0 .239-.037.516-.089.83H24.6c.013-.075.026-.188.026-.227 0-.503-.403-.716-1.511-.716h-3.08c-1.259 0-1.775.39-2.001 1.698l-.391 2.213c-.037.239-.063.44-.063.616 0 .667.365.83 1.472.83h3.433c1.043 0 1.382-.275 1.497-.905l.162-.931H20.7l.276-1.548h5.536v.002zM2.541 18.549l-.325 1.85c-.054.312-.278.542-.806.542H.732c-.359 0-.572-.146-.572-.376 0-.023.003-.054.006-.071h.265c0 .004-.003.024-.003.038 0 .104.108.206.362.206h.637c.329 0 .512-.155.542-.318l.068-.393c-.037.067-.203.196-.501.196H.837c-.413 0-.61-.152-.61-.461 0-.047.003-.098.014-.155l.075-.427c.071-.4.329-.631.796-.631h.705c.342 0 .44.159.451.18l.03-.18h.243zm-.356.648a.489.489 0 0 0 .01-.099c0-.206-.135-.345-.447-.345h-.555c-.407 0-.583.142-.637.446l-.064.366a.786.786 0 0 0-.01.112c0 .236.163.342.488.342h.555c.353 0 .549-.196.593-.454l.067-.368zm2.858-.648l-.325 1.85c-.054.312-.278.542-.806.542h-.678c-.359 0-.572-.146-.572-.376 0-.023.003-.054.006-.071h.265c0 .004-.003.024-.003.038 0 .104.108.206.362.206h.637c.329 0 .512-.155.542-.318l.068-.393c-.037.067-.203.196-.501.196h-.699c-.413 0-.61-.152-.61-.461 0-.047.003-.098.014-.155l.075-.427c.071-.4.329-.631.796-.631h.705c.342 0 .44.159.451.18l.03-.18h.243zm-.356.648a.489.489 0 0 0 .01-.099c0-.206-.135-.345-.447-.345h-.555c-.407 0-.583.142-.637.446l-.064.366a.786.786 0 0 0-.01.112c0 .236.163.342.488.342h.555c.353 0 .549-.196.593-.454l.067-.368zm.704.491a.9.9 0 0 0-.023.166c0 .061.003.166.355.166h.857c.309 0 .437-.125.437-.339 0-.122-.084-.203-.288-.203h-.976c-.315 0-.501-.095-.501-.332 0-.305.173-.604.694-.604h.792c.536 0 .657.173.657.339 0 .024-.003.051-.027.19h-.243c.007-.034.024-.126.024-.14 0-.026-.01-.186-.44-.186h-.84c-.261 0-.366.132-.366.349 0 .104.071.18.274.18h.976c.325 0 .515.108.515.346 0 .294-.187.603-.715.603h-.932c-.403 0-.505-.146-.505-.315 0-.03.003-.064.031-.22h.244zm4.341-.055c-.024.14-.146.59-.81.59h-.751c-.403 0-.583-.176-.583-.468 0-.047.003-.098.014-.148l.075-.42c.064-.359.339-.645.813-.645h.731c.525 0 .61.295.61.481 0 .044-.007.081-.01.108h-.244c.003-.021.007-.047.007-.078 0-.125-.058-.308-.4-.308h-.732c-.284 0-.478.142-.532.44-.074.413-.081.46-.081.504 0 .217.166.329.376.329h.742c.42 0 .512-.265.532-.387h.243zm1.896-1.091c.471 0 .63.221.63.502a.751.751 0 0 1-.014.155l-.068.366c-.067.359-.308.657-.85.657h-.667c-.427 0-.633-.173-.633-.494 0-.051.007-.105.017-.163l.067-.365c.067-.358.318-.657.847-.657h.671zm-1.352 1.136c0 .229.149.342.437.342h.633c.305 0 .521-.125.586-.454L12 19.2a.546.546 0 0 0 .01-.104c0-.227-.153-.349-.437-.349h-.637c-.332 0-.521.125-.583.453l-.068.366a.95.95 0 0 0-.009.112zm2.635-.915c.017-.023.139-.214.488-.214h.474c.508 0 .606.288.606.512 0 .051-.007.105-.017.166h-.244c.003-.027.01-.064.01-.108 0-.148-.061-.365-.417-.365h-.434c-.268 0-.495.183-.532.393l-.19 1.077h-.244l.295-1.674h.244l-.039.213zm2.163.641l-.03.162a.788.788 0 0 0-.011.122c0 .247.166.332.396.332h.793c.271 0 .413-.143.446-.332h.244c-.044.244-.227.535-.688.535h-.823c-.42 0-.623-.156-.623-.464 0-.051.007-.102.017-.159l.078-.44c.055-.305.359-.617.82-.617h.704c.427 0 .623.221.623.488a.51.51 0 0 1-.01.102l-.048.271h-1.888zm1.693-.309c0-.221-.139-.349-.383-.349h-.766c-.254 0-.461.179-.508.453h1.646a.472.472 0 0 0 .011-.104zm.592.863h.265l-.048.265h-.264l.047-.265zm2.636-.325c-.023.14-.146.59-.81.59h-.752c-.403 0-.583-.176-.583-.468 0-.047.004-.098.014-.148l.074-.42c.064-.359.339-.645.813-.645h.731c.525 0 .609.295.609.481 0 .044-.006.081-.01.108h-.244a.416.416 0 0 0 .007-.078c0-.125-.058-.308-.399-.308h-.731c-.285 0-.478.142-.532.44-.074.413-.081.46-.081.504 0 .217.166.329.376.329h.742c.42 0 .511-.265.531-.387h.245zm1.895-1.091c.471 0 .63.221.63.502a.825.825 0 0 1-.013.155l-.068.366c-.067.359-.308.657-.85.657h-.668c-.427 0-.633-.173-.633-.494 0-.051.007-.105.017-.163l.067-.366c.068-.358.318-.657.847-.657h.671zm-1.351 1.136c0 .229.149.342.438.342h.633c.306 0 .522-.125.587-.454l.067-.366a.546.546 0 0 0 .01-.104c0-.227-.152-.349-.437-.349H21.2c-.332 0-.521.125-.583.453l-.067.366a.58.58 0 0 0-.011.112zm2.586-.874c.021-.027.177-.255.583-.255h.332c.447 0 .542.184.583.332.061-.111.21-.332.69-.332h.38c.423 0 .633.217.633.488a.542.542 0 0 1-.007.095l-.192 1.091h-.244l.183-1.023c.007-.037.011-.058.011-.104 0-.217-.166-.342-.481-.342h-.251c-.365 0-.606.142-.664.46l-.179 1.01h-.244l.18-1.017a.452.452 0 0 0 .01-.095c0-.24-.193-.358-.471-.358h-.265c-.42 0-.619.243-.653.439l-.18 1.03h-.244l.295-1.674h.244l-.049.255z"/></svg>