<svg xmlns="http://www.w3.org/2000/svg" width="26.833" height="15.061"><path d="M11.107 6.795l-.416 2.333c-.365 2.105-1.411 2.799-3.669 2.799H2.786C.959 11.927 0 11.297 0 9.783c0-.252.038-.542.088-.843l.468-2.688C.971 3.908 2.067 3.076 4.35 3.076h4.199c1.815 0 2.824.366 2.824 1.853 0 .239-.038.516-.089.832H9.19a2.16 2.16 0 0 0 .025-.228c0-.504-.405-.719-1.513-.719H4.615c-1.261 0-1.779.391-2.005 1.703l-.392 2.219c-.038.24-.062.441-.062.619 0 .668.366.832 1.475.832h3.442c1.045 0 1.386-.277 1.5-.908l.163-.933H5.282l.278-1.552 5.547.001zm1.059 1.831h2.094l-.367 2.092H11.8l.366-2.092zm.693-3.984h2.093l-.366 2.093h-2.093l.366-2.093zm13.692 2.153l-.417 2.333c-.365 2.105-1.411 2.799-3.669 2.799H18.23c-1.828 0-2.787-.63-2.787-2.144 0-.253.036-.542.089-.844l.465-2.688c.416-2.344 1.515-3.176 3.796-3.176h4.198c1.816 0 2.824.366 2.824 1.853 0 .239-.037.516-.088.832h-2.093a1.73 1.73 0 0 0 .025-.228c0-.504-.402-.719-1.514-.719h-3.088c-1.262 0-1.779.391-2.006 1.703l-.391 2.219a4.178 4.178 0 0 0-.062.619c0 .669.365.832 1.475.832h3.44c1.047 0 1.387-.277 1.502-.908l.161-.933h-3.452l.277-1.552h5.55v.002z"/></svg>