<svg xmlns="http://www.w3.org/2000/svg" width="26.833" height="15.061"><path d="M11.139 5.107l-.416 2.334c-.366 2.104-1.412 2.797-3.668 2.797H2.818c-1.827 0-2.786-.629-2.786-2.142 0-.253.037-.543.088-.846l.467-2.686c.416-2.343 1.512-3.176 3.794-3.176H8.58c1.815 0 2.824.366 2.824 1.853 0 .239-.038.517-.088.832H9.223c.012-.076.024-.189.024-.228 0-.504-.403-.719-1.512-.719H4.646c-1.26 0-1.778.391-2.004 1.702l-.391 2.22a4.11 4.11 0 0 0-.063.619c0 .668.366.832 1.475.832h3.441c1.045 0 1.386-.278 1.5-.908l.163-.933H5.315l.277-1.552 5.547.001zm1.059 1.831h2.094l-.366 2.093h-2.093l.365-2.093zm.693-3.983h2.092l-.366 2.093h-2.093l.367-2.093zm13.69 2.152l-.416 2.334c-.365 2.104-1.412 2.797-3.668 2.797H18.26c-1.826 0-2.785-.629-2.785-2.142 0-.253.037-.543.088-.846l.466-2.686c.416-2.344 1.515-3.176 3.795-3.176h4.198c1.816 0 2.823.366 2.823 1.853 0 .239-.036.517-.087.832h-2.093c.013-.076.026-.189.026-.228 0-.504-.403-.719-1.515-.719h-3.088c-1.262 0-1.779.391-2.006 1.702l-.392 2.22a4.207 4.207 0 0 0-.063.618c0 .668.365.832 1.475.832h3.441c1.045 0 1.386-.278 1.501-.908l.161-.933h-3.452l.277-1.552 5.551.002z"/><text transform="translate(-.01 13.655)" font-family="'EuropeExt-Italic'" font-size="3.404">ggscore.com</text></svg>