<svg xmlns="http://www.w3.org/2000/svg" width="93.543" height="93.543"><path d="M62.42 74.338h28.355c.694 4.931.525 9.452.138 14.212H3.249c-.915-3.833-1.084-17.972-.246-24.811 4.466-.232 9.064-.069 13.649-.097 4.64-.028 9.281-.006 14.536-.006V48.437h30.72c1.057 4.169.354 8.461.484 12.694.129 4.121.028 8.247.028 13.207z" fill-rule="evenodd" clip-rule="evenodd" fill="#82ac4d"/><path d="M29.174 53.336v6.756H3.039c5.206-3.311 9.064-7.579 15.511-6.824 3.363.393 6.812.068 10.624.068zm35.351 17.66v-5.859c1.035-.146 2.162-.416 3.296-.443 2.752-.067 5.551.282 8.258-.086 5.926-.807 10.111 1.832 13.937 6.389l-25.491-.001zm-3.014-25.998H32.217c2.633-2.992 5.201-4.675 8.96-4.415 3.415.236 6.872.24 10.283-.006 3.874-.278 7 .863 10.051 4.421z" fill-rule="evenodd" clip-rule="evenodd" fill="#e6e5d4"/><path d="M25.549 49.258H13.716c.5-4.692 5.371-5.732 7.053-9.313-.906-1.204-1.884-1.548-2.894-.315-1.344 1.64-2.586 1.103-3.937.151 1.325-3.134 2.667-4.122 5.488-3.996 1.983.086 3.756.673 4.597 2.67.911 2.167-.037 3.943-3.964 7.427 1.181.174 2.212.091 2.978.503.728.392 1.182 1.296 2.512 2.873zm23.309-30.983v17.276l-4.252.233V24.528c-1.73.395-2.986.682-4.642 1.063 0-1.113-.23-2.493.038-2.599 2.999-1.172 4.314-5.444 8.856-4.717zm20.054 38.878c2.736-.574 2.736-.574 5.301 1.098 1.809-2.356 1.809-2.356-1.394-4.59.7-1.188 1.404-2.384 2.121-3.598-.632-.329-1.015-.678-1.189-.593-1.465.718-2.804 2.271-4.809.131.603-1.153 1.441-2.438 3.088-2.483 1.839-.053 3.716.22 5.532.576.504.099 1.286 1.074 1.203 1.512-.495 2.684.563 5.154.75 7.705.144 1.934-1.642 3.276-3.717 3.714-3.319.695-5.048-.165-6.886-3.472zM32.752 9.805c1.51-.041 4.219 2.46 4.148 3.977-.025.605-.428 1.333-.886 1.754-1.074.981-2.896.229-4.239-1.681-.865-1.232-1.163-2.498.071-3.683.225-.214.614-.253.906-.367zm28.686 0c-1.507-.041-4.217 2.46-4.146 3.977.026.605.429 1.333.89 1.754 1.071.981 2.893.229 4.237-1.681.867-1.232 1.162-2.498-.071-3.683-.227-.214-.616-.253-.91-.367zM49.075 7.636c-.114.704-.128 1.407-.354 2.036-.407 1.145-2.067 1.549-3.005.805-1.437-1.135-1.473-4.82-.063-6.038.898-.775 2.546-.443 2.978.711.292.777.307 1.659.444 2.486z" fill-rule="evenodd" clip-rule="evenodd" fill="#f4b83b"/></svg>