<svg xmlns="http://www.w3.org/2000/svg" width="93.543" height="93.543"><path fill-rule="evenodd" clip-rule="evenodd" fill="#98CDD3" d="M8.738 65.059H0V40.121c2.782 0 5.656.591 8.11-.17 2.328-.721 4.104-3.046 6.32-4.325 2.474-1.426 5.087-2.711 7.792-3.597 2.206-.722 4.638-1.068 6.964-1.043 3.197.034 4.041 1.415 3.441 4.862l-3.253.326.027.833c2.544 0 5.087.002 7.632 0 5.722-.006 7.986 2.531 7.84 8.365-.127 5.094.082 10.193.01 15.288-.021 1.562-.274 3.188-.78 4.661-1.051 3.061-2.327 3.843-5.511 3.837-7.872-.013-15.745-.103-23.615-.01-3.044.036-5.338-.74-6.239-4.089zM1.85 43.889V61.2h5.159V43.889H1.85zm91.322-3.739v24.953c-2.478 0-4.854-.104-7.212.063-.716.049-1.374.854-2.069 1.299-1.395.896-2.775 2.511-4.197 2.551-8.762.243-17.537.219-26.302.035-1.235-.025-2.942-1.132-3.546-2.227-.956-1.737-1.559-3.876-1.618-5.866-.168-5.565-.313-11.168.151-16.706.543-6.525 2.667-7.725 7.871-7.131 2.505.284 5.069.049 7.607.049.016-.313.032-.624.05-.936l-3.253-.533c-.774-2.879-.353-4.019 2.287-4.451 2.141-.35 4.615-.571 6.56.166 5.254 1.987 10.606 3.971 14.681 8.182.406.42 1.287.51 1.953.529 2.293.062 4.591.023 7.037.023zM91.38 61.205V43.886h-5.22v17.319h5.22zM46.453 27.888l-4.154 1.042c.483 1.418-.702 2.092-2.375 2.364.293.499.477.815.663 1.129-.072.155-.143.309-.216.462l-4.001-1.894c1.774-.627 2.882-1.021 4.066-1.44-.133-1.057-.257-2.039-.441-3.483 2.705 1.363 4.989 1.62 6.501-1.787 1.604 3.021 3.716 3.504 6.623 1.704l-.521 3.499 4.191 1.454-3.943 2.009-.339-.481c.214-.34.425-.679.7-1.115-.737-.273-1.449-.537-2.32-.858l.115-1.646a3026.01 3026.01 0 0 0-4.549-.959z"/></svg>