<svg xmlns="http://www.w3.org/2000/svg" width="93.543" height="93.543"><g fill-rule="evenodd" clip-rule="evenodd" fill="#82ac4d"><path d="M71.182 60.48c.007-.025.01-.049.018-.074l-.018.009c-.028.031-.055.062-.083.091l.083-.026z"/><path d="M80.629 49.05l1.444-9.766c4.764-1.533 5.383-2.438 4.681-7.197-3.018.558-4.982 2.191-5.589 5.555-.852-1.877-1.659-3.406-2.235-5.019-.336-.946-.508-2.043-.407-3.037.457-4.495-.961-6.388-6.135-7.757-.902 3.879-.362 7.034 3.405 9.313 1.275.771 1.998 2.456 2.974 3.724-2.326-.619-4.156-1.662-6.309-.449 1.001 4.168 3.324 6.044 7.523 4.901.885 4.116-.173 7.454-2.021 10.64.353-4.038-.538-7.384-4.916-8.984-1.541 1.678-1.158 3.635-1.036 5.425.198 2.907 1.261 3.813 4.795 4.632-1.048 3.115-3.508 4.742-6.412 6.242 2.258-4.296-.046-7.019-2.541-9.814-2.167 2.354-2.577 3.359-2.821 5.361-.34 2.775 1.467 4.497 3.597 6.647-3.953 1.408-7.354 2.621-10.679 3.802.663 2.822 2.891.87 3.958 1.793 2.144 4.998 3.791 5.767 9.513 4.132a29493.68 29493.68 0 0 1-4.766-6.556l4.528-2.224 8.442-9.347c-.167 1.739.753 2.54 2.358 2.854 3.767.731 6.26-1.168 7.236-5.558-2.955-.944-5.787-.319-8.587.687z"/></g><g fill-rule="evenodd" clip-rule="evenodd" fill="#82ab4d"><path d="M26.254 59.467c2.129-2.15 3.937-3.872 3.597-6.647-.244-2.002-.654-3.007-2.82-5.361-2.495 2.796-4.799 5.519-2.541 9.814-2.903-1.5-5.364-3.127-6.412-6.242 3.535-.818 4.598-1.725 4.796-4.632.122-1.79.503-3.747-1.036-5.425-4.378 1.601-5.269 4.946-4.917 8.984-1.849-3.186-2.906-6.523-2.021-10.64 4.2 1.143 6.523-.733 7.523-4.901-2.153-1.213-3.982-.17-6.309.449.977-1.268 1.699-2.952 2.974-3.724 3.767-2.279 4.307-5.435 3.404-9.313-5.173 1.369-6.591 3.262-6.134 7.757.101.994-.07 2.091-.408 3.037-.575 1.612-1.382 3.142-2.234 5.019-.607-3.363-2.571-4.997-5.589-5.555-.702 4.76-.083 5.664 4.681 7.197.491 3.313.967 6.54 1.444 9.766-2.8-1.006-5.632-1.631-8.588-.687.976 4.39 3.469 6.289 7.236 5.558 1.604-.313 2.525-1.114 2.358-2.854 2.814 3.114 5.627 6.231 8.441 9.347l4.528 2.224-4.765 6.556c5.722 1.635 7.369.866 9.513-4.132 1.068-.923 3.295 1.029 3.958-1.793-3.325-1.181-6.726-2.394-10.679-3.802z"/><path d="M23.698 60.48c.029.01.054.017.083.025-.028-.029-.055-.06-.083-.091-.006-.004-.012-.006-.019-.009.008.026.011.05.019.075z"/></g><g fill-rule="evenodd" clip-rule="evenodd"><path d="M26.966 39.25c.014-.068.035-.136.042-.204.133-1.282.268-2.562.393-3.844.014-.151.071-.226.208-.286 1.078-.492 2.157-.979 3.226-1.488 1.295-.616 2.528-1.346 3.741-2.11.022-.013.045-.023.091-.051a40.206 40.206 0 0 0 4.849 10.642c-.156.053-.3.106-.447.15a37.263 37.263 0 0 0-4.88 1.842c-.695.319-1.394.632-2.087.956-.117.053-.195.048-.3-.026a966.75 966.75 0 0 0-3.286-2.317c-.025-.019-.056-.03-.084-.045l-1.466-3.219zm37.376-14.978c1.082 2.41 1.983 4.966 2.487 7.649.27 1.436.43 2.882.292 4.347-.064.694-.198 1.373-.512 2.006-.271.548-.67.951-1.24 1.198-.87.381-1.728.787-2.594 1.176a.535.535 0 0 1-.296.045c-3.13-.578-6.29-.788-9.468-.754-3.541.039-7.042.421-10.497 1.202-.148.034-.231.007-.319-.121-1.375-2.013-2.508-4.154-3.456-6.397a34.98 34.98 0 0 1-1.506-4.292c-.059-.215-.191-.452-.142-.64.044-.169.286-.291.454-.418a50.389 50.389 0 0 0 6.536-5.876c2.378-2.544 4.524-5.267 6.319-8.252.232-.387.506-.642.919-.812a34.756 34.756 0 0 0 2.11-.956c.646-.316 1.294-.324 1.961-.108.739.239 1.383.649 1.988 1.126 1.326 1.043 2.407 2.317 3.396 3.673 1.4 1.916 2.545 3.978 3.568 6.204zm-2.295.945c-.969-2.09-2.09-4.088-3.51-5.91-.858-1.102-1.792-2.131-2.943-2.938-.436-.306-.896-.572-1.423-.686-.503-.11-.801.004-1.012.472a5.022 5.022 0 0 0-.37 1.192c-.208 1.226-.097 2.45.093 3.669.321 2.045.926 4.011 1.703 5.927.999 2.466 2.231 4.804 3.821 6.943.864 1.164 1.813 2.252 2.975 3.132.492.374 1.011.704 1.62.854.559.139.845.005 1.106-.507.236-.462.333-.963.386-1.473.136-1.285.003-2.558-.225-3.822-.433-2.385-1.233-4.649-2.221-6.853zM39.36 43.691l1.146-.282c1.207-.293 2.414-.585 3.62-.882.135-.032.238-.023.358.069a4648.18 4648.18 0 0 0 7.87 5.98c.234.178.44.374.516.669.109.426-.018.784-.317 1.096-.949.989-1.896 1.983-2.844 2.975-.185.194-.368.39-.556.581-.512.52-1.195.496-1.653-.073-1.891-2.345-3.775-4.693-5.662-7.042-.782-.972-1.563-1.946-2.344-2.92l-.134-.171z" fill="#e4e2d2"/><path d="M57.292 27.386c-.475-1.065-.857-2.15-.936-3.314-.026-.396.011-.81.087-1.201.075-.384.28-.461.641-.304.512.221.893.611 1.244 1.027.93 1.096 1.578 2.35 2.052 3.701.285.813.5 1.64.513 2.505.004.31-.037.627-.112.928-.087.351-.272.42-.607.287-.398-.158-.708-.441-1-.743-.816-.842-1.396-1.84-1.882-2.886z" fill="#f4b83b"/></g><g fill-rule="evenodd" clip-rule="evenodd" fill="#82ac4e"><path d="M14.282 75.365V59.386c6.593-3.612 49.972-3.961 64.788-.495v15.863c-10.71-.683-21.473-1.746-32.253-1.948-10.815-.199-21.628.718-32.535 2.559z"/><path d="M.125 64.597h11.971v13.086c2.186-.262 3.977-.478 5.974-.72.051 1.147.095 2.143.15 3.421H.189c2.089-2.799 3.973-5.322 5.853-7.844C4.1 69.933 2.271 67.48.125 64.597zm75.394 15.825v-3.388c1.907.202 3.696.393 5.838.618.457-4.397.058-8.685.184-13.106h11.876l-5.966 7.882 5.831 7.994H75.519z"/></g><g fill="#235870"><path d="M20.872 70.426h-2.566v-7.399h-2.319v-2.099h7.198v2.099h-2.313v7.399zm11.759-4.762c0 1.598-.392 2.813-1.176 3.645-.784.832-1.932 1.247-3.443 1.247-1.49 0-2.632-.418-3.427-1.254s-1.192-2.053-1.192-3.651c0-1.581.395-2.788 1.186-3.622.791-.833 1.939-1.25 3.446-1.25 1.512 0 2.657.414 3.437 1.241.78.827 1.169 2.042 1.169 3.644zm-6.535 0c0 1.836.639 2.755 1.917 2.755.649 0 1.131-.223 1.445-.669.314-.446.471-1.141.471-2.085 0-.948-.159-1.649-.478-2.102s-.794-.679-1.426-.679c-1.286 0-1.929.927-1.929 2.78zm14.345-1.715c0 1.061-.313 1.881-.939 2.459s-1.515.867-2.667.867h-.721v3.151h-2.566v-9.498h3.288c1.199 0 2.1.262 2.702.786s.903 1.269.903 2.235zm-4.326 1.235h.468c.385 0 .692-.108.919-.325.228-.217.341-.516.341-.896 0-.641-.355-.962-1.065-.962h-.663v2.183zm14.593-1.235c0 1.061-.313 1.881-.939 2.459s-1.515.867-2.667.867h-.721v3.151h-2.566v-9.498h3.288c1.199 0 2.1.262 2.702.786s.903 1.269.903 2.235zm-4.327 1.235h.468c.385 0 .692-.108.919-.325.228-.217.341-.516.341-.896 0-.641-.355-.962-1.065-.962h-.663v2.183zm5.042 5.242v-9.498h2.579v9.498h-2.579zm8.063-7.529c-.611 0-1.087.25-1.429.75-.342.5-.513 1.19-.513 2.069 0 1.828.695 2.742 2.085 2.742.42 0 .828-.059 1.222-.176.394-.117.79-.257 1.189-.422v2.169c-.793.351-1.689.526-2.69.526-1.434 0-2.533-.416-3.297-1.247-.765-.832-1.146-2.034-1.146-3.606 0-.983.185-1.847.555-2.592a3.982 3.982 0 0 1 1.598-1.719c.695-.4 1.513-.601 2.453-.601a6.76 6.76 0 0 1 2.943.669l-.786 2.021a8.897 8.897 0 0 0-1.052-.416 3.747 3.747 0 0 0-1.132-.167zm11.721 7.529H68.31l-1.877-3.631-.76.455v3.177h-2.579v-9.498h2.579v4.125c.13-.255.392-.661.786-1.215l1.995-2.911h2.807l-2.995 4.255 2.941 5.243z"/><path d="M77.646 67.542c0 .589-.149 1.112-.448 1.569s-.73.812-1.293 1.065-1.224.38-1.981.38c-.632 0-1.163-.044-1.592-.133a5.898 5.898 0 0 1-1.338-.464v-2.287c.49.251.999.447 1.527.588s1.014.211 1.455.211c.381 0 .661-.066.838-.198a.61.61 0 0 0 .266-.51.563.563 0 0 0-.107-.341 1.267 1.267 0 0 0-.344-.295c-.158-.1-.58-.303-1.264-.611-.62-.281-1.084-.554-1.394-.818s-.539-.567-.688-.91c-.149-.342-.224-.747-.224-1.215 0-.875.318-1.557.955-2.046.637-.489 1.512-.734 2.625-.734.983 0 1.985.227 3.008.682l-.786 1.981c-.888-.407-1.655-.611-2.3-.611-.333 0-.576.059-.728.175a.53.53 0 0 0-.228.436c0 .186.096.353.289.5.193.147.716.416 1.569.806.819.368 1.387.763 1.706 1.186s.477.953.477 1.594z"/></g></svg>