<?xml version="1.0" encoding="iso-8859-1"?>
<!-- Generator: Adobe Illustrator 16.0.0, SVG Export Plug-In . SVG Version: 6.00 Build 0)  -->
<!DOCTYPE svg PUBLIC "-//W3C//DTD SVG 1.1//EN" "http://www.w3.org/Graphics/SVG/1.1/DTD/svg11.dtd">
<svg version="1.1" id="&#x421;&#x43B;&#x43E;&#x439;_1"
	 xmlns="http://www.w3.org/2000/svg" xmlns:xlink="http://www.w3.org/1999/xlink" x="0px" y="0px" width="93.543px"
	 height="93.543px" viewBox="0 0 93.543 93.543" style="enable-background:new 0 0 93.543 93.543;" xml:space="preserve">
<g>
	<path style="fill-rule:evenodd;clip-rule:evenodd;fill:#E1AA36;" d="M71.796,66.59c0.008-0.03,0.013-0.057,0.021-0.088
		c-0.007,0.003-0.014,0.007-0.021,0.011c-0.033,0.036-0.065,0.07-0.096,0.105C71.733,66.608,71.763,66.6,71.796,66.59z"/>
	<path style="fill-rule:evenodd;clip-rule:evenodd;fill:#E1AA36;" d="M75.28,72.515c2.979,1.475,5.47,0.22,7.919-1.496
		c-3.701-5.63-5.548-6.313-11.402-4.429C70.962,69.712,72.902,71.341,75.28,72.515z"/>
	<path style="fill-rule:evenodd;clip-rule:evenodd;fill:#E1AA36;" d="M82.787,53.291c0.555-3.754,1.109-7.507,1.68-11.364
		c5.542-1.784,6.263-2.836,5.446-8.374c-3.511,0.65-5.796,2.55-6.502,6.464c-0.991-2.185-1.931-3.965-2.6-5.839
		c-0.393-1.101-0.592-2.379-0.475-3.536c0.532-5.229-1.118-7.431-7.137-9.023c-1.049,4.511-0.422,8.184,3.962,10.836
		c1.483,0.897,2.324,2.858,3.459,4.331c-2.707-0.718-4.834-1.933-7.339-0.521c1.164,4.849,3.866,7.031,8.752,5.701
		c1.03,4.79-0.201,8.675-2.351,12.38c0.409-4.696-0.627-8.59-5.721-10.452c-1.792,1.949-1.347,4.227-1.205,6.31
		c0.23,3.383,1.468,4.438,5.58,5.391c-1.22,3.625-4.082,5.517-7.46,7.262c2.627-4.998-0.053-8.165-2.955-11.42
		c-2.521,2.741-2.999,3.91-3.283,6.238c-0.396,3.23,1.706,5.231,4.185,7.735c-4.6,1.639-8.558,3.049-12.423,4.425
		c0.771,3.284,3.362,1.01,4.604,2.083c2.494,5.816,4.411,6.711,11.069,4.808c-1.898-2.608-3.672-5.051-5.545-7.626
		c1.709-0.839,3.487-1.714,5.269-2.587c3.275-3.625,6.548-7.252,9.822-10.875c-0.195,2.023,0.877,2.955,2.743,3.319
		c4.383,0.851,7.284-1.358,8.419-6.466C89.34,51.392,86.044,52.121,82.787,53.291z"/>
</g>
<g>
	<path style="fill-rule:evenodd;clip-rule:evenodd;fill:#E1AA36;" d="M24.513,65.411c2.478-2.504,4.581-4.505,4.185-7.735
		c-0.284-2.328-0.761-3.497-3.282-6.238c-2.903,3.255-5.583,6.422-2.956,11.42c-3.378-1.746-6.24-3.638-7.461-7.262
		c4.113-0.954,5.35-2.008,5.581-5.391c0.142-2.083,0.586-4.36-1.206-6.31c-5.094,1.862-6.131,5.755-5.72,10.452
		c-2.152-3.705-3.382-7.59-2.353-12.38c4.886,1.33,7.588-0.852,8.753-5.701c-2.505-1.412-4.635-0.197-7.34,0.521
		c1.134-1.473,1.976-3.434,3.459-4.331c4.384-2.652,5.011-6.325,3.961-10.836c-6.02,1.592-7.669,3.794-7.138,9.023
		c0.118,1.157-0.082,2.435-0.475,3.536c-0.668,1.875-1.609,3.654-2.6,5.839c-0.706-3.914-2.991-5.814-6.502-6.464
		c-0.817,5.537-0.096,6.589,5.447,8.374c0.57,3.856,1.125,7.61,1.68,11.364c-3.258-1.17-6.553-1.899-9.993-0.8
		c1.136,5.107,4.036,7.317,8.419,6.466c1.867-0.364,2.938-1.296,2.743-3.319c3.275,3.623,6.548,7.25,9.823,10.875
		c1.78,0.874,3.559,1.749,5.267,2.587c-1.871,2.576-3.646,5.019-5.544,7.626c6.658,1.903,8.573,1.008,11.068-4.808
		c1.242-1.073,3.834,1.201,4.604-2.083C33.069,68.46,29.112,67.05,24.513,65.411z"/>
	<path style="fill-rule:evenodd;clip-rule:evenodd;fill:#E1AA36;" d="M10.136,71.019c2.449,1.716,4.94,2.971,7.92,1.496
		c2.376-1.174,4.317-2.803,3.482-5.925C15.685,64.706,13.838,65.389,10.136,71.019z"/>
	<path style="fill-rule:evenodd;clip-rule:evenodd;fill:#E1AA36;" d="M21.539,66.59c0.034,0.01,0.064,0.019,0.097,0.028
		c-0.032-0.035-0.064-0.069-0.096-0.105c-0.007-0.004-0.014-0.008-0.021-0.011C21.527,66.533,21.53,66.56,21.539,66.59z"/>
</g>
<g>
	<path style="fill:#E4E2D2;" d="M44.255,61.46c-4.282-0.195-8.408-1.153-12.377-2.874v-9.739c2.268,1.155,4.731,2.118,7.391,2.891
		c2.659,0.772,4.997,1.158,7.011,1.158c1.662,0,2.879-0.202,3.652-0.602c0.772-0.399,1.158-1.07,1.158-2.009
		c0-0.646-0.279-1.192-0.836-1.642c-0.557-0.449-1.486-0.958-2.787-1.525c-1.3-0.568-3.055-1.251-5.265-2.053
		c-2.483-0.92-4.486-1.952-6.012-3.093c-1.525-1.146-2.636-2.424-3.33-3.844c-0.694-1.417-1.041-3.182-1.041-5.294
		c0-3.225,1.036-5.748,3.108-7.565c2.073-1.82,5.181-2.943,9.327-3.374v-4.018h6.071v3.958c3.891,0.216,7.812,1.173,11.762,2.875
		l-3.49,8.36c-4.088-1.84-7.773-2.757-11.058-2.757c-1.565,0-2.665,0.188-3.3,0.572c-0.636,0.382-0.953,0.942-0.953,1.684
		c0,0.646,0.229,1.18,0.689,1.599c0.459,0.422,1.255,0.892,2.391,1.41c1.133,0.517,2.707,1.119,4.722,1.803
		c4.086,1.448,7.02,3.093,8.799,4.942c1.779,1.848,2.669,4.227,2.669,7.142c0,3.284-1.042,5.953-3.124,8.006
		c-2.082,2.053-5.119,3.325-9.107,3.813v5.66h-6.071V61.46z"/>
</g>
</svg>
