<?xml version="1.0" encoding="iso-8859-1"?>
<!-- Generator: Adobe Illustrator 16.0.0, SVG Export Plug-In . SVG Version: 6.00 Build 0)  -->
<!DOCTYPE svg PUBLIC "-//W3C//DTD SVG 1.1//EN" "http://www.w3.org/Graphics/SVG/1.1/DTD/svg11.dtd">
<svg version="1.1" id="&#x421;&#x43B;&#x43E;&#x439;_1"
	 xmlns="http://www.w3.org/2000/svg" xmlns:xlink="http://www.w3.org/1999/xlink" x="0px" y="0px" width="93.543px"
	 height="93.543px" viewBox="0 0 93.543 93.543" style="enable-background:new 0 0 93.543 93.543;" xml:space="preserve">
<g>
	<path style="fill-rule:evenodd;clip-rule:evenodd;fill:#DD6622;" d="M47.973,26.84c2.307,2.789,3.51,6.13,4.447,9.582
		c1.376,5.068,2.378,10.288,4.27,15.157c3.258,8.391,6.787,16.705,11.763,24.286c0.369,0.562,0.49,1.086,0.175,1.75
		c-0.854,1.796-1.734,2.257-3.672,1.738c-0.564-0.151-1.117-0.388-1.639-0.655c-4.017-2.058-7.554-4.821-11.024-7.655
		c-4.791-3.912-9.484-7.944-14.268-11.865c-3.52-2.884-7.2-5.578-10.647-8.542c-1.719-1.479-3.274-3.243-4.555-5.116
		c-1.891-2.768-1.587-5.614,0.586-8.166c0.919-1.08,1.972-2.057,3.031-3.004c1.813-1.624,3.677-3.188,5.522-4.774
		c2.651-2.279,5.415-4.384,8.829-5.417c1.291-0.391,2.593-0.514,4.051-0.143C45.896,24.95,47.087,25.77,47.973,26.84z
		 M34.515,34.719c-0.034-0.041,6.576,0.142,11.135,4.747c2.61,4.949,6.942,11.473,7.971,18.1c0.233,0.466,2.305,2.259,2.579,2.701
		c0.079,0.126-1.079-5.154-1.229-5.542c-2.375-6.154-3.888-12.297-6.741-18.561c-1.176-2.585-4.094-6.219-3.943-9.045
		C42.757,28.417,37.299,34.363,34.515,34.719z"/>
	<path style="fill-rule:evenodd;clip-rule:evenodd;fill:#DD6622;" d="M23.863,31.59c0.435-1.054,1.008-2.059,1.601-3.037
		c0.588-0.971,0.813-1.918,0.171-2.932c-1.654-2.608-3.642-4.926-6.177-6.709c-1.456-1.023-2.765-0.789-4.001,0.51
		c-0.139,0.145-0.295,0.274-0.567,0.526c-0.513-0.572-1.109-1.042-1.44-1.653c-0.747-1.374-0.853-2.992,1.232-3.672
		c0.935-0.304,1.972-0.459,2.953-0.423c2.138,0.078,3.934,1.071,5.501,2.478c1.758,1.58,3.473,3.208,5.24,4.775
		c1.69,1.499,3.584,2.317,5.929,1.788c0.792-0.178,1.677-0.146,2.483-0.005c0.661,0.116,1.269,0.537,1.9,0.823
		c0.001,0.123,0.002,0.245,0.003,0.368c-5.449,2.75-9.449,7.349-14.201,11.092C23.546,34.23,23.31,32.928,23.863,31.59z
		 M30.506,26.504c0.373,0.463,0.753,0.535,1.24,0.178c0.634-0.464,2.505-1.391,3.403-2.013c-2.344-0.156-4.384,0.948-7.249-1.331
		C28.377,25.211,29.648,25.44,30.506,26.504z M15.124,16.016c-0.334-0.102-0.938,0.044-1.146,0.3
		c-0.395,0.488,0.299,1.625,1.163,2.006C15.833,17.132,15.838,16.234,15.124,16.016z"/>
</g>
<g>
	<path style="fill-rule:evenodd;clip-rule:evenodd;fill:#82AC4E;" d="M14.372,66.663c0-5.544,0-10.78,0-15.99
		c6.598-3.615,50.005-3.964,64.83-0.496c0,5.282,0,10.618,0,15.874c-10.717-0.683-21.487-1.747-32.273-1.949
		C36.106,63.902,25.286,64.82,14.372,66.663z"/>
	<path style="fill-rule:evenodd;clip-rule:evenodd;fill:#82AC4E;" d="M0.207,55.888c4.278,0,7.95,0,11.979,0
		c0,4.399,0,8.588,0,13.096c2.188-0.263,3.98-0.478,5.978-0.72c0.05,1.147,0.095,2.144,0.151,3.422c-5.966,0-11.765,0-18.044,0
		c2.091-2.801,3.976-5.326,5.856-7.849C4.184,61.228,2.354,58.772,0.207,55.888z"/>
	<path style="fill-rule:evenodd;clip-rule:evenodd;fill:#82AC4E;" d="M75.649,71.723c0-1.109,0-2.111,0-3.389
		c1.908,0.202,3.697,0.392,5.841,0.619c0.458-4.401,0.058-8.691,0.185-13.115c3.907,0,7.589,0,11.884,0
		c-2.076,2.743-3.951,5.22-5.97,7.887c1.88,2.576,3.742,5.129,5.835,7.998C87.393,71.723,81.694,71.723,75.649,71.723z"/>
</g>
<g>
	<path style="fill:#235870;" d="M38.768,61.861h-3.254v-4.884h-3.762v4.884h-3.253V49.88h3.253v4.442h3.762V49.88h3.254V61.861z"/>
	<path style="fill:#235870;" d="M52.569,55.854c0,2.016-0.495,3.549-1.484,4.598c-0.989,1.049-2.437,1.574-4.343,1.574
		c-1.879,0-3.321-0.527-4.323-1.582c-1.002-1.055-1.504-2.589-1.504-4.605c0-1.994,0.499-3.517,1.496-4.569s2.446-1.578,4.348-1.578
		c1.907,0,3.352,0.522,4.335,1.565C52.077,52.3,52.569,53.833,52.569,55.854z M44.324,55.854c0,2.316,0.806,3.475,2.417,3.475
		c0.82,0,1.427-0.281,1.824-0.844c0.396-0.563,0.594-1.439,0.594-2.63c0-1.196-0.201-2.08-0.603-2.651
		c-0.401-0.571-1.001-0.857-1.799-0.857C45.136,52.346,44.324,53.516,44.324,55.854z"/>
	<path style="fill:#235870;" d="M60.018,61.861h-3.237v-9.334h-2.926V49.88h9.081v2.647h-2.918V61.861z"/>
</g>
</svg>
