<?xml version="1.0" encoding="iso-8859-1"?>
<!-- Generator: Adobe Illustrator 16.0.0, SVG Export Plug-In . SVG Version: 6.00 Build 0)  -->
<!DOCTYPE svg PUBLIC "-//W3C//DTD SVG 1.1//EN" "http://www.w3.org/Graphics/SVG/1.1/DTD/svg11.dtd">
<svg version="1.1" id="&#x421;&#x43B;&#x43E;&#x439;_1"
	 xmlns="http://www.w3.org/2000/svg" xmlns:xlink="http://www.w3.org/1999/xlink" x="0px" y="0px" width="93.543px"
	 height="93.543px" viewBox="0 0 93.543 93.543" style="enable-background:new 0 0 93.543 93.543;" xml:space="preserve">
<path style="fill-rule:evenodd;clip-rule:evenodd;fill:#82AC4E;" d="M30.804,92.543c-1.857-1.542-2.178-3.538-2.155-5.871
	c0.136-13.229,0.145-26.461,0.17-39.693c0.003-1.282-0.179-2.563-0.29-4.068c-2.226,1.247-1.982,3.385-2.593,5.036
	c-0.936,2.528-1.524,5.183-2.308,7.771c-0.423,1.401-1.198,2.554-2.898,2.114c-1.475-0.382-1.584-1.699-1.299-2.875
	c1.104-4.593,1.773-9.397,3.634-13.675c1.85-4.261,4.935-7.983,7.707-12.295c1.542,1.789,2.754,3.196,3.967,4.604
	c0.238-0.158,0.477-0.315,0.715-0.474c-0.951-1.626-1.902-3.251-3.143-5.371c1.817-0.612,3.285-1.106,5.318-1.791
	c-0.142,2.824-0.253,4.972-0.361,7.122c0.258,0.028,0.517,0.057,0.775,0.084c1.292-3.985,2.913-7.898,3.785-11.971
	c1.025-4.78,1.4-9.701,2.042-14.563c0.085-0.67,0.02-1.364,0.133-2.029c0.244-1.424,1.281-2.162,2.539-1.765
	c0.732,0.233,1.681,1.346,1.684,2.064c0.014,4.064,0.051,8.166-0.451,12.188c-0.923,7.374-2.249,14.697-3.328,22.053
	c-0.222,1.498-0.142,3.046-0.125,4.57c0.162,14.073,0.315,28.148,0.542,42.219c0.04,2.431-0.014,4.741-1.832,6.613
	c-1.02,0-2.039,0-3.058,0c-0.38-1.771-1.008-3.527-1.104-5.31c-0.455-8.419-0.744-16.844-1.153-25.265
	c-0.045-0.938-0.474-1.855-0.724-2.785c-0.818,0.806-0.957,1.452-0.988,2.103c-0.397,8.42-0.843,16.838-1.113,25.26
	c-0.074,2.287-0.647,4.244-2.05,5.997C32.162,92.543,31.483,92.543,30.804,92.543z"/>
<path style="fill-rule:evenodd;clip-rule:evenodd;fill:#82AC4E;" d="M52.205,92.543c-0.684-3.954-1.635-7.887-2.01-11.871
	c-1.056-11.292-1.911-22.605-2.763-33.915c-0.153-2.009,0.048-4.05,0.162-6.072c0.083-1.519,0.577-3.072,0.372-4.54
	c-0.849-6.139,0.522-12.091,1.207-18.115c0.534-4.701,0.761-9.434,1.136-14.152c0.048-0.623,0.153-1.239,0.235-1.905
	c2.422,0.315,2.859,1.786,2.823,3.665c-0.085,4.239,0.119,8.501-0.244,12.715c-0.443,5.175,1.846,9.701,3.027,14.54
	c0-2.327,0-4.652,0-7.123c2.337-1.112,3.864,0,5.653,1.562c-1.212,2.149-2.382,4.22-3.549,6.288
	c0.247,0.142,0.491,0.284,0.738,0.426c1.224-1.535,2.445-3.068,3.924-4.923c0.622,0.979,1.284,1.687,1.57,2.521
	c2.363,6.931,5.509,13.423,9.981,19.281c1.846,2.414,1.655,2.558-1.048,5.007c-4.109-3.494-7.022-8.031-10.821-12.931
	c0.875,6.839,1.607,13,2.459,19.144c1.116,8.034,2.334,16.056,3.493,24.087c0.315,2.205,0.25,4.366-1.056,6.311
	c-1.02,0-2.039,0-3.058,0c-0.71-2.226-1.607-4.411-2.093-6.686c-1.764-8.267-3.376-16.564-5.08-24.844
	c-0.127-0.621-0.528-1.184-0.968-2.138c-0.392,0.873-0.65,1.175-0.639,1.469c0.281,9.153,0.662,18.305,0.835,27.459
	c0.031,1.57-0.795,3.161-1.227,4.739C54.244,92.543,53.225,92.543,52.205,92.543z"/>
<path style="fill-rule:evenodd;clip-rule:evenodd;fill:#82AC4E;" d="M40.115,19.026c-0.034,3.841-2.848,6.537-6.809,6.517
	c-3.927-0.017-6.693-2.77-6.681-6.647c0.011-3.862,2.819-6.825,6.559-6.923C37.156,11.868,40.152,14.915,40.115,19.026z"/>
<path style="fill-rule:evenodd;clip-rule:evenodd;fill:#82AC4E;" d="M67.575,16.907c0.108,3.557-2.947,6.973-6.451,7.212
	c-3.512,0.241-6.837-2.839-7.016-6.498c-0.199-4.112,2.66-7.369,6.556-7.468C64.097,10.066,67.467,13.36,67.575,16.907z"/>
</svg>
