<?xml version="1.0" encoding="utf-8"?>
<!-- Generator: Adobe Illustrator 16.0.0, SVG Export Plug-In . SVG Version: 6.00 Build 0)  -->
<!DOCTYPE svg PUBLIC "-//W3C//DTD SVG 1.1//EN" "http://www.w3.org/Graphics/SVG/1.1/DTD/svg11.dtd">
<svg version="1.1" id="Слой_1" xmlns="http://www.w3.org/2000/svg" xmlns:xlink="http://www.w3.org/1999/xlink" x="0px" y="0px"
	 width="93.543px" height="93.543px" viewBox="0 0 93.543 93.543" enable-background="new 0 0 93.543 93.543" xml:space="preserve">
<path fill-rule="evenodd" clip-rule="evenodd" fill="#98CDD3" d="M13.863,14.853c3.457,0,7.09,0,10.697,0
	c0.276-1.767,0.47-3.01,0.701-4.479c13.734,0,27.313,0,41.247,0c0.282,1.195,0.605,2.544,1.012,4.242c3.248,0,7.521,0,10.796,0
	c0,3.571-0.856,6.233-1.354,9.041c-0.994,5.615-2.902,11.019-7.481,14.789c-1.988,1.636-4.464,3.594-6.951,3.594
	c-10.21,0-7.637,7.885-16.182,7.885c-5.729,0-7.484-1.323-10.989-5.401c-0.667-0.778-1.833-1.423-2.847-1.563
	c-10.516-1.458-15.076-8.63-17.489-17.946C14.746,23.947,13.863,17.183,13.863,14.853z M18.549,18.319
	c-1.575,11.368,4.299,20.544,13.25,21.854c-2.193-7.057-4.465-14.365-6.792-21.854C23.001,18.319,20.759,18.319,18.549,18.319z
	 M66.854,18.252c-2.38,7.634-4.652,14.928-6.864,22.031c9.269-1.955,15.383-11.749,13.266-22.031
	C71.179,18.252,69.06,18.252,66.854,18.252z M50.478,45.022c6.283-4.425,14.398-25.741,10.922-29.919
	c-0.946,0.049-2.155,0.114-3.274,0.174c-0.797,5.466-1.124,10.658-2.4,15.604C54.468,35.75,52.248,40.369,50.478,45.022z"/>
<path fill-rule="evenodd" clip-rule="evenodd" fill="#98CDD3" d="M29.41,84.381c0-6.597,0-12.855,0-19.362
	c10.853,0,21.43,0,32.624,0c0.022,3.303,0.052,6.564,0.063,9.826c0.01,3.138,0.002,6.273,0.002,9.331
	C58.086,85.078,34.747,85.206,29.41,84.381z M35.296,77.005c7.078-0.117,13.749,0.277,20.418-0.211c0-2.959,0-5.365,0-8.173
	c-6.961,0.09-13.627-0.24-20.418,0.181C35.296,71.652,35.296,73.933,35.296,77.005z"/>
<path fill-rule="evenodd" clip-rule="evenodd" fill="#98CDD3" d="M67.719,8.672c-0.813,0.075-1.77,0.238-2.726,0.24
	C52.225,8.93,39.459,8.927,26.693,8.92c-0.828,0-1.814,0.192-2.435-0.186c-0.631-0.383-0.902-1.361-1.545-2.436
	c1.294-0.24,2.069-0.511,2.848-0.511C38.659,5.76,51.756,5.763,64.855,5.766c0.662,0,1.336-0.029,1.982,0.087
	C68.488,6.15,68.421,7.187,67.719,8.672z"/>
<path fill-rule="evenodd" clip-rule="evenodd" fill="#98CDD3" d="M27.203,86.093c1.482-0.181,2.053-0.114,3.006-0.116
	c10.104-0.022,20.208-0.018,30.313-0.007c0.824,0.002,3.031-0.078,3.74-0.05c0.322,0.013-0.464,1.975-0.696,3.056
	c-1.119,0.206-1.078,0.113-1.691,0.115c-10.436,0.027-20.87,0.03-31.306,0.025c-0.824,0-1.831,0.173-2.42-0.225
	C27.551,88.488,27.743,87.194,27.203,86.093z"/>
<path fill-rule="evenodd" clip-rule="evenodd" fill="#98CDD3" d="M63.232,61.032c0.516,0.813,0.397,1.887-0.098,2.287
	c-0.43,0.347-1.258,0.262-1.908,0.263c-10.438,0.015-20.877,0.019-31.316,0.006c-1.479-0.002-3.157,0.132-2.597-2.556
	C39.457,61.032,50.585,61.032,63.232,61.032z"/>
<path fill-rule="evenodd" clip-rule="evenodd" fill="#98CDD3" d="M38.431,58.895c0.502-3.011,5.027-3.38,3.386-7.295
	c2.987,0.992,4.941,1.249,8.289,0.206c-0.889,1.043-0.719,2.974,0.36,3.706c1.441,0.979,2.419,1.133,3.125,3.191
	C48.406,60.196,43.524,60.075,38.431,58.895z"/>
</svg>
