<?xml version="1.0" encoding="utf-8"?>
<!-- Generator: Adobe Illustrator 16.0.0, SVG Export Plug-In . SVG Version: 6.00 Build 0)  -->
<!DOCTYPE svg PUBLIC "-//W3C//DTD SVG 1.1//EN" "http://www.w3.org/Graphics/SVG/1.1/DTD/svg11.dtd">
<svg version="1.1" id="Слой_1" xmlns="http://www.w3.org/2000/svg" xmlns:xlink="http://www.w3.org/1999/xlink" x="0px" y="0px"
	 width="93.543px" height="93.543px" viewBox="0 0 93.543 93.543" enable-background="new 0 0 93.543 93.543" xml:space="preserve">
<path fill-rule="evenodd" clip-rule="evenodd" fill="#98CDD3" d="M53.635,16.664c-0.077,3.923-3.172,6.735-7.327,6.662
	c-4.004-0.073-7.037-3.251-6.803-7.129c0.227-3.728,3.179-6.432,7.039-6.442C50.592,9.744,53.71,12.782,53.635,16.664z"/>
<path fill-rule="evenodd" clip-rule="evenodd" fill="#98CDD3" d="M18.045,23.963c-3.638-0.09-7.061-3.765-6.812-7.317
	c0.242-3.469,3.64-6.642,7.048-6.579c3.627,0.068,7.056,3.754,6.797,7.311C24.82,20.89,21.448,24.049,18.045,23.963z"/>
<path fill-rule="evenodd" clip-rule="evenodd" fill="#98CDD3" d="M82.094,17.021c-0.008,3.751-2.903,6.818-6.54,6.926
	c-3.576,0.104-6.988-3.472-6.86-7.195c0.12-3.52,3.482-6.781,6.877-6.67C79.2,10.201,82.1,13.286,82.094,17.021z"/>
<g>
	<path fill="#98CDD3" d="M30.841,35.476c0.964-4.295-0.034-8.35-0.505-12.492c-0.227-1.995-0.696-3.965-0.905-5.961
		c-0.523-4.968-0.96-9.946-1.433-14.94c-2.49,1.492-2.567,1.486-2.656,2.49c-0.09,1-0.097,2.025,0.024,3.022
		c0.897,7.368,0.725,14.671-1.244,21.872c-0.29,1.056-0.663,2.09-0.998,3.135c-0.268-0.066-0.535-0.131-0.802-0.196
		c0.169-2.295,0.337-4.59,0.522-7.097c-2.456-0.74-4.165,0.161-5.766,1.885c1.25,2.134,2.374,4.058,3.5,5.982
		c-0.236,0.146-0.473,0.295-0.71,0.443c-1.339-1.527-2.68-3.054-4.197-4.783c-0.555,1.039-1.065,1.731-1.314,2.508
		C12.08,38.439,8.912,45.058,4.153,50.849c-0.105,0.129-0.194,0.274-0.279,0.421c-1.178,2.01-1.107,2.172,2.204,4.179
		c3.288-4.017,6.628-8.101,10.21-12.479c-0.541,4.538-0.97,8.864-1.586,13.165c-1.453,10.128-2.985,20.243-4.509,30.36
		c-0.325,2.166,0.1,3.991,2.02,5.27c0.673,0,1.346,0,2.02,0c0.705-1.813,1.675-3.568,2.069-5.445
		c1.882-8.957,3.604-17.943,5.416-26.913c0.041-0.212,0.488-0.343,1.163-0.783c0.543,3.275,0.12,6.337,0.003,9.393
		c-0.256,6.674-0.523,13.35-0.63,20.026c-0.02,1.234,0.695,2.481,1.074,3.723c1.011,0,2.02,0,3.03,0
		c1.761-2.439,1.847-5.272,2.045-8.127c0.556-8.042,1.246-16.074,1.844-24.115c0.424-5.69,0.896-11.384,1.121-17.082
		C31.457,40.122,30.354,37.646,30.841,35.476z M22.941,39.765c-1.697,0-3.073-1.376-3.073-3.073s1.376-3.073,3.073-3.073
		s3.073,1.376,3.073,3.073S24.638,39.765,22.941,39.765z"/>
</g>
<g>
	<path fill="#98CDD3" d="M61.314,2.874c-1.483-0.314-2.417,0.96-2.694,3.453c-0.186,1.661-0.38,3.323-0.632,4.975
		c-1.194,7.797-6.263,13.776-10.177,20.449c0.549-2.083,1.096-4.167,1.781-6.77c-2.041,0.125-3.566,0.218-5.303,0.325
		c0.486,2.512,0.852,4.414,1.219,6.313c-2.604-3.768-5.077-7.513-6.85-11.565c-1.524-3.488-2.29-7.312-3.309-11.009
		c-0.357-1.291-0.475-2.646-0.684-3.975c-0.204-1.286-0.804-2.515-2.197-2.105c-0.871,0.255-2.015,1.461-2.061,2.293
		c-0.142,2.666-0.083,5.399,0.365,8.027c0.904,5.32,2.66,10.387,5.405,15.079c2.163,3.702,3.181,7.604,3.069,11.999
		c-0.228,9.082,0.048,18.171-0.041,27.26c-0.059,6.218-0.339,12.438-0.614,18.651c-0.096,2.139,0.315,3.994,1.909,5.49
		c1.01,0,2.021,0,3.03,0c1.907-4.938,1.644-10.172,2.025-15.309c0.457-6.141,0.771-12.293,1.839-18.43
		c0.42,8.701,0.852,17.403,1.249,26.105c0.121,2.692,0.127,5.393,1.959,7.633c1.011,0,2.021,0,3.031,0
		c1.547-1.868,1.192-4.107,1.189-6.259c-0.021-15.818-0.01-31.64-0.147-47.458c-0.025-2.97,0.653-5.579,1.962-8.189
		c1.576-3.143,3.323-6.292,4.251-9.645c1.239-4.496,1.873-9.174,2.534-13.806C63.63,4.96,63.216,3.276,61.314,2.874z M46.303,39.154
		c-1.67,0-3.022-1.354-3.022-3.023s1.353-3.023,3.022-3.023s3.023,1.354,3.023,3.023S47.973,39.154,46.303,39.154z"/>
</g>
<g>
	<path fill="#98CDD3" d="M89.925,51.901c-0.498-1.055-1.142-2.07-1.872-2.981c-3.4-4.245-5.892-8.941-7.513-14.14
		c-0.621-1.992-1.62-3.867-2.612-6.179c-1.742,2.072-3.028,3.602-4.313,5.13c-0.236-0.182-0.472-0.363-0.708-0.546
		c1.202-1.906,2.402-3.813,3.686-5.85c-1.493-1.858-3.196-2.737-5.331-2.091c-1.343,2.689,0.659,5.281-0.68,7.634
		c-0.626-1.771-0.435-3.789-1.24-5.264c-1.727-3.166-1.499-6.464-1.483-9.788c0.016-4.039,0.117-8.077,0.204-12.115
		c0.042-1.986-0.447-3.485-2.549-3.737c-0.401,5.133-0.504,9.966-1.218,14.708c-0.948,6.316-2.056,12.565-1.666,19.013
		c0.478,7.875,0.545,15.775,1.006,23.652c0.563,9.557,1.282,19.106,2.126,28.643c0.113,1.308,1.318,2.521,2.018,3.774
		c0.675,0,1.348,0,2.021,0c2.072-1.94,1.885-4.392,1.773-6.951c-0.359-8.345-0.562-16.695-0.798-25.047
		c-0.009-0.27,0.268-0.547,0.769-1.499c1.151,5.587,2.183,10.602,3.216,15.617c0.94,4.566,1.997,9.115,2.765,13.713
		c0.301,1.791,1.104,3.053,2.378,4.167c0.675,0,1.347,0,2.021,0c0.971-1.565,1.643-3.03,1.314-5.112
		c-1.412-8.945-2.594-17.928-3.77-26.91c-0.684-5.24-2.091-10.438-1.434-15.904c2.852,3.551,5.517,6.991,8.353,10.284
		c0.501,0.583,1.843,0.946,2.574,0.712C90.278,54.415,90.493,53.102,89.925,51.901z M70.971,39.667c-1.667,0-3.02-1.352-3.02-3.02
		s1.353-3.02,3.02-3.02c1.668,0,3.021,1.352,3.021,3.02S72.639,39.667,70.971,39.667z"/>
</g>
</svg>
