<?xml version="1.0" encoding="utf-8"?>
<!-- Generator: Adobe Illustrator 16.0.0, SVG Export Plug-In . SVG Version: 6.00 Build 0)  -->
<!DOCTYPE svg PUBLIC "-//W3C//DTD SVG 1.1//EN" "http://www.w3.org/Graphics/SVG/1.1/DTD/svg11.dtd">
<svg version="1.1" id="Слой_1" xmlns="http://www.w3.org/2000/svg" xmlns:xlink="http://www.w3.org/1999/xlink" x="0px" y="0px"
	 width="280.201px" height="297.64px" viewBox="0 0 280.201 297.64" enable-background="new 0 0 280.201 297.64"
	 xml:space="preserve">
<g>
	<path fill-rule="evenodd" clip-rule="evenodd" fill="#0A0A0A" d="M222.68,220.149c0,0.977,0,1.952,0,2.928
		c-0.001,13.069,0.114,26.138-0.036,39.204c-0.145,12.521-5.596,22.275-16.313,28.783c-14.058,8.535-32.801,5.402-43.417-8.604
		c-4.428-5.845-6.674-12.484-6.634-19.856c0.015-2.653,0.003-5.307,0.003-8.035c-9.718,0-19.251,0-29.138,0
		c0,0.919,0.042,1.975-0.008,3.026c-0.175,3.745,0,7.557-0.645,11.222c-2.584,14.697-15.188,25.311-29.057,26.714
		c-17.55,1.777-34.124-10.462-36.55-29.473c-0.187-1.465-0.123-2.966-0.123-4.45c-0.008-13.663-0.005-27.324-0.005-40.987
		c0-0.968,0-1.937,0-2.904c-0.167-0.027-0.333-0.056-0.499-0.083c-0.296,0.859-0.617,1.712-0.885,2.58
		c-1.808,5.836-4.681,11.107-8.758,15.635c-4.621,5.13-10.25,8.805-17.231,9.597c-8.855,1.002-15.803-2.635-20.958-9.744
		c-5.345-7.37-7.379-15.807-7.69-24.767c-0.169-4.889,0.77-9.615,1.828-14.347c3.006-13.432,7.449-26.35,13.716-38.618
		c5.144-10.069,11.387-19.408,18.675-28.051c6.522-7.733,13.767-14.729,21.799-21.369c0-0.783,0-1.758,0-2.732
		c0.001-8.613-0.025-17.227,0.008-25.841c0.061-15.922,4.359-30.579,13.402-43.729c11.904-17.31,28.106-28.403,48.759-32.442
		c16.439-3.216,32.793-2.639,48.751,3.021c7.987,2.833,15.258,7,21.834,12.299c12.414,10.001,21.032,22.636,25.749,37.893
		c2.29,7.406,3.387,14.998,3.416,22.739c0.033,8.91,0.003,17.821,0.001,26.731c0,0.884,0,1.77,0,2.404
		c4.429,4.178,8.763,8.078,12.883,12.191c13.017,12.993,23.169,27.987,30.571,44.8c5.46,12.406,9.578,25.288,11.369,38.742
		c1.554,11.668-0.839,22.689-8.114,32.156c-7.431,9.67-19.665,11.574-30.219,5.053c-5.608-3.467-9.736-8.321-12.722-14.144
		c-1.252-2.441-2.275-5-3.401-7.505C222.921,220.176,222.8,220.162,222.68,220.149z M137.219,7.328
		c-2.654,0.143-5.313,0.205-7.958,0.443c-7.143,0.645-13.932,2.697-20.432,5.625c-14.111,6.355-25.185,16.213-33.056,29.541
		C69.329,53.85,65.942,65.696,65.838,78.4c-0.082,9.998-0.017,19.995-0.017,29.993c0,0.878,0,1.755,0,2.474
		c-7.046,5.857-13.668,11.764-19.644,18.4c-7.843,8.71-14.573,18.167-20.143,28.47c-6.845,12.664-11.398,26.154-14.707,40.118
		c-1.872,7.897-2.314,15.758-0.068,23.646c1.505,5.284,3.634,10.257,7.674,14.137c4.242,4.077,9.245,5.929,15.155,4.642
		c4.579-0.997,8.38-3.396,11.647-6.681c5.465-5.492,8.687-12.213,10.115-19.719c1.884-9.912,4.529-19.562,8.7-28.765
		c0.271-0.599,0.668-1.137,1.277-2.15c0,1.23,0,1.914,0,2.597c-0.003,25.539-0.032,51.077,0.027,76.615
		c0.006,2.546,0.219,5.176,0.885,7.615c4.464,16.324,21.641,25.212,37.352,19.028c10.372-4.084,16.537-11.925,17.816-23.148
		c0.456-4.005,0.292-8.084,0.389-12.13c0.036-1.453,0.006-2.907,0.006-4.203c2.969,0,5.631-0.162,8.269,0.03
		c7.398,0.54,14.783,0.552,22.181,0.003c2.854-0.212,5.727-0.146,8.591-0.207c0.056,5.139,0.109,10.277,0.164,15.415
		c-0.06,4.48,1.424,8.518,3.66,12.303c5.923,10.022,17.76,15.981,30.482,13.183c6.476-1.427,11.819-4.838,15.938-10.077
		c4.254-5.407,6.082-11.565,6.063-18.438c-0.071-25.419-0.028-50.838-0.028-76.728c0.544,0.924,0.932,1.46,1.196,2.053
		c3.116,6.945,5.401,14.178,6.845,21.634c1.224,6.321,2.614,12.545,5.948,18.141c3.252,5.457,7.407,10,13.406,12.513
		c2.842,1.189,5.745,1.849,8.923,1.379c5.703-0.848,9.815-3.984,12.82-8.642c5.424-8.404,7.085-17.763,5.741-27.508
		c-1.007-7.299-3.008-14.44-5.251-21.482c-7.233-22.701-19.298-42.483-36.13-59.315c-4.249-4.249-8.888-8.109-13.499-12.286
		c0-9.997-0.013-20.182,0.005-30.367c0.009-5.042-0.31-10.038-1.284-15.007c-2.484-12.67-7.856-23.937-16.343-33.645
		c-7.992-9.144-17.553-16.126-29.027-20.37c-8.211-3.037-16.609-4.931-25.42-4.624c-0.604-0.005-1.211-0.009-1.816-0.013
		c-1.174,0-2.35,0-3.524,0C139.213,7.298,138.216,7.313,137.219,7.328z"/>
	<path fill-rule="evenodd" clip-rule="evenodd" fill="#B2D9BB" d="M161.343,249.165c-2.864,0.062-5.737-0.005-8.591,0.207
		c-7.397,0.549-14.783,0.537-22.181-0.003c-2.638-0.192-5.3-0.03-8.269-0.03c0,1.296,0.03,2.75-0.006,4.203
		c-0.097,4.046,0.067,8.125-0.389,12.13c-1.28,11.224-7.444,19.064-17.816,23.148c-15.71,6.184-32.888-2.704-37.352-19.028
		c-0.667-2.439-0.879-5.069-0.885-7.615c-0.059-25.538-0.031-51.076-0.027-76.615c0-0.683,0-1.366,0-2.597
		c-0.608,1.014-1.006,1.552-1.277,2.15c-4.171,9.203-6.816,18.853-8.7,28.765c-1.428,7.506-4.65,14.227-10.115,19.719
		c-3.267,3.285-7.068,5.684-11.647,6.681c-5.911,1.287-10.913-0.564-15.155-4.642c-4.04-3.88-6.169-8.853-7.674-14.137
		c-2.246-7.888-1.804-15.748,0.068-23.646c3.309-13.964,7.862-27.454,14.707-40.118c5.57-10.304,12.3-19.76,20.143-28.47
		c5.976-6.637,12.598-12.543,19.644-18.4c0-0.719,0-1.596,0-2.474c0-9.998-0.065-19.995,0.017-29.993
		c0.104-12.704,3.491-24.55,9.935-35.463c7.871-13.328,18.945-23.186,33.056-29.541c6.5-2.928,13.29-4.98,20.432-5.625
		c2.645-0.238,5.304-0.301,7.958-0.443c1.171,0.885,1.893,0.875,2.993-0.044c1.174,0,2.35,0,3.524,0
		c0.599,1.069,1.203,1.074,1.816,0.013c8.811-0.307,17.209,1.587,25.42,4.624c11.475,4.244,21.035,11.227,29.027,20.37
		c8.486,9.708,13.858,20.974,16.343,33.645c0.975,4.97,1.293,9.965,1.284,15.007c-0.018,10.185-0.005,20.37-0.005,30.367
		c4.611,4.177,9.25,8.037,13.499,12.286c16.832,16.832,28.896,36.614,36.13,59.315c2.243,7.042,4.244,14.184,5.251,21.482
		c1.344,9.745-0.317,19.104-5.741,27.508c-3.005,4.657-7.117,7.794-12.82,8.642c-3.178,0.47-6.081-0.189-8.923-1.379
		c-5.999-2.513-10.154-7.056-13.406-12.513c-3.334-5.596-4.725-11.819-5.948-18.141c-1.443-7.456-3.729-14.688-6.845-21.634
		c-0.265-0.593-0.652-1.129-1.196-2.053c0,25.89-0.043,51.309,0.028,76.728c0.02,6.872-1.809,13.03-6.063,18.438
		c-4.119,5.239-9.463,8.65-15.938,10.077c-12.723,2.799-24.56-3.16-30.482-13.183c-2.236-3.785-3.72-7.822-3.66-12.303
		c0.209-0.175,0.599-0.349,0.602-0.525c0.041-4.761,0.055-9.522,0.019-14.284C162.125,249.566,161.615,249.367,161.343,249.165z
		 M117.686,124.403c0.615-0.335,0.78-0.499,0.958-0.512c6.494-0.471,12.983-1.176,19.486-1.316
		c6.513-0.142,13.053,0.058,19.552,0.522c5.985,0.428,11.93,1.41,17.895,2.137c3.518,0.429,7.045,1.223,10.558,1.167
		c5.424-0.085,10.496-1.835,14.813-5.213c7.495-5.865,10.739-13.642,9.116-23.017c-1.283-7.409-5.744-12.843-12.165-16.692
		c-4.249-2.546-8.987-3.297-13.769-4.148c-9.234-1.644-18.539-2.741-27.879-3.186c-12.634-0.602-25.3-0.721-37.897,0.893
		c-7.423,0.951-14.869,1.797-22.239,3.076c-9.133,1.584-16.076,6.509-19.948,15.06c-4.49,9.914-1.414,21.261,7.388,27.754
		c2.431,1.793,5.214,3.109,8.157,4.832c0,0.479,0,1.355,0,2.232c0.001,5.247-0.002,10.494,0.009,15.741
		c0.002,0.786-0.017,1.589,0.132,2.353c0.618,3.177,3.312,5.144,6.387,4.947c2.479-0.155,5.323-2.995,5.144-5.895
		c-0.221-3.55-0.063-7.125-0.047-10.689c0.003-0.76,0.096-1.52,0.146-2.28c0.506,0.962,0.506,1.924,0.506,2.887
		c0.003,6.534,0.004,13.068,0.011,19.601c0.001,0.792-0.032,1.591,0.058,2.374c0.566,4.931,6.046,7.809,10.175,5.422
		c2.355-1.361,3.492-3.283,3.475-6.052c-0.058-9.701-0.02-19.403-0.019-29.105C117.687,126.321,117.686,125.346,117.686,124.403z
		 M140.79,159.179c-3.042,0.271-6.105,0.393-9.12,0.844c-13.865,2.072-25.693,8.094-34.876,18.785
		c-9.205,10.717-13.303,23.09-11.221,37.259c1.059,7.199,4.509,12.944,10.496,17.131c4.861,3.398,10.37,5.156,16.098,6.372
		c8.444,1.792,17.04,2.038,25.6,2.111c7.982,0.066,15.974-0.498,23.952-0.967c5.127-0.3,10.148-1.405,15.018-3.034
		c5.105-1.708,9.7-4.263,13.402-8.332c5.259-5.783,6.702-12.876,6.732-20.26c0.021-4.785-0.872-9.578-2.512-14.161
		c-5.031-14.063-14.685-23.85-28.043-30.126C158.258,161.015,149.749,159.134,140.79,159.179z M176.854,69.652
		c4.635-0.197,9.309-3.465,9.489-9.737c0.146-4.985-4.759-9.665-9.72-9.588c-5.151,0.08-9.833,4.618-9.629,9.658
		C167.229,65.703,171.228,69.525,176.854,69.652z M105.875,69.656c5.146,0.022,9.97-4.385,9.77-9.447
		c-0.225-5.691-3.731-9.774-9.714-9.771c-6.408,0.005-9.72,5.232-9.592,9.567C96.53,66.481,101.624,69.654,105.875,69.656z"/>
	<path fill-rule="evenodd" clip-rule="evenodd" fill="#C4E9CB" d="M161.343,249.165c0.272,0.202,0.782,0.401,0.784,0.605
		c0.036,4.762,0.022,9.523-0.019,14.284c-0.003,0.177-0.393,0.351-0.602,0.525C161.452,259.442,161.398,254.304,161.343,249.165z"/>
	<path fill-rule="evenodd" clip-rule="evenodd" fill="#C5EBCE" d="M140.212,7.284c-1.1,0.919-1.822,0.929-2.993,0.044
		C138.216,7.313,139.213,7.298,140.212,7.284z"/>
	<path fill-rule="evenodd" clip-rule="evenodd" fill="#C5EBCE" d="M145.553,7.297c-0.613,1.061-1.218,1.056-1.816-0.013
		C144.342,7.288,144.948,7.292,145.553,7.297z"/>
	<path fill-rule="evenodd" clip-rule="evenodd" fill="#131615" d="M117.686,124.403c0,0.943,0.001,1.918,0,2.892
		c-0.001,9.702-0.039,19.404,0.019,29.105c0.017,2.769-1.12,4.69-3.475,6.052c-4.128,2.387-9.609-0.491-10.175-5.422
		c-0.09-0.783-0.057-1.582-0.058-2.374c-0.006-6.533-0.007-13.067-0.011-19.601c0-0.962,0-1.925-0.506-2.887
		c-0.051,0.76-0.143,1.52-0.146,2.28c-0.016,3.564-0.174,7.139,0.047,10.689c0.18,2.9-2.665,5.74-5.144,5.895
		c-3.075,0.196-5.769-1.771-6.387-4.947c-0.149-0.764-0.13-1.567-0.132-2.353c-0.012-5.247-0.008-10.494-0.009-15.741
		c0-0.877,0-1.754,0-2.232c-2.942-1.722-5.726-3.038-8.157-4.832c-8.802-6.494-11.877-17.841-7.388-27.754
		c3.873-8.551,10.815-13.475,19.948-15.06c7.37-1.279,14.816-2.125,22.239-3.076c12.597-1.614,25.263-1.494,37.897-0.893
		c9.34,0.444,18.645,1.542,27.879,3.186c4.781,0.851,9.52,1.602,13.769,4.148c6.421,3.849,10.882,9.283,12.165,16.692
		c1.623,9.375-1.621,17.152-9.116,23.017c-4.316,3.378-9.389,5.128-14.813,5.213c-3.513,0.056-7.04-0.737-10.558-1.167
		c-5.965-0.728-11.909-1.709-17.895-2.137c-6.499-0.464-13.039-0.664-19.552-0.522c-6.502,0.141-12.992,0.845-19.486,1.316
		C118.466,123.904,118.3,124.067,117.686,124.403z M101.433,131.107c1.191-1.214,2.073-1.68,3.274-1.088
		c1.143,0.563,1.469,1.516,1.474,2.674c0.002,0.594,0.002,1.188,0.002,1.782c-0.001,6.732-0.002,13.464,0.001,20.195
		c0,0.792-0.04,1.592,0.063,2.373c0.287,2.188,1.939,3.831,4.051,4.12c2.163,0.295,4.166-0.76,4.985-2.864
		c0.379-0.977,0.487-2.108,0.491-3.169c0.034-9.703,0.014-19.404,0.021-29.105c0.002-3.501,0.166-3.817,3.498-4.141
		c5.992-0.582,11.993-1.207,18.005-1.425c5.421-0.197,10.863,0.032,16.291,0.239c8.397,0.321,16.732,1.302,24.98,2.93
		c5.346,1.056,10.563,1.016,15.716-1.042c10.544-4.213,17.058-15.993,12.907-27.074c-2.75-7.343-8.075-12.069-15.443-14.461
		c-2.423-0.787-4.979-1.262-7.512-1.587c-8.709-1.12-17.413-2.409-26.161-3.058c-7.568-0.562-15.181-0.998-22.796-0.425
		c-3.449,0.26-6.943,0.052-10.372,0.44c-8.92,1.013-17.819,2.214-26.72,3.389c-5.203,0.686-9.935,2.561-13.945,6.01
		c-5.139,4.42-8.133,10.022-8.013,16.83c0.124,7.01,3.176,12.788,8.923,16.91c1.899,1.362,4.088,2.358,6.229,3.34
		c2.232,1.024,2.417,1.096,2.449,3.437c0.028,2.079,0.004,4.158,0.005,6.237c0.001,4.157-0.046,8.316,0.026,12.473
		c0.038,2.217,1.395,3.656,3.34,3.832c2.135,0.193,3.712-1.049,4.13-3.376c0.155-0.865,0.096-1.773,0.098-2.661
		C101.438,138.891,101.433,134.939,101.433,131.107z"/>
	<path fill-rule="evenodd" clip-rule="evenodd" fill="#141614" d="M140.79,159.179c8.959-0.045,17.468,1.836,25.527,5.622
		c13.358,6.276,23.012,16.063,28.043,30.126c1.64,4.583,2.532,9.376,2.512,14.161c-0.03,7.384-1.474,14.477-6.732,20.26
		c-3.702,4.069-8.297,6.624-13.402,8.332c-4.869,1.629-9.891,2.734-15.018,3.034c-7.978,0.469-15.97,1.033-23.952,0.967
		c-8.56-0.073-17.156-0.319-25.6-2.111c-5.728-1.216-11.237-2.974-16.098-6.372c-5.987-4.187-9.438-9.932-10.496-17.131
		c-2.082-14.169,2.016-26.542,11.221-37.259c9.183-10.691,21.011-16.713,34.876-18.785
		C134.685,159.571,137.748,159.45,140.79,159.179z M140.497,239.787c5.917-0.247,11.848-0.332,17.749-0.785
		c6.791-0.521,13.508-1.584,19.906-4.118c7.594-3.006,13.109-8.025,15.334-16.073c1.077-3.897,1.343-7.896,1.072-11.987
		c-0.791-11.932-5.814-21.831-14.256-30.03c-8.941-8.684-19.838-13.568-32.145-14.956c-13.859-1.562-27.014,0.898-38.751,8.753
		c-15.278,10.223-23.379,24.345-22.021,43.065c0.6,8.257,4.419,14.779,11.827,19.026c4.879,2.798,10.144,4.266,15.609,5.188
		C123.317,239.303,131.894,239.637,140.497,239.787z"/>
	<path fill-rule="evenodd" clip-rule="evenodd" fill="#060606" d="M176.854,69.652c-5.627-0.127-9.626-3.949-9.859-9.668
		c-0.204-5.04,4.478-9.578,9.629-9.658c4.961-0.077,9.865,4.604,9.72,9.588C186.163,66.188,181.489,69.455,176.854,69.652z
		 M179.453,54.201c-1.722,0.033-2.98,1.325-2.936,3.013c0.04,1.571,1.505,2.975,3.093,2.964c1.593-0.009,2.945-1.445,2.912-3.09
		C182.488,55.423,181.154,54.168,179.453,54.201z"/>
	<path fill-rule="evenodd" clip-rule="evenodd" fill="#050606" d="M105.875,69.656c-4.25-0.002-9.344-3.175-9.537-9.651
		c-0.128-4.334,3.184-9.562,9.592-9.567c5.982-0.003,9.489,4.08,9.714,9.771C115.845,65.271,111.021,69.679,105.875,69.656z
		 M111.734,57.042c-0.057-1.828-1.184-2.888-3.013-2.834c-1.683,0.05-2.979,1.408-2.911,3.049c0.065,1.553,1.621,3.006,3.133,2.922
		C110.652,60.084,111.79,58.805,111.734,57.042z"/>
	<path fill-rule="evenodd" clip-rule="evenodd" fill="#CCE7F3" d="M101.433,131.107c0,3.832,0.005,7.784-0.003,11.736
		c-0.002,0.888,0.057,1.796-0.098,2.661c-0.418,2.327-1.995,3.569-4.13,3.376c-1.946-0.175-3.302-1.615-3.34-3.832
		c-0.072-4.157-0.024-8.315-0.026-12.473c-0.001-2.079,0.023-4.159-0.005-6.237c-0.032-2.34-0.217-2.413-2.449-3.437
		c-2.14-0.982-4.33-1.978-6.229-3.34c-5.747-4.122-8.799-9.9-8.923-16.91c-0.121-6.807,2.874-12.409,8.013-16.83
		c4.01-3.45,8.743-5.324,13.945-6.01c8.901-1.175,17.8-2.376,26.72-3.389c3.429-0.389,6.923-0.181,10.372-0.44
		c7.615-0.573,15.228-0.137,22.796,0.425c8.748,0.649,17.452,1.938,26.161,3.058c2.533,0.325,5.089,0.8,7.512,1.587
		c7.368,2.392,12.693,7.118,15.443,14.461c4.15,11.081-2.363,22.861-12.907,27.074c-5.152,2.059-10.37,2.098-15.716,1.042
		c-8.248-1.628-16.583-2.609-24.98-2.93c-5.428-0.208-10.87-0.437-16.291-0.239c-6.012,0.218-12.013,0.843-18.005,1.425
		c-3.332,0.324-3.495,0.64-3.498,4.141c-0.007,9.701,0.013,19.403-0.021,29.105c-0.004,1.061-0.111,2.192-0.491,3.169
		c-0.819,2.104-2.822,3.159-4.985,2.864c-2.112-0.289-3.764-1.933-4.051-4.12c-0.103-0.781-0.063-1.581-0.063-2.373
		c-0.003-6.731-0.002-13.463-0.001-20.195c0-0.594,0-1.188-0.002-1.782c-0.005-1.158-0.331-2.111-1.474-2.674
		C103.505,129.428,102.624,129.894,101.433,131.107z M87.357,91.125c-0.202,0.201-0.404,0.402-0.605,0.604l0.018-0.018
		c-2.81,1.968-4.024,4.811-4.41,8.096c-0.02,0.164,0.155,0.352,0.239,0.529l0.014-0.034c-0.189,0.304-0.377,0.609-0.566,0.914
		c-0.28,3.473,0.612,6.655,2.501,9.544c3.889,5.945,11.38,8.813,18.668,7.511c6.007-1.072,12.05-2.047,18.118-2.661
		c9.032-0.914,18.094-1.253,27.196-0.95c9.883,0.329,19.664,1.347,29.409,2.938c2.714,0.443,5.479,0.909,8.21,0.844
		c10.232-0.242,17.875-9.15,16.297-18.4c-0.849-5.15-3.563-8.983-8.125-11.514c-1.147-0.571-2.295-1.141-3.443-1.712
		c-3.466-1.558-7.183-1.88-10.897-2.215c-0.772-0.126-1.542-0.253-2.314-0.379c-1.708-0.291-3.417-0.582-5.125-0.873l0.063,0.008
		c-3.67-0.334-7.342-0.669-11.012-1.004c-4.761-0.233-9.521-0.466-14.281-0.7c-3.358,0.002-6.717,0.004-10.076,0.005
		c-4.761,0.232-9.521,0.463-14.281,0.694c-2.332,0.187-4.672,0.307-6.994,0.583c-1.831,0.217-3.636,0.629-5.453,0.954
		c-0.787,0.046-1.574,0.091-2.361,0.137c-0.443,0.063-0.887,0.127-1.332,0.192c-0.747,0.137-1.494,0.272-2.241,0.409
		c-2.612,0.44-5.226,0.879-7.84,1.318c-3.129,0.557-6.011,1.637-8.323,3.924c-0.354,0.422-0.708,0.844-1.061,1.266L87.357,91.125z"
		/>
	<path fill-rule="evenodd" clip-rule="evenodd" fill="#E5ECB9" d="M140.497,239.787c-8.603-0.15-17.179-0.484-25.675-1.918
		c-5.465-0.922-10.73-2.39-15.609-5.188c-7.407-4.247-11.227-10.77-11.827-19.026c-1.359-18.721,6.742-32.843,22.021-43.065
		c11.737-7.854,24.892-10.314,38.751-8.753c12.307,1.388,23.203,6.272,32.145,14.956c8.441,8.199,13.465,18.099,14.256,30.03
		c0.271,4.091,0.005,8.09-1.072,11.987c-2.225,8.048-7.74,13.067-15.334,16.073c-6.398,2.534-13.115,3.598-19.906,4.118
		C152.345,239.455,146.414,239.54,140.497,239.787z"/>
	<path fill-rule="evenodd" clip-rule="evenodd" fill="#EBEBEB" d="M179.453,54.201c1.701-0.033,3.035,1.222,3.069,2.888
		c0.033,1.645-1.319,3.081-2.912,3.09c-1.588,0.01-3.053-1.393-3.093-2.964C176.473,55.525,177.731,54.234,179.453,54.201z"/>
	<path fill-rule="evenodd" clip-rule="evenodd" fill="#EBEBEB" d="M111.734,57.042c0.056,1.763-1.082,3.042-2.791,3.136
		c-1.512,0.084-3.068-1.369-3.133-2.922c-0.067-1.641,1.229-2.999,2.911-3.049C110.55,54.154,111.677,55.214,111.734,57.042z"/>
	<path fill-rule="evenodd" clip-rule="evenodd" fill="#030404" d="M202.446,100.043c1.578,9.25-6.064,18.159-16.297,18.4
		c-2.73,0.064-5.496-0.401-8.21-0.844c-9.745-1.591-19.526-2.608-29.409-2.938c-9.102-0.303-18.164,0.037-27.196,0.95
		c-6.067,0.614-12.11,1.588-18.118,2.661c-7.288,1.302-14.779-1.566-18.668-7.511c-1.89-2.889-2.782-6.072-2.501-9.544
		c0.27-0.101,0.539-0.202,0.807-0.303c0.047,0.184,0.033,0.444,0.151,0.54c4.641,3.778,11.8,2.097,14.25-3.354
		c0.394-0.873,0.651-1.807,0.982-2.745c4.496,6.541,14.616,5.804,17.356-3.065c2.016,3.592,5.019,5.466,9.041,5.167
		c4.065-0.302,6.819-2.611,8.287-6.624c4.133,7.955,14.002,7.703,17.7-0.078c1.202,3.72,3.65,6.023,7.579,6.587
		c4.324,0.621,7.459-1.282,9.75-5.047c1.942,7.21,10.75,10.546,17.321,3.404c0.223,0.491,0.48,0.901,0.599,1.348
		c1.19,4.469,5.717,6.654,9.249,6.407c2.574-0.18,5.095-0.75,6.43-3.406C201.848,100.046,202.147,100.044,202.446,100.043z"/>
	<path fill-rule="evenodd" clip-rule="evenodd" fill="#FAFAFA" d="M201.549,100.047c-1.335,2.656-3.855,3.226-6.43,3.406
		c-3.532,0.247-8.059-1.938-9.249-6.407c-0.118-0.447-0.376-0.857-0.599-1.348c-6.571,7.142-15.379,3.806-17.321-3.404
		c-2.291,3.765-5.426,5.668-9.75,5.047c-3.929-0.563-6.377-2.867-7.579-6.587c-3.697,7.78-13.566,8.032-17.7,0.078
		c-1.468,4.013-4.222,6.322-8.287,6.624c-4.022,0.3-7.024-1.574-9.041-5.167c-2.74,8.869-12.86,9.606-17.356,3.065
		c-0.331,0.938-0.588,1.872-0.982,2.745c-2.451,5.451-9.61,7.131-14.25,3.354c-0.118-0.096-0.104-0.356-0.151-0.54
		c-0.081-0.204-0.161-0.407-0.241-0.611l-0.014,0.034c0.234-0.282,0.596-0.531,0.682-0.852c0.642-2.375,1.631-4.553,3.23-6.455
		c0.252-0.3,0.181-0.872,0.259-1.318l-0.018,0.018c0.201-0.202,0.403-0.403,0.605-0.604l-0.008,0.011
		c1.094,0.369,1.568-0.435,2.107-1.116c2.457-1.058,4.913-2.116,7.369-3.174c2.59-0.488,5.18-0.976,7.77-1.463
		c0.769-0.089,1.54-0.179,2.309-0.268c0.428-0.048,0.857-0.098,1.287-0.146c0.766-0.147,1.531-0.295,2.297-0.442
		c4.157-0.408,8.314-0.816,12.472-1.225c3.504-0.176,7.01-0.346,10.514-0.53c1.258-0.066,2.516-0.167,3.774-0.253
		c3.35-0.001,6.7-0.002,10.05-0.003c4.763,0.259,9.526,0.518,14.289,0.776c3.027,0.287,6.057,0.568,9.083,0.866
		c0.799,0.078,1.607,0.238,1.935-0.798l-0.063-0.008c0.09,0.356,0.178,0.712,0.304,1.213c1.611,0.173,3.202,0.343,4.792,0.513
		c0.77,0.103,1.539,0.205,2.308,0.308c3.388,0.688,6.775,1.376,10.164,2.063c1.372,0.646,2.744,1.291,4.116,1.936
		C197.892,92.095,200.509,95.529,201.549,100.047z"/>
	<path fill-rule="evenodd" clip-rule="evenodd" fill="#303438" d="M201.549,100.047c-1.04-4.518-3.657-7.952-7.324-10.664
		c0.031-0.284,0.064-0.569,0.097-0.854c4.563,2.531,7.276,6.364,8.125,11.514C202.147,100.044,201.848,100.046,201.549,100.047z"/>
	<path fill-rule="evenodd" clip-rule="evenodd" fill="#353A3C" d="M137.247,82.517c-1.258,0.086-2.516,0.188-3.774,0.253
		c-3.503,0.185-7.009,0.354-10.514,0.53c-0.002-0.315-0.004-0.632-0.006-0.948c4.76-0.231,9.521-0.462,14.281-0.694
		C137.238,81.945,137.243,82.231,137.247,82.517z"/>
	<path fill-rule="evenodd" clip-rule="evenodd" fill="#34383B" d="M161.586,83.29c-4.763-0.259-9.526-0.518-14.289-0.776
		c0.005-0.287,0.011-0.573,0.014-0.86c4.761,0.234,9.521,0.467,14.281,0.7C161.59,82.666,161.587,82.978,161.586,83.29z"/>
	<path fill-rule="evenodd" clip-rule="evenodd" fill="#404547" d="M190.108,87.447c-3.389-0.688-6.776-1.376-10.164-2.063
		c0.012-0.261,0.023-0.521,0.036-0.782c3.715,0.335,7.432,0.657,10.897,2.215C190.623,87.027,190.365,87.237,190.108,87.447z"/>
	<path fill-rule="evenodd" clip-rule="evenodd" fill="#26292C" d="M122.953,82.353c0.002,0.316,0.004,0.632,0.006,0.948
		c-4.158,0.408-8.315,0.816-12.472,1.225c0.006-0.211,0.013-0.424,0.019-0.636c1.817-0.325,3.623-0.737,5.453-0.954
		C118.281,82.66,120.621,82.54,122.953,82.353z"/>
	<path fill-rule="evenodd" clip-rule="evenodd" fill="#1B2224" d="M147.311,81.653c-0.003,0.287-0.009,0.574-0.014,0.86
		c-3.35,0.001-6.7,0.002-10.05,0.003c-0.004-0.286-0.009-0.572-0.013-0.858C140.594,81.657,143.952,81.655,147.311,81.653z"/>
	<path fill-rule="evenodd" clip-rule="evenodd" fill="#262A2A" d="M161.586,83.29c0.001-0.312,0.004-0.625,0.006-0.937
		c3.67,0.335,7.342,0.669,11.012,1.004c-0.327,1.036-1.136,0.876-1.935,0.798C167.643,83.858,164.613,83.577,161.586,83.29z"/>
	<path fill-rule="evenodd" clip-rule="evenodd" fill="#313437" d="M86.77,91.711c-0.078,0.446-0.007,1.019-0.259,1.318
		c-1.6,1.902-2.589,4.081-3.23,6.455c-0.086,0.321-0.448,0.57-0.682,0.852c-0.084-0.177-0.259-0.365-0.239-0.529
		C82.746,96.521,83.96,93.679,86.77,91.711z"/>
	<path fill-rule="evenodd" clip-rule="evenodd" fill="#353A3E" d="M96.825,86.845c-2.456,1.058-4.912,2.116-7.369,3.174
		c-0.349-0.05-0.697-0.1-1.046-0.149c2.313-2.287,5.194-3.367,8.323-3.924C96.764,86.245,96.794,86.545,96.825,86.845z"/>
	<path fill-rule="evenodd" clip-rule="evenodd" fill="#3A3F42" d="M96.825,86.845c-0.031-0.3-0.061-0.6-0.091-0.899
		c2.614-0.439,5.228-0.878,7.84-1.318c0.007,0.251,0.014,0.502,0.021,0.753C102.005,85.869,99.415,86.357,96.825,86.845z"/>
	<path fill-rule="evenodd" clip-rule="evenodd" fill="#3A3F42" d="M177.637,85.075c-1.59-0.17-3.181-0.34-4.792-0.513
		c-0.126-0.5-0.214-0.856-0.304-1.213c1.708,0.291,3.417,0.582,5.125,0.873C177.657,84.506,177.646,84.791,177.637,85.075z"/>
	<path fill-rule="evenodd" clip-rule="evenodd" fill="#313437" d="M190.108,87.447c0.257-0.209,0.515-0.42,0.77-0.63
		c1.148,0.571,2.296,1.141,3.443,1.712c-0.032,0.285-0.065,0.57-0.097,0.854C192.853,88.738,191.48,88.092,190.108,87.447z"/>
	<path fill-rule="evenodd" clip-rule="evenodd" fill="#131615" d="M110.506,83.89c-0.006,0.212-0.013,0.424-0.019,0.636
		c-0.766,0.147-1.531,0.294-2.297,0.442c-0.016-0.314-0.03-0.627-0.045-0.94C108.933,83.98,109.719,83.936,110.506,83.89z"/>
	<path fill-rule="evenodd" clip-rule="evenodd" fill="#0A0A0A" d="M104.595,85.381c-0.007-0.251-0.014-0.502-0.021-0.753
		c0.747-0.137,1.494-0.272,2.241-0.409c0.031,0.298,0.06,0.596,0.09,0.895C106.134,85.203,105.364,85.292,104.595,85.381z"/>
	<path fill-rule="evenodd" clip-rule="evenodd" fill="#131615" d="M177.637,85.075c0.01-0.284,0.021-0.569,0.029-0.853
		c0.772,0.126,1.542,0.253,2.314,0.379c-0.013,0.261-0.024,0.521-0.036,0.782C179.176,85.28,178.406,85.178,177.637,85.075z"/>
	<path fill-rule="evenodd" clip-rule="evenodd" fill="#313437" d="M88.41,89.87c0.349,0.05,0.697,0.1,1.046,0.149
		c-0.539,0.682-1.013,1.485-2.107,1.116C87.703,90.713,88.056,90.292,88.41,89.87z"/>
	<path fill-rule="evenodd" clip-rule="evenodd" fill="#595F62" d="M106.904,85.113c-0.03-0.298-0.059-0.596-0.09-0.895
		c0.444-0.064,0.888-0.128,1.332-0.192c0.015,0.313,0.029,0.626,0.045,0.94C107.761,85.016,107.332,85.065,106.904,85.113z"/>
	<path fill-rule="evenodd" clip-rule="evenodd" fill="#313437" d="M87.357,91.125c-0.202,0.201-0.404,0.402-0.605,0.604
		C86.953,91.527,87.155,91.326,87.357,91.125z"/>
	<path fill-rule="evenodd" clip-rule="evenodd" fill="#313437" d="M82.613,100.303c0.081,0.204,0.161,0.407,0.241,0.611
		c-0.269,0.101-0.538,0.202-0.807,0.303C82.236,100.912,82.424,100.607,82.613,100.303z"/>
</g>
</svg>
