<?xml version="1.0" encoding="iso-8859-1"?>
<!-- Generator: Adobe Illustrator 16.0.0, SVG Export Plug-In . SVG Version: 6.00 Build 0)  -->
<!DOCTYPE svg PUBLIC "-//W3C//DTD SVG 1.1//EN" "http://www.w3.org/Graphics/SVG/1.1/DTD/svg11.dtd">
<svg version="1.1" id="&#x421;&#x43B;&#x43E;&#x439;_1"
	 xmlns="http://www.w3.org/2000/svg" xmlns:xlink="http://www.w3.org/1999/xlink" x="0px" y="0px" width="26.833px"
	 height="27.539px" viewBox="0 0 26.833 27.539" style="enable-background:new 0 0 26.833 27.539;" xml:space="preserve">
<g>
	<path d="M10.415,3.853C9.996,3.826,9.591,3.828,9.195,3.769C8.219,3.622,7.541,2.766,7.598,1.79
		c0.057-0.956,0.813-1.754,1.774-1.769c1.988-0.028,3.977-0.028,5.966-0.001c0.995,0.014,1.746,0.815,1.783,1.796
		c0.04,0.999-0.622,1.813-1.615,1.956c-0.38,0.055-0.77,0.051-1.195,0.076c-0.009,0.167-0.018,0.329-0.027,0.547
		c2.176,0.392,4.099,1.303,5.764,2.756c0.085-0.073,0.148-0.117,0.201-0.171c0.099-0.097,0.19-0.199,0.389-0.407
		c-0.219-0.168-0.454-0.303-0.634-0.491c-0.588-0.625-0.581-1.483-0.009-2.045c0.558-0.543,1.421-0.557,2.015,0.019
		c1.079,1.05,2.144,2.118,3.194,3.199c0.57,0.589,0.551,1.466,0.007,2.014c-0.56,0.562-1.386,0.569-2.013,0.013
		c-0.21-0.184-0.401-0.381-0.618-0.585c-0.21,0.21-0.396,0.394-0.577,0.575c0.344,0.664,0.711,1.292,1.003,1.953
		c2.493,5.635,0.02,12.358-5.523,15.038C10.63,29.571,2.6,25.663,0.991,18.236C-0.348,12.048,3.748,5.774,9.963,4.512
		C10.341,4.434,10.586,4.334,10.415,3.853z M4.577,15.831c-0.022,4.289,3.463,7.787,7.772,7.805
		c4.289,0.018,7.801-3.472,7.821-7.768c0.02-4.269-3.5-7.802-7.785-7.816C8.1,8.034,4.598,11.525,4.577,15.831z"/>
</g>
<g>
	<path d="M9.594,19.82c0.129,0.441,0.48,0.65,0.927,0.55c0.204-0.046,0.401-0.136,0.584-0.24c1.953-1.112,3.901-2.232,5.851-3.352
		c0.12-0.071,0.245-0.146,0.353-0.233c0.489-0.391,0.489-0.975-0.003-1.362c-0.126-0.103-0.272-0.19-0.415-0.271
		c-1.915-1.098-3.83-2.196-5.747-3.295c-0.142-0.081-0.289-0.159-0.446-0.212c-0.566-0.205-1.028,0.053-1.147,0.641
		c-0.032,0.163-0.04,0.329-0.04,0.492c-0.005,1.109-0.002,2.215-0.002,3.328c0,1.116-0.004,2.235,0.004,3.352
		C9.514,19.419,9.537,19.627,9.594,19.82z"/>
</g>
</svg>
