<?xml version="1.0" encoding="utf-8"?>
<!-- Generator: Adobe Illustrator 16.0.0, SVG Export Plug-In . SVG Version: 6.00 Build 0)  -->
<!DOCTYPE svg PUBLIC "-//W3C//DTD SVG 1.1//EN" "http://www.w3.org/Graphics/SVG/1.1/DTD/svg11.dtd">
<svg version="1.1" id="Слой_1" xmlns="http://www.w3.org/2000/svg" xmlns:xlink="http://www.w3.org/1999/xlink" x="0px" y="0px"
	 width="93.543px" height="93.543px" viewBox="0 0 93.543 93.543" enable-background="new 0 0 93.543 93.543" xml:space="preserve">
<g>
	<path fill-rule="evenodd" clip-rule="evenodd" fill="#EC4D4D" d="M48.517,69.381c-1.353,0-2.708,0-4.061,0
		c-0.297-0.22-0.661-0.156-0.99-0.204c-6.145-0.888-10.844-3.993-14.045-9.288c-2.666-4.409-3.483-9.276-3.244-14.36
		c0.032-0.697,0.057-1.403,0.256-2.14c2.918,2.14,6.195,3.172,9.826,3.701c-0.404-0.331-0.698-0.568-0.988-0.812
		c-2.578-2.159-4.55-4.729-5.372-8.053c-0.61-2.47-0.377-4.787,1.106-6.972c1.653-2.436,3.417-4.776,5.374-6.972
		c4.451-4.992,9.446-9.406,14.55-13.705c0.215-0.181,0.495-0.302,0.604-0.594c0.038,0,0.077,0,0.115,0
		c-0.008,1.821,0.176,3.625,0.525,5.411c0.795,4.074,2.496,7.778,4.687,11.267c1.048,1.668,1.259,3.46,0.988,5.344
		c-0.346,2.405-1.415,4.513-2.771,6.493c-0.232,0.338-0.473,0.671-0.726,1.03c0.245,0.039,0.391-0.075,0.545-0.139
		c2.584-1.08,4.859-2.612,6.778-4.656c0.266-0.282,0.391-0.316,0.619,0.039c0.814,1.268,1.626,2.537,2.326,3.872
		c1.103,2.098,1.973,4.282,2.224,6.66c0.365,3.473-0.057,6.888-1.179,10.168c-2.46,7.195-7.287,11.867-14.842,13.509
		C50.059,69.146,49.265,69.134,48.517,69.381z M46.659,39.918l0.007-0.007c0.016,0.23,0.013,0.463,0.051,0.689
		c0.387,2.396,0.536,4.796,0.238,7.218c-0.455,3.686-1.968,6.925-4.101,9.912c-0.099,0.137-0.171,0.365-0.353,0.345
		c-0.221-0.027-0.217-0.288-0.277-0.46c-0.559-1.604-1.338-3.086-2.44-4.384c-0.736-0.868-1.549-1.656-2.526-2.255
		c-0.138,0.167-0.052,0.295-0.021,0.419c0.911,3.686,0.524,7.29-0.687,10.84c-0.273,0.802-0.283,0.806,0.461,1.184
		c2.534,1.283,5.218,1.984,8.06,2.156c3.6,0.217,7.044-0.341,10.333-1.848c0.55-0.252,0.953-0.617,1.289-1.114
		c1.651-2.44,2.597-5.124,2.821-8.06c0.028-0.366,0.021-0.735,0.022-1.103c0.002-0.348,0.007-0.696-0.014-1.044
		c-0.021-0.341-0.073-0.679-0.111-1.019c-0.414,1.587-0.938,2.695-2.009,4.049c-1.878,2.373-4.201,4.26-6.638,6.019
		c-0.061,0.043-0.131,0.078-0.234-0.004c0.037-0.188,0.076-0.394,0.12-0.598c1.048-4.986,0.874-9.912-0.75-14.758
		C49.153,43.867,48.132,41.772,46.659,39.918z"/>
	<path fill-rule="evenodd" clip-rule="evenodd" fill="#E7C644" d="M46.659,39.918c1.473,1.854,2.494,3.949,3.241,6.178
		c1.624,4.846,1.798,9.772,0.75,14.758c-0.044,0.204-0.083,0.41-0.12,0.598c0.104,0.082,0.174,0.047,0.234,0.004
		c2.437-1.759,4.76-3.646,6.638-6.019c1.07-1.354,1.595-2.462,2.009-4.049c0.038,0.34,0.091,0.678,0.111,1.019
		c0.021,0.348,0.016,0.696,0.014,1.044c-0.002,0.367,0.006,0.736-0.022,1.103c-0.225,2.936-1.17,5.619-2.821,8.06
		c-0.336,0.497-0.739,0.862-1.289,1.114c-3.288,1.507-6.732,2.064-10.333,1.848c-2.841-0.172-5.525-0.873-8.06-2.156
		c-0.745-0.378-0.735-0.382-0.461-1.184c1.21-3.55,1.597-7.154,0.687-10.84c-0.031-0.124-0.116-0.252,0.021-0.419
		c0.977,0.599,1.79,1.387,2.526,2.255c1.102,1.298,1.881,2.779,2.44,4.384c0.06,0.172,0.056,0.433,0.277,0.46
		c0.182,0.021,0.254-0.208,0.353-0.345c2.133-2.987,3.646-6.227,4.101-9.912c0.298-2.422,0.149-4.822-0.238-7.218
		c-0.038-0.227-0.035-0.459-0.051-0.689L46.659,39.918z"/>
	<path fill-rule="evenodd" clip-rule="evenodd" fill="#E7C644" d="M46.667,39.911l-0.007,0.007L46.667,39.911z"/>
</g>
<g>
	<path fill-rule="evenodd" clip-rule="evenodd" fill="#E7C644" d="M46.667,30.823l-0.007,0.007L46.667,30.823z"/>
	<g>
		<path fill="none" d="M46.717,31.513c0.11,0.684,0.194,1.368,0.261,2.053c0.459-0.041,0.923-0.076,1.39-0.104
			c-0.491-0.912-1.046-1.793-1.701-2.619C46.682,31.065,46.681,31.292,46.717,31.513z"/>
		<path fill="none" d="M46.659,30.831c0.003,0.004,0.005,0.008,0.008,0.011c0-0.006,0-0.012-0.001-0.019L46.659,30.831z"/>
		<path fill="#DB4F4F" d="M29.098,59.299c0.11,0.196,0.205,0.396,0.323,0.59c3.202,5.295,7.901,8.4,14.045,9.288
			c0.329,0.048,0.692-0.016,0.99,0.204c1.353,0,2.708,0,4.061,0c0.748-0.247,1.542-0.234,2.307-0.401
			c2.967-0.644,5.507-1.763,7.653-3.312c-2.197,0.305-4.517,0.472-6.92,0.472C41.614,66.14,33.044,63.339,29.098,59.299z"/>
	</g>
</g>
<polygon fill-rule="evenodd" clip-rule="evenodd" fill="#E7C644" points="86.543,87.343 7,87.343 0,67.573 93.543,67.573 "/>
<g>
	<path fill="#EF4D4D" d="M19.171,82.855h-2.197v-4.57h-4.285v4.57h-2.197V72.191h2.197v4.321h4.285v-4.321h2.197V82.855z"/>
	<path fill="#EF4D4D" d="M29.85,77.766c0,1.05-0.186,1.97-0.557,2.761s-0.902,1.401-1.593,1.831
		c-0.691,0.43-1.483,0.645-2.377,0.645c-0.884,0-1.672-0.213-2.366-0.637c-0.693-0.426-1.23-1.032-1.611-1.82
		c-0.381-0.789-0.574-1.695-0.579-2.721v-0.527c0-1.05,0.189-1.975,0.567-2.772c0.378-0.799,0.913-1.411,1.604-1.839
		c0.69-0.427,1.48-0.641,2.369-0.641s1.678,0.214,2.369,0.641c0.691,0.428,1.226,1.04,1.604,1.839
		c0.378,0.798,0.567,1.72,0.567,2.765V77.766z M27.624,77.281c0-1.117-0.2-1.967-0.601-2.549c-0.4-0.58-0.972-0.871-1.714-0.871
		c-0.737,0-1.306,0.287-1.707,0.86c-0.4,0.574-0.603,1.415-0.608,2.523v0.521c0,1.089,0.2,1.934,0.601,2.533
		c0.4,0.602,0.977,0.901,1.729,0.901c0.737,0,1.304-0.289,1.699-0.868c0.396-0.578,0.596-1.422,0.601-2.53V77.281z"/>
	<path fill="#EF4D4D" d="M38.852,73.971h-3.267v8.885h-2.197v-8.885h-3.223v-1.779h8.687V73.971z"/>
	<path fill="#EF4D4D" d="M52.072,82.855h-2.197l-4.278-7.017v7.017H43.4V72.191h2.197l4.285,7.031v-7.031h2.19V82.855z"/>
	<path fill="#EF4D4D" d="M60.406,78.219h-4.219v2.871h4.951v1.766H53.99V72.191h7.135v1.779h-4.938v2.542h4.219V78.219z"/>
	<path fill="#EF4D4D" d="M70.734,79.779l1.436-7.588h2.189l-2.365,10.664h-2.213l-1.735-7.134l-1.735,7.134h-2.213l-2.365-10.664
		h2.189l1.443,7.573l1.758-7.573h1.861L70.734,79.779z"/>
	<path fill="#EF4D4D" d="M81.076,80.058c0-0.415-0.146-0.733-0.439-0.956c-0.293-0.222-0.82-0.456-1.582-0.703
		c-0.762-0.246-1.365-0.489-1.81-0.729c-1.211-0.654-1.816-1.535-1.816-2.645c0-0.575,0.162-1.09,0.487-1.541
		c0.324-0.452,0.791-0.805,1.398-1.059c0.608-0.254,1.29-0.381,2.047-0.381c0.762,0,1.44,0.138,2.037,0.414
		c0.595,0.275,1.058,0.665,1.388,1.168c0.329,0.503,0.494,1.074,0.494,1.714h-2.197c0-0.488-0.153-0.868-0.462-1.139
		c-0.307-0.271-0.739-0.407-1.296-0.407c-0.537,0-0.955,0.114-1.253,0.341c-0.298,0.228-0.446,0.526-0.446,0.897
		c0,0.347,0.175,0.637,0.523,0.871c0.35,0.234,0.863,0.455,1.542,0.66c1.25,0.376,2.16,0.842,2.732,1.398
		c0.57,0.557,0.856,1.25,0.856,2.08c0,0.923-0.35,1.646-1.048,2.172c-0.698,0.524-1.638,0.787-2.819,0.787
		c-0.82,0-1.567-0.15-2.241-0.45c-0.674-0.301-1.188-0.712-1.542-1.234c-0.354-0.522-0.53-1.128-0.53-1.816h2.204
		c0,1.177,0.703,1.765,2.109,1.765c0.522,0,0.931-0.105,1.224-0.318C80.93,80.735,81.076,80.438,81.076,80.058z"/>
</g>
</svg>
