<?xml version="1.0" encoding="utf-8"?>
<!-- Generator: Adobe Illustrator 16.0.0, SVG Export Plug-In . SVG Version: 6.00 Build 0)  -->
<!DOCTYPE svg PUBLIC "-//W3C//DTD SVG 1.1//EN" "http://www.w3.org/Graphics/SVG/1.1/DTD/svg11.dtd">
<svg version="1.1" id="Слой_1" xmlns="http://www.w3.org/2000/svg" xmlns:xlink="http://www.w3.org/1999/xlink" x="0px" y="0px"
	 width="224.936px" height="224.935px" viewBox="0 0 224.936 224.935" enable-background="new 0 0 224.936 224.935"
	 xml:space="preserve">
<g>
	<path fill-rule="evenodd" clip-rule="evenodd" fill="#ED7B2E" d="M39.827,23.704c1.837-1.921,3.982-4.598,4.276-4.407
		c5.852,3.777,9.182-1.488,13.034-3.69C95.99-6.612,144.65-4.199,180.028,23.498c37.884,29.658,51.806,69.069,41.339,115.96
		c-9.705,43.467-46.813,76.707-91.187,83.819c-46.573,7.465-93.563-16.028-116.035-58.012C-8.267,123.395-1.509,71.418,30.806,36.75
		c1.428-1.531,2.485-3.409,3.746-5.168c4.251,2.209,7.316,3.803,10.984,5.71c-3.154,3.507-6.044,6.723-9.739,10.831
		C62.552,62.003,88.911,75.68,115.203,89.32c-1.554,5.65-4.302,4.844-7.979,2.922C82.37,79.254,57.436,66.421,32.594,53.573
		c-24.338,27.443-31.719,85.299,5.55,126.366c36.861,40.614,98.614,44.727,139.825,9.404
		c41.821-35.848,47.648-97.326,12.978-140.037C154.052,3.856,93.762,4.503,60.755,27.424c24.903,12.909,49.426,25.62,73.95,38.331
		c0.082,0.702,0.166,1.403,0.248,2.104c-2.135,0.56-4.847,2.259-6.32,1.513C99.254,54.479,70.02,39.302,39.827,23.704z"/>
	<path fill-rule="evenodd" clip-rule="evenodd" fill="#ED7B2E" d="M88.692,138.537c18.696-22.718,36.868-45.006,55.365-67.021
		c2.498-2.973,6.36-5.388,10.07-6.642c10.567-3.566,21.383-6.399,33.545-9.941c-4.05,13.777-7.596,26.493-11.66,39.042
		c-0.688,2.124-3.521,3.623-5.496,5.25c-22.007,18.139-44.042,36.245-66.469,54.689c4.186,5.178,8.112,10.033,12.449,15.396
		c-2.428,2.264-4.596,4.282-7.247,6.754c-5.207-4.4-10.307-8.709-16.142-13.641c-6.579,6.864-12.821,13.482-19.191,19.971
		c-2.919,2.977-10.246,2.574-12.618-1.423c-2.069-3.486-6.518-7.541-1.231-12.264c3.485-3.114,6.561-6.681,9.987-9.862
		c3.245-3.014,6.709-5.794,10.409-8.958c-5.1-6.071-9.251-11.012-13.73-16.342c2.533-2.213,4.904-4.282,7.569-6.609
		C78.525,130.341,83.232,134.136,88.692,138.537z"/>
	<path fill-rule="evenodd" clip-rule="evenodd" fill="#ED7B2E" d="M95.999,115.402c-2.163,0.426-4.844,1.893-6.408,1.115
		c-16.308-8.114-32.437-16.587-49.063-25.192c0.948-1.874,1.727-3.413,2.797-5.526c17.678,9.129,35.049,18.101,52.421,27.073
		C95.829,113.715,95.913,114.56,95.999,115.402z"/>
</g>
</svg>
