<?xml version="1.0" encoding="utf-8"?>
<!-- Generator: Adobe Illustrator 16.0.0, SVG Export Plug-In . SVG Version: 6.00 Build 0)  -->
<!DOCTYPE svg PUBLIC "-//W3C//DTD SVG 1.1//EN" "http://www.w3.org/Graphics/SVG/1.1/DTD/svg11.dtd">
<svg version="1.1" id="Слой_1" xmlns="http://www.w3.org/2000/svg" xmlns:xlink="http://www.w3.org/1999/xlink" x="0px" y="0px"
	 width="224.936px" height="224.935px" viewBox="0 0 224.936 224.935" enable-background="new 0 0 224.936 224.935"
	 xml:space="preserve">
<g>
	<path fill="#EA8642" d="M6.325,44.994c26.848,26.493,53.42,53.263,80.144,79.883c1.495,1.489,3.544,2.422,5.334,3.614
		c-0.363,0.436-0.727,0.872-1.089,1.308c-1.309,2.429-2.617,4.858-4.312,8.005c-28.536-28.534-56.47-56.468-85.284-85.28
		c0,4.447,0.28,7.478-0.062,10.437c-0.604,5.225,1.4,8.882,5.118,12.549c23.432,23.115,46.629,46.468,69.908,69.738
		c5.991,5.99,5.997,5.983,1.786,15.439c-25.567-25.571-50.858-50.865-76.75-76.76c0,3.287,0.205,5.767-0.044,8.199
		c-0.45,4.386,0.856,7.654,4.291,10.694c5.719,5.063,10.914,10.714,16.334,16.114c16.639,16.574,33.24,33.186,49.993,49.643
		c1.384,1.36,4.122,2.749,5.69,2.288c11.032-3.242,22.215-6.287,32.736-10.82c5.291-2.278,7.943-1.666,11.702,2.114
		c26.767,26.926,58.071,46.668,94.199,58.601c1.901,0.628,3.811,1.234,5.716,1.852c0.456-0.335,0.91-0.671,1.366-1.005
		c-4.307-11.587-8.033-23.431-13.046-34.702c-9.407-21.147-24.815-37.996-40.9-54.211c-4.608-4.646-9.496-9.015-14.227-13.484
		c7.428-12.917,12.127-25.644,14.701-39.212c0.614-3.239,0.043-5.151-2.219-7.402c-22.068-21.964-44.022-44.042-66.012-66.084
		c-4.406-4.416-11.992-5.604-19.521-2.261c25.482,25.392,50.587,50.408,75.507,75.239c-5.857,4.039-10.084,2.109-14.908-2.836
		c-22.609-23.178-45.95-45.648-68.352-69.02c-6.943-7.244-14.153-4.523-21.519-4.972c-0.187,0.41-0.374,0.819-0.561,1.229
		c27.824,27.831,55.647,55.662,83.605,83.625c-7.912,5.017-7.913,5.018-13.72-0.79C95.761,60.555,69.307,34.663,43.619,8.032
		c-6.73-6.977-13.601-5.282-21.396-4.314C41.674,23.138,61.125,42.56,80.767,62.171c-9.117,4.124-9.126,4.132-15.179-1.917
		C47.347,42.021,29.066,23.828,10.922,5.499C8.058,2.606,5.213,1.614,1.566,3.108c-1.394,4.77,0.17,8.098,3.592,11.456
		c17.27,16.948,34.108,34.338,51.523,51.131c4.864,4.691,7.444,8.913,4.048,15.272c-0.132,0.247-0.471,0.383-1.451,1.144
		C40.313,62.915,21.264,43.632,2.214,24.35c-0.366,0.149-0.731,0.298-1.096,0.447c0,2.405,0.266,4.846-0.053,7.208
		C0.333,37.421,2.443,41.164,6.325,44.994z M68.975,82.337c0.44-5.549,6.025-10.706,11.507-10.623
		c7.485,0.115,12.534,5.818,11.626,12.857c-0.141,1.09,0.569,2.736,1.439,3.442c8.221,6.677,16.561,13.207,25.541,20.311
		c10.83-8.537,23.741-16.059,39.558-19.803c-2.472,11.609-7.684,21.329-14.221,31.923c6.202,5.938,12.663,11.329,18.167,17.562
		c11.042,12.504,22.311,24.931,32.021,38.442c6.007,8.359,9.341,18.646,13.804,28.1c0.563,1.192,0.685,2.594,1.182,4.581
		c-36.691-12.657-65.678-35.308-91.116-61.941c-10.178,4.583-19.666,8.855-29.154,13.127c-0.43-0.43-0.859-0.857-1.289-1.286
		c1.316-7.178,4.027-13.956,7.541-20.366c3.49-6.367,7.466-12.468,11.391-18.953c-2.302-2.023-4.972-4.099-7.316-6.493
		c-4.095-4.186-8.285-8.337-11.873-12.941c-2.719-3.487-4.445-6.896-10.148-6.428C72.632,94.258,68.538,87.859,68.975,82.337z"/>
	<path fill="#EA8642" d="M189.113,188.9c-18.639-25.413-39.895-48.406-62.593-70.413c-2.74,2.994-4.976,5.437-7.458,8.149
		C141.134,149.364,163.893,170.484,189.113,188.9z"/>
</g>
</svg>
