<?xml version="1.0" encoding="utf-8"?>
<!-- Generator: Adobe Illustrator 16.0.0, SVG Export Plug-In . SVG Version: 6.00 Build 0)  -->
<!DOCTYPE svg PUBLIC "-//W3C//DTD SVG 1.1//EN" "http://www.w3.org/Graphics/SVG/1.1/DTD/svg11.dtd">
<svg version="1.1" id="Слой_1" xmlns="http://www.w3.org/2000/svg" xmlns:xlink="http://www.w3.org/1999/xlink" x="0px" y="0px"
	 width="224.936px" height="224.935px" viewBox="0 0 224.936 224.935" enable-background="new 0 0 224.936 224.935"
	 xml:space="preserve">
<g>
	<path fill-rule="evenodd" clip-rule="evenodd" fill="#ED7B2E" d="M178.066,112.329c1.493-2.602,2.864-4.988,4.412-7.684
		c-39.58-22.784-79.042-45.5-118.506-68.217c0.017-0.19,0.034-0.38,0.051-0.571c2.532,0,5.109,0.304,7.589-0.059
		c6.654-0.973,12.001,1.325,17.557,4.942c14.58,9.495,29.859,17.781,46.645,22.861c6.721,2.033,13.571,2.965,20.603,2.021
		c0.631-0.085,1.434,0.11,1.97,0.461c19.908,13.027,38.28,27.812,52.241,47.34c3.691,5.163,6.346,11.067,9.453,16.643
		c0.256,0.46,0.344,1.013,0.631,1.896c-2.748,0.259-5.314,0.633-7.889,0.72c-15.52,0.526-30.582-2.335-45.185-7.187
		c-11.74-3.901-23.175-8.726-34.69-13.28c-1.137-0.45-2.244-1.71-2.764-2.865c-3.67-8.149-9.582-14.479-16.293-20.096
		c-13.65-11.423-28.875-20.414-44.646-28.549c-1.233-0.637-2.398-1.779-3.118-2.974c-2.726-4.529-5.256-9.177-7.578-14.181
		C98.31,66.432,138.07,89.314,178.066,112.329z"/>
	<path fill-rule="evenodd" clip-rule="evenodd" fill="#ED7B2E" d="M29.987,59.8c4.735-8.278,9.384-16.403,14.109-24.663
		c-8.438-4.851-16.716-9.608-24.993-14.367c-1.3-0.749-2.603-1.494-3.898-2.25c-1.954-1.141-3.724-2.07-6.329-1.514
		C5,17.832,1.445,14.814,0.691,10.835C-0.063,6.85,2.396,2.952,6.318,1.914c3.817-1.009,7.939,1.029,9.135,4.841
		c0.529,1.686,1.473,2.594,2.894,3.402c10.019,5.698,20.009,11.448,30.17,17.273c4.689-8.159,9.32-16.213,14.073-24.481
		c4.491,2.594,8.827,5.098,13.522,7.809C56.761,24.927,46.6,44.137,43.495,67.617C38.874,64.942,34.525,62.426,29.987,59.8z"/>
	<g>
		<path fill="#ED7B2E" d="M197.373,141.062c-25.549-3.047-49.354-11.783-72.423-22.782c-0.649-0.31-1.448-0.914-1.615-1.534
			c-1.953-7.208-6.844-12.397-11.992-17.33C98.896,87.491,84.277,78.713,69.131,70.734c-0.083-0.043-0.251,0.079-0.928,0.312
			c7.44,18.936,7.418,38.738,7.058,58.564c-0.541,1.685-1.053,3.378-1.5,5.088c-0.664,2.537,0.257,4.709,2.414,6.253
			c2.014,1.442,4.65,1.483,6.713,0.083c2.076-1.409,3.286-3.481,2.599-5.889c-0.449-1.574-0.924-3.14-1.411-4.703
			c0.017-3.477,0.022-6.916-0.066-10.348c-0.094-3.678,1.779-6.046,4.738-7.536c2.991-1.505,5.494,0.07,7.687,2.095
			c0.752,0.695,1.492,1.44,2.068,2.28c5.819,8.48,9.286,17.99,9.466,28.139c0.386,21.852,0.179,43.716,0.142,65.577
			c-0.539,1.681-1.05,3.369-1.496,5.074c-0.664,2.536,0.257,4.709,2.414,6.253c2.014,1.442,4.65,1.483,6.713,0.083
			c2.076-1.409,3.286-3.482,2.599-5.889c-0.418-1.466-0.857-2.925-1.309-4.381c0-21.842-0.001-43.684,0.001-65.525
			c0-2.937,2.16-4.909,5.028-4.204c1.612,0.396,3.419,1.196,4.491,2.394c5.12,5.721,9.401,11.88,9.01,20.146
			c-0.024,0.505-0.03,1.012-0.043,1.517c-0.53,1.655-1.031,3.318-1.47,4.997c-0.664,2.536,0.257,4.709,2.414,6.253
			c2.014,1.442,4.65,1.483,6.713,0.083c2.076-1.409,3.286-3.482,2.599-5.889c-0.441-1.544-0.906-3.081-1.383-4.614
			c0.017-0.369,0.022-0.74,0.048-1.108c0.085-1.253,0.724-2.78,1.633-3.611c4.204-3.842,9.964-3.531,14.65,1.152
			c7.43,7.428,11.5,16.608,11.982,27.075c0.328,7.137,0.164,14.295,0.102,21.449c-0.393,1.267-0.771,2.537-1.106,3.818
			c-0.664,2.536,0.257,4.709,2.414,6.253c2.014,1.442,4.65,1.483,6.713,0.083c2.076-1.409,3.286-3.482,2.599-5.889
			c-0.557-1.952-1.157-3.893-1.77-5.829c-0.001-7.123-0.004-14.246,0.005-21.369c0.001-0.783-0.038-1.612,0.19-2.345
			c4.384-14.113,10.928-26.967,22.344-36.762c3.554-3.051,7.585-5.543,10.955-7.97C209.583,141.657,203.427,141.783,197.373,141.062
			z"/>
		<path fill="#ED7B2E" d="M224.061,189.054c-2.738-9.593-6.002-19.038-9.053-28.543c-0.324,0.024-0.648,0.05-0.975,0.075
			c-1.449,3.825-3.012,7.612-4.32,11.484c-1.816,5.376-3.648,10.76-5.083,16.242c-1.1,4.203,0.425,7.803,4,10.362
			c3.338,2.39,7.705,2.457,11.123,0.137C223.193,196.478,225.199,193.043,224.061,189.054z"/>
		<path fill="#ED7B2E" d="M140.057,186.885c-5.54-0.075-10.163,4.512-10.136,10.058c0.026,5.482,4.488,9.904,9.994,9.906
			c5.563,0.002,9.941-4.339,9.968-9.882C149.911,191.447,145.536,186.959,140.057,186.885z"/>
		<path fill="#ED7B2E" d="M79.695,156.427c-5.523-0.023-10.001,4.354-10.06,9.836c-0.061,5.576,4.479,10.148,10.049,10.123
			c5.481-0.025,9.907-4.49,9.908-9.994C89.595,160.846,85.229,156.453,79.695,156.427z"/>
	</g>
</g>
</svg>
