<?xml version="1.0" encoding="utf-8"?>
<!-- Generator: Adobe Illustrator 16.0.0, SVG Export Plug-In . SVG Version: 6.00 Build 0)  -->
<!DOCTYPE svg PUBLIC "-//W3C//DTD SVG 1.1//EN" "http://www.w3.org/Graphics/SVG/1.1/DTD/svg11.dtd">
<svg version="1.1" id="Слой_1" xmlns="http://www.w3.org/2000/svg" xmlns:xlink="http://www.w3.org/1999/xlink" x="0px" y="0px"
	 width="224.936px" height="224.935px" viewBox="0 0 224.936 224.935" enable-background="new 0 0 224.936 224.935"
	 xml:space="preserve">
<g>
	<path fill-rule="evenodd" clip-rule="evenodd" fill="#ED7B2E" d="M95.917,24.162c-3.683,6.203-10.042,8.307-16.482,10.628
		c-4.715,1.701-9.022,4.539-13.884,7.065c-5.75-6.528-11.808-13.402-17.876-20.292c36.965-27.486,97.519-30.087,139.69,9.911
		c42.758,40.554,41.979,100.508,18.743,136.849c-0.462-0.424-0.926-0.816-1.356-1.246c-17.514-17.509-35.021-35.028-52.552-52.52
		c-0.97-0.968-1.465-1.708-0.79-3.191c10.084-22.165,4.078-47.021-12.499-63.654c-9.518-9.549-20.906-15.385-34.428-16.835
		c-0.831-0.088-1.725-0.647-2.368-1.231c-1.849-1.675-3.584-3.476-5.37-5.225C96.695,24.375,96.599,24.374,95.917,24.162z"/>
	<path fill-rule="evenodd" clip-rule="evenodd" fill="#ED7B2E" d="M224.211,223.796c-6.18-1.535-11.91-2.957-17.642-4.385
		c-5.448-1.359-10.917-2.648-16.326-4.143c-1.417-0.391-2.907-1.178-3.939-2.207c-40.581-40.504-81.115-81.054-121.636-121.617
		c-0.765-0.766-1.3-1.762-2.07-2.825c-5.789,5.854-11.048,11.17-16.179,16.357c-3.081-3.109-6.032-6.088-8.996-9.079
		c8.18-8.129,16.627-16.524,25.482-25.325C43.478,54.122,24.49,38.041,5.668,22.101c5.518-5.448,11.265-11.12,16.773-16.558
		C38.417,23.932,54.744,42.727,71.21,61.681c8.577-8.617,16.815-16.895,24.961-25.079c3.154,3.147,6.13,6.115,9.179,9.159
		c-5.606,5.574-11.338,11.272-17.725,17.623c1.182,0.778,2.156,1.212,2.861,1.917c36.536,36.484,73.05,72.989,109.563,109.495
		c4.253,4.252,8.507,8.506,12.717,12.801c0.629,0.643,1.244,1.449,1.494,2.291C217.57,201.019,220.813,212.173,224.211,223.796z
		 M199.056,192.953c-0.533-0.559-0.902-0.959-1.287-1.344c-11.152-11.162-22.306-22.324-33.463-33.484
		c-24.91-24.914-49.831-49.82-74.695-74.779c-0.687-0.689-1.212-1.991-1.111-2.933c0.474-4.497-1.758-8.856-5.819-10.837
		c-4.064-1.981-8.928-1.113-12.067,2.154c-3.118,3.244-3.79,8.172-1.656,12.149c2.142,3.988,6.586,6.268,11.027,5.202
		c2.021-0.485,3.082,0.168,4.38,1.469c31.791,31.844,63.619,63.653,95.436,95.468c4.359,4.359,8.696,8.736,12.969,13.031
		C194.903,196.98,196.906,195.037,199.056,192.953z"/>
	<path fill-rule="evenodd" clip-rule="evenodd" fill="#ED7B2E" d="M119.931,221.769c-45.742,3.883-89.151-21.1-108.942-63.451
		C-7.622,118.491,0.903,74.242,21.925,47.078c7.114,6.091,14.221,12.177,21.385,18.312c-2.083,3.204-4.194,6.197-6.032,9.349
		c-2.001,3.432-3.953,6.922-5.556,10.548c-1.746,3.947-3.322,7.918-7.511,10.666c3.102,1.576,2.14,3.722,1.622,5.944
		c-7.754,33.271,1.172,62.132,23.878,86.892c16.967,18.5,38.224,29.264,63.239,32.348c1.162,0.143,2.338,0.152,3.504,0.258
		C117.616,221.498,118.772,221.642,119.931,221.769z"/>
</g>
</svg>
