<?xml version="1.0" encoding="utf-8"?>
<!-- Generator: Adobe Illustrator 16.0.0, SVG Export Plug-In . SVG Version: 6.00 Build 0)  -->
<!DOCTYPE svg PUBLIC "-//W3C//DTD SVG 1.1//EN" "http://www.w3.org/Graphics/SVG/1.1/DTD/svg11.dtd">
<svg version="1.1" id="Слой_1" xmlns="http://www.w3.org/2000/svg" xmlns:xlink="http://www.w3.org/1999/xlink" x="0px" y="0px"
	 width="224.936px" height="224.935px" viewBox="0 0 224.936 224.935" enable-background="new 0 0 224.936 224.935"
	 xml:space="preserve">
<g>
	<path fill-rule="evenodd" clip-rule="evenodd" d="M224.936,224.935c-75.011,0-149.989,0-224.936,0C0,149.925,0,74.946,0,0
		c75.011,0,149.989,0,224.936,0C224.936,75.011,224.936,149.99,224.936,224.935z M82.745,64.29c-8.54,3.862-8.548,3.87-14.218-1.796
		C51.44,45.416,34.318,28.374,17.322,11.206c-2.683-2.71-5.348-3.64-8.764-2.239c-1.306,4.468,0.159,7.585,3.365,10.73
		c16.176,15.875,31.949,32.164,48.261,47.895c4.556,4.394,6.973,8.349,3.792,14.305c-0.124,0.231-0.441,0.359-1.359,1.071
		C44.852,64.986,27.009,46.925,9.166,28.863c-0.342,0.14-0.685,0.279-1.027,0.419c0,2.253,0.249,4.539-0.05,6.752
		C7.403,41.107,9.38,44.612,13.016,48.2c25.148,24.815,50.039,49.891,75.07,74.825c1.4,1.395,3.319,2.269,4.997,3.386
		c-0.34,0.408-0.681,0.816-1.021,1.225c-1.226,2.275-2.451,4.551-4.039,7.498C61.294,108.406,35.128,82.241,8.139,55.253
		c0,4.165,0.263,7.004-0.058,9.775c-0.565,4.895,1.312,8.32,4.794,11.755c21.949,21.651,43.677,43.526,65.482,65.323
		c5.612,5.61,5.617,5.604,1.672,14.461c-23.949-23.952-47.639-47.645-71.891-71.9c0,3.079,0.192,5.401-0.042,7.68
		c-0.421,4.108,0.802,7.169,4.02,10.017c5.356,4.742,10.223,10.036,15.3,15.094c15.585,15.524,31.135,31.085,46.828,46.5
		c1.296,1.273,3.86,2.574,5.33,2.143c10.334-3.037,20.809-5.889,30.664-10.135c4.956-2.135,7.44-1.561,10.961,1.98
		c25.072,25.221,54.395,43.713,88.235,54.891c1.781,0.588,3.569,1.156,5.354,1.734c0.427-0.314,0.853-0.629,1.279-0.941
		c-4.034-10.854-7.524-21.947-12.22-32.506c-8.811-19.809-23.244-35.59-38.311-50.779c-4.317-4.352-8.895-8.444-13.327-12.631
		c6.958-12.1,11.359-24.021,13.77-36.729c0.575-3.034,0.041-4.825-2.078-6.934c-20.671-20.573-41.235-41.254-61.833-61.9
		c-4.127-4.137-11.232-5.249-18.285-2.118c23.869,23.784,47.385,47.217,70.727,70.476c-5.487,3.783-9.446,1.976-13.964-2.656
		c-21.178-21.711-43.041-42.758-64.024-64.65C70.02,6.417,63.267,8.966,56.367,8.545c-0.175,0.384-0.35,0.768-0.525,1.151
		c26.063,26.068,52.125,52.138,78.312,78.331c-7.411,4.699-7.412,4.7-12.852-0.74C96.79,62.776,72.011,38.523,47.949,13.578
		c-6.304-6.535-12.74-4.947-20.042-4.041C46.127,27.729,64.346,45.92,82.745,64.29z"/>
	<path fill-rule="evenodd" clip-rule="evenodd" fill="none" d="M82.745,64.29C64.346,45.92,46.127,27.729,27.907,9.537
		c7.302-0.906,13.738-2.494,20.042,4.041c24.062,24.945,48.841,49.198,73.353,73.709c5.44,5.44,5.441,5.439,12.852,0.74
		c-26.188-26.193-52.25-52.263-78.312-78.331c0.175-0.384,0.351-0.768,0.525-1.151c6.899,0.421,13.653-2.128,20.156,4.657
		c20.984,21.893,42.846,42.939,64.024,64.65c4.518,4.632,8.477,6.439,13.964,2.656C131.17,57.25,107.654,33.817,83.785,10.033
		c7.052-3.131,14.158-2.019,18.285,2.118c20.598,20.646,41.162,41.327,61.833,61.9c2.119,2.108,2.653,3.899,2.078,6.934
		c-2.411,12.709-6.812,24.63-13.77,36.729c4.432,4.187,9.01,8.279,13.327,12.631c15.067,15.188,29.5,30.97,38.311,50.779
		c4.696,10.559,8.186,21.652,12.22,32.506c-0.427,0.313-0.853,0.627-1.279,0.941c-1.785-0.578-3.573-1.146-5.354-1.734
		c-33.841-11.178-63.163-29.67-88.235-54.891c-3.521-3.541-6.005-4.115-10.961-1.98c-9.854,4.246-20.33,7.098-30.664,10.135
		c-1.47,0.432-4.034-0.869-5.33-2.143c-15.692-15.416-31.242-30.976-46.828-46.5c-5.077-5.058-9.944-10.352-15.3-15.094
		c-3.217-2.848-4.441-5.908-4.02-10.017c0.233-2.278,0.042-4.601,0.042-7.68c24.252,24.255,47.942,47.948,71.891,71.9
		c3.945-8.857,3.939-8.851-1.672-14.461C56.552,120.31,34.824,98.435,12.875,76.783c-3.482-3.435-5.359-6.86-4.794-11.755
		c0.32-2.771,0.058-5.61,0.058-9.775c26.99,26.988,53.155,53.153,79.885,79.881c1.588-2.947,2.813-5.223,4.039-7.498
		c0.34-0.408,0.68-0.816,1.021-1.225c-1.677-1.117-3.596-1.991-4.997-3.386C63.055,98.091,38.164,73.016,13.016,48.2
		c-3.636-3.588-5.613-7.093-4.927-12.166c0.299-2.213,0.05-4.499,0.05-6.752c0.342-0.14,0.685-0.279,1.027-0.419
		c17.843,18.062,35.686,36.123,53.451,54.104c0.918-0.712,1.236-0.84,1.359-1.071c3.181-5.956,0.764-9.911-3.792-14.305
		c-16.312-15.73-32.084-32.02-48.261-47.895c-3.206-3.146-4.67-6.263-3.365-10.73c3.417-1.4,6.082-0.471,8.764,2.239
		c16.996,17.168,34.118,34.21,51.205,51.288C74.196,68.16,74.205,68.152,82.745,64.29z M142.374,118.875
		c6.123-9.924,11.005-19.028,13.32-29.902c-14.815,3.507-26.909,10.553-37.053,18.549c-8.411-6.654-16.224-12.771-23.924-19.024
		c-0.815-0.662-1.48-2.203-1.348-3.225c0.85-6.593-3.879-11.936-10.891-12.043c-5.134-0.078-10.366,4.752-10.778,9.95
		c-0.41,5.172,3.426,11.166,8.112,10.782c5.342-0.438,6.959,2.755,9.506,6.021c3.361,4.313,7.285,8.201,11.121,12.122
		c2.195,2.242,4.696,4.187,6.853,6.082c-3.676,6.074-7.401,11.789-10.67,17.753c-3.291,6.005-5.831,12.354-7.063,19.077
		c0.402,0.402,0.805,0.803,1.207,1.205c8.887-4.002,17.774-8.003,27.308-12.296c23.828,24.947,50.979,46.164,85.347,58.019
		c-0.465-1.861-0.58-3.174-1.107-4.291c-4.18-8.855-7.303-18.49-12.93-26.32c-9.096-12.656-19.651-24.296-29.994-36.008
		C154.234,129.486,148.183,124.438,142.374,118.875z"/>
	<path fill-rule="evenodd" clip-rule="evenodd" d="M142.374,118.875c5.81,5.563,11.861,10.611,17.017,16.45
		c10.343,11.712,20.898,23.352,29.994,36.008c5.626,7.83,8.75,17.465,12.93,26.32c0.527,1.117,0.642,2.43,1.107,4.291
		c-34.368-11.855-61.52-33.072-85.347-58.019c-9.534,4.293-18.421,8.294-27.308,12.296c-0.402-0.402-0.805-0.803-1.207-1.205
		c1.232-6.723,3.772-13.072,7.063-19.077c3.269-5.964,6.994-11.679,10.67-17.753c-2.156-1.896-4.657-3.84-6.853-6.082
		c-3.836-3.921-7.76-7.81-11.121-12.122c-2.546-3.267-4.164-6.46-9.506-6.021c-4.686,0.384-8.521-5.61-8.112-10.782
		c0.412-5.198,5.644-10.028,10.778-9.95c7.012,0.107,11.741,5.45,10.891,12.043c-0.132,1.021,0.533,2.563,1.348,3.225
		c7.7,6.254,15.513,12.37,23.924,19.024c10.145-7.996,22.238-15.042,37.053-18.549C153.379,99.847,148.497,108.951,142.374,118.875z
		 M184.232,182.996c-17.458-23.805-37.369-45.341-58.63-65.955c-2.566,2.804-4.661,5.093-6.985,7.633
		C139.29,145.963,160.608,165.746,184.232,182.996z"/>
	<path fill-rule="evenodd" clip-rule="evenodd" fill="none" d="M184.232,182.996c-23.624-17.25-44.942-37.033-65.615-58.322
		c2.324-2.54,4.419-4.829,6.985-7.633C146.863,137.654,166.773,159.191,184.232,182.996z"/>
</g>
</svg>
