<?xml version="1.0" encoding="utf-8"?>
<!-- Generator: Adobe Illustrator 16.0.0, SVG Export Plug-In . SVG Version: 6.00 Build 0)  -->
<!DOCTYPE svg PUBLIC "-//W3C//DTD SVG 1.1//EN" "http://www.w3.org/Graphics/SVG/1.1/DTD/svg11.dtd">
<svg version="1.1" id="Слой_1" xmlns="http://www.w3.org/2000/svg" xmlns:xlink="http://www.w3.org/1999/xlink" x="0px" y="0px"
	 width="26.833px" height="15.061px" viewBox="0 0 26.833 15.061" enable-background="new 0 0 26.833 15.061" xml:space="preserve">
<g>
	<path d="M11.107,6.795l-0.416,2.333c-0.365,2.105-1.411,2.799-3.669,2.799H2.786C0.959,11.927,0,11.297,0,9.783
		C0,9.531,0.038,9.241,0.088,8.94l0.468-2.688C0.971,3.908,2.067,3.076,4.35,3.076h4.199c1.815,0,2.824,0.366,2.824,1.853
		c0,0.239-0.038,0.516-0.089,0.832H9.19c0.012-0.076,0.025-0.188,0.025-0.228c0-0.504-0.405-0.719-1.513-0.719H4.615
		c-1.261,0-1.779,0.391-2.005,1.703L2.218,8.736c-0.038,0.24-0.062,0.441-0.062,0.619c0,0.668,0.366,0.832,1.475,0.832h3.442
		c1.045,0,1.386-0.277,1.5-0.908l0.163-0.933H5.282L5.56,6.794L11.107,6.795L11.107,6.795z"/>
	<path d="M12.166,8.626h2.094l-0.367,2.092H11.8L12.166,8.626z M12.859,4.642h2.093l-0.366,2.093h-2.093L12.859,4.642z"/>
	<path d="M26.551,6.795l-0.417,2.333c-0.365,2.105-1.411,2.799-3.669,2.799H18.23c-1.828,0-2.787-0.63-2.787-2.144
		c0-0.253,0.036-0.542,0.089-0.844l0.465-2.688c0.416-2.344,1.515-3.176,3.796-3.176h4.198c1.816,0,2.824,0.366,2.824,1.853
		c0,0.239-0.037,0.516-0.088,0.832h-2.093c0.014-0.076,0.025-0.188,0.025-0.228c0-0.504-0.402-0.719-1.514-0.719h-3.088
		c-1.262,0-1.779,0.391-2.006,1.703L17.66,8.735c-0.037,0.239-0.062,0.441-0.062,0.619c0,0.669,0.365,0.832,1.475,0.832h3.44
		c1.047,0,1.387-0.277,1.502-0.908l0.161-0.933h-3.452l0.277-1.552h5.55V6.795z"/>
</g>
</svg>
