<?xml version="1.0" encoding="utf-8"?>
<!-- Generator: Adobe Illustrator 16.0.0, SVG Export Plug-In . SVG Version: 6.00 Build 0)  -->
<!DOCTYPE svg PUBLIC "-//W3C//DTD SVG 1.1//EN" "http://www.w3.org/Graphics/SVG/1.1/DTD/svg11.dtd">
<svg version="1.1" id="Слой_1" xmlns="http://www.w3.org/2000/svg" xmlns:xlink="http://www.w3.org/1999/xlink" x="0px" y="0px"
	 width="25.281px" height="24.477px" viewBox="0 0 25.281 24.477" enable-background="new 0 0 25.281 24.477" xml:space="preserve">
<g>
	<path d="M18.804,10.923l-0.695,3.903c-0.612,3.521-2.36,4.68-6.137,4.68H4.885c-3.056,0-4.66-1.052-4.66-3.584
		c0-0.422,0.063-0.907,0.148-1.412l0.781-4.494c0.695-3.922,2.53-5.312,6.347-5.312h7.024c3.035,0,4.723,0.612,4.723,3.099
		c0,0.4-0.063,0.863-0.148,1.391h-3.501c0.021-0.127,0.04-0.314,0.04-0.381c0-0.844-0.674-1.202-2.528-1.202H7.945
		c-2.11,0-2.976,0.653-3.354,2.847l-0.654,3.712c-0.063,0.4-0.105,0.739-0.105,1.034c0,1.117,0.611,1.391,2.465,1.391h5.757
		c1.75,0,2.319-0.463,2.509-1.518l0.276-1.559H9.062l0.464-2.596L18.804,10.923L18.804,10.923z"/>
	<path d="M20.576,13.987h3.503l-0.612,3.501h-3.503L20.576,13.987z M21.735,7.323h3.501l-0.612,3.501h-3.503L21.735,7.323z"/>
</g>
</svg>
