<?xml version="1.0" encoding="utf-8"?>
<!-- Generator: Adobe Illustrator 16.0.0, SVG Export Plug-In . SVG Version: 6.00 Build 0)  -->
<!DOCTYPE svg PUBLIC "-//W3C//DTD SVG 1.1//EN" "http://www.w3.org/Graphics/SVG/1.1/DTD/svg11.dtd">
<svg version="1.1" id="Слой_1" xmlns="http://www.w3.org/2000/svg" xmlns:xlink="http://www.w3.org/1999/xlink" x="0px" y="0px"
	 width="26.833px" height="15.061px" viewBox="0 0 26.833 15.061" enable-background="new 0 0 26.833 15.061" xml:space="preserve">
<g>
	<path d="M11.139,5.107l-0.416,2.334c-0.366,2.104-1.412,2.797-3.668,2.797H2.818c-1.827,0-2.786-0.629-2.786-2.142
		c0-0.253,0.037-0.543,0.088-0.846l0.467-2.686c0.416-2.343,1.512-3.176,3.794-3.176h4.199c1.815,0,2.824,0.366,2.824,1.853
		c0,0.239-0.038,0.517-0.088,0.832H9.223c0.012-0.076,0.024-0.189,0.024-0.228c0-0.504-0.403-0.719-1.512-0.719H4.646
		c-1.26,0-1.778,0.391-2.004,1.702l-0.391,2.22C2.213,7.288,2.188,7.492,2.188,7.667c0,0.668,0.366,0.832,1.475,0.832h3.441
		c1.045,0,1.386-0.278,1.5-0.908l0.163-0.933H5.315l0.277-1.552L11.139,5.107L11.139,5.107z"/>
	<path d="M12.198,6.938h2.094l-0.366,2.093h-2.093L12.198,6.938z M12.891,2.955h2.092l-0.366,2.093h-2.093L12.891,2.955z"/>
	<path d="M26.581,5.107l-0.416,2.334c-0.365,2.104-1.412,2.797-3.668,2.797h-4.237c-1.826,0-2.785-0.629-2.785-2.142
		c0-0.253,0.037-0.543,0.088-0.846l0.466-2.686c0.416-2.344,1.515-3.176,3.795-3.176h4.198c1.816,0,2.823,0.366,2.823,1.853
		c0,0.239-0.036,0.517-0.087,0.832h-2.093c0.013-0.076,0.026-0.189,0.026-0.228c0-0.504-0.403-0.719-1.515-0.719h-3.088
		c-1.262,0-1.779,0.391-2.006,1.702l-0.392,2.22c-0.037,0.239-0.063,0.442-0.063,0.618c0,0.668,0.365,0.832,1.475,0.832h3.441
		c1.045,0,1.386-0.278,1.501-0.908l0.161-0.933h-3.452l0.277-1.552L26.581,5.107L26.581,5.107z"/>
</g>
<g>
	<text transform="matrix(1 0 0 1 -0.0103 13.6555)" font-family="'EuropeExt-Italic'" font-size="3.404">ggscore.com</text>
</g>
</svg>
