<?xml version="1.0" encoding="iso-8859-1"?>
<!-- Generator: Adobe Illustrator 16.0.0, SVG Export Plug-In . SVG Version: 6.00 Build 0)  -->
<!DOCTYPE svg PUBLIC "-//W3C//DTD SVG 1.1//EN" "http://www.w3.org/Graphics/SVG/1.1/DTD/svg11.dtd">
<svg version="1.1" id="&#x421;&#x43B;&#x43E;&#x439;_1"
	 xmlns="http://www.w3.org/2000/svg" xmlns:xlink="http://www.w3.org/1999/xlink" x="0px" y="0px" width="26.833px"
	 height="27.539px" viewBox="0 0 26.833 27.539" style="enable-background:new 0 0 26.833 27.539;" xml:space="preserve">
<g>
	<path d="M11.107,11.676l-0.415,2.327c-0.364,2.1-1.408,2.791-3.66,2.791H2.806c-1.823,0-2.779-0.628-2.779-2.138
		c0-0.251,0.038-0.542,0.088-0.843l0.467-2.678c0.414-2.339,1.508-3.169,3.785-3.169h4.189c1.81,0,2.817,0.364,2.817,1.848
		c0,0.239-0.038,0.516-0.089,0.83H9.196c0.012-0.075,0.024-0.188,0.024-0.227c0-0.503-0.402-0.716-1.509-0.716H4.63
		c-1.257,0-1.774,0.39-2,1.698L2.24,13.612c-0.037,0.24-0.062,0.442-0.062,0.617c0,0.667,0.365,0.829,1.471,0.829h3.434
		c1.042,0,1.382-0.275,1.496-0.903l0.163-0.932H5.297l0.276-1.547L11.107,11.676L11.107,11.676z"/>
	<path d="M12.164,13.503h2.089l-0.365,2.088h-2.089L12.164,13.503z M12.855,9.528h2.086l-0.364,2.088h-2.088L12.855,9.528z"/>
	<path d="M26.512,11.676l-0.415,2.327c-0.364,2.1-1.409,2.791-3.659,2.791H18.21c-1.821,0-2.779-0.628-2.779-2.138
		c0-0.251,0.037-0.542,0.089-0.843l0.465-2.678c0.415-2.34,1.51-3.169,3.784-3.169h4.189c1.811,0,2.817,0.364,2.817,1.848
		c0,0.239-0.037,0.516-0.089,0.83H24.6c0.013-0.075,0.026-0.188,0.026-0.227c0-0.503-0.403-0.716-1.511-0.716h-3.08
		c-1.259,0-1.775,0.39-2.001,1.698l-0.391,2.213c-0.037,0.239-0.063,0.44-0.063,0.616c0,0.667,0.365,0.83,1.472,0.83h3.433
		c1.043,0,1.382-0.275,1.497-0.905l0.162-0.931H20.7l0.276-1.548h5.536V11.676z"/>
</g>
<g>
	<g style="enable-background:new    ;">
		<path d="M2.541,18.549l-0.325,1.85c-0.054,0.312-0.278,0.542-0.806,0.542H0.732c-0.359,0-0.572-0.146-0.572-0.376
			c0-0.023,0.003-0.054,0.006-0.071h0.265c0,0.004-0.003,0.024-0.003,0.038c0,0.104,0.108,0.206,0.362,0.206h0.637
			c0.329,0,0.512-0.155,0.542-0.318l0.068-0.393c-0.037,0.067-0.203,0.196-0.501,0.196H0.837c-0.413,0-0.61-0.152-0.61-0.461
			c0-0.047,0.003-0.098,0.014-0.155l0.075-0.427c0.071-0.4,0.329-0.631,0.796-0.631h0.705c0.342,0,0.44,0.159,0.451,0.18l0.03-0.18
			H2.541z M2.185,19.197c0.007-0.034,0.01-0.067,0.01-0.099c0-0.206-0.135-0.345-0.447-0.345H1.193
			c-0.407,0-0.583,0.142-0.637,0.446l-0.064,0.366c-0.006,0.041-0.01,0.078-0.01,0.112c0,0.236,0.163,0.342,0.488,0.342h0.555
			c0.353,0,0.549-0.196,0.593-0.454L2.185,19.197z"/>
		<path d="M5.043,18.549l-0.325,1.85c-0.054,0.312-0.278,0.542-0.806,0.542H3.234c-0.359,0-0.572-0.146-0.572-0.376
			c0-0.023,0.003-0.054,0.006-0.071h0.265c0,0.004-0.003,0.024-0.003,0.038c0,0.104,0.108,0.206,0.362,0.206h0.637
			c0.329,0,0.512-0.155,0.542-0.318l0.068-0.393c-0.037,0.067-0.203,0.196-0.501,0.196H3.339c-0.413,0-0.61-0.152-0.61-0.461
			c0-0.047,0.003-0.098,0.014-0.155l0.075-0.427c0.071-0.4,0.329-0.631,0.796-0.631h0.705c0.342,0,0.44,0.159,0.451,0.18l0.03-0.18
			H5.043z M4.687,19.197c0.007-0.034,0.01-0.067,0.01-0.099c0-0.206-0.135-0.345-0.447-0.345H3.695
			c-0.407,0-0.583,0.142-0.637,0.446l-0.064,0.366c-0.006,0.041-0.01,0.078-0.01,0.112c0,0.236,0.163,0.342,0.488,0.342h0.555
			c0.353,0,0.549-0.196,0.593-0.454L4.687,19.197z"/>
		<path d="M5.391,19.688c-0.017,0.081-0.023,0.136-0.023,0.166c0,0.061,0.003,0.166,0.355,0.166H6.58
			c0.309,0,0.437-0.125,0.437-0.339c0-0.122-0.084-0.203-0.288-0.203H5.753c-0.315,0-0.501-0.095-0.501-0.332
			c0-0.305,0.173-0.604,0.694-0.604h0.792c0.536,0,0.657,0.173,0.657,0.339c0,0.024-0.003,0.051-0.027,0.19H7.125
			c0.007-0.034,0.024-0.126,0.024-0.14c0-0.026-0.01-0.186-0.44-0.186h-0.84c-0.261,0-0.366,0.132-0.366,0.349
			c0,0.104,0.071,0.18,0.274,0.18h0.976c0.325,0,0.515,0.108,0.515,0.346c0,0.294-0.187,0.603-0.715,0.603H5.621
			c-0.403,0-0.505-0.146-0.505-0.315c0-0.03,0.003-0.064,0.031-0.22H5.391z"/>
		<path d="M9.732,19.633c-0.024,0.14-0.146,0.59-0.81,0.59H8.171c-0.403,0-0.583-0.176-0.583-0.468c0-0.047,0.003-0.098,0.014-0.148
			l0.075-0.42c0.064-0.359,0.339-0.645,0.813-0.645h0.731c0.525,0,0.61,0.295,0.61,0.481c0,0.044-0.007,0.081-0.01,0.108H9.577
			c0.003-0.021,0.007-0.047,0.007-0.078c0-0.125-0.058-0.308-0.4-0.308H8.452c-0.284,0-0.478,0.142-0.532,0.44
			c-0.074,0.413-0.081,0.46-0.081,0.504c0,0.217,0.166,0.329,0.376,0.329h0.742c0.42,0,0.512-0.265,0.532-0.387H9.732z"/>
		<path d="M11.628,18.542c0.471,0,0.63,0.221,0.63,0.502c0,0.051-0.003,0.102-0.014,0.155l-0.068,0.366
			c-0.067,0.359-0.308,0.657-0.85,0.657h-0.667c-0.427,0-0.633-0.173-0.633-0.494c0-0.051,0.007-0.105,0.017-0.163L10.11,19.2
			c0.067-0.358,0.318-0.657,0.847-0.657H11.628z M10.276,19.678c0,0.229,0.149,0.342,0.437,0.342h0.633
			c0.305,0,0.521-0.125,0.586-0.454L12,19.2c0.007-0.037,0.01-0.07,0.01-0.104c0-0.227-0.153-0.349-0.437-0.349h-0.637
			c-0.332,0-0.521,0.125-0.583,0.453l-0.068,0.366C10.28,19.607,10.276,19.644,10.276,19.678z"/>
		<path d="M12.911,18.763c0.017-0.023,0.139-0.214,0.488-0.214h0.474c0.508,0,0.606,0.288,0.606,0.512
			c0,0.051-0.007,0.105-0.017,0.166h-0.244c0.003-0.027,0.01-0.064,0.01-0.108c0-0.148-0.061-0.365-0.417-0.365h-0.434
			c-0.268,0-0.495,0.183-0.532,0.393l-0.19,1.077h-0.244l0.295-1.674h0.244L12.911,18.763z"/>
		<path d="M15.074,19.404l-0.03,0.162c-0.007,0.044-0.011,0.085-0.011,0.122c0,0.247,0.166,0.332,0.396,0.332h0.793
			c0.271,0,0.413-0.143,0.446-0.332h0.244c-0.044,0.244-0.227,0.535-0.688,0.535h-0.823c-0.42,0-0.623-0.156-0.623-0.464
			c0-0.051,0.007-0.102,0.017-0.159l0.078-0.44c0.055-0.305,0.359-0.617,0.82-0.617h0.704c0.427,0,0.623,0.221,0.623,0.488
			c0,0.034-0.003,0.067-0.01,0.102l-0.048,0.271H15.074z M16.767,19.095c0-0.221-0.139-0.349-0.383-0.349h-0.766
			c-0.254,0-0.461,0.179-0.508,0.453h1.646C16.764,19.163,16.767,19.129,16.767,19.095z"/>
		<path d="M17.359,19.958h0.265l-0.048,0.265h-0.264L17.359,19.958z"/>
		<path d="M19.995,19.633c-0.023,0.14-0.146,0.59-0.81,0.59h-0.752c-0.403,0-0.583-0.176-0.583-0.468
			c0-0.047,0.004-0.098,0.014-0.148l0.074-0.42c0.064-0.359,0.339-0.645,0.813-0.645h0.731c0.525,0,0.609,0.295,0.609,0.481
			c0,0.044-0.006,0.081-0.01,0.108h-0.244c0.004-0.021,0.007-0.047,0.007-0.078c0-0.125-0.058-0.308-0.399-0.308h-0.731
			c-0.285,0-0.478,0.142-0.532,0.44c-0.074,0.413-0.081,0.46-0.081,0.504c0,0.217,0.166,0.329,0.376,0.329h0.742
			c0.42,0,0.511-0.265,0.531-0.387H19.995z"/>
		<path d="M21.89,18.542c0.471,0,0.63,0.221,0.63,0.502c0,0.051-0.003,0.102-0.013,0.155l-0.068,0.366
			c-0.067,0.359-0.308,0.657-0.85,0.657h-0.668c-0.427,0-0.633-0.173-0.633-0.494c0-0.051,0.007-0.105,0.017-0.163l0.067-0.366
			c0.068-0.358,0.318-0.657,0.847-0.657H21.89z M20.539,19.678c0,0.229,0.149,0.342,0.438,0.342h0.633
			c0.306,0,0.522-0.125,0.587-0.454l0.067-0.366c0.007-0.037,0.01-0.07,0.01-0.104c0-0.227-0.152-0.349-0.437-0.349H21.2
			c-0.332,0-0.521,0.125-0.583,0.453l-0.067,0.366C20.542,19.607,20.539,19.644,20.539,19.678z"/>
		<path d="M23.125,18.804c0.021-0.027,0.177-0.255,0.583-0.255h0.332c0.447,0,0.542,0.184,0.583,0.332
			c0.061-0.111,0.21-0.332,0.69-0.332h0.38c0.423,0,0.633,0.217,0.633,0.488c0,0.037-0.003,0.078-0.007,0.095l-0.192,1.091h-0.244
			l0.183-1.023c0.007-0.037,0.011-0.058,0.011-0.104c0-0.217-0.166-0.342-0.481-0.342h-0.251c-0.365,0-0.606,0.142-0.664,0.46
			l-0.179,1.01h-0.244l0.18-1.017c0.007-0.033,0.01-0.064,0.01-0.095c0-0.24-0.193-0.358-0.471-0.358h-0.265
			c-0.42,0-0.619,0.243-0.653,0.439l-0.18,1.03h-0.244l0.295-1.674h0.244L23.125,18.804z"/>
	</g>
</g>
</svg>
