<?xml version="1.0" encoding="utf-8"?>
<!-- Generator: Adobe Illustrator 16.0.0, SVG Export Plug-In . SVG Version: 6.00 Build 0)  -->
<!DOCTYPE svg PUBLIC "-//W3C//DTD SVG 1.1//EN" "http://www.w3.org/Graphics/SVG/1.1/DTD/svg11.dtd">
<svg version="1.1" id="Слой_1" xmlns="http://www.w3.org/2000/svg" xmlns:xlink="http://www.w3.org/1999/xlink" x="0px" y="0px"
	 width="25.281px" height="24.477px" viewBox="0 0 25.281 24.477" enable-background="new 0 0 25.281 24.477" xml:space="preserve">
<g>
	<path d="M10.464,11.513l-0.392,2.199c-0.345,1.983-1.33,2.637-3.457,2.637H2.625C0.904,16.349,0,15.755,0,14.328
		c0-0.237,0.036-0.511,0.084-0.795l0.439-2.531C0.915,8.794,1.948,8.01,4.098,8.01h3.956c1.71,0,2.661,0.345,2.661,1.746
		c0,0.226-0.036,0.486-0.084,0.783H8.658c0.011-0.071,0.022-0.178,0.022-0.214c0-0.476-0.38-0.678-1.424-0.678h-2.91
		c-1.188,0-1.676,0.369-1.89,1.604l-0.368,2.09c-0.036,0.226-0.059,0.416-0.059,0.582c0,0.63,0.344,0.783,1.388,0.783h3.243
		c0.985,0,1.306-0.262,1.413-0.854l0.156-0.878H4.977l0.261-1.462L10.464,11.513L10.464,11.513z"/>
	<path d="M11.462,13.239h1.973L13.09,15.21h-1.973L11.462,13.239z M12.115,9.486h1.972l-0.345,1.972h-1.973L12.115,9.486z"/>
	<path d="M25.013,11.513l-0.393,2.199c-0.345,1.983-1.33,2.637-3.457,2.637h-3.991c-1.722,0-2.625-0.594-2.625-2.021
		c0-0.237,0.036-0.511,0.084-0.795l0.438-2.531c0.393-2.209,1.426-2.992,3.574-2.992h3.957c1.71,0,2.66,0.345,2.66,1.746
		c0,0.226-0.035,0.486-0.084,0.783h-1.971c0.012-0.071,0.025-0.178,0.025-0.214c0-0.476-0.381-0.678-1.427-0.678h-2.91
		c-1.188,0-1.676,0.369-1.889,1.604l-0.369,2.09c-0.036,0.226-0.06,0.416-0.06,0.582c0,0.63,0.345,0.783,1.39,0.783h3.242
		c0.985,0,1.306-0.262,1.413-0.854l0.155-0.878h-3.253l0.261-1.462L25.013,11.513L25.013,11.513z"/>
</g>
</svg>
