<?xml version="1.0" encoding="iso-8859-1"?>
<!-- Generator: Adobe Illustrator 16.0.0, SVG Export Plug-In . SVG Version: 6.00 Build 0)  -->
<!DOCTYPE svg PUBLIC "-//W3C//DTD SVG 1.1//EN" "http://www.w3.org/Graphics/SVG/1.1/DTD/svg11.dtd">
<svg version="1.1" id="&#x421;&#x43B;&#x43E;&#x439;_1"
	 xmlns="http://www.w3.org/2000/svg" xmlns:xlink="http://www.w3.org/1999/xlink" x="0px" y="0px" width="93.543px"
	 height="93.543px" viewBox="0 0 93.543 93.543" style="enable-background:new 0 0 93.543 93.543;" xml:space="preserve">
<polygon style="fill:#E1AA36;" points="10.645,36.518 17.441,36.518 38.11,36.649 45.047,18.602 47.172,12.587 49.294,18.734 
	55.666,36.91 76.335,37.302 83.13,37.434 77.61,41.094 60.763,52.21 66.708,70.518 68.69,76.663 63.169,72.871 46.463,61.625 
	29.616,72.479 23.954,76.009 26.077,69.995 32.589,51.948 16.167,40.31 "/>
<polygon style="fill:#DE6723;" points="18.806,32.206 24.104,32.206 40.213,32.316 45.621,17.087 47.276,12.011 48.932,17.198 
	53.897,32.536 70.008,32.868 75.305,32.977 71,36.067 57.87,45.447 62.504,60.896 64.049,66.083 59.746,62.881 46.725,53.393 
	33.593,62.552 29.18,65.529 30.835,60.455 35.911,45.226 23.11,35.406 "/>
<g>
	<path style="fill-rule:evenodd;clip-rule:evenodd;fill:#82AC4E;" d="M14.282,75.355c0-5.541,0-10.772,0-15.979
		c6.593-3.612,49.972-3.961,64.788-0.495c0,5.278,0,10.611,0,15.863c-10.71-0.682-21.473-1.745-32.253-1.948
		C36.002,72.596,25.189,73.513,14.282,75.355z"/>
	<path style="fill-rule:evenodd;clip-rule:evenodd;fill:#82AC4E;" d="M0.125,64.587c4.275,0,7.945,0,11.971,0
		c0,4.396,0,8.582,0,13.087c2.186-0.264,3.977-0.478,5.974-0.72c0.051,1.146,0.095,2.142,0.15,3.42c-5.961,0-11.756,0-18.031,0
		c2.089-2.799,3.973-5.323,5.853-7.844C4.1,69.923,2.271,67.47,0.125,64.587z"/>
	<path style="fill-rule:evenodd;clip-rule:evenodd;fill:#82AC4E;" d="M75.519,80.413c0-1.108,0-2.11,0-3.388
		c1.907,0.202,3.696,0.392,5.838,0.619c0.457-4.399,0.058-8.686,0.184-13.107c3.905,0,7.584,0,11.876,0
		c-2.075,2.741-3.949,5.217-5.966,7.882c1.878,2.574,3.739,5.127,5.831,7.994C87.255,80.413,81.561,80.413,75.519,80.413z"/>
</g>
<g>
	<path style="fill:#235870;" d="M34.742,71.163h-3.583V60.83H27.92V57.9h10.051v2.93h-3.229V71.163z"/>
	<path style="fill:#235870;" d="M52.277,64.514c0,2.231-0.548,3.928-1.642,5.089c-1.095,1.161-2.698,1.742-4.808,1.742
		c-2.081,0-3.675-0.583-4.785-1.751c-1.11-1.167-1.665-2.867-1.665-5.098c0-2.208,0.552-3.894,1.656-5.058
		c1.103-1.164,2.708-1.746,4.813-1.746c2.11,0,3.71,0.577,4.798,1.732C51.732,60.58,52.277,62.276,52.277,64.514z M43.151,64.514
		c0,2.564,0.892,3.846,2.676,3.846c0.907,0,1.58-0.312,2.018-0.935c0.438-0.623,0.658-1.593,0.658-2.912
		c0-1.325-0.222-2.303-0.667-2.935c-0.444-0.632-1.108-0.948-1.991-0.948C44.049,60.631,43.151,61.925,43.151,64.514z"/>
	<path style="fill:#235870;" d="M64.297,62.119c0,1.481-0.437,2.626-1.311,3.433c-0.874,0.808-2.115,1.212-3.724,1.212h-1.006v4.399
		h-3.583V57.9h4.59c1.676,0,2.934,0.366,3.774,1.098C63.876,59.729,64.297,60.771,64.297,62.119z M58.255,63.842h0.653
		c0.538,0,0.966-0.151,1.284-0.454c0.317-0.302,0.476-0.72,0.476-1.252c0-0.896-0.496-1.343-1.487-1.343h-0.925V63.842z"/>
</g>
</svg>
