<?xml version="1.0" encoding="iso-8859-1"?>
<!-- Generator: Adobe Illustrator 16.0.0, SVG Export Plug-In . SVG Version: 6.00 Build 0)  -->
<!DOCTYPE svg PUBLIC "-//W3C//DTD SVG 1.1//EN" "http://www.w3.org/Graphics/SVG/1.1/DTD/svg11.dtd">
<svg version="1.1" id="&#x421;&#x43B;&#x43E;&#x439;_1"
	 xmlns="http://www.w3.org/2000/svg" xmlns:xlink="http://www.w3.org/1999/xlink" x="0px" y="0px" width="93.543px"
	 height="93.543px" viewBox="0 0 93.543 93.543" style="enable-background:new 0 0 93.543 93.543;" xml:space="preserve">
<g>
	<path style="fill-rule:evenodd;clip-rule:evenodd;fill:#82AC4D;" d="M71.308,59.061c0.007-0.025,0.01-0.049,0.018-0.074
		c-0.006,0.003-0.012,0.005-0.018,0.009c-0.028,0.031-0.055,0.062-0.083,0.091C71.253,59.077,71.279,59.07,71.308,59.061z"/>
	<path style="fill-rule:evenodd;clip-rule:evenodd;fill:#82AC4D;" d="M80.754,47.631c0.476-3.226,0.953-6.452,1.444-9.766
		c4.764-1.533,5.383-2.438,4.681-7.197c-3.018,0.558-4.982,2.191-5.589,5.555c-0.852-1.877-1.659-3.406-2.235-5.019
		c-0.336-0.946-0.508-2.043-0.407-3.037c0.457-4.495-0.961-6.388-6.135-7.757c-0.902,3.879-0.362,7.034,3.405,9.313
		c1.275,0.771,1.998,2.456,2.974,3.724c-2.326-0.619-4.156-1.662-6.309-0.449c1.001,4.168,3.324,6.044,7.523,4.901
		c0.885,4.116-0.173,7.454-2.021,10.64c0.353-4.038-0.538-7.384-4.916-8.984c-1.541,1.678-1.158,3.635-1.036,5.425
		c0.198,2.907,1.261,3.813,4.795,4.632c-1.048,3.115-3.508,4.742-6.412,6.242c2.258-4.296-0.046-7.019-2.541-9.814
		c-2.167,2.354-2.577,3.359-2.821,5.361c-0.34,2.775,1.467,4.497,3.597,6.647c-3.953,1.408-7.354,2.621-10.679,3.802
		c0.663,2.822,2.891,0.87,3.958,1.793c2.144,4.998,3.791,5.767,9.513,4.132c-1.631-2.243-3.157-4.342-4.766-6.556
		c1.469-0.721,2.998-1.473,4.528-2.224c2.814-3.115,5.628-6.232,8.442-9.347c-0.167,1.739,0.753,2.54,2.358,2.854
		c3.767,0.731,6.26-1.168,7.236-5.558C86.386,46,83.555,46.625,80.754,47.631z"/>
</g>
<g>
	<path style="fill-rule:evenodd;clip-rule:evenodd;fill:#82AB4D;" d="M26.379,58.048c2.129-2.15,3.937-3.872,3.597-6.647
		c-0.244-2.002-0.654-3.007-2.82-5.361c-2.495,2.796-4.799,5.519-2.541,9.814c-2.903-1.5-5.364-3.127-6.412-6.242
		c3.535-0.818,4.598-1.725,4.796-4.632c0.122-1.79,0.503-3.747-1.036-5.425c-4.378,1.601-5.269,4.946-4.917,8.984
		c-1.849-3.186-2.906-6.523-2.021-10.64c4.2,1.143,6.523-0.733,7.523-4.901c-2.153-1.213-3.982-0.17-6.309,0.449
		c0.977-1.268,1.699-2.952,2.974-3.724c3.767-2.279,4.307-5.435,3.404-9.313c-5.173,1.369-6.591,3.262-6.134,7.757
		c0.101,0.994-0.07,2.091-0.408,3.037c-0.575,1.612-1.382,3.142-2.234,5.019c-0.607-3.363-2.571-4.997-5.589-5.555
		c-0.702,4.76-0.083,5.664,4.681,7.197c0.491,3.313,0.967,6.54,1.444,9.766c-2.8-1.006-5.632-1.631-8.588-0.687
		c0.976,4.39,3.469,6.289,7.236,5.558c1.604-0.313,2.525-1.114,2.358-2.854c2.814,3.114,5.627,6.231,8.441,9.347
		c1.53,0.751,3.059,1.503,4.528,2.224c-1.609,2.214-3.134,4.313-4.765,6.556c5.722,1.635,7.369,0.866,9.513-4.132
		c1.068-0.923,3.295,1.029,3.958-1.793C33.733,60.669,30.333,59.456,26.379,58.048z"/>
	<path style="fill-rule:evenodd;clip-rule:evenodd;fill:#82AB4D;" d="M14.023,62.868c2.104,1.475,4.246,2.554,6.806,1.286
		c2.043-1.011,3.711-2.41,2.994-5.094C18.792,57.442,17.205,58.029,14.023,62.868z"/>
	<path style="fill-rule:evenodd;clip-rule:evenodd;fill:#82AB4D;" d="M23.823,59.061c0.029,0.01,0.054,0.017,0.083,0.025
		c-0.028-0.029-0.055-0.06-0.083-0.091c-0.006-0.004-0.012-0.006-0.019-0.009C23.813,59.012,23.816,59.035,23.823,59.061z"/>
</g>
<g>
	<path style="fill-rule:evenodd;clip-rule:evenodd;fill:#E4E2D2;" d="M26.092,37.83c0.014-0.068,0.035-0.136,0.042-0.204
		c0.133-1.282,0.268-2.562,0.393-3.844c0.014-0.151,0.071-0.226,0.208-0.286c1.078-0.492,2.157-0.979,3.226-1.488
		c1.295-0.616,2.528-1.346,3.741-2.11c0.022-0.013,0.045-0.023,0.091-0.051c1.098,3.781,2.707,7.319,4.849,10.642
		c-0.156,0.053-0.3,0.106-0.447,0.15c-1.67,0.499-3.296,1.115-4.88,1.842c-0.695,0.319-1.394,0.632-2.087,0.956
		c-0.117,0.053-0.195,0.048-0.3-0.026c-1.093-0.774-2.189-1.547-3.286-2.317c-0.025-0.019-0.056-0.03-0.084-0.045
		C27.069,39.976,26.581,38.903,26.092,37.83z"/>
	<path style="fill-rule:evenodd;clip-rule:evenodd;fill:#E4E2D2;" d="M63.468,22.853c1.082,2.41,1.983,4.966,2.487,7.649
		c0.27,1.436,0.43,2.882,0.292,4.347c-0.064,0.694-0.198,1.373-0.512,2.006c-0.271,0.548-0.67,0.951-1.24,1.198
		c-0.87,0.381-1.728,0.787-2.594,1.176c-0.089,0.039-0.203,0.063-0.296,0.045c-3.13-0.578-6.29-0.788-9.468-0.754
		c-3.541,0.039-7.042,0.421-10.497,1.202c-0.148,0.034-0.231,0.007-0.319-0.121c-1.375-2.013-2.508-4.154-3.456-6.397
		c-0.591-1.399-1.101-2.827-1.506-4.292c-0.059-0.215-0.191-0.452-0.142-0.64c0.044-0.169,0.286-0.291,0.454-0.418
		c2.352-1.766,4.526-3.729,6.536-5.876c2.378-2.544,4.524-5.267,6.319-8.252c0.232-0.387,0.506-0.642,0.919-0.812
		c0.715-0.292,1.416-0.617,2.11-0.956c0.646-0.316,1.294-0.324,1.961-0.108c0.739,0.239,1.383,0.649,1.988,1.126
		c1.326,1.043,2.407,2.317,3.396,3.673C61.299,18.564,62.444,20.627,63.468,22.853z M61.173,23.798
		c-0.969-2.09-2.09-4.088-3.51-5.91c-0.858-1.102-1.792-2.131-2.943-2.938c-0.436-0.306-0.896-0.572-1.423-0.686
		c-0.503-0.11-0.801,0.004-1.012,0.472c-0.169,0.379-0.301,0.785-0.37,1.192c-0.208,1.226-0.097,2.45,0.093,3.669
		c0.321,2.045,0.926,4.011,1.703,5.927c0.999,2.466,2.231,4.804,3.821,6.943c0.864,1.164,1.813,2.252,2.975,3.132
		c0.492,0.374,1.011,0.704,1.62,0.854c0.559,0.139,0.845,0.005,1.106-0.507c0.236-0.462,0.333-0.963,0.386-1.473
		c0.136-1.285,0.003-2.558-0.225-3.822C62.961,28.266,62.16,26.002,61.173,23.798z"/>
	<path style="fill-rule:evenodd;clip-rule:evenodd;fill:#E4E2D2;" d="M38.486,42.271c0.401-0.099,0.774-0.191,1.146-0.282
		c1.207-0.293,2.414-0.585,3.62-0.882c0.135-0.032,0.238-0.023,0.358,0.069c2.621,1.997,5.244,3.988,7.87,5.98
		c0.234,0.178,0.44,0.374,0.516,0.669c0.109,0.426-0.018,0.784-0.317,1.096c-0.949,0.989-1.896,1.983-2.844,2.975
		c-0.185,0.194-0.368,0.39-0.556,0.581c-0.512,0.52-1.195,0.496-1.653-0.073c-1.891-2.345-3.775-4.693-5.662-7.042
		c-0.782-0.972-1.563-1.946-2.344-2.92C38.583,42.397,38.548,42.351,38.486,42.271z"/>
	<path style="fill-rule:evenodd;clip-rule:evenodd;fill:#F4B83B;" d="M56.418,25.967c-0.475-1.065-0.857-2.15-0.936-3.314
		c-0.026-0.396,0.011-0.81,0.087-1.201c0.075-0.384,0.28-0.461,0.641-0.304c0.512,0.221,0.893,0.611,1.244,1.027
		c0.93,1.096,1.578,2.35,2.052,3.701c0.285,0.813,0.5,1.64,0.513,2.505c0.004,0.31-0.037,0.627-0.112,0.928
		c-0.087,0.351-0.272,0.42-0.607,0.287c-0.398-0.158-0.708-0.441-1-0.743C57.483,28.011,56.904,27.013,56.418,25.967z"/>
</g>
<g>
	<path style="fill-rule:evenodd;clip-rule:evenodd;fill:#82AC4E;" d="M14.407,73.945c0-5.54,0-10.772,0-15.979
		c6.593-3.612,49.972-3.961,64.788-0.495c0,5.278,0,10.61,0,15.863c-10.71-0.683-21.473-1.746-32.253-1.948
		C36.128,71.188,25.314,72.104,14.407,73.945z"/>
	<path style="fill-rule:evenodd;clip-rule:evenodd;fill:#82AC4E;" d="M0.251,63.178c4.275,0,7.945,0,11.971,0
		c0,4.396,0,8.582,0,13.086c2.186-0.262,3.977-0.478,5.974-0.72c0.051,1.147,0.095,2.143,0.15,3.421c-5.961,0-11.756,0-18.031,0
		c2.089-2.799,3.973-5.322,5.853-7.844C4.226,68.514,2.396,66.061,0.251,63.178z"/>
	<path style="fill-rule:evenodd;clip-rule:evenodd;fill:#82AC4E;" d="M75.645,79.003c0-1.108,0-2.11,0-3.388
		c1.907,0.202,3.696,0.393,5.838,0.618c0.457-4.397,0.058-8.685,0.184-13.106c3.905,0,7.584,0,11.876,0
		c-2.075,2.742-3.949,5.218-5.966,7.882c1.878,2.575,3.739,5.127,5.831,7.994C87.38,79.003,81.686,79.003,75.645,79.003z"/>
</g>
<g>
	<path style="fill:#235870;" d="M20.486,68.39h-2.314v-6.674H16.08v-1.893h6.492v1.893h-2.086V68.39z"/>
	<path style="fill:#235870;" d="M31.812,64.095c0,1.441-0.354,2.537-1.061,3.287s-1.742,1.125-3.105,1.125
		c-1.344,0-2.374-0.377-3.091-1.131s-1.075-1.852-1.075-3.293c0-1.426,0.356-2.515,1.069-3.267s1.749-1.128,3.108-1.128
		c1.363,0,2.396,0.373,3.1,1.119S31.812,62.649,31.812,64.095z M25.917,64.095c0,1.656,0.576,2.484,1.729,2.484
		c0.586,0,1.021-0.201,1.304-0.604s0.425-1.029,0.425-1.881c0-0.855-0.144-1.487-0.431-1.896s-0.716-0.612-1.286-0.612
		C26.498,61.587,25.917,62.423,25.917,64.095z"/>
	<path style="fill:#235870;" d="M39.576,62.548c0,0.957-0.282,1.696-0.847,2.218s-1.366,0.782-2.405,0.782h-0.65v2.842h-2.314
		v-8.566h2.965c1.082,0,1.895,0.236,2.438,0.709S39.576,61.677,39.576,62.548z M35.673,63.661h0.422
		c0.348,0,0.624-0.098,0.829-0.293s0.308-0.465,0.308-0.809c0-0.578-0.32-0.867-0.961-0.867h-0.598V63.661z"/>
	<path style="fill:#235870;" d="M50.275,62.548c0,0.957-0.282,1.696-0.847,2.218s-1.366,0.782-2.405,0.782h-0.65v2.842h-2.314
		v-8.566h2.965c1.082,0,1.895,0.236,2.438,0.709S50.275,61.677,50.275,62.548z M46.373,63.661h0.422
		c0.348,0,0.624-0.098,0.829-0.293s0.308-0.465,0.308-0.809c0-0.578-0.32-0.867-0.961-0.867h-0.598V63.661z"/>
	<path style="fill:#235870;" d="M51.64,68.39v-8.566h2.326v8.566H51.64z"/>
	<path style="fill:#235870;" d="M59.632,61.599c-0.551,0-0.98,0.226-1.289,0.677s-0.463,1.073-0.463,1.866
		c0,1.648,0.627,2.473,1.881,2.473c0.379,0,0.746-0.053,1.102-0.158s0.713-0.232,1.072-0.381v1.957
		c-0.715,0.316-1.523,0.475-2.426,0.475c-1.293,0-2.284-0.375-2.974-1.125s-1.034-1.834-1.034-3.252
		c0-0.887,0.167-1.666,0.501-2.338s0.814-1.188,1.441-1.55s1.364-0.542,2.212-0.542c0.926,0,1.811,0.201,2.654,0.604l-0.709,1.822
		c-0.316-0.148-0.633-0.273-0.949-0.375S59.996,61.599,59.632,61.599z"/>
	<path style="fill:#235870;" d="M70.923,68.39H68.31l-1.693-3.275l-0.686,0.41v2.865h-2.326v-8.566h2.326v3.721
		c0.117-0.23,0.354-0.596,0.709-1.096l1.799-2.625h2.531l-2.701,3.838L70.923,68.39z"/>
	<path style="fill:#235870;" d="M77.451,65.788c0,0.531-0.135,1.003-0.404,1.415s-0.658,0.732-1.166,0.961s-1.104,0.343-1.787,0.343
		c-0.57,0-1.049-0.04-1.436-0.12s-0.789-0.22-1.207-0.419v-2.063c0.441,0.227,0.9,0.403,1.377,0.53s0.914,0.19,1.313,0.19
		c0.344,0,0.596-0.06,0.756-0.179s0.24-0.272,0.24-0.46c0-0.117-0.032-0.22-0.097-0.308s-0.168-0.177-0.311-0.267
		s-0.522-0.273-1.14-0.551c-0.559-0.254-0.978-0.5-1.257-0.738s-0.486-0.512-0.621-0.82s-0.202-0.674-0.202-1.096
		c0-0.789,0.287-1.404,0.861-1.846s1.363-0.662,2.367-0.662c0.887,0,1.791,0.205,2.713,0.615l-0.709,1.787
		c-0.801-0.367-1.492-0.551-2.074-0.551c-0.301,0-0.52,0.053-0.656,0.158s-0.205,0.236-0.205,0.393c0,0.168,0.087,0.318,0.261,0.451
		s0.646,0.375,1.415,0.727c0.738,0.332,1.251,0.688,1.538,1.069S77.451,65.21,77.451,65.788z"/>
</g>
</svg>
