<?xml version="1.0" encoding="iso-8859-1"?>
<!-- Generator: Adobe Illustrator 16.0.0, SVG Export Plug-In . SVG Version: 6.00 Build 0)  -->
<!DOCTYPE svg PUBLIC "-//W3C//DTD SVG 1.1//EN" "http://www.w3.org/Graphics/SVG/1.1/DTD/svg11.dtd">
<svg version="1.1" id="&#x421;&#x43B;&#x43E;&#x439;_1"
	 xmlns="http://www.w3.org/2000/svg" xmlns:xlink="http://www.w3.org/1999/xlink" x="0px" y="0px" width="93.543px"
	 height="93.543px" viewBox="0 0 93.543 93.543" style="enable-background:new 0 0 93.543 93.543;" xml:space="preserve">
<g>
	<path style="fill-rule:evenodd;clip-rule:evenodd;fill:#E1AA36;" d="M67.317,58.475c0.007-0.025,0.01-0.047,0.017-0.074
		c-0.006,0.003-0.012,0.006-0.018,0.009c-0.027,0.03-0.054,0.059-0.08,0.088C67.264,58.49,67.289,58.483,67.317,58.475z"/>
	<path style="fill-rule:evenodd;clip-rule:evenodd;fill:#E1AA36;" d="M70.229,63.429c2.491,1.233,4.574,0.184,6.621-1.25
		c-3.094-4.708-4.639-5.278-9.534-3.704C66.619,61.085,68.241,62.447,70.229,63.429z"/>
	<path style="fill-rule:evenodd;clip-rule:evenodd;fill:#E1AA36;" d="M76.506,47.355c0.464-3.139,0.928-6.277,1.405-9.502
		c4.634-1.491,5.236-2.37,4.553-7c-2.936,0.543-4.847,2.132-5.437,5.405c-0.83-1.827-1.614-3.315-2.174-4.882
		c-0.328-0.921-0.495-1.99-0.396-2.957c0.445-4.372-0.935-6.212-5.968-7.544c-0.877,3.772-0.353,6.843,3.313,9.061
		c1.24,0.75,1.943,2.39,2.893,3.621c-2.263-0.601-4.042-1.616-6.137-0.436c0.973,4.054,3.233,5.878,7.318,4.766
		c0.861,4.005-0.168,7.253-1.966,10.351c0.343-3.926-0.524-7.183-4.782-8.739c-1.499,1.63-1.127,3.534-1.008,5.275
		c0.192,2.829,1.227,3.71,4.665,4.508c-1.02,3.031-3.413,4.612-6.237,6.072c2.197-4.179-0.045-6.827-2.471-9.548
		c-2.108,2.292-2.507,3.269-2.745,5.215c-0.331,2.701,1.427,4.374,3.5,6.468c-3.846,1.37-7.156,2.55-10.388,3.7
		c0.645,2.745,2.812,0.844,3.851,1.742c2.084,4.863,3.688,5.611,9.254,4.02c-1.587-2.18-3.071-4.223-4.637-6.376
		c1.429-0.701,2.917-1.433,4.405-2.164c2.738-3.031,5.475-6.063,8.212-9.093c-0.163,1.692,0.734,2.471,2.293,2.776
		c3.665,0.711,6.09-1.136,7.04-5.407C81.985,45.768,79.23,46.377,76.506,47.355z"/>
</g>
<g>
	<path style="fill-rule:evenodd;clip-rule:evenodd;fill:#E1AA36;" d="M27.783,57.489c2.071-2.094,3.83-3.767,3.499-6.468
		c-0.238-1.947-0.636-2.923-2.744-5.215c-2.427,2.721-4.668,5.369-2.471,9.548c-2.825-1.459-5.218-3.041-6.238-6.072
		c3.439-0.798,4.473-1.679,4.666-4.508c0.119-1.741,0.491-3.646-1.008-5.275c-4.259,1.556-5.125,4.813-4.782,8.739
		c-1.799-3.098-2.827-6.346-1.967-10.351c4.085,1.112,6.345-0.712,7.319-4.766c-2.095-1.181-3.875-0.165-6.137,0.436
		c0.949-1.231,1.652-2.871,2.894-3.621c3.665-2.217,4.189-5.289,3.312-9.061c-5.033,1.332-6.413,3.172-5.968,7.544
		c0.099,0.967-0.067,2.036-0.396,2.957c-0.559,1.567-1.345,3.055-2.174,4.882c-0.59-3.272-2.5-4.861-5.437-5.405
		c-0.683,4.63-0.081,5.51,4.554,7c0.477,3.225,0.94,6.363,1.405,9.502c-2.724-0.978-5.479-1.588-8.356-0.669
		c0.95,4.271,3.375,6.118,7.04,5.407c1.561-0.305,2.457-1.084,2.293-2.776c2.738,3.03,5.476,6.062,8.213,9.093
		c1.489,0.73,2.976,1.462,4.404,2.164c-1.564,2.153-3.048,4.196-4.635,6.376c5.566,1.591,7.168,0.844,9.254-4.02
		c1.039-0.897,3.206,1.003,3.851-1.742C34.937,60.039,31.628,58.859,27.783,57.489z"/>
	<path style="fill-rule:evenodd;clip-rule:evenodd;fill:#E1AA36;" d="M15.762,62.179c2.047,1.434,4.13,2.483,6.622,1.25
		c1.987-0.982,3.61-2.344,2.912-4.955C20.401,56.9,18.857,57.471,15.762,62.179z"/>
	<path style="fill-rule:evenodd;clip-rule:evenodd;fill:#E1AA36;" d="M25.296,58.475c0.028,0.008,0.053,0.016,0.082,0.024
		c-0.027-0.03-0.054-0.058-0.081-0.088c-0.005-0.003-0.011-0.006-0.018-0.009C25.286,58.427,25.289,58.45,25.296,58.475z"/>
</g>
<g>
	<path style="fill:#E4E2D2;" d="M44.289,54.186c-3.58-0.163-7.029-0.963-10.348-2.403V43.64c1.896,0.965,3.956,1.771,6.179,2.417
		s4.178,0.969,5.862,0.969c1.389,0,2.407-0.169,3.053-0.503c0.646-0.334,0.969-0.895,0.969-1.68c0-0.539-0.233-0.997-0.699-1.374
		c-0.466-0.375-1.243-0.8-2.33-1.274c-1.087-0.475-2.554-1.046-4.402-1.716c-2.077-0.77-3.752-1.632-5.027-2.587
		c-1.275-0.958-2.204-2.026-2.784-3.214c-0.579-1.185-0.87-2.661-0.87-4.427c0-2.697,0.866-4.806,2.599-6.326
		c1.733-1.521,4.333-2.461,7.798-2.821v-3.359h5.077v3.31c3.253,0.18,6.532,0.981,9.834,2.404l-2.917,6.991
		c-3.418-1.539-6.499-2.306-9.246-2.306c-1.308,0-2.228,0.158-2.759,0.478c-0.531,0.319-0.797,0.788-0.797,1.409
		c0,0.54,0.192,0.986,0.577,1.336c0.384,0.353,1.049,0.745,1.999,1.178c0.947,0.433,2.263,0.936,3.948,1.508
		c3.417,1.21,5.869,2.586,7.357,4.132c1.487,1.545,2.231,3.534,2.231,5.972c0,2.745-0.871,4.978-2.612,6.694
		c-1.741,1.717-4.28,2.779-7.615,3.188v4.732h-5.077V54.186z"/>
</g>
<g>
	<path style="fill-rule:evenodd;clip-rule:evenodd;fill:#82AC4E;" d="M93.543,67.184c-4.82,0.425-10.095,0.802-14.544,1.196
		c-0.502-4.763,0.054-9.232-0.453-14.042c-2.786,0.365-9.601,0.409-10.04,1.107c-0.011,1.274,0.703,1.843,8.02,1.739
		c0.455,4.915-0.102,9.998,0.412,15.542c-2.297,0.361-2.727,0.375-5.009,0.358c-9.457-0.061-12.884,0.049-25.122-0.987
		c-10.464-0.885-19.833-1.512-21.393-1.387c-3.177,0.252-6.359,0.434-10.035,0.678c-0.486-5.011,0.05-10.068-0.487-15.6
		c2.641-0.354,4.007-0.919,6.403-0.926c1.706-0.006,28.517,1.156,46.423,2.228c1.934,0.115-2.454-2.028-0.264-2.784
		c-0.032-0.734,14.845-2.02,20.172-2.502c1.097-0.103,2.209-0.016,3.875-0.016c-2.292,2.616-4.29,4.896-6.479,7.394
		C87.771,61.76,90.432,64.261,93.543,67.184z"/>
	<path style="fill-rule:evenodd;clip-rule:evenodd;fill:#82AC4E;" d="M13.226,74.315c3.119-0.39,5.854-0.759,8.599-1.067
		c1.122-0.128,2.258-0.196,3.388-0.186c1.189,0.013,1.262,0.8,0.916,2.119c-8.01,0.746-16.159,1.504-24.846,2.314
		c2.431-2.78,4.559-5.21,6.933-7.924c-2.691-2.513-5.342-4.989-8.426-7.87c4.364-0.372,9.13-0.689,13.168-1.03
		C13.389,65.209,12.774,69.556,13.226,74.315z"/>
</g>
<g>
	<path style="fill:#235870;" d="M20.677,59.505h2.832c1.103,0,1.922,0.165,2.458,0.493c0.534,0.327,0.802,0.836,0.802,1.53
		c0,0.455-0.117,0.845-0.35,1.165c-0.233,0.322-0.541,0.529-0.922,0.622v0.055c0.504,0.134,0.869,0.355,1.094,0.667
		c0.226,0.31,0.338,0.713,0.338,1.21c0,0.738-0.277,1.319-0.83,1.743c-0.555,0.423-1.307,0.635-2.263,0.635h-3.16V59.505z
		 M22.871,62.62h0.661c0.314,0,0.558-0.065,0.73-0.194c0.173-0.129,0.258-0.321,0.258-0.577c0-0.455-0.344-0.684-1.033-0.684h-0.616
		V62.62z M22.871,64.226v1.707h0.771c0.686,0,1.028-0.29,1.028-0.869c0-0.268-0.092-0.476-0.275-0.621
		c-0.183-0.145-0.448-0.217-0.796-0.217H22.871z"/>
	<path style="fill:#235870;" d="M33.161,67.625h-4.82v-8.119h4.82v1.761h-2.627v1.276h2.433v1.761h-2.433v1.532h2.627V67.625z"/>
	<path style="fill:#235870;" d="M39.892,65.159c0,0.503-0.128,0.952-0.384,1.341c-0.255,0.392-0.624,0.695-1.105,0.912
		c-0.481,0.215-1.046,0.322-1.693,0.322c-0.541,0-0.994-0.036-1.361-0.112c-0.366-0.076-0.748-0.209-1.144-0.399V65.27
		c0.418,0.214,0.854,0.384,1.305,0.504c0.452,0.119,0.867,0.179,1.245,0.179c0.326,0,0.564-0.056,0.716-0.169
		c0.151-0.113,0.228-0.26,0.228-0.437c0-0.111-0.03-0.208-0.091-0.292c-0.061-0.082-0.16-0.168-0.294-0.253
		c-0.136-0.086-0.496-0.259-1.081-0.522c-0.53-0.24-0.927-0.473-1.191-0.7c-0.265-0.225-0.46-0.483-0.588-0.776
		c-0.128-0.293-0.191-0.639-0.191-1.039c0-0.747,0.271-1.331,0.815-1.749c0.544-0.419,1.292-0.627,2.244-0.627
		c0.84,0,1.698,0.194,2.571,0.582l-0.672,1.695c-0.759-0.35-1.415-0.521-1.966-0.521c-0.285,0-0.492,0.049-0.621,0.149
		c-0.13,0.101-0.195,0.224-0.195,0.373c0,0.159,0.083,0.301,0.248,0.429c0.164,0.124,0.611,0.353,1.34,0.688
		c0.7,0.315,1.186,0.653,1.458,1.015C39.755,64.158,39.892,64.61,39.892,65.159z"/>
	<path style="fill:#235870;" d="M44.728,67.625h-2.193V61.3h-1.984v-1.794h6.153V61.3h-1.977V67.625z"/>
	<path style="fill:#235870;" d="M50.821,59.505h2.832c1.103,0,1.922,0.165,2.458,0.493c0.535,0.327,0.802,0.836,0.802,1.53
		c0,0.455-0.116,0.845-0.349,1.165c-0.234,0.322-0.541,0.529-0.923,0.622v0.055c0.504,0.134,0.869,0.355,1.095,0.667
		c0.226,0.31,0.338,0.713,0.338,1.21c0,0.738-0.276,1.319-0.831,1.743c-0.553,0.423-1.307,0.635-2.263,0.635h-3.159V59.505z
		 M53.014,62.62h0.661c0.314,0,0.559-0.065,0.73-0.194c0.172-0.129,0.258-0.321,0.258-0.577c0-0.455-0.344-0.684-1.032-0.684h-0.617
		V62.62z M53.014,64.226v1.707h0.771c0.686,0,1.028-0.29,1.028-0.869c0-0.268-0.092-0.476-0.275-0.621
		c-0.184-0.145-0.449-0.217-0.797-0.217H53.014z"/>
	<path style="fill:#235870;" d="M63.304,67.625h-4.821v-8.119h4.821v1.761h-2.627v1.276h2.432v1.761h-2.432v1.532h2.627V67.625z"/>
	<path style="fill:#235870;" d="M68.307,67.625h-2.193V61.3h-1.983v-1.794h6.153V61.3h-1.977V67.625z"/>
</g>
</svg>
