<?xml version="1.0" encoding="iso-8859-1"?>
<!-- Generator: Adobe Illustrator 16.0.0, SVG Export Plug-In . SVG Version: 6.00 Build 0)  -->
<!DOCTYPE svg PUBLIC "-//W3C//DTD SVG 1.1//EN" "http://www.w3.org/Graphics/SVG/1.1/DTD/svg11.dtd">
<svg version="1.1" id="&#x421;&#x43B;&#x43E;&#x439;_1"
	 xmlns="http://www.w3.org/2000/svg" xmlns:xlink="http://www.w3.org/1999/xlink" x="0px" y="0px" width="93.543px"
	 height="93.543px" viewBox="0 0 93.543 93.543" style="enable-background:new 0 0 93.543 93.543;" xml:space="preserve">
<path style="fill-rule:evenodd;clip-rule:evenodd;fill:#82AC4D;" d="M62.42,74.338c9.715,0,18.808,0,28.355,0
	c0.694,4.931,0.525,9.452,0.138,14.212c-29.459,0-58.579,0-87.664,0c-0.915-3.833-1.084-17.972-0.246-24.811
	c4.466-0.232,9.064-0.069,13.649-0.097c4.64-0.028,9.281-0.006,14.536-0.006c0-5.158,0-10.051,0-15.199c10.554,0,20.496,0,30.72,0
	c1.057,4.169,0.354,8.461,0.484,12.694C62.521,65.252,62.42,69.378,62.42,74.338z"/>
<path style="fill-rule:evenodd;clip-rule:evenodd;fill:#E6E5D4;" d="M29.174,53.336c0,2.667,0,4.534,0,6.756
	c-8.542,0-16.911,0-26.135,0c5.206-3.311,9.064-7.579,15.511-6.824C21.913,53.661,25.362,53.336,29.174,53.336z"/>
<path style="fill-rule:evenodd;clip-rule:evenodd;fill:#E6E5D4;" d="M64.525,70.996c0-2.126,0-3.813,0-5.859
	c1.035-0.146,2.162-0.416,3.296-0.443c2.752-0.067,5.551,0.282,8.258-0.086c5.926-0.807,10.111,1.832,13.937,6.389
	C81.49,70.996,73.284,70.996,64.525,70.996z"/>
<path style="fill-rule:evenodd;clip-rule:evenodd;fill:#E6E5D4;" d="M61.511,44.998c-9.972,0-19.363,0-29.294,0
	c2.633-2.992,5.201-4.675,8.96-4.415c3.415,0.236,6.872,0.24,10.283-0.006C55.334,40.299,58.46,41.44,61.511,44.998z"/>
<path style="fill-rule:evenodd;clip-rule:evenodd;fill:#F4B83B;" d="M25.549,49.258c-4.778,0-8.121,0-11.833,0
	c0.5-4.692,5.371-5.732,7.053-9.313c-0.906-1.204-1.884-1.548-2.894-0.315c-1.344,1.64-2.586,1.103-3.937,0.151
	c1.325-3.134,2.667-4.122,5.488-3.996c1.983,0.086,3.756,0.673,4.597,2.67c0.911,2.167-0.037,3.943-3.964,7.427
	c1.181,0.174,2.212,0.091,2.978,0.503C23.765,46.777,24.219,47.681,25.549,49.258z"/>
<path style="fill-rule:evenodd;clip-rule:evenodd;fill:#F4B83B;" d="M48.858,18.275c0,5.971,0,11.426,0,17.276
	c-1.347,0.073-2.565,0.14-4.252,0.233c0-3.942,0-7.488,0-11.256c-1.73,0.395-2.986,0.682-4.642,1.063
	c0-1.113-0.23-2.493,0.038-2.599C43.001,21.82,44.316,17.548,48.858,18.275z"/>
<path style="fill-rule:evenodd;clip-rule:evenodd;fill:#F4B83B;" d="M68.912,57.153c2.736-0.574,2.736-0.574,5.301,1.098
	c1.809-2.356,1.809-2.356-1.394-4.59c0.7-1.188,1.404-2.384,2.121-3.598c-0.632-0.329-1.015-0.678-1.189-0.593
	c-1.465,0.718-2.804,2.271-4.809,0.131c0.603-1.153,1.441-2.438,3.088-2.483c1.839-0.053,3.716,0.22,5.532,0.576
	c0.504,0.099,1.286,1.074,1.203,1.512c-0.495,2.684,0.563,5.154,0.75,7.705c0.144,1.934-1.642,3.276-3.717,3.714
	C72.479,61.32,70.75,60.46,68.912,57.153z"/>
<path style="fill-rule:evenodd;clip-rule:evenodd;fill:#F4B83B;" d="M32.752,9.805c1.51-0.041,4.219,2.46,4.148,3.977
	c-0.025,0.605-0.428,1.333-0.886,1.754c-1.074,0.981-2.896,0.229-4.239-1.681c-0.865-1.232-1.163-2.498,0.071-3.683
	C32.071,9.958,32.46,9.919,32.752,9.805z"/>
<path style="fill-rule:evenodd;clip-rule:evenodd;fill:#F4B83B;" d="M61.438,9.805c-1.507-0.041-4.217,2.46-4.146,3.977
	c0.026,0.605,0.429,1.333,0.89,1.754c1.071,0.981,2.893,0.229,4.237-1.681c0.867-1.232,1.162-2.498-0.071-3.683
	C62.121,9.958,61.732,9.919,61.438,9.805z"/>
<path style="fill-rule:evenodd;clip-rule:evenodd;fill:#F4B83B;" d="M49.075,7.636c-0.114,0.704-0.128,1.407-0.354,2.036
	c-0.407,1.145-2.067,1.549-3.005,0.805c-1.437-1.135-1.473-4.82-0.063-6.038c0.898-0.775,2.546-0.443,2.978,0.711
	C48.923,5.927,48.938,6.809,49.075,7.636z"/>
</svg>
