<?xml version="1.0" encoding="iso-8859-1"?>
<!-- Generator: Adobe Illustrator 16.0.0, SVG Export Plug-In . SVG Version: 6.00 Build 0)  -->
<!DOCTYPE svg PUBLIC "-//W3C//DTD SVG 1.1//EN" "http://www.w3.org/Graphics/SVG/1.1/DTD/svg11.dtd">
<svg version="1.1" id="&#x421;&#x43B;&#x43E;&#x439;_1"
	 xmlns="http://www.w3.org/2000/svg" xmlns:xlink="http://www.w3.org/1999/xlink" x="0px" y="0px" width="93.543px"
	 height="93.543px" viewBox="0 0 93.543 93.543" style="enable-background:new 0 0 93.543 93.543;" xml:space="preserve">
<g>
	<path style="fill-rule:evenodd;clip-rule:evenodd;fill:#E6E5D4;" d="M51.91,49.25c0.441,0.159,0.577,0.263,0.684,0.238
		c3.518-0.817,4.912,1.165,5.661,4.167c0.33,1.32,0.935,2.573,1.499,4.078c-8.507,0-16.823,0-25.496,0
		c1.012-2.617,1.958-5.171,3.02-7.678c0.133-0.316,0.854-0.502,1.317-0.535c1.1-0.076,2.207-0.024,3.534-0.024
		c0-2.473,0.066-4.706-0.056-6.929c-0.023-0.467-0.669-1.016-1.158-1.324c-9.075-5.715-13.171-14.339-14.438-24.622
		c-0.047-0.378-0.006-0.768-0.006-1.293c13.723,0,27.321,0,41.063,0c0.028,4.73-1.251,9.031-3.244,13.138
		c-2.606,5.372-6.077,9.997-11.451,12.947c-0.425,0.232-0.866,0.865-0.886,1.329C51.858,44.906,51.91,47.075,51.91,49.25z"/>
	<path style="fill-rule:evenodd;clip-rule:evenodd;fill:#E6E5D4;" d="M64.446,59.137c0,4.808,0,9.448,0,14.202
		c-11.594,0-23.084,0-34.753,0c0-4.698,0-9.385,0-14.202C41.241,59.137,52.739,59.137,64.446,59.137z M38.056,68.907
		c6.079,0,11.966,0,17.944,0c0-1.858,0-3.584,0-5.33c-6.048,0-11.942,0-17.944,0C38.056,65.376,38.056,67.061,38.056,68.907z"/>
	<path style="fill-rule:evenodd;clip-rule:evenodd;fill:#E8B038;" d="M72.97,21.965c-1.61,0-2.913,0-4.462,0
		c0.205-1.104,0.374-2.027,0.567-3.053c2.626,0,5.16,0,7.689,0c0.752,8.649-6.821,19.757-19.087,20.304
		c1.59-1.227,3.033-2.748,4.798-3.624C68.12,32.79,71.563,28.422,72.97,21.965z"/>
	<path style="fill-rule:evenodd;clip-rule:evenodd;fill:#E8B038;" d="M36.362,39.247c-8.982,0.369-19.569-8.794-19.159-20.315
		c2.53,0,5.07,0,7.755,0c0.189,0.906,0.386,1.849,0.625,2.993c-1.492,0-2.787,0-4.285,0c0.147,2.961,1.337,5.328,2.862,7.526
		c1.958,2.816,4.631,4.754,7.705,6.291C33.43,36.525,34.691,37.914,36.362,39.247z"/>
</g>
<g>
	<path style="fill-rule:evenodd;clip-rule:evenodd;fill:#82AC4E;" d="M14.16,71.868c0-5.643,0-10.971,0-16.274
		c6.714-3.678,50.891-4.033,65.979-0.503c0,5.374,0,10.806,0,16.155c-10.908-0.694-21.867-1.778-32.846-1.985
		C36.279,69.059,25.267,69.992,14.16,71.868z"/>
	<path style="fill-rule:evenodd;clip-rule:evenodd;fill:#82AC4E;" d="M-0.258,60.902c4.356,0,8.092,0,12.192,0
		c0,4.477,0,8.74,0,13.328c2.228-0.269,4.05-0.486,6.084-0.733c0.051,1.168,0.095,2.181,0.152,3.483c-6.07,0-11.972,0-18.363,0
		c2.128-2.85,4.047-5.42,5.959-7.988C3.791,66.336,1.928,63.838-0.258,60.902z"/>
	<path style="fill-rule:evenodd;clip-rule:evenodd;fill:#82AC4E;" d="M76.522,77.02c0-1.13,0-2.15,0-3.451
		c1.943,0.205,3.764,0.4,5.946,0.63c0.466-4.479,0.059-8.845,0.188-13.348c3.976,0,7.724,0,12.094,0
		c-2.113,2.792-4.022,5.313-6.076,8.028c1.914,2.622,3.808,5.22,5.938,8.141C88.475,77.02,82.675,77.02,76.522,77.02z"/>
</g>
<g>
	<path style="fill:#235870;" d="M30.077,66.566H27.47v-9.799h5.791v2.125h-3.184v1.87h2.936v2.125h-2.936V66.566z"/>
	<path style="fill:#235870;" d="M34.869,66.566v-9.799h2.661v9.799H34.869z"/>
	<path style="fill:#235870;" d="M48.978,66.566h-3.472l-3.579-6.903h-0.061c0.085,1.085,0.127,1.915,0.127,2.486v4.417h-2.346
		v-9.799h3.458l3.565,6.81h0.04c-0.063-0.987-0.094-1.781-0.094-2.379v-4.43h2.359V66.566z"/>
	<path style="fill:#235870;" d="M57.107,66.566l-0.482-1.836h-3.184l-0.496,1.836h-2.909l3.197-9.839h3.532l3.237,9.839H57.107z
		 M56.076,62.558l-0.422-1.609c-0.099-0.357-0.218-0.82-0.359-1.387c-0.141-0.567-0.233-0.974-0.278-1.22
		c-0.041,0.228-0.12,0.603-0.238,1.126c-0.118,0.522-0.381,1.553-0.787,3.09H56.076z"/>
	<path style="fill:#235870;" d="M61.062,66.566v-9.799h2.647v7.661h3.773v2.138H61.062z"/>
</g>
</svg>
