<?xml version="1.0" encoding="utf-8"?>
<!-- Generator: Adobe Illustrator 16.0.0, SVG Export Plug-In . SVG Version: 6.00 Build 0)  -->
<!DOCTYPE svg PUBLIC "-//W3C//DTD SVG 1.1//EN" "http://www.w3.org/Graphics/SVG/1.1/DTD/svg11.dtd">
<svg version="1.1" id="Слой_1" xmlns="http://www.w3.org/2000/svg" xmlns:xlink="http://www.w3.org/1999/xlink" x="0px" y="0px"
	 width="93.543px" height="93.543px" viewBox="0 0 93.543 93.543" enable-background="new 0 0 93.543 93.543" xml:space="preserve">
<g>
	<path fill-rule="evenodd" clip-rule="evenodd" fill="#82AC4E" d="M11.725,56.669c0.085-3.407,1.599-5.618,4.281-7.021
		c1.67-0.875,2.785-0.365,3.353,1.496c0.941,3.109-0.16,6.216-3.049,7.741c-1.774,0.941-3.655,1.761-5.579,2.33
		c-3.477,1.02-6.561-0.554-8.06-3.807c-0.655-1.417-0.646-2.219,1.225-2.577C7.354,54.176,9.015,54.421,11.725,56.669z"/>
	<path fill-rule="evenodd" clip-rule="evenodd" fill="#82AC4E" d="M2.854,29.893c4.258,0.49,5.951,2.039,7.2,6.585
		c2.544-2.94,5.566-4.068,9.253-2.771c0.146,4.106-1.973,6.78-5.885,7.073c-3.884,0.29-7.5-0.788-10.191-3.712
		C1.317,34.983,1.846,32.454,2.854,29.893z"/>
	<path fill-rule="evenodd" clip-rule="evenodd" fill="#82AC4E" d="M33.733,74.847c-2.168-2.586-2.724-5.05-1.497-8.32
		c3.093-0.195,5.559,1.471,6.546,4.421c1.229,3.671-0.255,8.976-3.152,11.263c-2.056,1.627-6.275,2.012-7.183,0.653
		c-0.681-1.022,0.985-4.152,2.934-5.707C32.241,76.473,32.962,75.616,33.733,74.847z"/>
	<path fill-rule="evenodd" clip-rule="evenodd" fill="#82AC4E" d="M16.8,76.659c1.845-3.645,3.762-4.812,8.44-5.05
		c-1.543-2.423-1.933-4.882-0.743-7.468c1.117-2.425,1.653-2.563,3.65-0.704c2.585,2.407,3.266,5.304,1.625,8.463
		c-1.377,2.646-2.563,5.502-5.936,6.497C21.014,79.23,18.868,78.333,16.8,76.659z"/>
	<path fill-rule="evenodd" clip-rule="evenodd" fill="#82AC4E" d="M9.479,46.903c1.066-3.228,3.185-4.811,5.918-5.625
		c1.542-0.46,2.541-0.104,2.556,1.834c0.018,3.341-0.781,5.724-5.182,6.979c-6.404,1.826-10.227,0.631-12.028-4.377
		c-0.908-2.536-0.382-3.243,2.294-3.17C5.89,42.622,7.803,44.18,9.479,46.903z"/>
	<path fill-rule="evenodd" clip-rule="evenodd" fill="#82AC4E" d="M17.376,65.426c-0.605-4.487,0.013-6.135,3.183-9.082
		c4.491,3.133,4.465,8.506-0.059,11.586c-1.159,0.788-2.274,1.653-3.479,2.364c-2.802,1.658-5.825,1.156-8.025-1.253
		c-1.461-1.6-1.277-2.679,0.717-3.541C12.136,64.45,14.625,63.988,17.376,65.426z"/>
	<path fill-rule="evenodd" clip-rule="evenodd" fill="#82AC4E" d="M10.471,33.851c-2.948-4.319-2.328-9.018,1.282-11.236
		c1.335-0.815,2.043-0.553,2.763,0.78C16.892,27.8,15.496,31.596,10.471,33.851z"/>
</g>
<g>
	<path fill-rule="evenodd" clip-rule="evenodd" fill="#82AC4E" d="M82.156,56.669c-0.085-3.407-1.599-5.618-4.281-7.021
		c-1.67-0.875-2.785-0.365-3.353,1.496c-0.941,3.109,0.16,6.216,3.049,7.741c1.774,0.941,3.655,1.761,5.579,2.33
		c3.477,1.02,6.561-0.554,8.06-3.807c0.655-1.417,0.646-2.219-1.225-2.577C86.527,54.176,84.866,54.421,82.156,56.669z"/>
	<path fill-rule="evenodd" clip-rule="evenodd" fill="#82AC4E" d="M91.027,29.893c-4.258,0.49-5.951,2.039-7.2,6.585
		c-2.544-2.94-5.565-4.068-9.253-2.771c-0.146,4.106,1.973,6.78,5.885,7.073c3.884,0.29,7.5-0.788,10.191-3.712
		C92.563,34.983,92.035,32.454,91.027,29.893z"/>
	<path fill-rule="evenodd" clip-rule="evenodd" fill="#82AC4E" d="M60.147,74.847c2.168-2.586,2.724-5.05,1.497-8.32
		c-3.093-0.195-5.559,1.471-6.546,4.421c-1.229,3.671,0.255,8.976,3.152,11.263c2.056,1.627,6.275,2.012,7.183,0.653
		c0.681-1.022-0.985-4.152-2.934-5.707C61.64,76.473,60.919,75.616,60.147,74.847z"/>
	<path fill-rule="evenodd" clip-rule="evenodd" fill="#82AC4E" d="M77.081,76.659c-1.845-3.645-3.762-4.812-8.44-5.05
		c1.543-2.423,1.933-4.882,0.743-7.468c-1.117-2.425-1.653-2.563-3.65-0.704c-2.585,2.407-3.266,5.304-1.625,8.463
		c1.377,2.646,2.563,5.502,5.936,6.497C72.867,79.23,75.013,78.333,77.081,76.659z"/>
	<path fill-rule="evenodd" clip-rule="evenodd" fill="#82AC4E" d="M84.401,46.903c-1.066-3.228-3.185-4.811-5.918-5.625
		c-1.542-0.46-2.541-0.104-2.556,1.834c-0.018,3.341,0.781,5.724,5.182,6.979c6.404,1.826,10.227,0.631,12.028-4.377
		c0.908-2.536,0.382-3.243-2.294-3.17C87.991,42.622,86.078,44.18,84.401,46.903z"/>
	<path fill-rule="evenodd" clip-rule="evenodd" fill="#82AC4E" d="M76.505,65.426c0.605-4.487-0.013-6.135-3.183-9.082
		c-4.491,3.133-4.465,8.506,0.059,11.586c1.159,0.788,2.274,1.653,3.479,2.364c2.802,1.658,5.825,1.156,8.025-1.253
		c1.461-1.6,1.277-2.679-0.717-3.541C81.745,64.45,79.256,63.988,76.505,65.426z"/>
	<path fill-rule="evenodd" clip-rule="evenodd" fill="#82AC4E" d="M83.41,33.851c2.948-4.319,2.328-9.018-1.282-11.236
		c-1.335-0.815-2.043-0.553-2.763,0.78C76.989,27.8,78.385,31.596,83.41,33.851z"/>
</g>
<g>
	<path fill-rule="evenodd" clip-rule="evenodd" fill="#E4E2D2" d="M73.039,82.607c-0.714-0.394-1.433-0.783-2.144-1.184
		c-0.096-0.054-0.177-0.143-0.252-0.225c-2.385-2.473-4.874-4.842-7.287-7.286c-2.572-2.604-5.173-5.182-7.765-7.765
		c-1.008-1.005-2.029-1.996-3.023-2.971c2.251-2.246,4.445-4.434,6.685-6.67c1.008,1.016,2.044,2.071,3.091,3.118
		c4.531,4.53,9.066,9.057,13.593,13.593c0.688,0.688,1.434,1.346,1.999,2.128c1.192,1.654,0.935,3.712-0.523,5.296
		c-0.843,0.912-1.795,1.646-3.018,1.965C73.94,82.607,73.49,82.607,73.039,82.607z M64.253,70.081
		c0.948-0.01,1.702-0.786,1.69-1.744c-0.011-0.938-0.817-1.71-1.758-1.685c-0.918,0.022-1.671,0.8-1.66,1.716
		C62.534,69.325,63.307,70.09,64.253,70.081z M71.242,73.684c0.009-0.935-0.72-1.68-1.662-1.699
		c-0.966-0.02-1.725,0.717-1.733,1.686c-0.008,0.967,0.745,1.719,1.713,1.707C70.503,75.369,71.231,74.636,71.242,73.684z
		 M57.235,63.079c0.014,0.967,0.714,1.667,1.682,1.681c0.969,0.014,1.714-0.737,1.705-1.716c-0.009-0.946-0.742-1.68-1.686-1.686
		C57.969,61.354,57.221,62.106,57.235,63.079z"/>
	<path fill-rule="evenodd" clip-rule="evenodd" fill="#E4E2D2" d="M19.213,82.607c-1.114-0.358-1.996-1.05-2.815-1.87
		c-1.767-1.771-1.812-4.311-0.054-6.074c1.008-1.013,2.019-2.026,3.031-3.037c4.93-4.928,9.862-9.855,14.792-14.782
		c0.117-0.118,0.24-0.227,0.341-0.319c2.197,2.206,4.375,4.392,6.68,6.705c-0.645,0.601-1.372,1.245-2.061,1.931
		c-3.01,2.989-6.005,5.99-9.005,8.989c-1.938,1.938-3.841,3.912-5.831,5.795c-0.439,0.417-0.846,0.853-1.254,1.295
		c-0.645,0.691-1.481,1.067-2.357,1.368C20.193,82.607,19.703,82.607,19.213,82.607z M31.193,68.347
		c-0.005-0.914-0.77-1.68-1.688-1.694c-0.94-0.015-1.722,0.756-1.729,1.707c-0.006,0.949,0.767,1.725,1.713,1.722
		C30.43,70.078,31.199,69.295,31.193,68.347z M25.872,73.684c0.006-0.957-0.738-1.699-1.698-1.699
		c-0.949,0.002-1.672,0.707-1.697,1.653c-0.024,0.956,0.717,1.723,1.677,1.739C25.114,75.396,25.867,74.652,25.872,73.684z
		 M36.487,63.038c-0.017-0.957-0.736-1.671-1.69-1.677c-0.966-0.003-1.725,0.765-1.702,1.722c0.022,0.991,0.772,1.706,1.746,1.67
		C35.81,64.718,36.504,63.995,36.487,63.038z"/>
	<path fill-rule="evenodd" clip-rule="evenodd" fill="#E4E2D2" d="M43.773,57.795c-0.834-0.876-1.657-1.746-2.491-2.608
		c-0.563-0.579-1.134-1.15-1.716-1.708c-0.266-0.252-0.319-0.428-0.039-0.735c2.796-3.065,5.581-6.142,8.364-9.224
		c3.622-4.015,7.235-8.04,10.86-12.055c2.377-2.635,4.775-5.253,7.155-7.886c3.361-3.722,6.715-7.449,10.074-11.172
		c0.084-0.095,0.182-0.177,0.336-0.322c0.039,0.209,0.081,0.346,0.09,0.486c0.12,2.403,0.249,4.806,0.344,7.211
		c0.009,0.263-0.114,0.599-0.294,0.786c-3.297,3.477-6.605,6.939-9.92,10.396c-2.897,3.023-5.806,6.035-8.703,9.059
		c-2.394,2.494-4.775,4.996-7.16,7.499c-0.025,0.024-0.034,0.063,0.027,0.176c8.7-8.33,17.403-16.662,26.212-25.095
		c0.018,1.03,0.303,1.842-0.56,2.679c-4.075,3.974-8.064,8.035-12.087,12.062c-6.682,6.688-13.369,13.374-20.054,20.06
		C44.109,57.51,43.992,57.603,43.773,57.795z"/>
	<path fill-rule="evenodd" clip-rule="evenodd" fill="#E4E2D2" d="M42.483,46.683c-0.79-0.736-1.573-1.408-2.287-2.147
		c-2.251-2.32-4.471-4.666-6.704-7.004c-4.291-4.491-8.586-8.983-12.882-13.474c-1.104-1.153-2.226-2.287-3.31-3.456
		c-0.192-0.205-0.341-0.551-0.33-0.825c0.09-2.424,0.222-4.846,0.342-7.267c0.006-0.108,0.039-0.215,0.093-0.51
		c0.296,0.337,0.506,0.582,0.719,0.82c2.827,3.141,5.649,6.284,8.481,9.419c3.799,4.208,7.605,8.409,11.407,12.615
		c2.443,2.699,4.888,5.399,7.317,8.112c0.092,0.104,0.132,0.41,0.053,0.499C44.417,44.563,43.43,45.641,42.483,46.683z"/>
	<path fill-rule="evenodd" clip-rule="evenodd" fill="#E4E2D2" d="M16.789,22.59c1.203,1.15,2.284,2.185,3.364,3.22
		c4.188,4.016,8.37,8.033,12.561,12.044c3.034,2.908,6.077,5.812,9.125,8.706c0.306,0.291,0.39,0.489,0.045,0.812
		c-0.395,0.369-0.738,0.792-1.131,1.216c-0.134-0.108-0.257-0.19-0.355-0.291c-7.695-7.69-15.385-15.389-23.091-23.069
		c-0.453-0.451-0.699-0.888-0.582-1.525C16.78,23.393,16.764,23.073,16.789,22.59z"/>
	<path fill-rule="evenodd" clip-rule="evenodd" fill="#E4E2D2" d="M46.32,63.1c-0.347,0.364-0.741,0.775-1.113,1.165
		c-3.956-3.956-7.908-7.905-11.892-11.886c0.397-0.367,0.82-0.759,1.189-1.101C38.419,55.193,42.377,59.154,46.32,63.1z"/>
	<path fill-rule="evenodd" clip-rule="evenodd" fill="#E4E2D2" d="M59.278,51.226c0.311,0.339,0.703,0.762,1.05,1.14
		c-3.933,3.921-7.889,7.862-11.869,11.832c-0.276-0.328-0.654-0.775-0.987-1.165C51.32,59.184,55.281,55.225,59.278,51.226z"/>
	<path fill-rule="evenodd" clip-rule="evenodd" fill="#E4E2D2" d="M52.946,51.394c0.468,0.51,0.91,0.967,1.315,1.454
		c0.082,0.098,0.099,0.382,0.021,0.461c-1.442,1.491-2.9,2.967-4.331,4.417c-0.633-0.597-1.187-1.12-1.693-1.599
		C49.831,54.537,51.368,52.986,52.946,51.394z"/>
</g>
</svg>
