<?xml version="1.0" encoding="utf-8"?>
<!-- Generator: Adobe Illustrator 16.0.0, SVG Export Plug-In . SVG Version: 6.00 Build 0)  -->
<!DOCTYPE svg PUBLIC "-//W3C//DTD SVG 1.1//EN" "http://www.w3.org/Graphics/SVG/1.1/DTD/svg11.dtd">
<svg version="1.1" id="Слой_1" xmlns="http://www.w3.org/2000/svg" xmlns:xlink="http://www.w3.org/1999/xlink" x="0px" y="0px"
	 width="93.543px" height="93.543px" viewBox="0 0 93.543 93.543" enable-background="new 0 0 93.543 93.543" xml:space="preserve">
<path fill-rule="evenodd" clip-rule="evenodd" fill="#82AC4D" d="M60.875,72.344c8.822,0,17.081,0,25.752,0
	c0.631,4.48,0.478,8.585,0.126,12.909c-26.757,0-53.204,0-79.62,0C6.302,81.771,6.148,68.93,6.91,62.718
	c4.057-0.211,8.231-0.063,12.396-0.087c4.215-0.025,8.429-0.006,13.203-0.006c0-4.684,0-9.129,0-13.805c9.585,0,18.615,0,27.901,0
	c0.96,3.787,0.32,7.685,0.439,11.528C60.966,64.093,60.875,67.841,60.875,72.344z"/>
<path fill-rule="evenodd" clip-rule="evenodd" fill="#E6E5D4" d="M30.679,53.27c0,2.422,0,4.118,0,6.136c-7.758,0-15.359,0-23.737,0
	c4.729-3.008,8.232-6.885,14.088-6.198C24.083,53.563,27.217,53.27,30.679,53.27z"/>
<path fill-rule="evenodd" clip-rule="evenodd" fill="#E6E5D4" d="M62.785,69.309c0-1.932,0-3.463,0-5.322
	c0.939-0.131,1.964-0.376,2.995-0.402c2.499-0.061,5.041,0.256,7.5-0.078c5.382-0.734,9.184,1.663,12.657,5.803
	C78.193,69.309,70.741,69.309,62.785,69.309z"/>
<path fill-rule="evenodd" clip-rule="evenodd" fill="#E6E5D4" d="M60.049,45.696c-9.058,0-17.586,0-26.607,0
	c2.392-2.717,4.725-4.246,8.139-4.01c3.102,0.215,6.242,0.219,9.34-0.005C54.438,41.429,57.278,42.465,60.049,45.696z"/>
<path fill-rule="evenodd" clip-rule="evenodd" fill="#F4B83B" d="M27.387,49.566c-4.341,0-7.376,0-10.747,0
	c0.454-4.263,4.877-5.206,6.405-8.46c-0.823-1.093-1.711-1.407-2.628-0.286c-1.221,1.49-2.349,1.001-3.576,0.137
	c1.204-2.846,2.422-3.743,4.985-3.629c1.801,0.079,3.411,0.611,4.174,2.425c0.827,1.968-0.033,3.581-3.6,6.746
	c1.073,0.158,2.009,0.082,2.705,0.457C25.766,47.313,26.178,48.133,27.387,49.566z"/>
<path fill-rule="evenodd" clip-rule="evenodd" fill="#F4B83B" d="M48.556,21.426c0,5.421,0,10.377,0,15.69
	c-1.223,0.066-2.329,0.126-3.861,0.211c0-3.581,0-6.801,0-10.224c-1.571,0.358-2.711,0.62-4.216,0.965
	c0-1.009-0.208-2.264,0.034-2.36C43.237,24.646,44.432,20.765,48.556,21.426z"/>
<path fill-rule="evenodd" clip-rule="evenodd" fill="#F4B83B" d="M66.771,56.736c2.484-0.521,2.484-0.521,4.814,0.997
	c1.642-2.14,1.642-2.14-1.266-4.17c0.636-1.079,1.274-2.164,1.925-3.267c-0.573-0.3-0.922-0.616-1.079-0.539
	c-1.331,0.65-2.547,2.062-4.368,0.119c0.547-1.047,1.31-2.216,2.805-2.256c1.671-0.049,3.374,0.2,5.024,0.523
	c0.458,0.088,1.167,0.974,1.093,1.372c-0.449,2.438,0.511,4.682,0.68,7c0.131,1.755-1.491,2.975-3.375,3.371
	C70.011,60.521,68.439,59.739,66.771,56.736z"/>
<path fill-rule="evenodd" clip-rule="evenodd" fill="#F4B83B" d="M33.928,13.733c1.372-0.037,3.832,2.234,3.767,3.613
	c-0.022,0.548-0.388,1.209-0.804,1.592c-0.975,0.892-2.629,0.207-3.85-1.527c-0.786-1.118-1.057-2.269,0.064-3.344
	C33.31,13.873,33.663,13.837,33.928,13.733z"/>
<path fill-rule="evenodd" clip-rule="evenodd" fill="#F4B83B" d="M59.98,13.733c-1.368-0.037-3.83,2.234-3.766,3.613
	c0.024,0.548,0.391,1.209,0.809,1.592c0.973,0.892,2.627,0.207,3.849-1.527c0.786-1.118,1.055-2.269-0.064-3.344
	C60.603,13.873,60.249,13.837,59.98,13.733z"/>
<path fill-rule="evenodd" clip-rule="evenodd" fill="#F4B83B" d="M48.754,11.762c-0.104,0.641-0.116,1.279-0.321,1.85
	c-0.37,1.04-1.878,1.408-2.729,0.731c-1.305-1.029-1.337-4.376-0.057-5.483c0.815-0.704,2.312-0.402,2.705,0.646
	C48.615,10.211,48.629,11.011,48.754,11.762z"/>
</svg>
