<?xml version="1.0" encoding="utf-8"?>
<!-- Generator: Adobe Illustrator 16.0.0, SVG Export Plug-In . SVG Version: 6.00 Build 0)  -->
<!DOCTYPE svg PUBLIC "-//W3C//DTD SVG 1.1//EN" "http://www.w3.org/Graphics/SVG/1.1/DTD/svg11.dtd">
<svg version="1.1" id="Слой_1" xmlns="http://www.w3.org/2000/svg" xmlns:xlink="http://www.w3.org/1999/xlink" x="0px" y="0px"
	 width="93.543px" height="93.543px" viewBox="0 0 93.543 93.543" enable-background="new 0 0 93.543 93.543" xml:space="preserve">
<path fill-rule="evenodd" clip-rule="evenodd" fill="#98CDD3" d="M8.738,65.059c-2.895,0-5.742,0-8.738,0c0-8.355,0-16.517,0-24.938
	c2.782,0,5.656,0.591,8.11-0.17c2.328-0.721,4.104-3.046,6.32-4.325c2.474-1.426,5.087-2.711,7.792-3.597
	c2.206-0.722,4.638-1.068,6.964-1.043c3.197,0.034,4.041,1.415,3.441,4.862c-1.053,0.105-2.154,0.216-3.253,0.326
	c0.009,0.278,0.017,0.555,0.027,0.833c2.544,0,5.087,0.002,7.632,0c5.722-0.006,7.986,2.531,7.84,8.365
	c-0.127,5.094,0.082,10.193,0.01,15.288c-0.021,1.562-0.274,3.188-0.78,4.661c-1.051,3.061-2.327,3.843-5.511,3.837
	c-7.872-0.013-15.745-0.103-23.615-0.01C11.933,69.184,9.639,68.408,8.738,65.059z M1.85,43.889c0,5.906,0,11.579,0,17.311
	c1.808,0,3.433,0,5.159,0c0-5.814,0-11.493,0-17.311C5.263,43.889,3.629,43.889,1.85,43.889z"/>
<path fill-rule="evenodd" clip-rule="evenodd" fill="#98CDD3" d="M93.172,40.15c0,8.489,0,16.594,0,24.953
	c-2.478,0-4.854-0.104-7.212,0.063c-0.716,0.049-1.374,0.854-2.069,1.299c-1.395,0.896-2.775,2.511-4.197,2.551
	c-8.762,0.243-17.537,0.219-26.302,0.035c-1.235-0.025-2.942-1.132-3.546-2.227c-0.956-1.737-1.559-3.876-1.618-5.866
	c-0.168-5.565-0.313-11.168,0.151-16.706c0.543-6.525,2.667-7.725,7.871-7.131c2.505,0.284,5.069,0.049,7.607,0.049
	c0.016-0.313,0.032-0.624,0.05-0.936c-1.102-0.181-2.204-0.361-3.253-0.533c-0.774-2.879-0.353-4.019,2.287-4.451
	c2.141-0.35,4.615-0.571,6.56,0.166c5.254,1.987,10.606,3.971,14.681,8.182c0.406,0.42,1.287,0.51,1.953,0.529
	C88.428,40.189,90.726,40.15,93.172,40.15z M91.38,61.205c0-5.895,0-11.574,0-17.319c-1.832,0-3.47,0-5.22,0
	c0,5.82,0,11.506,0,17.319C87.926,61.205,89.563,61.205,91.38,61.205z"/>
<path fill-rule="evenodd" clip-rule="evenodd" fill="#98CDD3" d="M46.453,27.888c-1.179,0.295-2.579,0.647-4.154,1.042
	c0.483,1.418-0.702,2.092-2.375,2.364c0.293,0.499,0.477,0.815,0.663,1.129c-0.072,0.155-0.143,0.309-0.216,0.462
	c-1.16-0.549-2.321-1.099-4.001-1.894c1.774-0.627,2.882-1.021,4.066-1.44c-0.133-1.057-0.257-2.039-0.441-3.483
	c2.705,1.363,4.989,1.62,6.501-1.787c1.604,3.021,3.716,3.504,6.623,1.704c-0.207,1.396-0.342,2.301-0.521,3.499
	c1.168,0.405,2.398,0.833,4.191,1.454c-1.595,0.812-2.769,1.411-3.943,2.009c-0.113-0.16-0.226-0.321-0.339-0.481
	c0.214-0.34,0.425-0.679,0.7-1.115c-0.737-0.273-1.449-0.537-2.32-0.858c0.043-0.612,0.089-1.275,0.115-1.646
	C49.39,28.506,47.92,28.196,46.453,27.888z"/>
</svg>
