<?xml version="1.0" encoding="iso-8859-1"?>
<!-- Generator: Adobe Illustrator 16.0.0, SVG Export Plug-In . SVG Version: 6.00 Build 0)  -->
<!DOCTYPE svg PUBLIC "-//W3C//DTD SVG 1.1//EN" "http://www.w3.org/Graphics/SVG/1.1/DTD/svg11.dtd">
<svg version="1.1" id="&#x421;&#x43B;&#x43E;&#x439;_1"
	 xmlns="http://www.w3.org/2000/svg" xmlns:xlink="http://www.w3.org/1999/xlink" x="0px" y="0px" width="93.543px"
	 height="93.543px" viewBox="0 0 93.543 93.543" style="enable-background:new 0 0 93.543 93.543;" xml:space="preserve">
<g>
	<path style="fill-rule:evenodd;clip-rule:evenodd;fill:#82AC4D;" d="M71.182,60.48c0.007-0.025,0.01-0.049,0.018-0.074
		c-0.006,0.003-0.012,0.005-0.018,0.009c-0.028,0.031-0.055,0.062-0.083,0.091C71.128,60.497,71.153,60.49,71.182,60.48z"/>
	<path style="fill-rule:evenodd;clip-rule:evenodd;fill:#82AC4D;" d="M80.629,49.05c0.476-3.226,0.953-6.452,1.444-9.766
		c4.764-1.533,5.383-2.438,4.681-7.197c-3.018,0.558-4.982,2.191-5.589,5.555c-0.852-1.877-1.659-3.406-2.235-5.019
		c-0.336-0.946-0.508-2.043-0.407-3.037c0.457-4.495-0.961-6.388-6.135-7.757c-0.902,3.879-0.362,7.034,3.405,9.313
		c1.275,0.771,1.998,2.456,2.974,3.724c-2.326-0.619-4.156-1.662-6.309-0.449c1.001,4.168,3.324,6.044,7.523,4.901
		c0.885,4.116-0.173,7.454-2.021,10.64c0.353-4.038-0.538-7.384-4.916-8.984c-1.541,1.678-1.158,3.635-1.036,5.425
		c0.198,2.907,1.261,3.813,4.795,4.632c-1.048,3.115-3.508,4.742-6.412,6.242c2.258-4.296-0.046-7.019-2.541-9.814
		c-2.167,2.354-2.577,3.359-2.821,5.361c-0.34,2.775,1.467,4.497,3.597,6.647c-3.953,1.408-7.354,2.621-10.679,3.802
		c0.663,2.822,2.891,0.87,3.958,1.793c2.144,4.998,3.791,5.767,9.513,4.132c-1.631-2.243-3.157-4.342-4.766-6.556
		c1.469-0.721,2.998-1.473,4.528-2.224c2.814-3.115,5.628-6.232,8.442-9.347c-0.167,1.739,0.753,2.54,2.358,2.854
		c3.767,0.731,6.26-1.168,7.236-5.558C86.261,47.419,83.429,48.044,80.629,49.05z"/>
</g>
<g>
	<path style="fill-rule:evenodd;clip-rule:evenodd;fill:#82AB4D;" d="M26.254,59.467c2.129-2.15,3.937-3.872,3.597-6.647
		c-0.244-2.002-0.654-3.007-2.82-5.361c-2.495,2.796-4.799,5.519-2.541,9.814c-2.903-1.5-5.364-3.127-6.412-6.242
		c3.535-0.818,4.598-1.725,4.796-4.632c0.122-1.79,0.503-3.747-1.036-5.425c-4.378,1.601-5.269,4.946-4.917,8.984
		c-1.849-3.186-2.906-6.523-2.021-10.64c4.2,1.143,6.523-0.733,7.523-4.901c-2.153-1.213-3.982-0.17-6.309,0.449
		c0.977-1.268,1.699-2.952,2.974-3.724c3.767-2.279,4.307-5.435,3.404-9.313c-5.173,1.369-6.591,3.262-6.134,7.757
		c0.101,0.994-0.07,2.091-0.408,3.037c-0.575,1.612-1.382,3.142-2.234,5.019c-0.607-3.363-2.571-4.997-5.589-5.555
		c-0.702,4.76-0.083,5.664,4.681,7.197c0.491,3.313,0.967,6.54,1.444,9.766c-2.8-1.006-5.632-1.631-8.588-0.687
		c0.976,4.39,3.469,6.289,7.236,5.558c1.604-0.313,2.525-1.114,2.358-2.854c2.814,3.114,5.627,6.231,8.441,9.347
		c1.53,0.751,3.059,1.503,4.528,2.224c-1.609,2.214-3.134,4.313-4.765,6.556c5.722,1.635,7.369,0.866,9.513-4.132
		c1.068-0.923,3.295,1.029,3.958-1.793C33.608,62.088,30.207,60.875,26.254,59.467z"/>
	<path style="fill-rule:evenodd;clip-rule:evenodd;fill:#82AB4D;" d="M23.698,60.48c0.029,0.01,0.054,0.017,0.083,0.025
		c-0.028-0.029-0.055-0.06-0.083-0.091c-0.006-0.004-0.012-0.006-0.019-0.009C23.687,60.431,23.69,60.455,23.698,60.48z"/>
</g>
<g>
	<path style="fill-rule:evenodd;clip-rule:evenodd;fill:#E4E2D2;" d="M26.966,39.25c0.014-0.068,0.035-0.136,0.042-0.204
		c0.133-1.282,0.268-2.562,0.393-3.844c0.014-0.151,0.071-0.226,0.208-0.286c1.078-0.492,2.157-0.979,3.226-1.488
		c1.295-0.616,2.528-1.346,3.741-2.11c0.022-0.013,0.045-0.023,0.091-0.051c1.098,3.781,2.707,7.319,4.849,10.642
		c-0.156,0.053-0.3,0.106-0.447,0.15c-1.67,0.499-3.296,1.115-4.88,1.842c-0.695,0.319-1.394,0.632-2.087,0.956
		c-0.117,0.053-0.195,0.048-0.3-0.026c-1.093-0.774-2.189-1.547-3.286-2.317c-0.025-0.019-0.056-0.03-0.084-0.045
		C27.943,41.395,27.455,40.323,26.966,39.25z"/>
	<path style="fill-rule:evenodd;clip-rule:evenodd;fill:#E4E2D2;" d="M64.342,24.272c1.082,2.41,1.983,4.966,2.487,7.649
		c0.27,1.436,0.43,2.882,0.292,4.347c-0.064,0.694-0.198,1.373-0.512,2.006c-0.271,0.548-0.67,0.951-1.24,1.198
		c-0.87,0.381-1.728,0.787-2.594,1.176c-0.089,0.039-0.203,0.063-0.296,0.045c-3.13-0.578-6.29-0.788-9.468-0.754
		c-3.541,0.039-7.042,0.421-10.497,1.202c-0.148,0.034-0.231,0.007-0.319-0.121c-1.375-2.013-2.508-4.154-3.456-6.397
		c-0.591-1.399-1.101-2.827-1.506-4.292c-0.059-0.215-0.191-0.452-0.142-0.64c0.044-0.169,0.286-0.291,0.454-0.418
		c2.352-1.766,4.526-3.729,6.536-5.876c2.378-2.544,4.524-5.267,6.319-8.252c0.232-0.387,0.506-0.642,0.919-0.812
		c0.715-0.292,1.416-0.617,2.11-0.956c0.646-0.316,1.294-0.324,1.961-0.108c0.739,0.239,1.383,0.649,1.988,1.126
		c1.326,1.043,2.407,2.317,3.396,3.673C62.174,19.984,63.319,22.046,64.342,24.272z M62.047,25.217
		c-0.969-2.09-2.09-4.088-3.51-5.91c-0.858-1.102-1.792-2.131-2.943-2.938c-0.436-0.306-0.896-0.572-1.423-0.686
		c-0.503-0.11-0.801,0.004-1.012,0.472c-0.169,0.379-0.301,0.785-0.37,1.192c-0.208,1.226-0.097,2.45,0.093,3.669
		c0.321,2.045,0.926,4.011,1.703,5.927c0.999,2.466,2.231,4.804,3.821,6.943c0.864,1.164,1.813,2.252,2.975,3.132
		c0.492,0.374,1.011,0.704,1.62,0.854c0.559,0.139,0.845,0.005,1.106-0.507c0.236-0.462,0.333-0.963,0.386-1.473
		c0.136-1.285,0.003-2.558-0.225-3.822C63.835,29.685,63.035,27.421,62.047,25.217z"/>
	<path style="fill-rule:evenodd;clip-rule:evenodd;fill:#E4E2D2;" d="M39.36,43.691c0.401-0.099,0.774-0.191,1.146-0.282
		c1.207-0.293,2.414-0.585,3.62-0.882c0.135-0.032,0.238-0.023,0.358,0.069c2.621,1.997,5.244,3.988,7.87,5.98
		c0.234,0.178,0.44,0.374,0.516,0.669c0.109,0.426-0.018,0.784-0.317,1.096c-0.949,0.989-1.896,1.983-2.844,2.975
		c-0.185,0.194-0.368,0.39-0.556,0.581c-0.512,0.52-1.195,0.496-1.653-0.073c-1.891-2.345-3.775-4.693-5.662-7.042
		c-0.782-0.972-1.563-1.946-2.344-2.92C39.458,43.817,39.422,43.77,39.36,43.691z"/>
	<path style="fill-rule:evenodd;clip-rule:evenodd;fill:#F4B83B;" d="M57.292,27.386c-0.475-1.065-0.857-2.15-0.936-3.314
		c-0.026-0.396,0.011-0.81,0.087-1.201c0.075-0.384,0.28-0.461,0.641-0.304c0.512,0.221,0.893,0.611,1.244,1.027
		c0.93,1.096,1.578,2.35,2.052,3.701c0.285,0.813,0.5,1.64,0.513,2.505c0.004,0.31-0.037,0.627-0.112,0.928
		c-0.087,0.351-0.272,0.42-0.607,0.287c-0.398-0.158-0.708-0.441-1-0.743C58.358,29.43,57.778,28.432,57.292,27.386z"/>
</g>
<g>
	<path style="fill-rule:evenodd;clip-rule:evenodd;fill:#82AC4E;" d="M14.282,75.365c0-5.54,0-10.772,0-15.979
		c6.593-3.612,49.972-3.961,64.788-0.495c0,5.278,0,10.61,0,15.863c-10.71-0.683-21.473-1.746-32.253-1.948
		C36.002,72.607,25.189,73.524,14.282,75.365z"/>
	<path style="fill-rule:evenodd;clip-rule:evenodd;fill:#82AC4E;" d="M0.125,64.597c4.275,0,7.945,0,11.971,0
		c0,4.396,0,8.582,0,13.086c2.186-0.262,3.977-0.478,5.974-0.72c0.051,1.147,0.095,2.143,0.15,3.421c-5.961,0-11.756,0-18.031,0
		c2.089-2.799,3.973-5.322,5.853-7.844C4.1,69.933,2.271,67.48,0.125,64.597z"/>
	<path style="fill-rule:evenodd;clip-rule:evenodd;fill:#82AC4E;" d="M75.519,80.422c0-1.108,0-2.11,0-3.388
		c1.907,0.202,3.696,0.393,5.838,0.618c0.457-4.397,0.058-8.685,0.184-13.106c3.905,0,7.584,0,11.876,0
		c-2.075,2.742-3.949,5.218-5.966,7.882c1.878,2.575,3.739,5.127,5.831,7.994C87.255,80.422,81.561,80.422,75.519,80.422z"/>
</g>
<g>
	<path style="fill:#235870;" d="M20.872,70.426h-2.566v-7.399h-2.319v-2.099h7.198v2.099h-2.313V70.426z"/>
	<path style="fill:#235870;" d="M32.631,65.664c0,1.598-0.392,2.813-1.176,3.645c-0.784,0.832-1.932,1.247-3.443,1.247
		c-1.49,0-2.632-0.418-3.427-1.254s-1.192-2.053-1.192-3.651c0-1.581,0.395-2.788,1.186-3.622c0.791-0.833,1.939-1.25,3.446-1.25
		c1.512,0,2.657,0.414,3.437,1.241C32.242,62.847,32.631,64.062,32.631,65.664z M26.096,65.664c0,1.836,0.639,2.755,1.917,2.755
		c0.649,0,1.131-0.223,1.445-0.669c0.314-0.446,0.471-1.141,0.471-2.085c0-0.948-0.159-1.649-0.478-2.102s-0.794-0.679-1.426-0.679
		C26.739,62.884,26.096,63.811,26.096,65.664z"/>
	<path style="fill:#235870;" d="M40.441,63.949c0,1.061-0.313,1.881-0.939,2.459s-1.515,0.867-2.667,0.867h-0.721v3.151h-2.566
		v-9.498h3.288c1.199,0,2.1,0.262,2.702,0.786S40.441,62.983,40.441,63.949z M36.115,65.184h0.468c0.385,0,0.692-0.108,0.919-0.325
		c0.228-0.217,0.341-0.516,0.341-0.896c0-0.641-0.355-0.962-1.065-0.962h-0.663V65.184z"/>
	<path style="fill:#235870;" d="M50.708,63.949c0,1.061-0.313,1.881-0.939,2.459s-1.515,0.867-2.667,0.867h-0.721v3.151h-2.566
		v-9.498h3.288c1.199,0,2.1,0.262,2.702,0.786S50.708,62.983,50.708,63.949z M46.381,65.184h0.468c0.385,0,0.692-0.108,0.919-0.325
		c0.228-0.217,0.341-0.516,0.341-0.896c0-0.641-0.355-0.962-1.065-0.962h-0.663V65.184z"/>
	<path style="fill:#235870;" d="M51.423,70.426v-9.498h2.579v9.498H51.423z"/>
	<path style="fill:#235870;" d="M59.486,62.897c-0.611,0-1.087,0.25-1.429,0.75c-0.342,0.5-0.513,1.19-0.513,2.069
		c0,1.828,0.695,2.742,2.085,2.742c0.42,0,0.828-0.059,1.222-0.176c0.394-0.117,0.79-0.257,1.189-0.422v2.169
		c-0.793,0.351-1.689,0.526-2.69,0.526c-1.434,0-2.533-0.416-3.297-1.247c-0.765-0.832-1.146-2.034-1.146-3.606
		c0-0.983,0.185-1.847,0.555-2.592c0.371-0.745,0.903-1.318,1.598-1.719c0.695-0.4,1.513-0.601,2.453-0.601
		c1.026,0,2.007,0.223,2.943,0.669l-0.786,2.021c-0.351-0.165-0.702-0.303-1.052-0.416C60.265,62.953,59.889,62.897,59.486,62.897z"
		/>
	<path style="fill:#235870;" d="M71.207,70.426h-2.897l-1.877-3.631l-0.76,0.455v3.177h-2.579v-9.498h2.579v4.125
		c0.13-0.255,0.392-0.661,0.786-1.215l1.995-2.911h2.807l-2.995,4.255L71.207,70.426z"/>
	<path style="fill:#235870;" d="M77.646,67.542c0,0.589-0.149,1.112-0.448,1.569s-0.73,0.812-1.293,1.065s-1.224,0.38-1.981,0.38
		c-0.632,0-1.163-0.044-1.592-0.133c-0.429-0.088-0.875-0.244-1.338-0.464v-2.287c0.49,0.251,0.999,0.447,1.527,0.588
		s1.014,0.211,1.455,0.211c0.381,0,0.661-0.066,0.838-0.198c0.177-0.132,0.266-0.302,0.266-0.51c0-0.13-0.036-0.244-0.107-0.341
		c-0.072-0.097-0.187-0.196-0.344-0.295c-0.158-0.1-0.58-0.303-1.264-0.611c-0.62-0.281-1.084-0.554-1.394-0.818
		s-0.539-0.567-0.688-0.91c-0.149-0.342-0.224-0.747-0.224-1.215c0-0.875,0.318-1.557,0.955-2.046
		c0.637-0.489,1.512-0.734,2.625-0.734c0.983,0,1.985,0.227,3.008,0.682l-0.786,1.981c-0.888-0.407-1.655-0.611-2.3-0.611
		c-0.333,0-0.576,0.059-0.728,0.175c-0.152,0.117-0.228,0.262-0.228,0.436c0,0.186,0.096,0.353,0.289,0.5
		c0.193,0.147,0.716,0.416,1.569,0.806c0.819,0.368,1.387,0.763,1.706,1.186S77.646,66.901,77.646,67.542z"/>
</g>
</svg>
