<?xml version="1.0" encoding="iso-8859-1"?>
<!-- Generator: Adobe Illustrator 16.0.0, SVG Export Plug-In . SVG Version: 6.00 Build 0)  -->
<!DOCTYPE svg PUBLIC "-//W3C//DTD SVG 1.1//EN" "http://www.w3.org/Graphics/SVG/1.1/DTD/svg11.dtd">
<svg version="1.1" id="&#x421;&#x43B;&#x43E;&#x439;_1"
	 xmlns="http://www.w3.org/2000/svg" xmlns:xlink="http://www.w3.org/1999/xlink" x="0px" y="0px" width="93.543px"
	 height="93.543px" viewBox="0 0 93.543 93.543" style="enable-background:new 0 0 93.543 93.543;" xml:space="preserve">
<g>
	<path style="fill-rule:evenodd;clip-rule:evenodd;fill:#579DA8;" d="M55.232,39.691c1.847,0.227,3.692,0.439,5.536,0.686
		c6.025,0.805,11.78,2.532,17.254,5.171c2.961,1.428,4.029,4.834,2.481,7.745c-0.743,1.394-1.739,2.557-3.104,3.366
		c-0.674,0.398-0.942,0.963-1.059,1.732c-0.217,1.448-0.453,2.91-0.878,4.306c-0.527,1.737-1.766,2.932-3.476,3.557
		c-1.151,0.42-1.823,1.16-2.031,2.372c-0.492,2.863-2.176,4.856-4.731,6.08c-1.401,0.67-2.399,1.591-3.053,3.009
		c-0.569,1.238-1.473,2.255-2.664,2.978c-1.346,0.816-2.781,1.046-4.314,0.688c-5.775-1.353-11.274-3.509-16.704-5.839
		c-4.056-1.739-8.061-3.592-12.096-5.374c-0.424-0.187-0.568-0.41-0.566-0.873c0.013-9.009,0.016-18.02-0.005-27.03
		c-0.001-0.526,0.202-0.703,0.646-0.871c4.784-1.793,9.276-4.113,13.219-7.413c4.707-3.938,8.07-8.866,10.589-14.408
		c0.699-1.538,1.303-3.12,1.937-4.687c0.354-0.875,0.599-1.03,1.499-0.869c3.922,0.703,6.021,3.109,6.143,7.086
		c0.103,3.408-0.701,6.674-1.7,9.889C57.254,33.891,56.226,36.75,55.232,39.691z"/>
	<path style="fill-rule:evenodd;clip-rule:evenodd;fill:#579DA8;" d="M22.397,69.292c-2.085,0-4.117,0.008-6.149-0.017
		c-0.144-0.001-0.376-0.226-0.414-0.384c-1.195-4.928-1.983-9.905-1.719-15.002c0.193-3.686,0.826-7.305,1.668-10.891
		c0.074-0.319,0.088-0.617,0.553-0.613c1.938,0.021,3.878,0.012,5.816,0.018c0.068,0,0.136,0.04,0.245,0.075
		C22.397,51.372,22.397,60.271,22.397,69.292z"/>
</g>
<path style="fill:#F1F1E0;" d="M52.207,55.065l-0.734,4.122c-0.646,3.72-2.495,4.945-6.482,4.945h-7.484
	c-3.23,0-4.924-1.114-4.924-3.787c0-0.445,0.067-0.958,0.156-1.492l0.823-4.745c0.735-4.144,2.675-5.613,6.705-5.613h13.086
	c0,0.789-0.683,3.074-0.683,3.074H40.735c-2.228,0-3.141,0.69-3.542,3.007l-0.691,3.92c-0.066,0.424-0.11,0.78-0.11,1.092
	c0,1.181,0.645,1.47,2.605,1.47h6.083c1.849,0,2.449-0.49,2.65-1.604l0.289-1.648h-6.103l0.489-2.74H52.207z"/>
<path style="fill:#F1F1E0;" d="M68.317,48.494l-0.536,3.074h-6.526l-2.183,12.385h-3.698l2.184-12.385h-6.461l0.535-3.074H68.317z"
	/>
</svg>
