<?xml version="1.0" encoding="iso-8859-1"?>
<!-- Generator: Adobe Illustrator 16.0.0, SVG Export Plug-In . SVG Version: 6.00 Build 0)  -->
<!DOCTYPE svg PUBLIC "-//W3C//DTD SVG 1.1//EN" "http://www.w3.org/Graphics/SVG/1.1/DTD/svg11.dtd">
<svg version="1.1" id="&#x421;&#x43B;&#x43E;&#x439;_1"
	 xmlns="http://www.w3.org/2000/svg" xmlns:xlink="http://www.w3.org/1999/xlink" x="0px" y="0px" width="93.543px"
	 height="93.543px" viewBox="0 0 93.543 93.543" style="enable-background:new 0 0 93.543 93.543;" xml:space="preserve">
<g>
	<path style="fill-rule:evenodd;clip-rule:evenodd;fill:#E1AA36;" d="M52.249,68.163c-7.286-0.251-13.289-0.477-19.13-2.028
		c-1.472-0.391-2.888-1.073-4.253-1.772c-1.171-0.6-1.684-1.708-1.668-3.038c0.007-0.516-0.008-1.033,0.002-1.548
		c0.073-3.553-0.321-6.935-1.439-10.432c-5.479-17.126,7.157-34.345,25.134-34.606c15.446-0.226,28.095,13.433,26.705,28.791
		c-0.277,3.066-0.983,5.991-2.217,8.809c-0.271,0.62-0.406,1.341-0.423,2.021c-0.052,2.157-0.094,4.319,0.001,6.473
		c0.09,2.022-0.805,3.47-2.592,4.057c-2.875,0.944-5.809,1.863-8.791,2.293C59.412,67.785,55.18,67.927,52.249,68.163z
		 M51.075,58.461c2.81-0.139,5.627-0.186,8.427-0.435c3.452-0.309,6.904-0.729,10.1-2.229c0.445-0.209,0.937-0.495,1.203-0.885
		c3.818-5.578,5.088-11.709,3.758-18.334c-2.458-12.24-14.24-20.677-27.07-18.91c-15.897,2.188-25.357,20.453-17.829,34.638
		c1.37,2.583,3.248,4.038,6.037,4.649C40.772,58.068,45.902,58.383,51.075,58.461z"/>
	<path style="fill-rule:evenodd;clip-rule:evenodd;fill:#E1AA36;" d="M21.568,71.1c1.694,3.519,4.597,4.844,7.726,5.843
		c5.591,1.783,11.382,2.278,17.192,2.474c7.41,0.248,14.822,0.098,22.122-1.395c2.28-0.468,4.538-1.171,6.703-2.024
		c2.2-0.868,4.109-2.242,5.247-4.536c0,1.706,0.066,3.417-0.018,5.118c-0.094,1.894-1.311,3.193-2.897,3.853
		c-2.662,1.109-5.385,2.25-8.194,2.796c-12.703,2.469-25.439,2.405-38.111-0.268c-2.348-0.495-4.625-1.496-6.821-2.508
		c-2.078-0.958-3.151-2.696-2.966-5.114C21.648,74.054,21.568,72.756,21.568,71.1z"/>
	<path style="fill-rule:evenodd;clip-rule:evenodd;fill:#E1AA36;" d="M77.732,64.238c0,1.556,0.068,3.458-0.021,5.353
		c-0.067,1.446-1.048,2.354-2.236,3.04c-2.942,1.7-6.221,2.29-9.508,2.795c-9.329,1.436-18.694,1.54-28.029,0.23
		c-3.447-0.484-6.847-1.472-10.186-2.499c-2.37-0.728-3.656-2.475-3.392-5.158c0.131-1.346,0.022-2.716,0.022-4.313
		c3.054,4.885,8.034,5.636,12.837,6.361c10.029,1.518,20.095,1.504,30.085-0.439c2.182-0.423,4.373-1.143,6.354-2.134
		C75.214,66.698,76.452,65.287,77.732,64.238z"/>
</g>
<path style="fill-rule:evenodd;clip-rule:evenodd;fill:#E1AA36;" d="M0,48.389c1.219-1.137,2.17-2.074,3.176-2.945
	c0.89-0.77,1.331-1.618,1.084-2.846c-0.278-1.39-0.406-2.812-0.656-4.629c1.501,0.852,2.777,1.481,3.948,2.267
	c1.134,0.76,2.13,0.686,3.272,0.035c1.157-0.662,2.403-1.166,4.081-1.959c-0.581,2.373-1.048,4.287-1.489,6.091
	c1.502,1.556,2.794,2.894,4.441,4.601c-2.333,0.302-4.241,0.549-6.259,0.81c-0.874,1.585-1.779,3.229-2.734,4.962
	c-1.026-0.598-1.261-1.561-1.563-2.469c-0.654-1.963-1.822-3.216-4.054-3.291C2.281,48.983,1.324,48.655,0,48.389z"/>
<path style="fill-rule:evenodd;clip-rule:evenodd;fill:#E1AA36;" d="M73.992,18.491c1.219-1.137,2.17-2.074,3.176-2.945
	c0.891-0.77,1.332-1.618,1.085-2.847c-0.279-1.389-0.406-2.811-0.656-4.628c1.501,0.852,2.778,1.48,3.948,2.266
	c1.133,0.761,2.13,0.686,3.271,0.035c1.157-0.661,2.403-1.165,4.082-1.958c-0.581,2.373-1.049,4.285-1.49,6.091
	c1.503,1.555,2.794,2.894,4.441,4.601c-2.333,0.301-4.24,0.547-6.26,0.81c-0.873,1.584-1.779,3.229-2.733,4.962
	c-1.026-0.598-1.261-1.562-1.563-2.47c-0.653-1.961-1.822-3.214-4.055-3.289C76.272,19.083,75.316,18.756,73.992,18.491z"/>
<g>
	<path style="fill-rule:evenodd;clip-rule:evenodd;fill:#82AC4E;" d="M30.337,38.311c0.294-0.343,0.559-0.718,0.889-1.023
		c1.108-1.023,2.24-2.024,3.362-3.033c0.835-0.75,1.505-0.732,2.284,0.059c2.86,2.912,5.721,5.825,8.581,8.739
		c0.873,0.888,1.553,0.896,2.426,0.028c6.705-6.674,13.41-13.347,20.114-20.021c0.885-0.88,1.552-0.879,2.432,0.007
		c1.176,1.182,2.352,2.365,3.525,3.55c0.74,0.747,0.744,1.52,0.007,2.256c-8.729,8.715-17.461,17.429-26.193,26.143
		c-0.703,0.701-1.486,0.701-2.185-0.019c-4.913-5.069-9.822-10.14-14.725-15.218c-0.213-0.22-0.347-0.517-0.517-0.778
		C30.337,38.771,30.337,38.541,30.337,38.311z"/>
</g>
</svg>
