<?xml version="1.0" encoding="iso-8859-1"?>
<!-- Generator: Adobe Illustrator 16.0.0, SVG Export Plug-In . SVG Version: 6.00 Build 0)  -->
<!DOCTYPE svg PUBLIC "-//W3C//DTD SVG 1.1//EN" "http://www.w3.org/Graphics/SVG/1.1/DTD/svg11.dtd">
<svg version="1.1" id="&#x421;&#x43B;&#x43E;&#x439;_1"
	 xmlns="http://www.w3.org/2000/svg" xmlns:xlink="http://www.w3.org/1999/xlink" x="0px" y="0px" width="93.543px"
	 height="93.543px" viewBox="0 0 93.543 93.543" style="enable-background:new 0 0 93.543 93.543;" xml:space="preserve">
<g>
	<path style="fill-rule:evenodd;clip-rule:evenodd;fill:#DD6622;" d="M49.318,22.397c2.933,3.544,4.463,7.793,5.654,12.18
		c1.749,6.443,3.023,13.079,5.427,19.269c4.142,10.667,8.627,21.235,14.954,30.874c0.47,0.713,0.624,1.381,0.222,2.225
		c-1.084,2.282-2.203,2.868-4.668,2.208c-0.718-0.192-1.419-0.493-2.083-0.833c-5.105-2.615-9.603-6.128-14.015-9.73
		C48.72,73.614,42.753,68.49,36.672,63.505c-4.473-3.667-9.151-7.091-13.534-10.858c-2.186-1.88-4.162-4.123-5.791-6.505
		c-2.403-3.52-2.016-7.138,0.745-10.379c1.169-1.373,2.507-2.614,3.853-3.82c2.305-2.065,4.674-4.053,7.02-6.069
		c3.372-2.896,6.884-5.573,11.223-6.885c1.643-0.497,3.298-0.654,5.151-0.182C46.679,19.995,48.193,21.036,49.318,22.397z
		 M32.211,32.413c-0.044-0.052,8.359,0.18,14.155,6.035c3.318,6.291,8.824,14.583,10.132,23.008
		c0.296,0.593,2.931,2.871,3.279,3.434c0.099,0.16-1.373-6.553-1.562-7.047c-3.019-7.824-4.943-15.632-8.57-23.594
		c-1.494-3.287-5.206-7.907-5.012-11.499C42.688,24.401,35.75,31.96,32.211,32.413z"/>
	<path style="fill-rule:evenodd;clip-rule:evenodd;fill:#DD6622;" d="M18.669,28.436c0.553-1.34,1.282-2.618,2.035-3.861
		c0.748-1.233,1.034-2.438,0.218-3.726c-2.103-3.315-4.629-6.263-7.852-8.529c-1.85-1.302-3.514-1.003-5.087,0.647
		c-0.176,0.186-0.374,0.35-0.721,0.67c-0.652-0.728-1.41-1.325-1.831-2.102C4.482,9.789,4.347,7.73,6.998,6.868
		c1.188-0.387,2.506-0.584,3.754-0.539c2.717,0.1,5.001,1.362,6.992,3.151c2.235,2.008,4.416,4.078,6.661,6.069
		c2.148,1.907,4.556,2.945,7.537,2.272c1.007-0.226,2.132-0.184,3.156-0.005c0.84,0.147,1.613,0.681,2.416,1.045
		c0.001,0.156,0.002,0.311,0.002,0.467c-6.926,3.497-12.011,9.342-18.051,14.101C18.266,31.792,17.967,30.137,18.669,28.436z
		 M27.115,21.97c0.474,0.589,0.957,0.679,1.577,0.226c0.805-0.59,3.184-1.768,4.327-2.558c-2.981-0.2-5.574,1.204-9.216-1.693
		C24.407,20.326,26.024,20.617,27.115,21.97z M7.56,8.637C7.135,8.507,6.367,8.692,6.103,9.018c-0.502,0.621,0.38,2.066,1.479,2.551
		C8.462,10.056,8.469,8.913,7.56,8.637z"/>
</g>
</svg>
