<?xml version="1.0" encoding="utf-8"?>
<!-- Generator: Adobe Illustrator 16.0.0, SVG Export Plug-In . SVG Version: 6.00 Build 0)  -->
<!DOCTYPE svg PUBLIC "-//W3C//DTD SVG 1.1//EN" "http://www.w3.org/Graphics/SVG/1.1/DTD/svg11.dtd">
<svg version="1.1" id="Слой_1" xmlns="http://www.w3.org/2000/svg" xmlns:xlink="http://www.w3.org/1999/xlink" x="0px" y="0px"
	 width="93.543px" height="93.543px" viewBox="0 0 93.543 93.543" enable-background="new 0 0 93.543 93.543" xml:space="preserve">
<g>
	<path fill="#98CDD3" d="M46.916,81.641c-18.989,0-34.395-15.406-34.395-34.395s15.406-34.395,34.395-34.395
		c18.988,0,34.395,15.406,34.395,34.395S65.904,81.641,46.916,81.641z M46.916,22.883c-13.436,0-24.363,10.928-24.363,24.363
		S33.48,71.609,46.916,71.609s24.363-10.928,24.363-24.363S60.352,22.883,46.916,22.883z M52.648,51.545
		c0,0.807-0.627,1.434-1.434,1.434H36.884c-0.806,0-1.433-0.627-1.433-1.434V48.68c0-0.807,0.627-1.434,1.433-1.434h10.032V31.482
		c0-0.807,0.627-1.434,1.434-1.434h2.865c0.807,0,1.434,0.627,1.434,1.434V51.545z"/>
</g>
</svg>
