<svg xmlns="http://www.w3.org/2000/svg" width="280.201" height="297.64"><g fill-rule="evenodd" clip-rule="evenodd"><path fill="#0A0A0A" d="M222.68 220.149v2.928c-.001 13.069.114 26.138-.036 39.204-.145 12.521-5.596 22.275-16.313 28.783-14.058 8.535-32.801 5.402-43.417-8.604-4.428-5.845-6.674-12.484-6.634-19.856.015-2.653.003-5.307.003-8.035h-29.138c0 .919.042 1.975-.008 3.026-.175 3.745 0 7.557-.645 11.222-2.584 14.697-15.188 25.311-29.057 26.714-17.55 1.777-34.124-10.462-36.55-29.473-.187-1.465-.123-2.966-.123-4.45-.008-13.663-.005-27.324-.005-40.987v-2.904l-.499-.083c-.296.859-.617 1.712-.885 2.58-1.808 5.836-4.681 11.107-8.758 15.635-4.621 5.13-10.25 8.805-17.231 9.597-8.855 1.002-15.803-2.635-20.958-9.744-5.345-7.37-7.379-15.807-7.69-24.767-.169-4.889.77-9.615 1.828-14.347 3.006-13.432 7.449-26.35 13.716-38.618 5.144-10.069 11.387-19.408 18.675-28.051 6.522-7.733 13.767-14.729 21.799-21.369v-2.732c.001-8.613-.025-17.227.008-25.841.061-15.922 4.359-30.579 13.402-43.729 11.904-17.31 28.106-28.403 48.759-32.442 16.439-3.216 32.793-2.639 48.751 3.021 7.987 2.833 15.258 7 21.834 12.299 12.414 10.001 21.032 22.636 25.749 37.893 2.29 7.406 3.387 14.998 3.416 22.739.033 8.91.003 17.821.001 26.731v2.404c4.429 4.178 8.763 8.078 12.883 12.191 13.017 12.993 23.169 27.987 30.571 44.8 5.46 12.406 9.578 25.288 11.369 38.742 1.554 11.668-.839 22.689-8.114 32.156-7.431 9.67-19.665 11.574-30.219 5.053-5.608-3.467-9.736-8.321-12.722-14.144-1.252-2.441-2.275-5-3.401-7.505-.12-.01-.241-.024-.361-.037zM137.219 7.328c-2.654.143-5.313.205-7.958.443-7.143.645-13.932 2.697-20.432 5.625-14.111 6.355-25.185 16.213-33.056 29.541-6.444 10.913-9.831 22.759-9.935 35.463-.082 9.998-.017 19.995-.017 29.993v2.474c-7.046 5.857-13.668 11.764-19.644 18.4-7.843 8.71-14.573 18.167-20.143 28.47-6.845 12.664-11.398 26.154-14.707 40.118-1.872 7.897-2.314 15.758-.068 23.646 1.505 5.284 3.634 10.257 7.674 14.137 4.242 4.077 9.245 5.929 15.155 4.642 4.579-.997 8.38-3.396 11.647-6.681 5.465-5.492 8.687-12.213 10.115-19.719 1.884-9.912 4.529-19.562 8.7-28.765.271-.599.668-1.137 1.277-2.15v2.597c-.003 25.539-.032 51.077.027 76.615.006 2.546.219 5.176.885 7.615 4.464 16.324 21.641 25.212 37.352 19.028 10.372-4.084 16.537-11.925 17.816-23.148.456-4.005.292-8.084.389-12.13.036-1.453.006-2.907.006-4.203 2.969 0 5.631-.162 8.269.03a150.8 150.8 0 0 0 22.181.003c2.854-.212 5.727-.146 8.591-.207.056 5.139.109 10.277.164 15.415-.06 4.48 1.424 8.518 3.66 12.303 5.923 10.022 17.76 15.981 30.482 13.183 6.476-1.427 11.819-4.838 15.938-10.077 4.254-5.407 6.082-11.565 6.063-18.438-.071-25.419-.028-50.838-.028-76.728.544.924.932 1.46 1.196 2.053a98.499 98.499 0 0 1 6.845 21.634c1.224 6.321 2.614 12.545 5.948 18.141 3.252 5.457 7.407 10 13.406 12.513 2.842 1.189 5.745 1.849 8.923 1.379 5.703-.848 9.815-3.984 12.82-8.642 5.424-8.404 7.085-17.763 5.741-27.508-1.007-7.299-3.008-14.44-5.251-21.482-7.233-22.701-19.298-42.483-36.13-59.315-4.249-4.249-8.888-8.109-13.499-12.286 0-9.997-.013-20.182.005-30.367.009-5.042-.31-10.038-1.284-15.007-2.484-12.67-7.856-23.937-16.343-33.645-7.992-9.144-17.553-16.126-29.027-20.37-8.211-3.037-16.609-4.931-25.42-4.624l-1.816-.013h-3.524l-2.993.044z"/><path fill="#B2D9BB" d="M161.343 249.165c-2.864.062-5.737-.005-8.591.207a150.8 150.8 0 0 1-22.181-.003c-2.638-.192-5.3-.03-8.269-.03 0 1.296.03 2.75-.006 4.203-.097 4.046.067 8.125-.389 12.13-1.28 11.224-7.444 19.064-17.816 23.148-15.71 6.184-32.888-2.704-37.352-19.028-.667-2.439-.879-5.069-.885-7.615-.059-25.538-.031-51.076-.027-76.615v-2.597c-.608 1.014-1.006 1.552-1.277 2.15-4.171 9.203-6.816 18.853-8.7 28.765-1.428 7.506-4.65 14.227-10.115 19.719-3.267 3.285-7.068 5.684-11.647 6.681-5.911 1.287-10.913-.564-15.155-4.642-4.04-3.88-6.169-8.853-7.674-14.137-2.246-7.888-1.804-15.748.068-23.646 3.309-13.964 7.862-27.454 14.707-40.118 5.57-10.304 12.3-19.76 20.143-28.47 5.976-6.637 12.598-12.543 19.644-18.4v-2.474c0-9.998-.065-19.995.017-29.993.104-12.704 3.491-24.55 9.935-35.463 7.871-13.328 18.945-23.186 33.056-29.541 6.5-2.928 13.29-4.98 20.432-5.625 2.645-.238 5.304-.301 7.958-.443 1.171.885 1.893.875 2.993-.044h3.524c.599 1.069 1.203 1.074 1.816.013 8.811-.307 17.209 1.587 25.42 4.624 11.475 4.244 21.035 11.227 29.027 20.37 8.486 9.708 13.858 20.974 16.343 33.645.975 4.97 1.293 9.965 1.284 15.007-.018 10.185-.005 20.37-.005 30.367 4.611 4.177 9.25 8.037 13.499 12.286 16.832 16.832 28.896 36.614 36.13 59.315 2.243 7.042 4.244 14.184 5.251 21.482 1.344 9.745-.317 19.104-5.741 27.508-3.005 4.657-7.117 7.794-12.82 8.642-3.178.47-6.081-.189-8.923-1.379-5.999-2.513-10.154-7.056-13.406-12.513-3.334-5.596-4.725-11.819-5.948-18.141a98.462 98.462 0 0 0-6.845-21.634c-.265-.593-.652-1.129-1.196-2.053 0 25.89-.043 51.309.028 76.728.02 6.872-1.809 13.03-6.063 18.438-4.119 5.239-9.463 8.65-15.938 10.077-12.723 2.799-24.56-3.16-30.482-13.183-2.236-3.785-3.72-7.822-3.66-12.303.209-.175.599-.349.602-.525.041-4.761.055-9.522.019-14.284-.003-.205-.513-.404-.785-.606zm-43.657-124.762c.615-.335.78-.499.958-.512 6.494-.471 12.983-1.176 19.486-1.316 6.513-.142 13.053.058 19.552.522 5.985.428 11.93 1.41 17.895 2.137 3.518.429 7.045 1.223 10.558 1.167 5.424-.085 10.496-1.835 14.813-5.213 7.495-5.865 10.739-13.642 9.116-23.017-1.283-7.409-5.744-12.843-12.165-16.692-4.249-2.546-8.987-3.297-13.769-4.148-9.234-1.644-18.539-2.741-27.879-3.186-12.634-.602-25.3-.721-37.897.893-7.423.951-14.869 1.797-22.239 3.076-9.133 1.584-16.076 6.509-19.948 15.06-4.49 9.914-1.414 21.261 7.388 27.754 2.431 1.793 5.214 3.109 8.157 4.832v2.232c.001 5.247-.002 10.494.009 15.741.002.786-.017 1.589.132 2.353.618 3.177 3.312 5.144 6.387 4.947 2.479-.155 5.323-2.995 5.144-5.895-.221-3.55-.063-7.125-.047-10.689.003-.76.096-1.52.146-2.28.506.962.506 1.924.506 2.887.003 6.534.004 13.068.011 19.601.001.792-.032 1.591.058 2.374.566 4.931 6.046 7.809 10.175 5.422 2.355-1.361 3.492-3.283 3.475-6.052-.058-9.701-.02-19.403-.019-29.105l-.003-2.893zm23.104 34.776c-3.042.271-6.105.393-9.12.844-13.865 2.072-25.693 8.094-34.876 18.785-9.205 10.717-13.303 23.09-11.221 37.259 1.059 7.199 4.509 12.944 10.496 17.131 4.861 3.398 10.37 5.156 16.098 6.372 8.444 1.792 17.04 2.038 25.6 2.111 7.982.066 15.974-.498 23.952-.967 5.127-.3 10.148-1.405 15.018-3.034 5.105-1.708 9.7-4.263 13.402-8.332 5.259-5.783 6.702-12.876 6.732-20.26.021-4.785-.872-9.578-2.512-14.161-5.031-14.063-14.685-23.85-28.043-30.126-8.058-3.786-16.567-5.667-25.526-5.622zm36.064-89.527c4.635-.197 9.309-3.465 9.489-9.737.146-4.985-4.759-9.665-9.72-9.588-5.151.08-9.833 4.618-9.629 9.658.235 5.718 4.234 9.54 9.86 9.667zm-70.979.004c5.146.022 9.97-4.385 9.77-9.447-.225-5.691-3.731-9.774-9.714-9.771-6.408.005-9.72 5.232-9.592 9.567.191 6.476 5.285 9.649 9.536 9.651z"/><path fill="#C4E9CB" d="M161.343 249.165c.272.202.782.401.784.605a883.26 883.26 0 0 1-.019 14.284c-.003.177-.393.351-.602.525l-.163-15.414z"/><path fill="#C5EBCE" d="M140.212 7.284c-1.1.919-1.822.929-2.993.044l2.993-.044zm5.341.013c-.613 1.061-1.218 1.056-1.816-.013l1.816.013z"/><path fill="#131615" d="M117.686 124.403v2.892c-.001 9.702-.039 19.404.019 29.105.017 2.769-1.12 4.69-3.475 6.052-4.128 2.387-9.609-.491-10.175-5.422-.09-.783-.057-1.582-.058-2.374-.006-6.533-.007-13.067-.011-19.601 0-.962 0-1.925-.506-2.887-.051.76-.143 1.52-.146 2.28-.016 3.564-.174 7.139.047 10.689.18 2.9-2.665 5.74-5.144 5.895-3.075.196-5.769-1.771-6.387-4.947-.149-.764-.13-1.567-.132-2.353-.012-5.247-.008-10.494-.009-15.741v-2.232c-2.942-1.722-5.726-3.038-8.157-4.832-8.802-6.494-11.877-17.841-7.388-27.754 3.873-8.551 10.815-13.475 19.948-15.06 7.37-1.279 14.816-2.125 22.239-3.076 12.597-1.614 25.263-1.494 37.897-.893 9.34.444 18.645 1.542 27.879 3.186 4.781.851 9.52 1.602 13.769 4.148 6.421 3.849 10.882 9.283 12.165 16.692 1.623 9.375-1.621 17.152-9.116 23.017-4.316 3.378-9.389 5.128-14.813 5.213-3.513.056-7.04-.737-10.558-1.167-5.965-.728-11.909-1.709-17.895-2.137-6.499-.464-13.039-.664-19.552-.522-6.502.141-12.992.845-19.486 1.316-.175.014-.341.177-.955.513zm-16.253 6.704c1.191-1.214 2.073-1.68 3.274-1.088 1.143.563 1.469 1.516 1.474 2.674a33986.082 33986.082 0 0 0 .003 21.977c0 .792-.04 1.592.063 2.373.287 2.188 1.939 3.831 4.051 4.12 2.163.295 4.166-.76 4.985-2.864.379-.977.487-2.108.491-3.169.034-9.703.014-19.404.021-29.105.002-3.501.166-3.817 3.498-4.141 5.992-.582 11.993-1.207 18.005-1.425 5.421-.197 10.863.032 16.291.239a160.542 160.542 0 0 1 24.98 2.93c5.346 1.056 10.563 1.016 15.716-1.042 10.544-4.213 17.058-15.993 12.907-27.074-2.75-7.343-8.075-12.069-15.443-14.461-2.423-.787-4.979-1.262-7.512-1.587-8.709-1.12-17.413-2.409-26.161-3.058-7.568-.562-15.181-.998-22.796-.425-3.449.26-6.943.052-10.372.44-8.92 1.013-17.819 2.214-26.72 3.389-5.203.686-9.935 2.561-13.945 6.01-5.139 4.42-8.133 10.022-8.013 16.83.124 7.01 3.176 12.788 8.923 16.91 1.899 1.362 4.088 2.358 6.229 3.34 2.232 1.024 2.417 1.096 2.449 3.437.028 2.079.004 4.158.005 6.237.001 4.157-.046 8.316.026 12.473.038 2.217 1.395 3.656 3.34 3.832 2.135.193 3.712-1.049 4.13-3.376.155-.865.096-1.773.098-2.661.008-3.951.003-7.903.003-11.735z"/><path fill="#141614" d="M140.79 159.179c8.959-.045 17.468 1.836 25.527 5.622 13.358 6.276 23.012 16.063 28.043 30.126 1.64 4.583 2.532 9.376 2.512 14.161-.03 7.384-1.474 14.477-6.732 20.26-3.702 4.069-8.297 6.624-13.402 8.332-4.869 1.629-9.891 2.734-15.018 3.034-7.978.469-15.97 1.033-23.952.967-8.56-.073-17.156-.319-25.6-2.111-5.728-1.216-11.237-2.974-16.098-6.372-5.987-4.187-9.438-9.932-10.496-17.131-2.082-14.169 2.016-26.542 11.221-37.259 9.183-10.691 21.011-16.713 34.876-18.785 3.014-.452 6.077-.573 9.119-.844zm-.293 80.608c5.917-.247 11.848-.332 17.749-.785 6.791-.521 13.508-1.584 19.906-4.118 7.594-3.006 13.109-8.025 15.334-16.073 1.077-3.897 1.343-7.896 1.072-11.987-.791-11.932-5.814-21.831-14.256-30.03-8.941-8.684-19.838-13.568-32.145-14.956-13.859-1.562-27.014.898-38.751 8.753-15.278 10.223-23.379 24.345-22.021 43.065.6 8.257 4.419 14.779 11.827 19.026 4.879 2.798 10.144 4.266 15.609 5.188 8.496 1.433 17.073 1.767 25.676 1.917z"/><path fill="#060606" d="M176.854 69.652c-5.627-.127-9.626-3.949-9.859-9.668-.204-5.04 4.478-9.578 9.629-9.658 4.961-.077 9.865 4.604 9.72 9.588-.181 6.274-4.855 9.541-9.49 9.738zm2.599-15.451c-1.722.033-2.98 1.325-2.936 3.013.04 1.571 1.505 2.975 3.093 2.964 1.593-.009 2.945-1.445 2.912-3.09-.034-1.665-1.368-2.92-3.069-2.887z"/><path fill="#050606" d="M105.875 69.656c-4.25-.002-9.344-3.175-9.537-9.651-.128-4.334 3.184-9.562 9.592-9.567 5.982-.003 9.489 4.08 9.714 9.771.201 5.062-4.623 9.47-9.769 9.447zm5.859-12.614c-.057-1.828-1.184-2.888-3.013-2.834-1.683.05-2.979 1.408-2.911 3.049.065 1.553 1.621 3.006 3.133 2.922 1.709-.095 2.847-1.374 2.791-3.137z"/><path fill="#CCE7F3" d="M101.433 131.107c0 3.832.005 7.784-.003 11.736-.002.888.057 1.796-.098 2.661-.418 2.327-1.995 3.569-4.13 3.376-1.946-.175-3.302-1.615-3.34-3.832-.072-4.157-.024-8.315-.026-12.473-.001-2.079.023-4.159-.005-6.237-.032-2.34-.217-2.413-2.449-3.437-2.14-.982-4.33-1.978-6.229-3.34-5.747-4.122-8.799-9.9-8.923-16.91-.121-6.807 2.874-12.409 8.013-16.83 4.01-3.45 8.743-5.324 13.945-6.01 8.901-1.175 17.8-2.376 26.72-3.389 3.429-.389 6.923-.181 10.372-.44 7.615-.573 15.228-.137 22.796.425 8.748.649 17.452 1.938 26.161 3.058 2.533.325 5.089.8 7.512 1.587 7.368 2.392 12.693 7.118 15.443 14.461 4.15 11.081-2.363 22.861-12.907 27.074-5.152 2.059-10.37 2.098-15.716 1.042a160.542 160.542 0 0 0-24.98-2.93c-5.428-.208-10.87-.437-16.291-.239-6.012.218-12.013.843-18.005 1.425-3.332.324-3.495.64-3.498 4.141-.007 9.701.013 19.403-.021 29.105-.004 1.061-.111 2.192-.491 3.169-.819 2.104-2.822 3.159-4.985 2.864-2.112-.289-3.764-1.933-4.051-4.12-.103-.781-.063-1.581-.063-2.373-.003-6.731-.002-13.463-.001-20.195 0-.594 0-1.188-.002-1.782-.005-1.158-.331-2.111-1.474-2.674-1.202-.592-2.083-.126-3.274 1.087zM87.357 91.125l-.605.604.018-.018c-2.81 1.968-4.024 4.811-4.41 8.096-.02.164.155.352.239.529l.014-.034-.566.914c-.28 3.473.612 6.655 2.501 9.544 3.889 5.945 11.38 8.813 18.668 7.511 6.007-1.072 12.05-2.047 18.118-2.661 9.032-.914 18.094-1.253 27.196-.95 9.883.329 19.664 1.347 29.409 2.938 2.714.443 5.479.909 8.21.844 10.232-.242 17.875-9.15 16.297-18.4-.849-5.15-3.563-8.983-8.125-11.514l-3.443-1.712c-3.466-1.558-7.183-1.88-10.897-2.215l-2.314-.379-5.125-.873.063.008-11.012-1.004-14.281-.7-10.076.005-14.281.694c-2.332.187-4.672.307-6.994.583-1.831.217-3.636.629-5.453.954l-2.361.137-1.332.192-2.241.409-7.84 1.318c-3.129.557-6.011 1.637-8.323 3.924l-1.061 1.266.007-.01z"/><path fill="#E5ECB9" d="M140.497 239.787c-8.603-.15-17.179-.484-25.675-1.918-5.465-.922-10.73-2.39-15.609-5.188-7.407-4.247-11.227-10.77-11.827-19.026-1.359-18.721 6.742-32.843 22.021-43.065 11.737-7.854 24.892-10.314 38.751-8.753 12.307 1.388 23.203 6.272 32.145 14.956 8.441 8.199 13.465 18.099 14.256 30.03.271 4.091.005 8.09-1.072 11.987-2.225 8.048-7.74 13.067-15.334 16.073-6.398 2.534-13.115 3.598-19.906 4.118-5.902.454-11.833.539-17.75.786z"/><path fill="#EBEBEB" d="M179.453 54.201c1.701-.033 3.035 1.222 3.069 2.888.033 1.645-1.319 3.081-2.912 3.09-1.588.01-3.053-1.393-3.093-2.964-.044-1.69 1.214-2.981 2.936-3.014zm-67.719 2.841c.056 1.763-1.082 3.042-2.791 3.136-1.512.084-3.068-1.369-3.133-2.922-.067-1.641 1.229-2.999 2.911-3.049 1.829-.053 2.956 1.007 3.013 2.835z"/><path fill="#030404" d="M202.446 100.043c1.578 9.25-6.064 18.159-16.297 18.4-2.73.064-5.496-.401-8.21-.844-9.745-1.591-19.526-2.608-29.409-2.938-9.102-.303-18.164.037-27.196.95-6.067.614-12.11 1.588-18.118 2.661-7.288 1.302-14.779-1.566-18.668-7.511-1.89-2.889-2.782-6.072-2.501-9.544l.807-.303c.047.184.033.444.151.54 4.641 3.778 11.8 2.097 14.25-3.354.394-.873.651-1.807.982-2.745 4.496 6.541 14.616 5.804 17.356-3.065 2.016 3.592 5.019 5.466 9.041 5.167 4.065-.302 6.819-2.611 8.287-6.624 4.133 7.955 14.002 7.703 17.7-.078 1.202 3.72 3.65 6.023 7.579 6.587 4.324.621 7.459-1.282 9.75-5.047 1.942 7.21 10.75 10.546 17.321 3.404.223.491.48.901.599 1.348 1.19 4.469 5.717 6.654 9.249 6.407 2.574-.18 5.095-.75 6.43-3.406l.897-.005z"/><path fill="#FAFAFA" d="M201.549 100.047c-1.335 2.656-3.855 3.226-6.43 3.406-3.532.247-8.059-1.938-9.249-6.407-.118-.447-.376-.857-.599-1.348-6.571 7.142-15.379 3.806-17.321-3.404-2.291 3.765-5.426 5.668-9.75 5.047-3.929-.563-6.377-2.867-7.579-6.587-3.697 7.78-13.566 8.032-17.7.078-1.468 4.013-4.222 6.322-8.287 6.624-4.022.3-7.024-1.574-9.041-5.167-2.74 8.869-12.86 9.606-17.356 3.065-.331.938-.588 1.872-.982 2.745-2.451 5.451-9.61 7.131-14.25 3.354-.118-.096-.104-.356-.151-.54l-.241-.611-.014.034c.234-.282.596-.531.682-.852.642-2.375 1.631-4.553 3.23-6.455.252-.3.181-.872.259-1.318l-.018.018.605-.604-.008.011c1.094.369 1.568-.435 2.107-1.116l7.369-3.174 7.77-1.463 2.309-.268 1.287-.146 2.297-.442 12.472-1.225c3.504-.176 7.01-.346 10.514-.53 1.258-.066 2.516-.167 3.774-.253l10.05-.003 14.289.776c3.027.287 6.057.568 9.083.866.799.078 1.607.238 1.935-.798l-.063-.008.304 1.213 4.792.513 2.308.308 10.164 2.063 4.116 1.936c3.666 2.71 6.283 6.144 7.323 10.662z"/><path fill="#303438" d="M201.549 100.047c-1.04-4.518-3.657-7.952-7.324-10.664.031-.284.064-.569.097-.854 4.563 2.531 7.276 6.364 8.125 11.514l-.898.004z"/><path fill="#353A3C" d="M137.247 82.517c-1.258.086-2.516.188-3.774.253-3.503.185-7.009.354-10.514.53l-.006-.948 14.281-.694.013.859z"/><path fill="#34383B" d="M161.586 83.29l-14.289-.776c.005-.287.011-.573.014-.86l14.281.7-.006.936z"/><path fill="#404547" d="M190.108 87.447l-10.164-2.063.036-.782c3.715.335 7.432.657 10.897 2.215-.254.21-.512.42-.769.63z"/><path fill="#26292C" d="M122.953 82.353l.006.948-12.472 1.225.019-.636c1.817-.325 3.623-.737 5.453-.954 2.322-.276 4.662-.396 6.994-.583z"/><path fill="#1B2224" d="M147.311 81.653c-.003.287-.009.574-.014.86l-10.05.003-.013-.858 10.077-.005z"/><path fill="#262A2A" d="M161.586 83.29l.006-.937 11.012 1.004c-.327 1.036-1.136.876-1.935.798-3.026-.297-6.056-.578-9.083-.865z"/><path fill="#313437" d="M86.77 91.711c-.078.446-.007 1.019-.259 1.318-1.6 1.902-2.589 4.081-3.23 6.455-.086.321-.448.57-.682.852-.084-.177-.259-.365-.239-.529.386-3.286 1.6-6.128 4.41-8.096z"/><path fill="#353A3E" d="M96.825 86.845l-7.369 3.174-1.046-.149c2.313-2.287 5.194-3.367 8.323-3.924l.092.899z"/><path fill="#3A3F42" d="M96.825 86.845l-.091-.899 7.84-1.318.021.753-7.77 1.464zm80.812-1.77l-4.792-.513-.304-1.213 5.125.873-.029.853z"/><path fill="#313437" d="M190.108 87.447c.257-.209.515-.42.77-.63l3.443 1.712-.097.854-4.116-1.936z"/><path fill="#131615" d="M110.506 83.89l-.019.636-2.297.442-.045-.94c.788-.048 1.574-.092 2.361-.138z"/><path fill="#0A0A0A" d="M104.595 85.381l-.021-.753 2.241-.409c.031.298.06.596.09.895l-2.31.267z"/><path fill="#131615" d="M177.637 85.075c.01-.284.021-.569.029-.853l2.314.379-.036.782-2.307-.308z"/><path fill="#313437" d="M88.41 89.87l1.046.149c-.539.682-1.013 1.485-2.107 1.116l1.061-1.265z"/><path fill="#595F62" d="M106.904 85.113l-.09-.895 1.332-.192.045.94-1.287.147z"/><path fill="#313437" d="M87.357 91.125zm-4.744 9.178l.241.611-.807.303.566-.914z"/></g></svg>