<svg xmlns="http://www.w3.org/2000/svg" width="26.833" height="27.539"><path d="M10.415 3.853c-.419-.027-.824-.025-1.22-.084A1.876 1.876 0 0 1 7.598 1.79C7.655.834 8.411.036 9.372.021c1.988-.028 3.977-.028 5.966-.001.995.014 1.746.815 1.783 1.796.04.999-.622 1.813-1.615 1.956-.38.055-.77.051-1.195.076-.009.167-.018.329-.027.547 2.176.392 4.099 1.303 5.764 2.756.085-.073.148-.117.201-.171.099-.097.19-.199.389-.407-.219-.168-.454-.303-.634-.491-.588-.625-.581-1.483-.009-2.045.558-.543 1.421-.557 2.015.019a160.567 160.567 0 0 1 3.194 3.199c.57.589.551 1.466.007 2.014-.56.562-1.386.569-2.013.013-.21-.184-.401-.381-.618-.585l-.577.575c.344.664.711 1.292 1.003 1.953 2.493 5.635.02 12.358-5.523 15.038-6.853 3.308-14.883-.6-16.492-8.027C-.348 12.048 3.748 5.774 9.963 4.512c.378-.078.623-.178.452-.659zM4.577 15.831c-.022 4.289 3.463 7.787 7.772 7.805 4.289.018 7.801-3.472 7.821-7.768.02-4.269-3.5-7.802-7.785-7.816-4.285-.018-7.787 3.473-7.808 7.779z"/><path d="M9.594 19.82c.129.441.48.65.927.55.204-.046.401-.136.584-.24 1.953-1.112 3.901-2.232 5.851-3.352a2.99 2.99 0 0 0 .353-.233c.489-.391.489-.975-.003-1.362a2.96 2.96 0 0 0-.415-.271l-5.747-3.295a2.568 2.568 0 0 0-.446-.212c-.566-.205-1.028.053-1.147.641-.032.163-.04.329-.04.492-.005 1.109-.002 2.215-.002 3.328 0 1.116-.004 2.235.004 3.352.001.201.024.409.081.602z"/></svg>