<svg xmlns="http://www.w3.org/2000/svg" width="93.543" height="93.543"><g fill-rule="evenodd" clip-rule="evenodd"><path fill="#EC4D4D" d="M48.517 69.381h-4.061c-.297-.22-.661-.156-.99-.204-6.145-.888-10.844-3.993-14.045-9.288-2.666-4.409-3.483-9.276-3.244-14.36.032-.697.057-1.403.256-2.14 2.918 2.14 6.195 3.172 9.826 3.701-.404-.331-.698-.568-.988-.812-2.578-2.159-4.55-4.729-5.372-8.053-.61-2.47-.377-4.787 1.106-6.972 1.653-2.436 3.417-4.776 5.374-6.972 4.451-4.992 9.446-9.406 14.55-13.705.215-.181.495-.302.604-.594h.115a27.53 27.53 0 0 0 .525 5.411c.795 4.074 2.496 7.778 4.687 11.267 1.048 1.668 1.259 3.46.988 5.344-.346 2.405-1.415 4.513-2.771 6.493-.232.338-.473.671-.726 1.03.245.039.391-.075.545-.139 2.584-1.08 4.859-2.612 6.778-4.656.266-.282.391-.316.619.039.814 1.268 1.626 2.537 2.326 3.872 1.103 2.098 1.973 4.282 2.224 6.66.365 3.473-.057 6.888-1.179 10.168-2.46 7.195-7.287 11.867-14.842 13.509-.763.166-1.557.154-2.305.401zm-1.858-29.463l.007-.007c.016.23.013.463.051.689.387 2.396.536 4.796.238 7.218-.455 3.686-1.968 6.925-4.101 9.912-.099.137-.171.365-.353.345-.221-.027-.217-.288-.277-.46-.559-1.604-1.338-3.086-2.44-4.384-.736-.868-1.549-1.656-2.526-2.255-.138.167-.052.295-.021.419.911 3.686.524 7.29-.687 10.84-.273.802-.283.806.461 1.184 2.534 1.283 5.218 1.984 8.06 2.156 3.6.217 7.044-.341 10.333-1.848.55-.252.953-.617 1.289-1.114 1.651-2.44 2.597-5.124 2.821-8.06.028-.366.021-.735.022-1.103.002-.348.007-.696-.014-1.044-.021-.341-.073-.679-.111-1.019-.414 1.587-.938 2.695-2.009 4.049-1.878 2.373-4.201 4.26-6.638 6.019-.061.043-.131.078-.234-.004.037-.188.076-.394.12-.598 1.048-4.986.874-9.912-.75-14.758-.747-2.228-1.768-4.323-3.241-6.177z"/><path fill="#E7C644" d="M46.659 39.918c1.473 1.854 2.494 3.949 3.241 6.178 1.624 4.846 1.798 9.772.75 14.758-.044.204-.083.41-.12.598.104.082.174.047.234.004 2.437-1.759 4.76-3.646 6.638-6.019 1.07-1.354 1.595-2.462 2.009-4.049.038.34.091.678.111 1.019.021.348.016.696.014 1.044-.002.367.006.736-.022 1.103-.225 2.936-1.17 5.619-2.821 8.06-.336.497-.739.862-1.289 1.114-3.288 1.507-6.732 2.064-10.333 1.848-2.841-.172-5.525-.873-8.06-2.156-.745-.378-.735-.382-.461-1.184 1.21-3.55 1.597-7.154.687-10.84-.031-.124-.116-.252.021-.419.977.599 1.79 1.387 2.526 2.255 1.102 1.298 1.881 2.779 2.44 4.384.06.172.056.433.277.46.182.021.254-.208.353-.345 2.133-2.987 3.646-6.227 4.101-9.912.298-2.422.149-4.822-.238-7.218-.038-.227-.035-.459-.051-.689l-.007.006zm.008-.007l-.007.007.007-.007z"/></g><path fill-rule="evenodd" clip-rule="evenodd" fill="#E7C644" d="M46.667 30.823l-.007.007.007-.007z"/><path fill="none" d="M46.717 31.513c.11.684.194 1.368.261 2.053a47.76 47.76 0 0 1 1.39-.104 17.666 17.666 0 0 0-1.701-2.619c.015.222.014.449.05.67zm-.058-.682l.008.011-.001-.019-.007.008z"/><path fill="#DB4F4F" d="M29.098 59.299c.11.196.205.396.323.59 3.202 5.295 7.901 8.4 14.045 9.288.329.048.692-.016.99.204h4.061c.748-.247 1.542-.234 2.307-.401 2.967-.644 5.507-1.763 7.653-3.312a50.42 50.42 0 0 1-6.92.472c-9.943 0-18.513-2.801-22.459-6.841z"/><path fill-rule="evenodd" clip-rule="evenodd" fill="#E7C644" d="M86.543 87.343H7l-7-19.77h93.543z"/><path d="M19.171 82.855h-2.197v-4.57h-4.285v4.57h-2.197V72.191h2.197v4.321h4.285v-4.321h2.197v10.664zm10.679-5.089c0 1.05-.186 1.97-.557 2.761s-.902 1.401-1.593 1.831c-.691.43-1.483.645-2.377.645-.884 0-1.672-.213-2.366-.637-.693-.426-1.23-1.032-1.611-1.82-.381-.789-.574-1.695-.579-2.721v-.527c0-1.05.189-1.975.567-2.772.378-.799.913-1.411 1.604-1.839.69-.427 1.48-.641 2.369-.641s1.678.214 2.369.641c.691.428 1.226 1.04 1.604 1.839.378.798.567 1.72.567 2.765v.475zm-2.226-.485c0-1.117-.2-1.967-.601-2.549-.4-.58-.972-.871-1.714-.871-.737 0-1.306.287-1.707.86-.4.574-.603 1.415-.608 2.523v.521c0 1.089.2 1.934.601 2.533.4.602.977.901 1.729.901.737 0 1.304-.289 1.699-.868.396-.578.596-1.422.601-2.53v-.52zm11.228-3.31h-3.267v8.885h-2.197v-8.885h-3.223v-1.779h8.687v1.779zm13.22 8.884h-2.197l-4.278-7.017v7.017H43.4V72.191h2.197l4.285 7.031v-7.031h2.19v10.664zm8.334-4.636h-4.219v2.871h4.951v1.766H53.99V72.191h7.135v1.779h-4.938v2.542h4.219v1.707zm10.328 1.56l1.436-7.588h2.189l-2.365 10.664h-2.213l-1.735-7.134-1.735 7.134h-2.213l-2.365-10.664h2.189l1.443 7.573 1.758-7.573h1.861l1.75 7.588zm10.342.279c0-.415-.146-.733-.439-.956-.293-.222-.82-.456-1.582-.703-.762-.246-1.365-.489-1.81-.729-1.211-.654-1.816-1.535-1.816-2.645 0-.575.162-1.09.487-1.541.324-.452.791-.805 1.398-1.059.608-.254 1.29-.381 2.047-.381.762 0 1.44.138 2.037.414.595.275 1.058.665 1.388 1.168.329.503.494 1.074.494 1.714h-2.197c0-.488-.153-.868-.462-1.139-.307-.271-.739-.407-1.296-.407-.537 0-.955.114-1.253.341a1.074 1.074 0 0 0-.446.897c0 .347.175.637.523.871.35.234.863.455 1.542.66 1.25.376 2.16.842 2.732 1.398.57.557.856 1.25.856 2.08 0 .923-.35 1.646-1.048 2.172-.698.524-1.638.787-2.819.787-.82 0-1.567-.15-2.241-.45-.674-.301-1.188-.712-1.542-1.234-.354-.522-.53-1.128-.53-1.816h2.204c0 1.177.703 1.765 2.109 1.765.522 0 .931-.105 1.224-.318.294-.212.44-.509.44-.889z" fill="#EF4D4D"/></svg>