<svg xmlns="http://www.w3.org/2000/svg" width="224.936" height="224.935"><g fill-rule="evenodd" clip-rule="evenodd" fill="#ED7B2E"><path d="M95.917 24.162c-3.683 6.203-10.042 8.307-16.482 10.628-4.715 1.701-9.022 4.539-13.884 7.065-5.75-6.528-11.808-13.402-17.876-20.292 36.965-27.486 97.519-30.087 139.69 9.911 42.758 40.554 41.979 100.508 18.743 136.849-.462-.424-.926-.816-1.356-1.246-17.514-17.509-35.021-35.028-52.552-52.52-.97-.968-1.465-1.708-.79-3.191 10.084-22.165 4.078-47.021-12.499-63.654-9.518-9.549-20.906-15.385-34.428-16.835-.831-.088-1.725-.647-2.368-1.231-1.849-1.675-3.584-3.476-5.37-5.225-.05-.046-.146-.047-.828-.259z"/><path d="M224.211 223.796c-6.18-1.535-11.91-2.957-17.642-4.385-5.448-1.359-10.917-2.648-16.326-4.143-1.417-.391-2.907-1.178-3.939-2.207A117201.6 117201.6 0 0 1 64.668 91.444c-.765-.766-1.3-1.762-2.07-2.825l-16.179 16.357-8.996-9.079 25.482-25.325C43.478 54.122 24.49 38.041 5.668 22.101L22.441 5.543 71.21 61.681l24.961-25.079c3.154 3.147 6.13 6.115 9.179 9.159L87.625 63.384c1.182.778 2.156 1.212 2.861 1.917 36.536 36.484 73.05 72.989 109.563 109.495 4.253 4.252 8.507 8.506 12.717 12.801.629.643 1.244 1.449 1.494 2.291 3.31 11.131 6.553 22.285 9.951 33.908zm-25.155-30.843c-.533-.559-.902-.959-1.287-1.344a150893.188 150893.188 0 0 0-33.463-33.484c-24.91-24.914-49.831-49.82-74.695-74.779-.687-.689-1.212-1.991-1.111-2.933.474-4.497-1.758-8.856-5.819-10.837a10.398 10.398 0 0 0-12.067 2.154c-3.118 3.244-3.79 8.172-1.656 12.149 2.142 3.988 6.586 6.268 11.027 5.202 2.021-.485 3.082.168 4.38 1.469 31.791 31.844 63.619 63.653 95.436 95.468 4.359 4.359 8.696 8.736 12.969 13.031l6.286-6.096z"/><path d="M119.931 221.769c-45.742 3.883-89.151-21.1-108.942-63.451C-7.622 118.491.903 74.242 21.925 47.078L43.31 65.39c-2.083 3.204-4.194 6.197-6.032 9.349-2.001 3.432-3.953 6.922-5.556 10.548-1.746 3.947-3.322 7.918-7.511 10.666 3.102 1.576 2.14 3.722 1.622 5.944-7.754 33.271 1.172 62.132 23.878 86.892 16.967 18.5 38.224 29.264 63.239 32.348 1.162.143 2.338.152 3.504.258 1.162.103 2.318.247 3.477.374z"/></g></svg>