<svg xmlns="http://www.w3.org/2000/svg" width="224.936" height="224.935"><g clip-rule="evenodd"><path fill-rule="evenodd" d="M224.936 224.935H0V0h224.936v224.935zM82.745 64.29c-8.54 3.862-8.548 3.87-14.218-1.796-17.087-17.078-34.209-34.12-51.205-51.288-2.683-2.71-5.348-3.64-8.764-2.239-1.306 4.468.159 7.585 3.365 10.73 16.176 15.875 31.949 32.164 48.261 47.895 4.556 4.394 6.973 8.349 3.792 14.305-.124.231-.441.359-1.359 1.071A2623778.25 2623778.25 0 0 1 9.166 28.863l-1.027.419c0 2.253.249 4.539-.05 6.752-.686 5.073 1.291 8.578 4.927 12.166 25.148 24.815 50.039 49.891 75.07 74.825 1.4 1.395 3.319 2.269 4.997 3.386l-1.021 1.225-4.039 7.498L8.139 55.253c0 4.165.263 7.004-.058 9.775-.565 4.895 1.312 8.32 4.794 11.755 21.949 21.651 43.677 43.526 65.482 65.323 5.612 5.61 5.617 5.604 1.672 14.461l-71.891-71.9c0 3.079.192 5.401-.042 7.68-.421 4.108.802 7.169 4.02 10.017 5.356 4.742 10.223 10.036 15.3 15.094 15.585 15.524 31.135 31.085 46.828 46.5 1.296 1.273 3.86 2.574 5.33 2.143 10.334-3.037 20.809-5.889 30.664-10.135 4.956-2.135 7.44-1.561 10.961 1.98 25.072 25.221 54.395 43.713 88.235 54.891 1.781.588 3.569 1.156 5.354 1.734.427-.314.853-.629 1.279-.941-4.034-10.854-7.524-21.947-12.22-32.506-8.811-19.809-23.244-35.59-38.311-50.779-4.317-4.352-8.895-8.444-13.327-12.631 6.958-12.1 11.359-24.021 13.77-36.729.575-3.034.041-4.825-2.078-6.934-20.671-20.573-41.235-41.254-61.833-61.9-4.127-4.137-11.232-5.249-18.285-2.118l70.727 70.476c-5.487 3.783-9.446 1.976-13.964-2.656-21.178-21.711-43.041-42.758-64.024-64.65-6.502-6.786-13.255-4.237-20.155-4.658l-.525 1.151 78.312 78.331c-7.411 4.699-7.412 4.7-12.852-.74C96.79 62.776 72.011 38.523 47.949 13.578c-6.304-6.535-12.74-4.947-20.042-4.041L82.745 64.29z"/><path fill="none" d="M82.745 64.29L27.907 9.537c7.302-.906 13.738-2.494 20.042 4.041 24.062 24.945 48.841 49.198 73.353 73.709 5.44 5.44 5.441 5.439 12.852.74L55.842 9.696l.525-1.151c6.899.421 13.653-2.128 20.156 4.657 20.984 21.893 42.846 42.939 64.024 64.65 4.518 4.632 8.477 6.439 13.964 2.656L83.785 10.033c7.052-3.131 14.158-2.019 18.285 2.118 20.598 20.646 41.162 41.327 61.833 61.9 2.119 2.108 2.653 3.899 2.078 6.934-2.411 12.709-6.812 24.63-13.77 36.729 4.432 4.187 9.01 8.279 13.327 12.631 15.067 15.188 29.5 30.97 38.311 50.779 4.696 10.559 8.186 21.652 12.22 32.506l-1.279.941c-1.785-.578-3.573-1.146-5.354-1.734-33.841-11.178-63.163-29.67-88.235-54.891-3.521-3.541-6.005-4.115-10.961-1.98-9.854 4.246-20.33 7.098-30.664 10.135-1.47.432-4.034-.869-5.33-2.143-15.692-15.416-31.242-30.976-46.828-46.5-5.077-5.058-9.944-10.352-15.3-15.094-3.217-2.848-4.441-5.908-4.02-10.017.233-2.278.042-4.601.042-7.68l71.891 71.9c3.945-8.857 3.939-8.851-1.672-14.461-21.807-21.796-43.535-43.671-65.484-65.323-3.482-3.435-5.359-6.86-4.794-11.755.32-2.771.058-5.61.058-9.775l79.885 79.881 4.039-7.498 1.021-1.225c-1.677-1.117-3.596-1.991-4.997-3.386C63.055 98.091 38.164 73.016 13.016 48.2c-3.636-3.588-5.613-7.093-4.927-12.166.299-2.213.05-4.499.05-6.752l1.027-.419 53.451 54.104c.918-.712 1.236-.84 1.359-1.071 3.181-5.956.764-9.911-3.792-14.305-16.312-15.73-32.084-32.02-48.261-47.895-3.206-3.146-4.67-6.263-3.365-10.73 3.417-1.4 6.082-.471 8.764 2.239 16.996 17.168 34.118 34.21 51.205 51.288 5.669 5.667 5.678 5.659 14.218 1.797zm59.629 54.585c6.123-9.924 11.005-19.028 13.32-29.902-14.815 3.507-26.909 10.553-37.053 18.549-8.411-6.654-16.224-12.771-23.924-19.024-.815-.662-1.48-2.203-1.348-3.225.85-6.593-3.879-11.936-10.891-12.043-5.134-.078-10.366 4.752-10.778 9.95-.41 5.172 3.426 11.166 8.112 10.782 5.342-.438 6.959 2.755 9.506 6.021 3.361 4.313 7.285 8.201 11.121 12.122 2.195 2.242 4.696 4.187 6.853 6.082-3.676 6.074-7.401 11.789-10.67 17.753-3.291 6.005-5.831 12.354-7.063 19.077l1.207 1.205 27.308-12.296c23.828 24.947 50.979 46.164 85.347 58.019-.465-1.861-.58-3.174-1.107-4.291-4.18-8.855-7.303-18.49-12.93-26.32-9.096-12.656-19.651-24.296-29.994-36.008-5.156-5.84-11.207-10.888-17.016-16.451z"/><path fill-rule="evenodd" d="M142.374 118.875c5.81 5.563 11.861 10.611 17.017 16.45 10.343 11.712 20.898 23.352 29.994 36.008 5.626 7.83 8.75 17.465 12.93 26.32.527 1.117.642 2.43 1.107 4.291-34.368-11.855-61.52-33.072-85.347-58.019l-27.308 12.296-1.207-1.205c1.232-6.723 3.772-13.072 7.063-19.077 3.269-5.964 6.994-11.679 10.67-17.753-2.156-1.896-4.657-3.84-6.853-6.082-3.836-3.921-7.76-7.81-11.121-12.122-2.546-3.267-4.164-6.46-9.506-6.021-4.686.384-8.521-5.61-8.112-10.782.412-5.198 5.644-10.028 10.778-9.95 7.012.107 11.741 5.45 10.891 12.043-.132 1.021.533 2.563 1.348 3.225 7.7 6.254 15.513 12.37 23.924 19.024 10.145-7.996 22.238-15.042 37.053-18.549-2.316 10.875-7.198 19.979-13.321 29.903zm41.858 64.121c-17.458-23.805-37.369-45.341-58.63-65.955l-6.985 7.633c20.673 21.289 41.991 41.072 65.615 58.322z"/><path fill="none" d="M184.232 182.996c-23.624-17.25-44.942-37.033-65.615-58.322l6.985-7.633c21.261 20.613 41.171 42.15 58.63 65.955z"/></g></svg>