<svg xmlns="http://www.w3.org/2000/svg" width="224.936" height="224.935"><g fill="#EA8642"><path d="M6.325 44.994c26.848 26.493 53.42 53.263 80.144 79.883 1.495 1.489 3.544 2.422 5.334 3.614l-1.089 1.308-4.312 8.005-85.284-85.28c0 4.447.28 7.478-.062 10.437-.604 5.225 1.4 8.882 5.118 12.549 23.432 23.115 46.629 46.468 69.908 69.738 5.991 5.99 5.997 5.983 1.786 15.439l-76.75-76.76c0 3.287.205 5.767-.044 8.199-.45 4.386.856 7.654 4.291 10.694 5.719 5.063 10.914 10.714 16.334 16.114 16.639 16.574 33.24 33.186 49.993 49.643 1.384 1.36 4.122 2.749 5.69 2.288 11.032-3.242 22.215-6.287 32.736-10.82 5.291-2.278 7.943-1.666 11.702 2.114 26.767 26.926 58.071 46.668 94.199 58.601 1.901.628 3.811 1.234 5.716 1.852.456-.335.91-.671 1.366-1.005-4.307-11.587-8.033-23.431-13.046-34.702-9.407-21.147-24.815-37.996-40.9-54.211-4.608-4.646-9.496-9.015-14.227-13.484 7.428-12.917 12.127-25.644 14.701-39.212.614-3.239.043-5.151-2.219-7.402-22.068-21.964-44.022-44.042-66.012-66.084C96.992 2.096 89.406.908 81.877 4.251l75.507 75.239c-5.857 4.039-10.084 2.109-14.908-2.836-22.609-23.178-45.95-45.648-68.352-69.02C67.181.39 59.971 3.111 52.605 2.662l-.561 1.229c27.824 27.831 55.647 55.662 83.605 83.625-7.912 5.017-7.913 5.018-13.72-.79-26.168-26.171-52.622-52.063-78.31-78.694-6.73-6.977-13.601-5.282-21.396-4.314l58.544 58.453c-9.117 4.124-9.126 4.132-15.179-1.917C47.347 42.021 29.066 23.828 10.922 5.499 8.058 2.606 5.213 1.614 1.566 3.108c-1.394 4.77.17 8.098 3.592 11.456 17.27 16.948 34.108 34.338 51.523 51.131 4.864 4.691 7.444 8.913 4.048 15.272-.132.247-.471.383-1.451 1.144L2.214 24.35l-1.096.447c0 2.405.266 4.846-.053 7.208-.732 5.416 1.378 9.159 5.26 12.989zm62.65 37.343c.44-5.549 6.025-10.706 11.507-10.623 7.485.115 12.534 5.818 11.626 12.857-.141 1.09.569 2.736 1.439 3.442 8.221 6.677 16.561 13.207 25.541 20.311 10.83-8.537 23.741-16.059 39.558-19.803-2.472 11.609-7.684 21.329-14.221 31.923 6.202 5.938 12.663 11.329 18.167 17.562 11.042 12.504 22.311 24.931 32.021 38.442 6.007 8.359 9.341 18.646 13.804 28.1.563 1.192.685 2.594 1.182 4.581-36.691-12.657-65.678-35.308-91.116-61.941l-29.154 13.127-1.289-1.286c1.316-7.178 4.027-13.956 7.541-20.366 3.49-6.367 7.466-12.468 11.391-18.953-2.302-2.023-4.972-4.099-7.316-6.493-4.095-4.186-8.285-8.337-11.873-12.941-2.719-3.487-4.445-6.896-10.148-6.428-5.003.41-9.097-5.989-8.66-11.511z"/><path d="M189.113 188.9c-18.639-25.413-39.895-48.406-62.593-70.413l-7.458 8.149c22.072 22.728 44.831 43.848 70.051 62.264z"/></g></svg>