<svg xmlns="http://www.w3.org/2000/svg" width="224.936" height="224.935"><g fill-rule="evenodd" clip-rule="evenodd" fill="#ED7B2E"><path d="M39.827 23.704c1.837-1.921 3.982-4.598 4.276-4.407 5.852 3.777 9.182-1.488 13.034-3.69C95.99-6.612 144.65-4.199 180.028 23.498c37.884 29.658 51.806 69.069 41.339 115.96-9.705 43.467-46.813 76.707-91.187 83.819-46.573 7.465-93.563-16.028-116.035-58.012C-8.267 123.395-1.509 71.418 30.806 36.75c1.428-1.531 2.485-3.409 3.746-5.168l10.984 5.71-9.739 10.831 79.406 41.197c-1.554 5.65-4.302 4.844-7.979 2.922-24.854-12.988-49.788-25.821-74.63-38.669C8.256 81.016.875 138.872 38.144 179.939c36.861 40.614 98.614 44.727 139.825 9.404 41.821-35.848 47.648-97.326 12.978-140.037C154.052 3.856 93.762 4.503 60.755 27.424l73.95 38.331.248 2.104c-2.135.56-4.847 2.259-6.32 1.513-29.379-14.893-58.613-30.07-88.806-45.668z"/><path d="M88.692 138.537c18.696-22.718 36.868-45.006 55.365-67.021 2.498-2.973 6.36-5.388 10.07-6.642 10.567-3.566 21.383-6.399 33.545-9.941-4.05 13.777-7.596 26.493-11.66 39.042-.688 2.124-3.521 3.623-5.496 5.25-22.007 18.139-44.042 36.245-66.469 54.689l12.449 15.396-7.247 6.754-16.142-13.641c-6.579 6.864-12.821 13.482-19.191 19.971-2.919 2.977-10.246 2.574-12.618-1.423-2.069-3.486-6.518-7.541-1.231-12.264 3.485-3.114 6.561-6.681 9.987-9.862 3.245-3.014 6.709-5.794 10.409-8.958l-13.73-16.342 7.569-6.609 14.39 11.601z"/><path d="M95.999 115.402c-2.163.426-4.844 1.893-6.408 1.115-16.308-8.114-32.437-16.587-49.063-25.192l2.797-5.526 52.421 27.073c.083.843.167 1.688.253 2.53z"/></g></svg>