<svg xmlns="http://www.w3.org/2000/svg" width="25.281" height="24.477"><path d="M10.464 11.513l-.392 2.199c-.345 1.983-1.33 2.637-3.457 2.637h-3.99C.904 16.349 0 15.755 0 14.328c0-.237.036-.511.084-.795l.439-2.531C.915 8.794 1.948 8.01 4.098 8.01h3.956c1.71 0 2.661.345 2.661 1.746 0 .226-.036.486-.084.783H8.658c.011-.071.022-.178.022-.214 0-.476-.38-.678-1.424-.678h-2.91c-1.188 0-1.676.369-1.89 1.604l-.368 2.09a3.813 3.813 0 0 0-.059.582c0 .63.344.783 1.388.783H6.66c.985 0 1.306-.262 1.413-.854l.156-.878H4.977l.261-1.462 5.226.001zm.998 1.726h1.973l-.345 1.971h-1.973l.345-1.971zm.653-3.753h1.972l-.345 1.972h-1.973l.346-1.972zm12.898 2.027l-.393 2.199c-.345 1.983-1.33 2.637-3.457 2.637h-3.991c-1.722 0-2.625-.594-2.625-2.021 0-.237.036-.511.084-.795l.438-2.531c.393-2.209 1.426-2.992 3.574-2.992H22.6c1.71 0 2.66.345 2.66 1.746 0 .226-.035.486-.084.783h-1.971a1.94 1.94 0 0 0 .025-.214c0-.476-.381-.678-1.427-.678h-2.91c-1.188 0-1.676.369-1.889 1.604l-.369 2.09c-.036.226-.06.416-.06.582 0 .63.345.783 1.39.783h3.242c.985 0 1.306-.262 1.413-.854l.155-.878h-3.253l.261-1.462 5.23.001z"/></svg>