<svg xmlns="http://www.w3.org/2000/svg" width="25.281" height="24.477"><path d="M18.804 10.923l-.695 3.903c-.612 3.521-2.36 4.68-6.137 4.68H4.885c-3.056 0-4.66-1.052-4.66-3.584 0-.422.063-.907.148-1.412l.781-4.494c.695-3.922 2.53-5.312 6.347-5.312h7.024c3.035 0 4.723.612 4.723 3.099 0 .4-.063.863-.148 1.391h-3.501a3.3 3.3 0 0 0 .04-.381c0-.844-.674-1.202-2.528-1.202H7.945c-2.11 0-2.976.653-3.354 2.847l-.654 3.712a6.88 6.88 0 0 0-.105 1.034c0 1.117.611 1.391 2.465 1.391h5.757c1.75 0 2.319-.463 2.509-1.518l.276-1.559H9.062l.464-2.596 9.278.001zm1.772 3.064h3.503l-.612 3.501h-3.503l.612-3.501zm1.159-6.664h3.501l-.612 3.501h-3.503l.614-3.501z"/></svg>