<svg xmlns="http://www.w3.org/2000/svg" width="93.543" height="93.543"><path fill="#e1aa36" d="M10.645 36.518h6.796l20.669.131 6.937-18.047 2.125-6.015 2.122 6.147 6.372 18.176 20.669.392 6.795.132-5.52 3.66L60.763 52.21l5.945 18.308 1.982 6.145-5.521-3.792-16.706-11.246-16.847 10.854-5.662 3.53 2.123-6.014 6.512-18.047L16.167 40.31z"/><path fill="#de6723" d="M18.806 32.206h5.298l16.109.11 5.408-15.229 1.655-5.076 1.656 5.187 4.965 15.338 16.111.332 5.297.109L71 36.067l-13.13 9.38 4.634 15.449 1.545 5.187-4.303-3.202-13.021-9.488-13.132 9.159-4.413 2.977 1.655-5.074 5.076-15.229-12.801-9.82z"/><g fill-rule="evenodd" clip-rule="evenodd" fill="#82ac4e"><path d="M14.282 75.355V59.376c6.593-3.612 49.972-3.961 64.788-.495v15.863c-10.71-.682-21.473-1.745-32.253-1.948-10.815-.2-21.628.717-32.535 2.559z"/><path d="M.125 64.587h11.971v13.087c2.186-.264 3.977-.478 5.974-.72.051 1.146.095 2.142.15 3.42H.189l5.853-7.844C4.1 69.923 2.271 67.47.125 64.587zm75.394 15.826v-3.388l5.838.619c.457-4.399.058-8.686.184-13.107h11.876l-5.966 7.882 5.831 7.994H75.519z"/></g><path d="M34.742 71.163h-3.583V60.83H27.92V57.9h10.051v2.93h-3.229v10.333zm17.535-6.649c0 2.231-.548 3.928-1.642 5.089-1.095 1.161-2.698 1.742-4.808 1.742-2.081 0-3.675-.583-4.785-1.751-1.11-1.167-1.665-2.867-1.665-5.098 0-2.208.552-3.894 1.656-5.058 1.103-1.164 2.708-1.746 4.813-1.746 2.11 0 3.71.577 4.798 1.732 1.088 1.156 1.633 2.852 1.633 5.09zm-9.126 0c0 2.564.892 3.846 2.676 3.846.907 0 1.58-.312 2.018-.935.438-.623.658-1.593.658-2.912 0-1.325-.222-2.303-.667-2.935-.444-.632-1.108-.948-1.991-.948-1.796.001-2.694 1.295-2.694 3.884zm21.146-2.395c0 1.481-.437 2.626-1.311 3.433-.874.808-2.115 1.212-3.724 1.212h-1.006v4.399h-3.583V57.9h4.59c1.676 0 2.934.366 3.774 1.098.839.731 1.26 1.773 1.26 3.121zm-6.042 1.723h.653c.538 0 .966-.151 1.284-.454.317-.302.476-.72.476-1.252 0-.896-.496-1.343-1.487-1.343h-.925v3.049z" fill="#235870"/></svg>