<svg xmlns="http://www.w3.org/2000/svg" width="93.543" height="93.543"><g fill-rule="evenodd" clip-rule="evenodd" fill="#82ac4d"><path d="M71.308 59.061c.007-.025.01-.049.018-.074l-.018.009c-.028.031-.055.062-.083.091.028-.01.054-.017.083-.026z"/><path d="M80.754 47.631l1.444-9.766c4.764-1.533 5.383-2.438 4.681-7.197-3.018.558-4.982 2.191-5.589 5.555-.852-1.877-1.659-3.406-2.235-5.019-.336-.946-.508-2.043-.407-3.037.457-4.495-.961-6.388-6.135-7.757-.902 3.879-.362 7.034 3.405 9.313 1.275.771 1.998 2.456 2.974 3.724-2.326-.619-4.156-1.662-6.309-.449 1.001 4.168 3.324 6.044 7.523 4.901.885 4.116-.173 7.454-2.021 10.64.353-4.038-.538-7.384-4.916-8.984-1.541 1.678-1.158 3.635-1.036 5.425.198 2.907 1.261 3.813 4.795 4.632-1.048 3.115-3.508 4.742-6.412 6.242 2.258-4.296-.046-7.019-2.541-9.814-2.167 2.354-2.577 3.359-2.821 5.361-.34 2.775 1.467 4.497 3.597 6.647-3.953 1.408-7.354 2.621-10.679 3.802.663 2.822 2.891.87 3.958 1.793 2.144 4.998 3.791 5.767 9.513 4.132a29493.68 29493.68 0 0 1-4.766-6.556l4.528-2.224 8.442-9.347c-.167 1.739.753 2.54 2.358 2.854 3.767.731 6.26-1.168 7.236-5.558-2.955-.944-5.786-.319-8.587.687z"/></g><g fill-rule="evenodd" clip-rule="evenodd" fill="#82ab4d"><path d="M26.379 58.048c2.129-2.15 3.937-3.872 3.597-6.647-.244-2.002-.654-3.007-2.82-5.361-2.495 2.796-4.799 5.519-2.541 9.814-2.903-1.5-5.364-3.127-6.412-6.242 3.535-.818 4.598-1.725 4.796-4.632.122-1.79.503-3.747-1.036-5.425-4.378 1.601-5.269 4.946-4.917 8.984-1.849-3.186-2.906-6.523-2.021-10.64 4.2 1.143 6.523-.733 7.523-4.901-2.153-1.213-3.982-.17-6.309.449.977-1.268 1.699-2.952 2.974-3.724 3.767-2.279 4.307-5.435 3.404-9.313-5.173 1.369-6.591 3.262-6.134 7.757.101.994-.07 2.091-.408 3.037-.575 1.612-1.382 3.142-2.234 5.019-.607-3.363-2.571-4.997-5.589-5.555-.702 4.76-.083 5.664 4.681 7.197.491 3.313.967 6.54 1.444 9.766-2.8-1.006-5.632-1.631-8.588-.687.976 4.39 3.469 6.289 7.236 5.558 1.604-.313 2.525-1.114 2.358-2.854 2.814 3.114 5.627 6.231 8.441 9.347l4.528 2.224-4.765 6.556c5.722 1.635 7.369.866 9.513-4.132 1.068-.923 3.295 1.029 3.958-1.793-3.325-1.181-6.725-2.394-10.679-3.802z"/><path d="M14.023 62.868c2.104 1.475 4.246 2.554 6.806 1.286 2.043-1.011 3.711-2.41 2.994-5.094-5.031-1.618-6.618-1.031-9.8 3.808z"/><path d="M23.823 59.061c.029.01.054.017.083.025-.028-.029-.055-.06-.083-.091-.006-.004-.012-.006-.019-.009.009.026.012.049.019.075z"/></g><g fill-rule="evenodd" clip-rule="evenodd"><path d="M26.092 37.83c.014-.068.035-.136.042-.204.133-1.282.268-2.562.393-3.844.014-.151.071-.226.208-.286 1.078-.492 2.157-.979 3.226-1.488 1.295-.616 2.528-1.346 3.741-2.11.022-.013.045-.023.091-.051a40.206 40.206 0 0 0 4.849 10.642c-.156.053-.3.106-.447.15a37.263 37.263 0 0 0-4.88 1.842c-.695.319-1.394.632-2.087.956-.117.053-.195.048-.3-.026a966.75 966.75 0 0 0-3.286-2.317c-.025-.019-.056-.03-.084-.045l-1.466-3.219zm37.376-14.977c1.082 2.41 1.983 4.966 2.487 7.649.27 1.436.43 2.882.292 4.347-.064.694-.198 1.373-.512 2.006-.271.548-.67.951-1.24 1.198-.87.381-1.728.787-2.594 1.176a.535.535 0 0 1-.296.045c-3.13-.578-6.29-.788-9.468-.754-3.541.039-7.042.421-10.497 1.202-.148.034-.231.007-.319-.121-1.375-2.013-2.508-4.154-3.456-6.397a34.98 34.98 0 0 1-1.506-4.292c-.059-.215-.191-.452-.142-.64.044-.169.286-.291.454-.418a50.389 50.389 0 0 0 6.536-5.876c2.378-2.544 4.524-5.267 6.319-8.252.232-.387.506-.642.919-.812a34.756 34.756 0 0 0 2.11-.956c.646-.316 1.294-.324 1.961-.108.739.239 1.383.649 1.988 1.126 1.326 1.043 2.407 2.317 3.396 3.673 1.399 1.915 2.544 3.978 3.568 6.204zm-2.295.945c-.969-2.09-2.09-4.088-3.51-5.91-.858-1.102-1.792-2.131-2.943-2.938-.436-.306-.896-.572-1.423-.686-.503-.11-.801.004-1.012.472a5.022 5.022 0 0 0-.37 1.192c-.208 1.226-.097 2.45.093 3.669.321 2.045.926 4.011 1.703 5.927.999 2.466 2.231 4.804 3.821 6.943.864 1.164 1.813 2.252 2.975 3.132.492.374 1.011.704 1.62.854.559.139.845.005 1.106-.507.236-.462.333-.963.386-1.473.136-1.285.003-2.558-.225-3.822-.433-2.385-1.234-4.649-2.221-6.853zM38.486 42.271l1.146-.282c1.207-.293 2.414-.585 3.62-.882.135-.032.238-.023.358.069a4648.18 4648.18 0 0 0 7.87 5.98c.234.178.44.374.516.669.109.426-.018.784-.317 1.096-.949.989-1.896 1.983-2.844 2.975-.185.194-.368.39-.556.581-.512.52-1.195.496-1.653-.073-1.891-2.345-3.775-4.693-5.662-7.042-.782-.972-1.563-1.946-2.344-2.92-.037-.045-.072-.091-.134-.171z" fill="#e4e2d2"/><path d="M56.418 25.967c-.475-1.065-.857-2.15-.936-3.314-.026-.396.011-.81.087-1.201.075-.384.28-.461.641-.304.512.221.893.611 1.244 1.027.93 1.096 1.578 2.35 2.052 3.701.285.813.5 1.64.513 2.505.004.31-.037.627-.112.928-.087.351-.272.42-.607.287-.398-.158-.708-.441-1-.743-.817-.842-1.396-1.84-1.882-2.886z" fill="#f4b83b"/></g><g fill-rule="evenodd" clip-rule="evenodd" fill="#82ac4e"><path d="M14.407 73.945V57.966c6.593-3.612 49.972-3.961 64.788-.495v15.863c-10.71-.683-21.473-1.746-32.253-1.948-10.814-.198-21.628.718-32.535 2.559z"/><path d="M.251 63.178h11.971v13.086c2.186-.262 3.977-.478 5.974-.72.051 1.147.095 2.143.15 3.421H.315c2.089-2.799 3.973-5.322 5.853-7.844-1.942-2.607-3.772-5.06-5.917-7.943zm75.394 15.825v-3.388c1.907.202 3.696.393 5.838.618.457-4.397.058-8.685.184-13.106h11.876l-5.966 7.882 5.831 7.994H75.645z"/></g><path d="M20.486 68.39h-2.314v-6.674H16.08v-1.893h6.492v1.893h-2.086v6.674zm11.326-4.295c0 1.441-.354 2.537-1.061 3.287s-1.742 1.125-3.105 1.125c-1.344 0-2.374-.377-3.091-1.131s-1.075-1.852-1.075-3.293c0-1.426.356-2.515 1.069-3.267s1.749-1.128 3.108-1.128c1.363 0 2.396.373 3.1 1.119s1.055 1.842 1.055 3.288zm-5.895 0c0 1.656.576 2.484 1.729 2.484.586 0 1.021-.201 1.304-.604s.425-1.029.425-1.881c0-.855-.144-1.487-.431-1.896s-.716-.612-1.286-.612c-1.16.001-1.741.837-1.741 2.509zm13.659-1.547c0 .957-.282 1.696-.847 2.218s-1.366.782-2.405.782h-.65v2.842H33.36v-8.566h2.965c1.082 0 1.895.236 2.438.709s.813 1.144.813 2.015zm-3.903 1.113h.422c.348 0 .624-.098.829-.293s.308-.465.308-.809c0-.578-.32-.867-.961-.867h-.598v1.969zm14.602-1.113c0 .957-.282 1.696-.847 2.218s-1.366.782-2.405.782h-.65v2.842h-2.314v-8.566h2.965c1.082 0 1.895.236 2.438.709s.813 1.144.813 2.015zm-3.902 1.113h.422c.348 0 .624-.098.829-.293s.308-.465.308-.809c0-.578-.32-.867-.961-.867h-.598v1.969zm5.267 4.729v-8.566h2.326v8.566H51.64zm7.992-6.791c-.551 0-.98.226-1.289.677s-.463 1.073-.463 1.866c0 1.648.627 2.473 1.881 2.473.379 0 .746-.053 1.102-.158s.713-.232 1.072-.381v1.957c-.715.316-1.523.475-2.426.475-1.293 0-2.284-.375-2.974-1.125s-1.034-1.834-1.034-3.252c0-.887.167-1.666.501-2.338s.814-1.188 1.441-1.55 1.364-.542 2.212-.542a6.08 6.08 0 0 1 2.654.604l-.709 1.822c-.316-.148-.633-.273-.949-.375s-.655-.153-1.019-.153zm11.291 6.791H68.31l-1.693-3.275-.686.41v2.865h-2.326v-8.566h2.326v3.721c.117-.23.354-.596.709-1.096l1.799-2.625h2.531l-2.701 3.838 2.654 4.728zm6.528-2.602c0 .531-.135 1.003-.404 1.415s-.658.732-1.166.961-1.104.343-1.787.343c-.57 0-1.049-.04-1.436-.12s-.789-.22-1.207-.419v-2.063c.441.227.9.403 1.377.53s.914.19 1.313.19c.344 0 .596-.06.756-.179s.24-.272.24-.46c0-.117-.032-.22-.097-.308s-.168-.177-.311-.267-.522-.273-1.14-.551c-.559-.254-.978-.5-1.257-.738s-.486-.512-.621-.82-.202-.674-.202-1.096c0-.789.287-1.404.861-1.846s1.363-.662 2.367-.662c.887 0 1.791.205 2.713.615l-.709 1.787c-.801-.367-1.492-.551-2.074-.551-.301 0-.52.053-.656.158s-.205.236-.205.393c0 .168.087.318.261.451s.646.375 1.415.727c.738.332 1.251.688 1.538 1.069s.431.863.431 1.441z" fill="#235870"/></svg>