<svg xmlns="http://www.w3.org/2000/svg" width="93.543" height="93.543"><g fill-rule="evenodd" clip-rule="evenodd" fill="#e1aa36"><path d="M67.317 58.475c.007-.025.01-.047.017-.074l-.018.009-.08.088.081-.023z"/><path d="M70.229 63.429c2.491 1.233 4.574.184 6.621-1.25-3.094-4.708-4.639-5.278-9.534-3.704-.697 2.61.925 3.972 2.913 4.954z"/><path d="M76.506 47.355l1.405-9.502c4.634-1.491 5.236-2.37 4.553-7-2.936.543-4.847 2.132-5.437 5.405-.83-1.827-1.614-3.315-2.174-4.882-.328-.921-.495-1.99-.396-2.957.445-4.372-.935-6.212-5.968-7.544-.877 3.772-.353 6.843 3.313 9.061 1.24.75 1.943 2.39 2.893 3.621-2.263-.601-4.042-1.616-6.137-.436.973 4.054 3.233 5.878 7.318 4.766.861 4.005-.168 7.253-1.966 10.351.343-3.926-.524-7.183-4.782-8.739-1.499 1.63-1.127 3.534-1.008 5.275.192 2.829 1.227 3.71 4.665 4.508-1.02 3.031-3.413 4.612-6.237 6.072 2.197-4.179-.045-6.827-2.471-9.548-2.108 2.292-2.507 3.269-2.745 5.215-.331 2.701 1.427 4.374 3.5 6.468-3.846 1.37-7.156 2.55-10.388 3.7.645 2.745 2.812.844 3.851 1.742 2.084 4.863 3.688 5.611 9.254 4.02-1.587-2.18-3.071-4.223-4.637-6.376l4.405-2.164 8.212-9.093c-.163 1.692.734 2.471 2.293 2.776 3.665.711 6.09-1.136 7.04-5.407-2.877-.919-5.632-.31-8.356.668z"/></g><g fill-rule="evenodd" clip-rule="evenodd" fill="#e1aa36"><path d="M27.783 57.489c2.071-2.094 3.83-3.767 3.499-6.468-.238-1.947-.636-2.923-2.744-5.215-2.427 2.721-4.668 5.369-2.471 9.548-2.825-1.459-5.218-3.041-6.238-6.072 3.439-.798 4.473-1.679 4.666-4.508.119-1.741.491-3.646-1.008-5.275-4.259 1.556-5.125 4.813-4.782 8.739-1.799-3.098-2.827-6.346-1.967-10.351 4.085 1.112 6.345-.712 7.319-4.766-2.095-1.181-3.875-.165-6.137.436.949-1.231 1.652-2.871 2.894-3.621 3.665-2.217 4.189-5.289 3.312-9.061-5.033 1.332-6.413 3.172-5.968 7.544.099.967-.067 2.036-.396 2.957-.559 1.567-1.345 3.055-2.174 4.882-.59-3.272-2.5-4.861-5.437-5.405-.683 4.63-.081 5.51 4.554 7l1.405 9.502c-2.724-.978-5.479-1.588-8.356-.669.95 4.271 3.375 6.118 7.04 5.407 1.561-.305 2.457-1.084 2.293-2.776L25.3 58.41c1.489.73 2.976 1.462 4.404 2.164-1.564 2.153-3.048 4.196-4.635 6.376 5.566 1.591 7.168.844 9.254-4.02 1.039-.897 3.206 1.003 3.851-1.742-3.237-1.149-6.546-2.329-10.391-3.699z"/><path d="M15.762 62.179c2.047 1.434 4.13 2.483 6.622 1.25 1.987-.982 3.61-2.344 2.912-4.955-4.895-1.574-6.439-1.003-9.534 3.705z"/><path d="M25.296 58.475l.082.024-.081-.088a.15.15 0 0 0-.018-.009c.007.025.01.048.017.073z"/></g><path d="M44.289 54.186a29.116 29.116 0 0 1-10.348-2.403V43.64c1.896.965 3.956 1.771 6.179 2.417s4.178.969 5.862.969c1.389 0 2.407-.169 3.053-.503.646-.334.969-.895.969-1.68 0-.539-.233-.997-.699-1.374-.466-.375-1.243-.8-2.33-1.274-1.087-.475-2.554-1.046-4.402-1.716-2.077-.77-3.752-1.632-5.027-2.587-1.275-.958-2.204-2.026-2.784-3.214-.579-1.185-.87-2.661-.87-4.427 0-2.697.866-4.806 2.599-6.326 1.733-1.521 4.333-2.461 7.798-2.821v-3.359h5.077v3.31c3.253.18 6.532.981 9.834 2.404l-2.917 6.991c-3.418-1.539-6.499-2.306-9.246-2.306-1.308 0-2.228.158-2.759.478-.531.319-.797.788-.797 1.409 0 .54.192.986.577 1.336.384.353 1.049.745 1.999 1.178.947.433 2.263.936 3.948 1.508 3.417 1.21 5.869 2.586 7.357 4.132 1.487 1.545 2.231 3.534 2.231 5.972 0 2.745-.871 4.978-2.612 6.694-1.741 1.717-4.28 2.779-7.615 3.188v4.732h-5.077v-4.585z" fill="#e4e2d2"/><g fill-rule="evenodd" clip-rule="evenodd" fill="#82ac4e"><path d="M93.543 67.184c-4.82.425-10.095.802-14.544 1.196-.502-4.763.054-9.232-.453-14.042-2.786.365-9.601.409-10.04 1.107-.011 1.274.703 1.843 8.02 1.739.455 4.915-.102 9.998.412 15.542-2.297.361-2.727.375-5.009.358-9.457-.061-12.884.049-25.122-.987-10.464-.885-19.833-1.512-21.393-1.387-3.177.252-6.359.434-10.035.678-.486-5.011.05-10.068-.487-15.6 2.641-.354 4.007-.919 6.403-.926 1.706-.006 28.517 1.156 46.423 2.228 1.934.115-2.454-2.028-.264-2.784-.032-.734 14.845-2.02 20.172-2.502 1.097-.103 2.209-.016 3.875-.016l-6.479 7.394c2.749 2.578 5.41 5.079 8.521 8.002z"/><path d="M13.226 74.315c3.119-.39 5.854-.759 8.599-1.067a27.789 27.789 0 0 1 3.388-.186c1.189.013 1.262.8.916 2.119L1.283 77.495l6.933-7.924-8.426-7.87c4.364-.372 9.13-.689 13.168-1.03.431 4.538-.184 8.885.268 13.644z"/></g><path d="M20.677 59.505h2.832c1.103 0 1.922.165 2.458.493.534.327.802.836.802 1.53 0 .455-.117.845-.35 1.165a1.564 1.564 0 0 1-.922.622v.055c.504.134.869.355 1.094.667.226.31.338.713.338 1.21 0 .738-.277 1.319-.83 1.743-.555.423-1.307.635-2.263.635h-3.16v-8.12zm2.194 3.115h.661c.314 0 .558-.065.73-.194.173-.129.258-.321.258-.577 0-.455-.344-.684-1.033-.684h-.616v1.455zm0 1.606v1.707h.771c.686 0 1.028-.29 1.028-.869 0-.268-.092-.476-.275-.621-.183-.145-.448-.217-.796-.217h-.728zm10.29 3.399h-4.82v-8.119h4.82v1.761h-2.627v1.276h2.433v1.761h-2.433v1.532h2.627v1.789zm6.731-2.466c0 .503-.128.952-.384 1.341-.255.392-.624.695-1.105.912-.481.215-1.046.322-1.693.322-.541 0-.994-.036-1.361-.112a5.015 5.015 0 0 1-1.144-.399V65.27a6.57 6.57 0 0 0 1.305.504c.452.119.867.179 1.245.179.326 0 .564-.056.716-.169a.526.526 0 0 0 .137-.729 1.101 1.101 0 0 0-.294-.253c-.136-.086-.496-.259-1.081-.522-.53-.24-.927-.473-1.191-.7a2.13 2.13 0 0 1-.588-.776c-.128-.293-.191-.639-.191-1.039 0-.747.271-1.331.815-1.749.544-.419 1.292-.627 2.244-.627.84 0 1.698.194 2.571.582l-.672 1.695c-.759-.35-1.415-.521-1.966-.521-.285 0-.492.049-.621.149a.455.455 0 0 0-.195.373c0 .159.083.301.248.429.164.124.611.353 1.34.688.7.315 1.186.653 1.458 1.015.27.359.407.811.407 1.36zm4.836 2.466h-2.193V61.3h-1.984v-1.794h6.153V61.3h-1.977v6.325zm6.093-8.12h2.832c1.103 0 1.922.165 2.458.493.535.327.802.836.802 1.53 0 .455-.116.845-.349 1.165a1.566 1.566 0 0 1-.923.622v.055c.504.134.869.355 1.095.667.226.31.338.713.338 1.21 0 .738-.276 1.319-.831 1.743-.553.423-1.307.635-2.263.635h-3.159v-8.12zm2.193 3.115h.661c.314 0 .559-.065.73-.194.172-.129.258-.321.258-.577 0-.455-.344-.684-1.032-.684h-.617v1.455zm0 1.606v1.707h.771c.686 0 1.028-.29 1.028-.869 0-.268-.092-.476-.275-.621-.184-.145-.449-.217-.797-.217h-.727zm10.29 3.399h-4.821v-8.119h4.821v1.761h-2.627v1.276h2.432v1.761h-2.432v1.532h2.627v1.789zm5.003 0h-2.193V61.3h-1.983v-1.794h6.153V61.3h-1.977v6.325z" fill="#235870"/></svg>