<svg xmlns="http://www.w3.org/2000/svg" width="93.543" height="93.543"><g fill-rule="evenodd" clip-rule="evenodd"><path d="M51.91 49.25c.441.159.577.263.684.238 3.518-.817 4.912 1.165 5.661 4.167.33 1.32.935 2.573 1.499 4.078H34.258c1.012-2.617 1.958-5.171 3.02-7.678.133-.316.854-.502 1.317-.535 1.1-.076 2.207-.024 3.534-.024 0-2.473.066-4.706-.056-6.929-.023-.467-.669-1.016-1.158-1.324-9.075-5.715-13.171-14.339-14.438-24.622-.047-.378-.006-.768-.006-1.293h41.063c.028 4.73-1.251 9.031-3.244 13.138-2.606 5.372-6.077 9.997-11.451 12.947-.425.232-.866.865-.886 1.329-.095 2.164-.043 4.333-.043 6.508zm12.536 9.887v14.202H29.693V59.137h34.753zm-26.39 9.77H56v-5.33H38.056v5.33z" fill="#e6e5d4"/><path d="M72.97 21.965h-4.462c.205-1.104.374-2.027.567-3.053h7.689c.752 8.649-6.821 19.757-19.087 20.304 1.59-1.227 3.033-2.748 4.798-3.624 5.645-2.802 9.088-7.17 10.495-13.627zM36.362 39.247c-8.982.369-19.569-8.794-19.159-20.315h7.755l.625 2.993h-4.285c.147 2.961 1.337 5.328 2.862 7.526 1.958 2.816 4.631 4.754 7.705 6.291 1.565.783 2.826 2.172 4.497 3.505z" fill="#e8b038"/></g><g fill-rule="evenodd" clip-rule="evenodd" fill="#82ac4e"><path d="M14.16 71.868V55.594c6.714-3.678 50.891-4.033 65.979-.503v16.155c-10.908-.694-21.867-1.778-32.846-1.985-11.014-.202-22.026.731-33.133 2.607z"/><path d="M-.258 60.902h12.192V74.23c2.228-.269 4.05-.486 6.084-.733l.152 3.483H-.193c2.128-2.85 4.047-5.42 5.959-7.988-1.975-2.656-3.838-5.154-6.024-8.09zm76.78 16.118v-3.451c1.943.205 3.764.4 5.946.63.466-4.479.059-8.845.188-13.348H94.75l-6.076 8.028c1.914 2.622 3.808 5.22 5.938 8.141h-18.09z"/></g><path d="M30.077 66.566H27.47v-9.799h5.791v2.125h-3.184v1.87h2.936v2.125h-2.936v3.679zm4.792 0v-9.799h2.661v9.799h-2.661zm14.109 0h-3.472l-3.579-6.903h-.061c.085 1.085.127 1.915.127 2.486v4.417h-2.346v-9.799h3.458l3.565 6.81h.04a39.108 39.108 0 0 1-.094-2.379v-4.43h2.359v9.798zm8.129 0l-.482-1.836h-3.184l-.496 1.836h-2.909l3.197-9.839h3.532l3.237 9.839h-2.895zm-1.031-4.008l-.422-1.609c-.099-.357-.218-.82-.359-1.387a22.485 22.485 0 0 1-.278-1.22 29.6 29.6 0 0 1-.238 1.126c-.118.522-.381 1.553-.787 3.09h2.084zm4.986 4.008v-9.799h2.647v7.661h3.773v2.138h-6.42z" fill="#235870"/></svg>