<svg xmlns="http://www.w3.org/2000/svg" width="93.543" height="93.543"><g fill-rule="evenodd" clip-rule="evenodd" fill="#82AC4E"><path d="M11.725 56.669c.085-3.407 1.599-5.618 4.281-7.021 1.67-.875 2.785-.365 3.353 1.496.941 3.109-.16 6.216-3.049 7.741-1.774.941-3.655 1.761-5.579 2.33-3.477 1.02-6.561-.554-8.06-3.807-.655-1.417-.646-2.219 1.225-2.577 3.458-.655 5.119-.41 7.829 1.838zM2.854 29.893c4.258.49 5.951 2.039 7.2 6.585 2.544-2.94 5.566-4.068 9.253-2.771.146 4.106-1.973 6.78-5.885 7.073-3.884.29-7.5-.788-10.191-3.712-1.914-2.085-1.385-4.614-.377-7.175zm30.879 44.954c-2.168-2.586-2.724-5.05-1.497-8.32 3.093-.195 5.559 1.471 6.546 4.421 1.229 3.671-.255 8.976-3.152 11.263-2.056 1.627-6.275 2.012-7.183.653-.681-1.022.985-4.152 2.934-5.707.86-.684 1.581-1.541 2.352-2.31zM16.8 76.659c1.845-3.645 3.762-4.812 8.44-5.05-1.543-2.423-1.933-4.882-.743-7.468 1.117-2.425 1.653-2.563 3.65-.704 2.585 2.407 3.266 5.304 1.625 8.463-1.377 2.646-2.563 5.502-5.936 6.497-2.822.833-4.968-.064-7.036-1.738zM9.479 46.903c1.066-3.228 3.185-4.811 5.918-5.625 1.542-.46 2.541-.104 2.556 1.834.018 3.341-.781 5.724-5.182 6.979-6.404 1.826-10.227.631-12.028-4.377-.908-2.536-.382-3.243 2.294-3.17 2.853.078 4.766 1.636 6.442 4.359zm7.897 18.523c-.605-4.487.013-6.135 3.183-9.082 4.491 3.133 4.465 8.506-.059 11.586-1.159.788-2.274 1.653-3.479 2.364-2.802 1.658-5.825 1.156-8.025-1.253-1.461-1.6-1.277-2.679.717-3.541 2.423-1.05 4.912-1.512 7.663-.074z"/><path d="M10.471 33.851c-2.948-4.319-2.328-9.018 1.282-11.236 1.335-.815 2.043-.553 2.763.78 2.376 4.405.98 8.201-4.045 10.456z"/></g><g fill-rule="evenodd" clip-rule="evenodd" fill="#82AC4E"><path d="M82.156 56.669c-.085-3.407-1.599-5.618-4.281-7.021-1.67-.875-2.785-.365-3.353 1.496-.941 3.109.16 6.216 3.049 7.741 1.774.941 3.655 1.761 5.579 2.33 3.477 1.02 6.561-.554 8.06-3.807.655-1.417.646-2.219-1.225-2.577-3.458-.655-5.119-.41-7.829 1.838zm8.871-26.776c-4.258.49-5.951 2.039-7.2 6.585-2.544-2.94-5.565-4.068-9.253-2.771-.146 4.106 1.973 6.78 5.885 7.073 3.884.29 7.5-.788 10.191-3.712 1.913-2.085 1.385-4.614.377-7.175zm-30.88 44.954c2.168-2.586 2.724-5.05 1.497-8.32-3.093-.195-5.559 1.471-6.546 4.421-1.229 3.671.255 8.976 3.152 11.263 2.056 1.627 6.275 2.012 7.183.653.681-1.022-.985-4.152-2.934-5.707-.859-.684-1.58-1.541-2.352-2.31zm16.934 1.812c-1.845-3.645-3.762-4.812-8.44-5.05 1.543-2.423 1.933-4.882.743-7.468-1.117-2.425-1.653-2.563-3.65-.704-2.585 2.407-3.266 5.304-1.625 8.463 1.377 2.646 2.563 5.502 5.936 6.497 2.822.833 4.968-.064 7.036-1.738zm7.32-29.756c-1.066-3.228-3.185-4.811-5.918-5.625-1.542-.46-2.541-.104-2.556 1.834-.018 3.341.781 5.724 5.182 6.979 6.404 1.826 10.227.631 12.028-4.377.908-2.536.382-3.243-2.294-3.17-2.852.078-4.765 1.636-6.442 4.359zm-7.896 18.523c.605-4.487-.013-6.135-3.183-9.082-4.491 3.133-4.465 8.506.059 11.586 1.159.788 2.274 1.653 3.479 2.364 2.802 1.658 5.825 1.156 8.025-1.253 1.461-1.6 1.277-2.679-.717-3.541-2.423-1.05-4.912-1.512-7.663-.074z"/><path d="M83.41 33.851c2.948-4.319 2.328-9.018-1.282-11.236-1.335-.815-2.043-.553-2.763.78-2.376 4.405-.98 8.201 4.045 10.456z"/></g><path d="M73.039 82.607c-.714-.394-1.433-.783-2.144-1.184-.096-.054-.177-.143-.252-.225-2.385-2.473-4.874-4.842-7.287-7.286-2.572-2.604-5.173-5.182-7.765-7.765-1.008-1.005-2.029-1.996-3.023-2.971l6.685-6.67c1.008 1.016 2.044 2.071 3.091 3.118 4.531 4.53 9.066 9.057 13.593 13.593.688.688 1.434 1.346 1.999 2.128 1.192 1.654.935 3.712-.523 5.296-.843.912-1.795 1.646-3.018 1.965l-1.356.001zm-8.786-12.526a1.71 1.71 0 0 0 1.69-1.744c-.011-.938-.817-1.71-1.758-1.685-.918.022-1.671.8-1.66 1.716a1.719 1.719 0 0 0 1.728 1.713zm6.989 3.603a1.674 1.674 0 0 0-1.662-1.699 1.673 1.673 0 0 0-1.733 1.686 1.67 1.67 0 0 0 1.713 1.707c.943-.009 1.671-.742 1.682-1.694zM57.235 63.079c.014.967.714 1.667 1.682 1.681.969.014 1.714-.737 1.705-1.716a1.678 1.678 0 0 0-1.686-1.686 1.67 1.67 0 0 0-1.701 1.721zM19.213 82.607c-1.114-.358-1.996-1.05-2.815-1.87-1.767-1.771-1.812-4.311-.054-6.074 1.008-1.013 2.019-2.026 3.031-3.037l14.792-14.782c.117-.118.24-.227.341-.319l6.68 6.705c-.645.601-1.372 1.245-2.061 1.931-3.01 2.989-6.005 5.99-9.005 8.989-1.938 1.938-3.841 3.912-5.831 5.795-.439.417-.846.853-1.254 1.295-.645.691-1.481 1.067-2.357 1.368l-1.467-.001zm11.98-14.26c-.005-.914-.77-1.68-1.688-1.694a1.717 1.717 0 0 0-1.729 1.707 1.713 1.713 0 0 0 1.713 1.722 1.725 1.725 0 0 0 1.704-1.735zm-5.321 5.337a1.67 1.67 0 0 0-1.698-1.699c-.949.002-1.672.707-1.697 1.653a1.685 1.685 0 0 0 1.677 1.739c.96.019 1.713-.725 1.718-1.693zm10.615-10.646c-.017-.957-.736-1.671-1.69-1.677a1.676 1.676 0 0 0-1.702 1.722c.022.991.772 1.706 1.746 1.67.969-.035 1.663-.758 1.646-1.715zm7.286-5.243c-.834-.876-1.657-1.746-2.491-2.608a69.08 69.08 0 0 0-1.716-1.708c-.266-.252-.319-.428-.039-.735 2.796-3.065 5.581-6.142 8.364-9.224 3.622-4.015 7.235-8.04 10.86-12.055 2.377-2.635 4.775-5.253 7.155-7.886 3.361-3.722 6.715-7.449 10.074-11.172.084-.095.182-.177.336-.322.039.209.081.346.09.486.12 2.403.249 4.806.344 7.211a1.19 1.19 0 0 1-.294.786 2565.375 2565.375 0 0 1-9.92 10.396c-2.897 3.023-5.806 6.035-8.703 9.059-2.394 2.494-4.775 4.996-7.16 7.499-.025.024-.034.063.027.176l26.212-25.095c.018 1.03.303 1.842-.56 2.679-4.075 3.974-8.064 8.035-12.087 12.062-6.682 6.688-13.369 13.374-20.054 20.06-.102.106-.219.199-.438.391zm-1.29-11.112c-.79-.736-1.573-1.408-2.287-2.147-2.251-2.32-4.471-4.666-6.704-7.004-4.291-4.491-8.586-8.983-12.882-13.474-1.104-1.153-2.226-2.287-3.31-3.456-.192-.205-.341-.551-.33-.825.09-2.424.222-4.846.342-7.267.006-.108.039-.215.093-.51.296.337.506.582.719.82 2.827 3.141 5.649 6.284 8.481 9.419 3.799 4.208 7.605 8.409 11.407 12.615 2.443 2.699 4.888 5.399 7.317 8.112.092.104.132.41.053.499-.965 1.098-1.952 2.176-2.899 3.218zM16.789 22.59a3656.01 3656.01 0 0 1 3.364 3.22c4.188 4.016 8.37 8.033 12.561 12.044 3.034 2.908 6.077 5.812 9.125 8.706.306.291.39.489.045.812-.395.369-.738.792-1.131 1.216-.134-.108-.257-.19-.355-.291-7.695-7.69-15.385-15.389-23.091-23.069-.453-.451-.699-.888-.582-1.525.055-.31.039-.63.064-1.113zM46.32 63.1l-1.113 1.165c-3.956-3.956-7.908-7.905-11.892-11.886l1.189-1.101c3.915 3.915 7.873 7.876 11.816 11.822zm12.958-11.874l1.05 1.14c-3.933 3.921-7.889 7.862-11.869 11.832-.276-.328-.654-.775-.987-1.165 3.848-3.849 7.809-7.808 11.806-11.807zm-6.332.168c.468.51.91.967 1.315 1.454.082.098.099.382.021.461-1.442 1.491-2.9 2.967-4.331 4.417l-1.693-1.599c1.573-1.59 3.11-3.141 4.688-4.733z" fill-rule="evenodd" clip-rule="evenodd" fill="#E4E2D2"/></svg>