<svg xmlns="http://www.w3.org/2000/svg" width="93.543" height="93.543"><path fill-rule="evenodd" clip-rule="evenodd" fill="#82AC4D" d="M60.875 72.344h25.752c.631 4.48.478 8.585.126 12.909H7.133c-.831-3.482-.985-16.323-.223-22.535 4.057-.211 8.231-.063 12.396-.087 4.215-.025 8.429-.006 13.203-.006V48.82H60.41c.96 3.787.32 7.685.439 11.528.117 3.745.026 7.493.026 11.996z"/><path fill-rule="evenodd" clip-rule="evenodd" fill="#E6E5D4" d="M30.679 53.27v6.136H6.942c4.729-3.008 8.232-6.885 14.088-6.198 3.053.355 6.187.062 9.649.062zm32.106 16.039v-5.322c.939-.131 1.964-.376 2.995-.402 2.499-.061 5.041.256 7.5-.078 5.382-.734 9.184 1.663 12.657 5.803l-23.152-.001zm-2.736-23.613H33.442c2.392-2.717 4.725-4.246 8.139-4.01a66.32 66.32 0 0 0 9.34-.005c3.517-.252 6.357.784 9.128 4.015z"/><path fill-rule="evenodd" clip-rule="evenodd" fill="#F4B83B" d="M27.387 49.566H16.64c.454-4.263 4.877-5.206 6.405-8.46-.823-1.093-1.711-1.407-2.628-.286-1.221 1.49-2.349 1.001-3.576.137 1.204-2.846 2.422-3.743 4.985-3.629 1.801.079 3.411.611 4.174 2.425.827 1.968-.033 3.581-3.6 6.746 1.073.158 2.009.082 2.705.457.661.357 1.073 1.177 2.282 2.61zm21.169-28.14v15.69c-1.223.066-2.329.126-3.861.211V27.103c-1.571.358-2.711.62-4.216.965 0-1.009-.208-2.264.034-2.36 2.724-1.062 3.919-4.943 8.043-4.282zm18.215 35.31c2.484-.521 2.484-.521 4.814.997 1.642-2.14 1.642-2.14-1.266-4.17l1.925-3.267c-.573-.3-.922-.616-1.079-.539-1.331.65-2.547 2.062-4.368.119.547-1.047 1.31-2.216 2.805-2.256 1.671-.049 3.374.2 5.024.523.458.088 1.167.974 1.093 1.372-.449 2.438.511 4.682.68 7 .131 1.755-1.491 2.975-3.375 3.371-3.013.635-4.585-.147-6.253-3.15zM33.928 13.733c1.372-.037 3.832 2.234 3.767 3.613-.022.548-.388 1.209-.804 1.592-.975.892-2.629.207-3.85-1.527-.786-1.118-1.057-2.269.064-3.344.205-.194.558-.23.823-.334zm26.052 0c-1.368-.037-3.83 2.234-3.766 3.613.024.548.391 1.209.809 1.592.973.892 2.627.207 3.849-1.527.786-1.118 1.055-2.269-.064-3.344-.205-.194-.559-.23-.828-.334zm-11.226-1.971c-.104.641-.116 1.279-.321 1.85-.37 1.04-1.878 1.408-2.729.731-1.305-1.029-1.337-4.376-.057-5.483.815-.704 2.312-.402 2.705.646.263.705.277 1.505.402 2.256z"/></svg>