<svg xmlns="http://www.w3.org/2000/svg" width="93.543" height="93.543"><path d="M55.232 39.691c1.847.227 3.692.439 5.536.686a56.833 56.833 0 0 1 17.254 5.171c2.961 1.428 4.029 4.834 2.481 7.745-.743 1.394-1.739 2.557-3.104 3.366-.674.398-.942.963-1.059 1.732-.217 1.448-.453 2.91-.878 4.306-.527 1.737-1.766 2.932-3.476 3.557-1.151.42-1.823 1.16-2.031 2.372-.492 2.863-2.176 4.856-4.731 6.08-1.401.67-2.399 1.591-3.053 3.009a6.746 6.746 0 0 1-2.664 2.978c-1.346.816-2.781 1.046-4.314.688-5.775-1.353-11.274-3.509-16.704-5.839-4.056-1.739-8.061-3.592-12.096-5.374-.424-.187-.568-.41-.566-.873.013-9.009.016-18.02-.005-27.03-.001-.526.202-.703.646-.871 4.784-1.793 9.276-4.113 13.219-7.413 4.707-3.938 8.07-8.866 10.589-14.408.699-1.538 1.303-3.12 1.937-4.687.354-.875.599-1.03 1.499-.869 3.922.703 6.021 3.109 6.143 7.086.103 3.408-.701 6.674-1.7 9.889-.901 2.899-1.929 5.758-2.923 8.699zM22.397 69.292c-2.085 0-4.117.008-6.149-.017-.144-.001-.376-.226-.414-.384-1.195-4.928-1.983-9.905-1.719-15.002.193-3.686.826-7.305 1.668-10.891.074-.319.088-.617.553-.613 1.938.021 3.878.012 5.816.018.068 0 .136.04.245.075v26.814z" fill-rule="evenodd" clip-rule="evenodd" fill="#579da8"/><path d="M52.207 55.065l-.734 4.122c-.646 3.72-2.495 4.945-6.482 4.945h-7.484c-3.23 0-4.924-1.114-4.924-3.787 0-.445.067-.958.156-1.492l.823-4.745c.735-4.144 2.675-5.613 6.705-5.613h13.086c0 .789-.683 3.074-.683 3.074H40.735c-2.228 0-3.141.69-3.542 3.007l-.691 3.92c-.066.424-.11.78-.11 1.092 0 1.181.645 1.47 2.605 1.47h6.083c1.849 0 2.449-.49 2.65-1.604l.289-1.648h-6.103l.489-2.74h9.802z" fill="#f1f1e0"/><path d="M68.317 48.494l-.536 3.074h-6.526l-2.183 12.385h-3.698l2.184-12.385h-6.461l.535-3.074h16.685z" fill="#f1f1e0"/></svg>