<?xml version="1.0" encoding="iso-8859-1"?>
<!-- Generator: Adobe Illustrator 16.0.0, SVG Export Plug-In . SVG Version: 6.00 Build 0)  -->
<!DOCTYPE svg PUBLIC "-//W3C//DTD SVG 1.1//EN" "http://www.w3.org/Graphics/SVG/1.1/DTD/svg11.dtd">
<svg version="1.1" id="&#x421;&#x43B;&#x43E;&#x439;_1"
	 xmlns="http://www.w3.org/2000/svg" xmlns:xlink="http://www.w3.org/1999/xlink" x="0px" y="0px" width="93.543px"
	 height="93.543px" viewBox="0 0 93.543 93.543" style="enable-background:new 0 0 93.543 93.543;" xml:space="preserve">
<polygon style="fill:#E1AA36;" points="10.529,38.953 17.325,38.953 37.994,39.083 44.931,21.037 47.056,15.021 49.178,21.168 
	55.549,39.345 76.219,39.736 83.014,39.868 77.494,43.529 60.646,54.645 66.592,72.952 68.574,79.098 63.053,75.306 46.347,64.059 
	29.5,74.914 23.837,78.444 25.96,72.429 32.473,54.383 16.051,42.745 "/>
<polygon style="fill:#DE6723;" points="18.69,34.64 23.987,34.64 40.097,34.75 45.505,19.522 47.16,14.446 48.816,19.632 
	53.781,34.971 69.892,35.302 75.188,35.412 70.884,38.502 57.754,47.881 62.388,63.331 63.933,68.517 59.629,65.316 46.608,55.828 
	33.477,64.986 29.063,67.964 30.719,62.89 35.795,47.66 22.994,37.84 "/>
</svg>
