<?xml version="1.0" encoding="iso-8859-1"?>
<!-- Generator: Adobe Illustrator 16.0.0, SVG Export Plug-In . SVG Version: 6.00 Build 0)  -->
<!DOCTYPE svg PUBLIC "-//W3C//DTD SVG 1.1//EN" "http://www.w3.org/Graphics/SVG/1.1/DTD/svg11.dtd">
<svg version="1.1" id="&#x421;&#x43B;&#x43E;&#x439;_1"
	 xmlns="http://www.w3.org/2000/svg" xmlns:xlink="http://www.w3.org/1999/xlink" x="0px" y="0px" width="93.543px"
	 height="93.543px" viewBox="0 0 93.543 93.543" style="enable-background:new 0 0 93.543 93.543;" xml:space="preserve">
<g>
	<path style="fill-rule:evenodd;clip-rule:evenodd;fill:#82AB4D;" d="M75.867,73.566c2.898,1.434,5.322,0.213,7.703-1.455
		c-3.6-5.479-5.397-6.142-11.092-4.312C71.667,70.838,73.555,72.422,75.867,73.566z"/>
	<path style="fill-rule:evenodd;clip-rule:evenodd;fill:#82AB4D;" d="M72.479,67.8c0.007-0.029,0.012-0.054,0.021-0.085
		c-0.007,0.005-0.014,0.008-0.021,0.013c-0.031,0.033-0.063,0.069-0.094,0.103C72.417,67.819,72.446,67.812,72.479,67.8z"/>
	<path style="fill-rule:evenodd;clip-rule:evenodd;fill:#82AB4D;" d="M83.17,54.866c0.539-3.652,1.079-7.305,1.634-11.055
		c5.392-1.735,6.093-2.758,5.298-8.147c-3.416,0.632-5.639,2.483-6.326,6.288c-0.964-2.125-1.878-3.855-2.529-5.679
		c-0.381-1.071-0.576-2.313-0.461-3.438c0.517-5.089-1.088-7.229-6.943-8.78c-1.02,4.392-0.411,7.963,3.854,10.542
		c1.443,0.874,2.261,2.78,3.366,4.214c-2.632-0.701-4.704-1.882-7.141-0.508c1.133,4.719,3.762,6.841,8.515,5.548
		c1.001,4.657-0.196,8.437-2.288,12.041c0.398-4.57-0.609-8.356-5.564-10.167c-1.743,1.898-1.311,4.113-1.173,6.14
		c0.225,3.29,1.428,4.315,5.428,5.242c-1.187,3.526-3.97,5.367-7.257,7.065c2.556-4.862-0.051-7.942-2.875-11.109
		c-2.452,2.667-2.917,3.804-3.193,6.067c-0.384,3.143,1.661,5.091,4.071,7.526c-4.475,1.596-8.324,2.965-12.085,4.304
		c0.75,3.192,3.271,0.983,4.479,2.027c2.426,5.658,4.291,6.528,10.767,4.678c-1.847-2.54-3.572-4.916-5.393-7.419
		c1.662-0.819,3.393-1.668,5.125-2.517c3.185-3.527,6.369-7.054,9.554-10.579c-0.189,1.967,0.853,2.875,2.669,3.228
		c4.263,0.828,7.085-1.32,8.189-6.289C89.545,53.019,86.339,53.726,83.17,54.866z"/>
</g>
<g>
	<path style="fill-rule:evenodd;clip-rule:evenodd;fill:#7DA54A;" d="M24.45,66.655c2.411-2.435,4.457-4.383,4.072-7.526
		c-0.277-2.264-0.74-3.4-3.193-6.067c-2.824,3.167-5.432,6.248-2.875,11.109c-3.287-1.698-6.071-3.539-7.257-7.065
		c4-0.927,5.205-1.953,5.428-5.242c0.138-2.027,0.571-4.242-1.173-6.14c-4.956,1.811-5.963,5.597-5.565,10.167
		c-2.093-3.604-3.289-7.384-2.287-12.041c4.752,1.293,7.381-0.829,8.513-5.548c-2.436-1.374-4.507-0.193-7.139,0.508
		c1.104-1.434,1.922-3.34,3.366-4.214c4.264-2.58,4.875-6.151,3.854-10.542c-5.855,1.551-7.461,3.691-6.944,8.78
		c0.115,1.125-0.079,2.367-0.461,3.438c-0.652,1.824-1.564,3.555-2.529,5.679c-0.687-3.805-2.91-5.656-6.326-6.288
		c-0.795,5.389-0.093,6.412,5.298,8.147c0.555,3.75,1.094,7.402,1.635,11.055c-3.169-1.14-6.375-1.847-9.721-0.778
		c1.104,4.969,3.926,7.117,8.19,6.289c1.815-0.353,2.858-1.26,2.669-3.228c3.185,3.525,6.369,7.052,9.554,10.579
		c1.732,0.849,3.463,1.698,5.125,2.517c-1.821,2.504-3.547,4.88-5.393,7.419c6.476,1.85,8.341,0.98,10.767-4.678
		c1.209-1.044,3.729,1.165,4.48-2.027C32.774,69.621,28.924,68.251,24.45,66.655z"/>
	<path style="fill-rule:evenodd;clip-rule:evenodd;fill:#7DA54A;" d="M10.465,72.112c2.382,1.668,4.805,2.888,7.704,1.455
		c2.312-1.145,4.2-2.729,3.388-5.767C15.863,65.97,14.066,66.633,10.465,72.112z"/>
	<path style="fill-rule:evenodd;clip-rule:evenodd;fill:#7DA54A;" d="M21.557,67.8c0.032,0.012,0.062,0.02,0.094,0.031
		c-0.031-0.034-0.062-0.07-0.094-0.103c-0.006-0.005-0.013-0.008-0.02-0.013C21.546,67.746,21.549,67.771,21.557,67.8z"/>
</g>
<path style="fill-rule:evenodd;clip-rule:evenodd;fill:#DE6723;" d="M24.451,45.817c0.017-0.076,0.04-0.152,0.048-0.232
	c0.15-1.45,0.303-2.897,0.445-4.35c0.016-0.169,0.081-0.254,0.236-0.323c1.219-0.557,2.44-1.108,3.651-1.684
	c1.466-0.696,2.861-1.522,4.233-2.387c0.025-0.016,0.052-0.029,0.104-0.059c1.242,4.278,3.063,8.283,5.487,12.044
	c-0.177,0.061-0.341,0.119-0.507,0.169c-1.89,0.565-3.73,1.262-5.523,2.085c-0.787,0.36-1.577,0.716-2.362,1.082
	c-0.132,0.06-0.222,0.052-0.339-0.03c-1.237-0.878-2.478-1.75-3.72-2.623c-0.028-0.022-0.063-0.035-0.096-0.052
	C25.557,48.245,25.005,47.032,24.451,45.817z"/>
<path style="fill-rule:evenodd;clip-rule:evenodd;fill:#F4B83B;" d="M66.754,28.865c1.226,2.729,2.245,5.621,2.815,8.658
	c0.306,1.625,0.487,3.264,0.332,4.92c-0.073,0.786-0.225,1.553-0.58,2.27c-0.307,0.621-0.759,1.077-1.403,1.358
	c-0.983,0.43-1.956,0.889-2.936,1.328c-0.1,0.044-0.23,0.072-0.336,0.052c-3.543-0.655-7.119-0.893-10.715-0.852
	c-4.008,0.043-7.971,0.476-11.882,1.359c-0.168,0.039-0.262,0.008-0.361-0.138c-1.556-2.277-2.839-4.702-3.911-7.239
	c-0.67-1.584-1.246-3.2-1.704-4.859c-0.068-0.243-0.216-0.511-0.161-0.724c0.051-0.189,0.324-0.33,0.514-0.472
	c2.663-1.998,5.124-4.221,7.398-6.652c2.692-2.878,5.121-5.959,7.152-9.34c0.262-0.436,0.573-0.726,1.04-0.917
	c0.808-0.332,1.602-0.7,2.388-1.083c0.731-0.358,1.465-0.368,2.221-0.121c0.835,0.27,1.565,0.732,2.249,1.272
	c1.502,1.184,2.726,2.623,3.845,4.159C64.301,24.013,65.597,26.346,66.754,28.865z M64.157,29.934
	c-1.096-2.364-2.365-4.626-3.971-6.688c-0.972-1.246-2.029-2.413-3.332-3.325c-0.493-0.348-1.014-0.647-1.611-0.778
	c-0.569-0.124-0.906,0.006-1.145,0.536c-0.191,0.426-0.34,0.889-0.418,1.349c-0.236,1.388-0.111,2.773,0.105,4.153
	c0.362,2.316,1.048,4.539,1.927,6.708c1.13,2.791,2.525,5.437,4.326,7.858c0.978,1.319,2.051,2.548,3.366,3.545
	c0.557,0.422,1.144,0.796,1.833,0.966c0.633,0.158,0.957,0.005,1.252-0.572c0.268-0.524,0.377-1.092,0.438-1.667
	c0.154-1.456,0.004-2.896-0.255-4.326C66.181,34.993,65.275,32.43,64.157,29.934z"/>
<path style="fill-rule:evenodd;clip-rule:evenodd;fill:#F4B83B;" d="M38.479,50.844c0.455-0.112,0.877-0.215,1.298-0.319
	c1.366-0.333,2.733-0.662,4.097-0.997c0.153-0.038,0.27-0.026,0.405,0.077c2.967,2.26,5.936,4.516,8.908,6.769
	c0.264,0.202,0.498,0.424,0.583,0.759c0.124,0.482-0.021,0.886-0.359,1.238c-1.074,1.121-2.146,2.246-3.219,3.369
	c-0.208,0.219-0.415,0.441-0.629,0.655c-0.58,0.589-1.352,0.562-1.871-0.081c-2.14-2.654-4.272-5.313-6.408-7.971
	c-0.885-1.1-1.769-2.203-2.653-3.304C38.59,50.988,38.549,50.934,38.479,50.844z"/>
<path style="fill-rule:evenodd;clip-rule:evenodd;fill:#E8E6D6;" d="M58.777,32.39c-0.539-1.206-0.972-2.435-1.06-3.751
	c-0.03-0.45,0.011-0.915,0.098-1.358c0.084-0.435,0.316-0.521,0.725-0.345c0.579,0.25,1.011,0.692,1.407,1.163
	c1.052,1.241,1.786,2.66,2.322,4.19c0.322,0.918,0.567,1.856,0.582,2.835c0.004,0.35-0.042,0.709-0.127,1.049
	c-0.098,0.396-0.307,0.476-0.687,0.326c-0.452-0.18-0.802-0.5-1.132-0.842C59.982,34.704,59.326,33.575,58.777,32.39z"/>
</svg>
