<?xml version="1.0" encoding="iso-8859-1"?>
<!-- Generator: Adobe Illustrator 16.0.0, SVG Export Plug-In . SVG Version: 6.00 Build 0)  -->
<!DOCTYPE svg PUBLIC "-//W3C//DTD SVG 1.1//EN" "http://www.w3.org/Graphics/SVG/1.1/DTD/svg11.dtd">
<svg version="1.1" id="&#x421;&#x43B;&#x43E;&#x439;_1"
	 xmlns="http://www.w3.org/2000/svg" xmlns:xlink="http://www.w3.org/1999/xlink" x="0px" y="0px" width="93.543px"
	 height="93.543px" viewBox="0 0 93.543 93.543" style="enable-background:new 0 0 93.543 93.543;" xml:space="preserve">
<g>
	<path style="fill-rule:evenodd;clip-rule:evenodd;fill:#D46121;" d="M54.859,37.734c1.999,0.248,3.997,0.477,5.993,0.742
		c6.523,0.872,12.753,2.742,18.678,5.6c3.206,1.545,4.362,5.232,2.687,8.384c-0.805,1.507-1.883,2.768-3.361,3.643
		c-0.729,0.43-1.02,1.041-1.146,1.875c-0.235,1.566-0.491,3.149-0.951,4.661c-0.571,1.88-1.911,3.174-3.762,3.85
		c-1.247,0.456-1.974,1.255-2.199,2.568c-0.533,3.101-2.355,5.258-5.122,6.582c-1.517,0.725-2.597,1.721-3.305,3.256
		c-0.616,1.342-1.594,2.443-2.884,3.225c-1.457,0.884-3.011,1.134-4.671,0.744c-6.252-1.462-12.205-3.797-18.083-6.32
		c-4.39-1.882-8.726-3.887-13.094-5.816c-0.458-0.202-0.615-0.444-0.613-0.945c0.014-9.752,0.017-19.507-0.005-29.261
		c-0.001-0.57,0.219-0.761,0.7-0.943c5.179-1.941,10.042-4.454,14.31-8.025c5.096-4.263,8.736-9.596,11.463-15.597
		c0.757-1.664,1.41-3.378,2.097-5.075c0.382-0.948,0.648-1.114,1.623-0.941c4.246,0.762,6.519,3.367,6.649,7.673
		c0.111,3.688-0.759,7.225-1.84,10.704C57.048,31.455,55.935,34.552,54.859,37.734z"/>
	<path style="fill-rule:evenodd;clip-rule:evenodd;fill:#D46121;" d="M19.314,69.78c-2.257,0-4.457,0.008-6.657-0.02
		c-0.155-0.001-0.407-0.244-0.448-0.415c-1.294-5.335-2.147-10.724-1.861-16.242c0.209-3.99,0.895-7.908,1.806-11.791
		c0.081-0.345,0.095-0.667,0.599-0.662c2.099,0.02,4.198,0.013,6.296,0.019c0.074,0,0.147,0.043,0.266,0.08
		C19.314,50.381,19.314,60.013,19.314,69.78z"/>
</g>
<g>
	<path style="fill:#EFEEDD;" d="M41.016,52.455c0,1.805-0.615,3.221-1.842,4.249c-1.229,1.027-2.91,1.541-5.044,1.541h-0.924
		l-1.073,5.21h-4.201L31.25,47.75h4.008c1.854,0,3.277,0.406,4.27,1.219C40.52,49.781,41.016,50.944,41.016,52.455z M33.957,54.807
		h0.677c0.652,0,1.179-0.208,1.579-0.628c0.402-0.418,0.603-0.951,0.603-1.594c0-0.423-0.129-0.763-0.387-1.021
		c-0.258-0.258-0.613-0.387-1.064-0.387h-0.633L33.957,54.807z"/>
	<path style="fill:#EFEEDD;" d="M47.053,57.74l-1.214,5.715h-4.2l3.32-15.705h4.157c1.805,0,3.187,0.357,4.147,1.073
		c0.959,0.716,1.438,1.794,1.438,3.234c0,1.116-0.253,2.091-0.762,2.922c-0.507,0.831-1.264,1.465-2.267,1.901l2.406,5.543
		l0.43,1.032h-4.577l-2.095-5.715H47.053z M47.731,54.549h0.547c0.679,0,1.221-0.195,1.623-0.584c0.399-0.39,0.6-0.937,0.6-1.639
		c0-0.443-0.124-0.782-0.371-1.015c-0.247-0.232-0.606-0.35-1.081-0.35h-0.568L47.731,54.549z"/>
	<path style="fill:#EFEEDD;" d="M65.219,47.502c1.864,0,3.31,0.532,4.346,1.595c1.035,1.064,1.552,2.549,1.552,4.454
		c0,1.904-0.356,3.647-1.07,5.226c-0.711,1.58-1.694,2.79-2.949,3.63c-1.251,0.843-2.705,1.263-4.359,1.263
		c-1.927,0-3.416-0.533-4.466-1.6c-1.049-1.068-1.573-2.55-1.573-4.448c0-1.898,0.369-3.643,1.107-5.232
		c0.737-1.59,1.743-2.802,3.014-3.636C62.09,47.921,63.559,47.502,65.219,47.502z M66.873,53.595c0-0.818-0.172-1.457-0.515-1.919
		c-0.344-0.462-0.841-0.692-1.494-0.692c-0.708,0-1.361,0.299-1.954,0.902c-0.597,0.602-1.071,1.428-1.424,2.482
		c-0.355,1.053-0.533,2.131-0.533,3.234c0,1.732,0.716,2.599,2.148,2.599c0.681,0,1.313-0.296,1.897-0.892
		c0.583-0.594,1.042-1.396,1.374-2.406C66.708,55.893,66.873,54.79,66.873,53.595z"/>
</g>
</svg>
