<?xml version="1.0" encoding="iso-8859-1"?>
<!-- Generator: Adobe Illustrator 16.0.0, SVG Export Plug-In . SVG Version: 6.00 Build 0)  -->
<!DOCTYPE svg PUBLIC "-//W3C//DTD SVG 1.1//EN" "http://www.w3.org/Graphics/SVG/1.1/DTD/svg11.dtd">
<svg version="1.1" id="&#x421;&#x43B;&#x43E;&#x439;_1"
	 xmlns="http://www.w3.org/2000/svg" xmlns:xlink="http://www.w3.org/1999/xlink" x="0px" y="0px" width="93.543px"
	 height="93.543px" viewBox="0 0 93.543 93.543" style="enable-background:new 0 0 93.543 93.543;" xml:space="preserve">
<g>
	<path style="fill-rule:evenodd;clip-rule:evenodd;fill:#DE6723;" d="M34.483,16.862c2.545-0.175,4.812,1.373,5.807,3.996
		c0.263,0.692,0.455,1.421,0.591,2.148c0.134,0.708,0.154,1.436,0.235,2.259c0.234-0.176,0.446-0.307,0.624-0.475
		c1.958-1.845,2.9-4.175,3.184-6.799c0.399-3.671-0.54-7.113-1.853-10.484c-0.072-0.185-0.143-0.37-0.278-0.725
		c0.729,0.114,1.36,0.151,1.958,0.315c2.276,0.626,4.035,2.061,5.62,3.73c2.833,2.982,4.925,6.471,6.756,10.12
		c0.884,1.762,1.647,3.583,2.467,5.378c0.065,0.141,0.136,0.279,0.285,0.585c0.148-2.854,1.546-4.453,4.284-4.963
		c-1.057,0.811-0.963,1.892-0.665,2.85c0.597,1.915,1.203,3.86,2.108,5.637c1.349,2.651,1.922,5.43,1.885,8.34
		c-0.029,2.352-0.266,4.703-0.408,7.055c-0.008,0.136-0.001,0.274-0.001,0.555c1.835-2.1,2.596-4.454,2.553-7.106
		c0.057-0.01,0.114-0.021,0.169-0.031c0.223,0.671,0.511,1.328,0.658,2.015c1.238,5.849,0.606,11.43-2.563,16.588
		c-1.988,3.236-4.881,5.434-8.354,6.886c-2.871,1.2-5.887,1.772-9.005,1.93c7.383-2.293,12.032-7.411,15.029-14.383
		c-2.087,0.403-4.069,0.785-6.16,1.188c0.093-0.197,0.111-0.277,0.158-0.33c2.006-2.223,3.003-4.892,3.363-7.812
		c0.452-3.673,0-7.277-1.004-10.821c-0.037-0.127-0.094-0.25-0.181-0.48c-1.302,2.074-3.118,3.436-5.219,4.701
		c0.364-2.991-0.2-5.735-1.269-8.391c-1.06-2.633-2.516-5.03-4.4-7.37c0.208,1.12-0.186,1.931-0.809,2.555
		c-1.292,1.295-2.575,2.632-4.034,3.719c-3.005,2.238-6.106,4.349-9.201,6.463c-2.301,1.571-4.42,3.315-5.999,5.64
		c-3.651,5.377-3.252,12.45,1.015,17.652c2.636,3.212,5.993,5.471,9.718,7.228c0.177,0.083,0.353,0.169,0.505,0.375
		c-1.142-0.136-2.291-0.24-3.428-0.414c-3.558-0.545-7.024-1.431-10.269-3.034c-3.412-1.688-6.323-3.965-8.193-7.354
		c-0.596-1.08-0.99-2.271-1.475-3.412c0.048-0.018,0.095-0.036,0.143-0.053c0.646,0.541,1.257,1.133,1.948,1.611
		c0.72,0.498,1.545,0.771,2.509,0.64c-0.066-0.147-0.102-0.276-0.173-0.381c-1.945-2.877-2.63-6.093-2.352-9.495
		c0.447-5.444,2.686-10.075,6.672-13.82c0.862-0.81,1.856-1.482,2.818-2.179c1.603-1.162,3.01-2.494,3.936-4.274
		c1.17-2.252,1.292-4.576,0.463-6.962c-0.06-0.171-0.125-0.341-0.185-0.511C34.462,16.947,34.473,16.925,34.483,16.862z"/>
	<path style="fill-rule:evenodd;clip-rule:evenodd;fill:#DE6723;" d="M41.426,50.461c-0.065,0.697-0.168,1.228-0.152,1.755
		c0.031,0.951,0.592,1.545,1.448,1.894c0.813,0.33,1.465,0.03,2.014-0.547c1.12-1.179,1.564-2.653,1.759-4.218
		c0.25-2.009-0.115-3.925-0.981-5.745c0.062-0.028,0.102-0.061,0.118-0.051c3.083,1.8,5.836,3.964,7.656,7.117
		c1.215,2.107,1.516,4.376,0.857,6.709c-0.898,3.183-3.185,4.891-6.316,5.542c-1.659,0.344-3.332,0.25-4.951-0.299
		c-2.287-0.777-3.563-2.428-3.931-4.766c-0.338-2.144,0.03-4.179,1.262-6.001C40.529,51.376,40.963,50.983,41.426,50.461z"/>
</g>
<g>
	<path style="fill-rule:evenodd;clip-rule:evenodd;fill:#82AC4E;" d="M93.857,68.773c-4.825,0.425-9.079,0.803-13.533,1.196
		c-0.501-4.767-0.973-9.242-1.481-14.057c-2.789,0.365-9.611,0.408-10.051,1.11c-0.011,1.274,0.703,1.844,8.028,1.74
		c0.455,4.921,0.926,10.008,1.44,15.56c-2.299,0.36-3.758,0.373-6.042,0.358c-9.468-0.063-13.228-1.071-25.479-2.108
		c-10.474-0.886-19.526-0.396-21.087-0.27c-3.18,0.252-6.366,0.433-10.045,0.678c-0.488-5.017-0.979-10.079-1.516-15.616
		c2.644-0.354,5.041-0.921,7.438-0.929c1.709-0.005,28.548,1.158,46.475,2.231c1.935,0.116-2.457-2.032-0.264-2.788
		c-0.032-0.735,14.86-2.022,20.193-2.506c1.099-0.1,2.212-0.015,3.88-0.015c-2.295,2.619-4.295,4.903-6.486,7.401
		C88.079,63.344,90.743,65.847,93.857,68.773z"/>
	<path style="fill-rule:evenodd;clip-rule:evenodd;fill:#82AC4E;" d="M13.453,75.912c3.122-0.39,5.861-0.757,8.607-1.067
		c1.123-0.128,2.261-0.196,3.392-0.186c1.191,0.013,1.264,0.801,0.917,2.12c-8.02,0.749-16.176,1.506-24.873,2.317
		c2.434-2.783,4.563-5.215,6.94-7.932C5.742,68.647,3.087,66.169,0,63.284c4.37-0.371,8.113-0.688,12.156-1.03
		C12.588,66.797,13,71.148,13.453,75.912z"/>
</g>
<g>
	<path style="fill:#235870;" d="M41.585,69.553h-2.391v-3.589h-2.764v3.589h-2.391V60.75h2.391v3.264h2.764V60.75h2.391V69.553z"/>
	<path style="fill:#235870;" d="M51.725,65.139c0,1.481-0.363,2.607-1.09,3.378s-1.791,1.156-3.191,1.156
		c-1.381,0-2.439-0.388-3.176-1.162c-0.736-0.775-1.105-1.903-1.105-3.384c0-1.465,0.367-2.584,1.099-3.357
		c0.732-0.772,1.797-1.159,3.194-1.159c1.401,0,2.463,0.383,3.185,1.15C51.364,62.528,51.725,63.654,51.725,65.139z M45.667,65.139
		c0,1.702,0.592,2.553,1.776,2.553c0.602,0,1.049-0.207,1.34-0.621c0.291-0.413,0.437-1.058,0.437-1.933
		c0-0.879-0.147-1.528-0.442-1.948c-0.295-0.419-0.736-0.629-1.322-0.629C46.264,62.562,45.667,63.421,45.667,65.139z"/>
	<path style="fill:#235870;" d="M57.199,69.553H54.82v-6.858h-2.149V60.75h6.671v1.945h-2.144V69.553z"/>
</g>
</svg>
