<?xml version="1.0" encoding="iso-8859-1"?>
<!-- Generator: Adobe Illustrator 16.0.0, SVG Export Plug-In . SVG Version: 6.00 Build 0)  -->
<!DOCTYPE svg PUBLIC "-//W3C//DTD SVG 1.1//EN" "http://www.w3.org/Graphics/SVG/1.1/DTD/svg11.dtd">
<svg version="1.1" id="&#x421;&#x43B;&#x43E;&#x439;_1"
	 xmlns="http://www.w3.org/2000/svg" xmlns:xlink="http://www.w3.org/1999/xlink" x="0px" y="0px" width="93.543px"
	 height="93.543px" viewBox="0 0 93.543 93.543" style="enable-background:new 0 0 93.543 93.543;" xml:space="preserve">
<g>
	<path style="fill-rule:evenodd;clip-rule:evenodd;fill:#E1AA36;" d="M47.584,16.118c0,2.169,0.103,4.346-0.061,6.503
		c-0.052,0.666-0.83,1.279-1.275,1.917c-0.595-0.612-1.688-1.211-1.707-1.841c-0.132-4.551-0.115-9.11,0.045-13.66
		c0.025-0.671,1.059-1.306,1.625-1.958c0.466,0.736,1.274,1.443,1.335,2.21c0.18,2.264,0.064,4.551,0.064,6.829
		C47.601,16.118,47.593,16.118,47.584,16.118z"/>
	<path style="fill-rule:evenodd;clip-rule:evenodd;fill:#E1AA36;" d="M30.568,10.759c0.527,0.643,1.157,1.226,1.564,1.936
		c2.058,3.584,4.128,7.167,6.014,10.841c0.376,0.732-0.034,1.867-0.081,2.816c-0.853-0.412-2.082-0.596-2.493-1.273
		c-2.255-3.72-4.385-7.519-6.363-11.391c-0.369-0.724,0.146-1.901,0.253-2.867C29.831,10.8,30.199,10.78,30.568,10.759z"/>
	<path style="fill-rule:evenodd;clip-rule:evenodd;fill:#E1AA36;" d="M63.963,12.373c-0.263,0.563-0.419,0.965-0.628,1.339
		c-2.111,3.802-4.162,7.641-6.411,11.36c-0.415,0.685-1.642,0.877-2.494,1.297c-0.05-0.952-0.466-2.093-0.088-2.825
		c1.941-3.765,4.031-7.46,6.211-11.095c0.405-0.674,1.416-1.088,2.235-1.347C63.021,11.028,63.561,11.92,63.963,12.373z"/>
	<path style="fill:none;" d="M28.225,45.07c-4.911,1.146-9.771,2.67-14.746,3.33c-4.852,0.645-7.431,3.414-9.442,7.653
		c4.01,3.291,7.997,6.564,12.131,9.957c1.942-2.568,3.624-4.794,5.323-7.041c-1.313-1.667-2.379-3.184-3.614-4.55
		c-1.972-2.182-1.505-3.497,1.173-4.517c3.193-1.218,6.305-2.651,9.452-3.992C28.411,45.63,28.318,45.35,28.225,45.07z"/>
	<path style="fill:none;" d="M64.692,49.21c-3.392-2.042-4.413-5.422-2.392-8.766c-8.574-11.063-25.116-10.875-32.151,0.111
		c0.86,0.844,2.435,1.843,2.29,2.343c-0.592,2.039-1.199,4.697-2.735,5.717c-3.99,2.645-4.563,2.682-3.35,7.326
		c1.677,6.427,3.686,12.771,5.757,19.084c0.346,1.055,1.598,2.042,2.67,2.588c7.38,3.757,14.913,3.94,22.299,0.155
		c1.522-0.781,2.939-2.527,3.566-4.153c1.644-4.261,2.944-8.668,4.144-13.083c0.765-2.814,1.266-5.728,1.534-8.63
		C66.404,51.042,65.513,49.705,64.692,49.21z"/>
	<path style="fill:none;" d="M84.682,49.783c-6.24-2.059-12.776-3.22-19.195-4.731c-0.05,0.309-0.1,0.618-0.149,0.927
		c3.073,1.306,6.153,2.594,9.215,3.924c3.194,1.386,3.296,1.852,1.107,4.681c-1.119,1.446-2.257,2.875-3.477,4.426
		c1.815,2.367,3.503,4.568,5.359,6.989c4.254-3.492,8.237-6.759,12.537-10.286C88.108,53.45,86.772,50.474,84.682,49.783z"/>
	<path style="fill:none;" d="M69.797,51.398c-0.208,1.988-0.383,3.653-0.665,6.329c1.649-2.074,2.703-3.4,3.945-4.963
		C71.905,52.277,70.963,51.884,69.797,51.398z"/>
	<path style="fill:#98CDD3;" d="M84.81,46.384c-4.767-1.142-9.522-2.342-14.318-3.346c-2.155-0.452-3.575-1.382-4.836-3.31
		c-8.598-13.146-27.659-14.472-37.154-2.094c-3.202,4.174-6.68,6.023-11.362,6.815c-0.965,0.164-1.902,0.601-2.865,0.645
		c-6.173,0.279-10.068,3.725-13.03,8.829c-1.073,1.85-1.236,2.968,0.513,4.407c4.209,3.462,8.349,7.015,12.393,10.667
		c1.905,1.721,3.087,1.336,4.422-0.625c1.693-2.484,3.59-4.829,5.684-7.613c1.727,5.474,3.13,10.39,4.876,15.184
		c0.537,1.473,1.75,3.082,3.098,3.813c9.31,5.064,18.754,5.201,28.021-0.108c1.332-0.763,2.502-2.383,3.029-3.862
		c1.854-5.207,3.396-10.525,5.239-16.381c2.712,3.539,5.03,6.427,7.181,9.434c1.084,1.517,2.035,1.698,3.442,0.498
		c4.396-3.749,8.859-7.422,13.227-11.205c0.57-0.494,1.056-1.468,1.026-2.199C93.308,53.743,87.043,46.918,84.81,46.384z
		 M19.051,49.901c-2.678,1.02-3.145,2.335-1.173,4.517c1.234,1.366,2.3,2.883,3.614,4.55c-1.7,2.247-3.381,4.473-5.323,7.041
		c-4.134-3.393-8.121-6.666-12.131-9.957c2.011-4.239,4.59-7.008,9.442-7.653c4.975-0.66,9.835-2.184,14.746-3.33
		c0.093,0.28,0.187,0.56,0.278,0.84C25.355,47.25,22.244,48.683,19.051,49.901z M23.736,57.728c-1.649-2.074-2.704-3.4-3.946-4.963
		c1.172-0.488,2.114-0.88,3.28-1.366C23.279,53.386,23.454,55.052,23.736,57.728z M64.79,60.534c-1.2,4.415-2.5,8.822-4.144,13.083
		c-0.627,1.625-2.044,3.372-3.566,4.153c-7.386,3.786-14.918,3.603-22.299-0.155c-1.072-0.547-2.324-1.534-2.67-2.588
		c-2.072-6.313-4.08-12.658-5.757-19.084c-1.213-4.645-0.64-4.682,3.35-7.326c1.536-1.02,2.143-3.678,2.735-5.717
		c0.145-0.5-1.429-1.499-2.29-2.343c7.036-10.986,23.578-11.174,32.151-0.111c-2.021,3.344-1,6.723,2.392,8.766
		c0.821,0.495,1.712,1.831,1.631,2.694C66.055,54.806,65.554,57.72,64.79,60.534z M77.542,66c-1.856-2.421-3.544-4.623-5.359-6.989
		c1.22-1.551,2.358-2.98,3.477-4.426c2.189-2.829,2.087-3.294-1.107-4.681c-3.063-1.33-6.143-2.618-9.215-3.924
		c0.05-0.309,0.1-0.618,0.149-0.927c6.419,1.511,12.955,2.672,19.195,4.731c2.09,0.69,3.427,3.667,5.396,5.93
		C85.778,59.241,81.795,62.508,77.542,66z M69.132,57.728c0.282-2.676,0.457-4.341,0.665-6.329c1.167,0.486,2.108,0.878,3.28,1.366
		C71.835,54.327,70.781,55.653,69.132,57.728z"/>
	<path style="fill-rule:evenodd;clip-rule:evenodd;fill:#98CDD3;" d="M45.587,70.301c0-3.532,0-7.066,0-11.17
		C48.906,61.154,49.653,66.868,45.587,70.301z"/>
	<path style="fill-rule:evenodd;clip-rule:evenodd;fill:#98CDD3;" d="M49.653,57.285c4.019-0.878,7.349-1.604,10.86-2.371
		c0.439,2.23-2.551,3.724-4.015,4.303C54.038,60.19,51.539,60.071,49.653,57.285z"/>
	<path style="fill-rule:evenodd;clip-rule:evenodd;fill:#98CDD3;" d="M42.219,57.293c-1.375,2.687-4.551,3.212-6.806,2.477
		c-1.821-0.593-3.968-2.381-4.209-4.947C34.776,55.624,38.167,56.384,42.219,57.293z"/>
</g>
</svg>
