<?xml version="1.0" encoding="iso-8859-1"?>
<!-- Generator: Adobe Illustrator 16.0.0, SVG Export Plug-In . SVG Version: 6.00 Build 0)  -->
<!DOCTYPE svg PUBLIC "-//W3C//DTD SVG 1.1//EN" "http://www.w3.org/Graphics/SVG/1.1/DTD/svg11.dtd">
<svg version="1.1" id="&#x421;&#x43B;&#x43E;&#x439;_1"
	 xmlns="http://www.w3.org/2000/svg" xmlns:xlink="http://www.w3.org/1999/xlink" x="0px" y="0px" width="93.543px"
	 height="93.543px" viewBox="0 0 93.543 93.543" style="enable-background:new 0 0 93.543 93.543;" xml:space="preserve">
<g>
	<path style="fill-rule:evenodd;clip-rule:evenodd;fill:#98CDD3;" d="M9.661,92.104c0.05-1.057,0.091-2.114,0.153-3.171
		c0.078-1.334,0.706-2.354,1.767-3.155c1.756-1.325,3.744-2.184,5.785-2.938c3.573-1.319,7.255-2.233,11.004-2.872
		c1.473-0.25,2.723-0.896,3.819-1.869c1.865-1.655,3.147-3.721,4.121-5.989c0.08-0.187-0.03-0.605-0.191-0.723
		c-3.96-2.887-6.284-6.974-8.344-11.267c-0.228-0.475-0.563-0.911-0.904-1.318c-1.744-2.075-2.613-4.431-2.233-7.148
		c0.208-1.491,0.703-1.93,2.198-2.221c-0.151-1.444-0.328-2.893-0.448-4.346c-0.218-2.614-0.128-5.213,0.592-7.755
		c1.038-3.669,3.396-6.315,6.713-8.009c6.441-3.29,13.022-3.33,19.492-0.133c5.004,2.472,7.473,6.737,7.6,12.272
		c0.053,2.268-0.248,4.544-0.395,6.817c-0.025,0.377-0.08,0.752-0.121,1.122c1.719,0.475,2.32,1.186,2.333,2.996
		c0.018,2.542-0.769,4.797-2.59,6.642c-0.239,0.242-0.422,0.56-0.567,0.873c-1.209,2.619-2.502,5.205-4.364,7.419
		c-1.195,1.423-2.641,2.635-3.954,3.963c-0.186,0.189-0.417,0.575-0.344,0.744c1.106,2.509,2.526,4.793,4.72,6.529
		c1.366,1.079,2.986,1.343,4.616,1.656c4.246,0.815,8.405,1.929,12.348,3.743c0.737,0.339,1.434,0.767,2.149,1.155
		c1.929,1.048,2.836,2.683,2.813,4.864c-0.007,0.706,0.027,1.412,0.042,2.118C54.87,92.104,32.265,92.104,9.661,92.104z"/>
	<path style="fill-rule:evenodd;clip-rule:evenodd;fill:#579DA8;" d="M85.298,81.671c-3.611-0.007-7.222-0.008-10.833-0.028
		c-0.369-0.002-0.768-0.048-1.1-0.195c-4.389-1.946-8.996-3.153-13.7-4.018c-1.864-0.343-3.004-1.037-4.231-2.778
		c3.502-0.11,5.057-2.434,6.199-5.13c-1.018-0.923-1.958-1.777-2.934-2.666c2.01-2.709,2.908-5.628,4.772-8.094
		c2.046-2.703,2.403-5.997,1.233-9.297c-0.175-0.495-0.477-1.042-0.885-1.336c-0.656-0.472-0.646-0.986-0.552-1.674
		c0.168-1.206,0.228-2.426,0.34-3.727c3.929-0.482,7.47,0.169,10.224,3.277c1.284,1.447,1.773,3.233,1.811,5.112
		c0.033,1.621-0.108,3.245-0.174,4.929c0.965,0.148,1.206,0.915,1.22,1.819c0.023,1.467-0.406,2.776-1.396,3.884
		c-0.159,0.179-0.305,0.385-0.401,0.603c-1.207,2.697-2.634,5.235-5.094,7.062c0.6,1.513,1.326,2.937,2.599,3.904
		c0.744,0.563,1.711,0.879,2.622,1.169c2.242,0.713,4.515,1.327,6.762,2.028c0.561,0.175,1.072,0.516,1.595,0.803
		c1.024,0.561,1.725,1.374,1.923,2.56C85.298,80.476,85.298,81.074,85.298,81.671z"/>
	<path style="fill-rule:evenodd;clip-rule:evenodd;fill:#579DA8;" d="M1.836,79.715c0.334-1.437,1.408-2.177,2.621-2.784
		c2.397-1.202,4.946-1.958,7.573-2.396c1.615-0.269,2.852-1.023,3.755-2.327c0.596-0.861,1.082-1.798,1.634-2.73
		c-2.54-1.888-3.968-4.424-5.173-7.123c-0.118-0.263-0.325-0.492-0.511-0.722c-1.018-1.241-1.427-2.665-1.245-4.251
		c0.09-0.777,0.365-1.054,1.203-1.373c-0.08-1.418-0.226-2.824-0.227-4.229c-0.004-4.933,3.029-8.414,7.928-9.028
		c1.326-0.166,2.691-0.025,4.09-0.025c0.158,1.546,0.32,3.049,0.453,4.554c0.013,0.146-0.114,0.353-0.239,0.454
		c-1.189,0.957-1.672,2.286-1.79,3.714c-0.255,3.11,0.365,5.99,2.527,8.398c0.374,0.417,0.671,0.918,0.931,1.417
		c0.929,1.777,1.826,3.569,2.923,5.725c-0.815,0.719-1.766,1.56-2.802,2.476c0.471,1.296,1.223,2.488,2.195,3.561
		c1.042,1.15,2.448,1.434,4.043,1.642c-1.031,1.239-1.987,2.334-3.531,2.617c-4.41,0.806-8.773,1.806-12.912,3.558
		c-1.415,0.599-2.801,0.856-4.321,0.828c-3.041-0.058-6.083-0.006-9.125,0.001C1.836,81.019,1.836,80.367,1.836,79.715z"/>
	<path style="fill-rule:evenodd;clip-rule:evenodd;fill:#DE6723;" d="M93.543,17.412c-0.118,0.493-0.241,0.986-0.352,1.48
		c-0.609,2.675-2.063,4.81-4.35,6.269c-2.121,1.355-4.342,2.556-6.563,3.747c-3.955,2.118-7.447,4.723-9.553,8.817
		c-0.653,1.273-1.164,2.622-1.813,4.104c-0.153-0.387-0.269-0.638-0.354-0.899c-1.5-4.585-4.362-8.102-8.479-10.566
		c-2.235-1.337-4.574-2.499-6.847-3.777c-3.021-1.698-5.61-3.797-6.438-7.406C47.5,13.533,48.899,5.13,57.662,1.941
		c3.884-1.414,7.546-0.718,10.708,1.895c1.101,0.909,1.824,2.275,2.593,3.27c0.737-0.963,1.474-2.356,2.591-3.294
		c2.904-2.439,6.346-3.223,9.982-2.086c5.452,1.707,8.755,5.435,9.734,11.13c0.056,0.326,0.181,0.643,0.273,0.963
		C93.543,15.015,93.543,16.213,93.543,17.412z"/>
</g>
</svg>
